<svg xmlns="http://www.w3.org/2000/svg" xmlns:xlink="http://www.w3.org/1999/xlink" width="555" height="400" viewBox="0 0 555 400">
  <defs>
    <clipPath id="clip-path">
      <rect id="Rectángulo_304829" data-name="Rectángulo 304829" width="242.097" height="198.304" fill="none"/>
    </clipPath>
    <clipPath id="clip-path-2">
      <rect id="Rectángulo_304841" data-name="Rectángulo 304841" width="242.185" height="197.863" fill="#0f2771"/>
    </clipPath>
  </defs>
  <g id="Grupo_225038" data-name="Grupo 225038" transform="translate(3839 9198)">
    <path id="Trazado_231340" data-name="Trazado 231340" d="M0,0H510V2H0Z" transform="translate(-3794 -9198)" fill="#4dd0e1" opacity="0.2"/>
    <path id="Trazado_231341" data-name="Trazado 231341" d="M0,0H510V2H0Z" transform="translate(-3794 -8800)" fill="#4dd0e1" opacity="0.2"/>
    <path id="Trazado_231342" data-name="Trazado 231342" d="M0,0H190V400H0Z" transform="translate(-3474 -9198)" fill="#4dd0e1"/>
    <path id="metaverso-nft-ob-01-1" d="M15,0H529a15,15,0,0,1,15,15V367a15,15,0,0,1-15,15H15A15,15,0,0,1,0,367V15A15,15,0,0,1,15,0Z" transform="translate(-3839 -9189)" fill="#fff"/>
    <g id="Grupo_219984" data-name="Grupo 219984" transform="translate(-3817 -9095.711)" clip-path="url(#clip-path)">
      <path id="Trazado_229683" data-name="Trazado 229683" d="M8.6,219.86a1.721,1.721,0,0,1,.088-.706c.088-.265.088-.441.177-.706a2.213,2.213,0,0,1,.353-.618,1.423,1.423,0,0,1,.618-.353,2.612,2.612,0,0,1,.883-.177,2.612,2.612,0,0,1,.883.177,3.84,3.84,0,0,1,.618.353c.177.088.265.353.353.618a1.663,1.663,0,0,1,.177.706,2.194,2.194,0,0,1,.088.706v1.413a1.721,1.721,0,0,1-.088.706c-.088.265-.088.441-.177.706-.088.177-.177.441-.353.53a3.839,3.839,0,0,1-.618.353,2.612,2.612,0,0,1-.883.177,2.612,2.612,0,0,1-.883-.177,3.839,3.839,0,0,1-.618-.353c-.177-.088-.265-.353-.353-.53a1.663,1.663,0,0,1-.177-.706,2.194,2.194,0,0,1-.088-.706V219.86m.795,1.589a3.137,3.137,0,0,0,.177.883,1.213,1.213,0,0,0,.441.706,1.079,1.079,0,0,0,.795.265,1.079,1.079,0,0,0,.795-.265,1.922,1.922,0,0,0,.441-.706c.088-.265.088-.53.177-.883v-1.324a1.724,1.724,0,0,0-.088-.618,1.312,1.312,0,0,1-.088-.53c-.088-.177-.088-.353-.265-.441-.088-.177-.265-.265-.353-.353s-.353-.088-.53-.088-.441,0-.53.088-.265.177-.353.353-.177.265-.265.441a1.12,1.12,0,0,0-.088.53,1.724,1.724,0,0,1-.088.618c-.088.265,0,.353,0,.53-.177.177-.177.441-.177.795" transform="translate(-1.007 -25.441)" fill="#666"/>
      <path id="Trazado_229684" data-name="Trazado 229684" d="M54,219.16a1.721,1.721,0,0,1,.088-.706c.088-.265.088-.441.177-.706a2.213,2.213,0,0,1,.353-.618,1.423,1.423,0,0,1,.618-.353,2.3,2.3,0,0,1,1.766,0,3.839,3.839,0,0,1,.618.353c.177.088.265.353.353.618a1.664,1.664,0,0,1,.177.706,2.194,2.194,0,0,1,.088.706v1.413a1.721,1.721,0,0,1-.088.706c-.088.265-.088.441-.177.706-.088.177-.177.441-.353.53a3.839,3.839,0,0,1-.618.353,2.3,2.3,0,0,1-1.766,0,3.839,3.839,0,0,1-.618-.353c-.177-.088-.265-.353-.353-.53a1.663,1.663,0,0,1-.177-.706,2.194,2.194,0,0,1-.088-.706V219.16Zm.795,1.589a3.137,3.137,0,0,0,.177.883,1.213,1.213,0,0,0,.441.706,1.324,1.324,0,0,0,1.589,0,1.922,1.922,0,0,0,.441-.706c.088-.265.088-.53.177-.883v-1.324a1.724,1.724,0,0,0-.088-.618,1.312,1.312,0,0,1-.088-.53c-.088-.177-.088-.353-.265-.441-.088-.177-.265-.265-.353-.353s-.353-.088-.53-.088-.441,0-.53.088-.265.177-.353.353-.177.265-.265.441a1.12,1.12,0,0,0-.088.53,1.724,1.724,0,0,1-.088.618c-.088.265,0,.353,0,.53-.177.177-.177.441-.177.795" transform="translate(-6.322 -25.359)" fill="#666"/>
      <rect id="Rectángulo_304818" data-name="Rectángulo 304818" width="1.06" height="1.06" transform="translate(53.064 196.715)" fill="#666"/>
      <path id="Trazado_229685" data-name="Trazado 229685" d="M63.253,218.024a1.213,1.213,0,0,1,.441-.706,1.923,1.923,0,0,1,.706-.441,2.613,2.613,0,0,1,.883-.177,2.444,2.444,0,0,1,.795.088,1.423,1.423,0,0,1,.618.353,1.584,1.584,0,0,1,.441.618,1.876,1.876,0,0,1,0,1.589,2.213,2.213,0,0,1-.353.618,2.34,2.34,0,0,1-.53.441c-.177.088-.353.265-.618.441-.177.088-.441.265-.618.353s-.353.265-.53.353c-.177.177-.353.265-.441.441l-.265.53h3.355v.706H62.9a3.174,3.174,0,0,1,.177-.971,1.923,1.923,0,0,1,.441-.706l.53-.53c.177-.177.441-.265.618-.441a8.137,8.137,0,0,1,.706-.441c.177-.177.353-.265.53-.441a1.55,1.55,0,0,0,.353-.441,1.309,1.309,0,0,0,.088-.618.662.662,0,0,0-.088-.441,1.219,1.219,0,0,0-.265-.353,1.929,1.929,0,0,0-.441-.265.96.96,0,0,0-.441-.088,1.276,1.276,0,0,0-.618.177,1.55,1.55,0,0,0-.441.353l-.265.53a1.309,1.309,0,0,0-.088.618H62.9c.177-.53.265-.883.353-1.148" transform="translate(-7.364 -25.371)" fill="#666"/>
      <path id="Trazado_229686" data-name="Trazado 229686" d="M95.8,219.16a1.721,1.721,0,0,1,.088-.706c.088-.265.088-.441.177-.706a2.213,2.213,0,0,1,.353-.618,1.423,1.423,0,0,1,.618-.353,2.3,2.3,0,0,1,1.766,0,3.839,3.839,0,0,1,.618.353c.177.088.265.353.353.618a1.663,1.663,0,0,1,.177.706,2.194,2.194,0,0,1,.088.706v1.413a1.721,1.721,0,0,1-.088.706c-.088.265-.088.441-.177.706-.088.177-.177.441-.353.53a3.839,3.839,0,0,1-.618.353,2.3,2.3,0,0,1-1.766,0,3.839,3.839,0,0,1-.618-.353c-.177-.088-.265-.353-.353-.53a1.663,1.663,0,0,1-.177-.706,2.194,2.194,0,0,1-.088-.706V219.16Zm.883,1.589a3.137,3.137,0,0,0,.177.883,1.213,1.213,0,0,0,.441.706,1.324,1.324,0,0,0,1.589,0,1.923,1.923,0,0,0,.441-.706c.088-.265.088-.53.177-.883v-1.324a1.724,1.724,0,0,0-.088-.618,1.313,1.313,0,0,1-.088-.53c-.088-.177-.088-.353-.265-.441-.088-.177-.265-.265-.353-.353s-.353-.088-.53-.088-.441,0-.53.088-.265.177-.353.353-.177.265-.265.441a1.12,1.12,0,0,0-.088.53,1.724,1.724,0,0,1-.088.618c-.088.265,0,.353,0,.53-.177.177-.177.441-.177.795" transform="translate(-11.216 -25.359)" fill="#666"/>
      <rect id="Rectángulo_304819" data-name="Rectángulo 304819" width="1.06" height="1.06" transform="translate(90.058 196.715)" fill="#666"/>
      <path id="Trazado_229687" data-name="Trazado 229687" d="M108.815,220.926v.706h-.883v1.5h-.706v-1.5H104.4v-.795l2.914-4.238h.618v4.326Zm-1.678-3.179h0l-2.207,3.179h2.207Z" transform="translate(-12.223 -25.359)" fill="#666"/>
      <path id="Trazado_229688" data-name="Trazado 229688" d="M137.4,219.16a1.721,1.721,0,0,1,.088-.706c.088-.265.088-.441.177-.706a2.213,2.213,0,0,1,.353-.618,1.423,1.423,0,0,1,.618-.353,2.3,2.3,0,0,1,1.766,0,3.839,3.839,0,0,1,.618.353c.177.088.265.353.353.618a1.664,1.664,0,0,1,.177.706,2.194,2.194,0,0,1,.088.706v1.413a1.721,1.721,0,0,1-.088.706c-.088.265-.088.441-.177.706-.088.177-.177.441-.353.53a3.839,3.839,0,0,1-.618.353,2.3,2.3,0,0,1-1.766,0,3.838,3.838,0,0,1-.618-.353c-.177-.088-.265-.353-.353-.53a1.663,1.663,0,0,1-.177-.706,2.194,2.194,0,0,1-.088-.706V219.16Zm.883,1.589a3.136,3.136,0,0,0,.177.883,1.213,1.213,0,0,0,.441.706,1.324,1.324,0,0,0,1.589,0,1.922,1.922,0,0,0,.441-.706c.088-.265.088-.53.177-.883v-1.324a1.723,1.723,0,0,0-.088-.618,1.312,1.312,0,0,1-.088-.53c-.088-.177-.088-.353-.265-.441-.088-.177-.265-.265-.353-.353s-.353-.088-.53-.088-.441,0-.53.088-.265.177-.353.353-.177.265-.265.441a1.12,1.12,0,0,0-.088.53,1.724,1.724,0,0,1-.088.618c-.088.265,0,.353,0,.53-.265.177-.265.441-.177.795" transform="translate(-16.087 -25.359)" fill="#666"/>
      <rect id="Rectángulo_304820" data-name="Rectángulo 304820" width="1.06" height="1.06" transform="translate(126.699 196.715)" fill="#666"/>
      <path id="Trazado_229689" data-name="Trazado 229689" d="M149.067,217.583a1.324,1.324,0,0,0-1.589,0,1.584,1.584,0,0,0-.441.618l-.265.795c0,.265-.088.53-.088.795a1.571,1.571,0,0,1,.706-.618,2.275,2.275,0,0,1,1.766,0,2.684,2.684,0,0,1,.618.441,1.774,1.774,0,0,1,.353.706,2.578,2.578,0,0,1,.177.795,1.945,1.945,0,0,1-.088.706,1.775,1.775,0,0,1-.353.706,2.438,2.438,0,0,1-.706.53,2.07,2.07,0,0,1-1.06.177,2.209,2.209,0,0,1-1.148-.265,2.687,2.687,0,0,1-.706-.706,3.163,3.163,0,0,1-.353-.971,4.3,4.3,0,0,1-.088-1.06,6.682,6.682,0,0,1,.088-1.324,4.372,4.372,0,0,1,.353-1.148,2.085,2.085,0,0,1,.706-.795,2.209,2.209,0,0,1,1.148-.265,2.169,2.169,0,0,1,1.324.441,1.482,1.482,0,0,1,.53,1.236h-.795a.546.546,0,0,0-.088-.795m-1.413,2.207a1.55,1.55,0,0,0-.441.353,1.176,1.176,0,0,0-.265.441,1.633,1.633,0,0,0,0,1.059,1.931,1.931,0,0,0,.265.441.751.751,0,0,0,.441.265,1.12,1.12,0,0,0,.53.088c.177,0,.441,0,.53-.088a1.55,1.55,0,0,0,.441-.353c.088-.177.177-.265.265-.441a1.633,1.633,0,0,0,0-1.059c-.088-.177-.088-.353-.265-.441s-.265-.265-.441-.353a1.309,1.309,0,0,0-.618-.088,1.492,1.492,0,0,0-.441.177" transform="translate(-17.07 -25.371)" fill="#666"/>
      <path id="Trazado_229690" data-name="Trazado 229690" d="M179,219.16a1.721,1.721,0,0,1,.088-.706c.088-.265.088-.441.177-.706a2.213,2.213,0,0,1,.353-.618,1.423,1.423,0,0,1,.618-.353,2.3,2.3,0,0,1,1.766,0,3.839,3.839,0,0,1,.618.353c.177.088.265.353.353.618a1.664,1.664,0,0,1,.177.706,2.194,2.194,0,0,1,.088.706v1.413a1.721,1.721,0,0,1-.088.706c-.088.265-.088.441-.177.706-.088.177-.177.441-.353.53a3.839,3.839,0,0,1-.618.353,2.3,2.3,0,0,1-1.766,0,3.84,3.84,0,0,1-.618-.353c-.177-.088-.265-.353-.353-.53a1.663,1.663,0,0,1-.177-.706,2.194,2.194,0,0,1-.088-.706V219.16Zm.795,1.589a3.136,3.136,0,0,0,.177.883,1.213,1.213,0,0,0,.441.706,1.324,1.324,0,0,0,1.589,0,1.922,1.922,0,0,0,.441-.706c.088-.265.088-.53.177-.883v-1.324a1.724,1.724,0,0,0-.088-.618,1.312,1.312,0,0,1-.088-.53c-.088-.177-.088-.353-.265-.441-.088-.177-.265-.265-.353-.353s-.353-.088-.53-.088-.441,0-.53.088-.265.177-.353.353-.177.265-.265.441a1.12,1.12,0,0,0-.088.53,1.724,1.724,0,0,1-.088.618c-.088.265,0,.353,0,.53-.177.177-.177.441-.177.795" transform="translate(-20.957 -25.359)" fill="#666"/>
      <rect id="Rectángulo_304821" data-name="Rectángulo 304821" width="1.06" height="1.06" transform="translate(163.429 196.715)" fill="#666"/>
      <path id="Trazado_229691" data-name="Trazado 229691" d="M187.941,217.571a2.341,2.341,0,0,1,.441-.53,1.423,1.423,0,0,1,.618-.353,1.945,1.945,0,0,1,.706-.088,2.612,2.612,0,0,1,.883.177,1.423,1.423,0,0,1,.618.353,1.847,1.847,0,0,1,.353.53,1.5,1.5,0,0,1,.088.618,1.424,1.424,0,0,1-.265.795,1.187,1.187,0,0,1-.618.53,1.619,1.619,0,0,1,.883.618,1.883,1.883,0,0,1,.265,1.059,2.613,2.613,0,0,1-.177.883,1.584,1.584,0,0,1-.441.618,1.775,1.775,0,0,1-.706.353,4.459,4.459,0,0,1-1.766,0,1.775,1.775,0,0,1-.706-.353,1.584,1.584,0,0,1-.441-.618,2.612,2.612,0,0,1-.177-.883,1.78,1.78,0,0,1,.265-.971,1.353,1.353,0,0,1,.883-.618.933.933,0,0,1-.618-.53,1.424,1.424,0,0,1-.265-.795,5.626,5.626,0,0,1,.177-.795m.883,4.591a1.328,1.328,0,0,0,.971.353,1.12,1.12,0,0,0,.53-.088c.177-.088.265-.177.441-.265s.177-.265.265-.441a1.633,1.633,0,0,0,0-1.06,1.219,1.219,0,0,0-.265-.353,1.931,1.931,0,0,0-.441-.265,1.633,1.633,0,0,0-1.06,0,1.93,1.93,0,0,0-.441.265c-.088.088-.265.265-.265.353a1.12,1.12,0,0,0-.088.53.916.916,0,0,0,.353.971m-.088-3.355c.088.088.177.265.265.353a.669.669,0,0,0,.353.177c.177,0,.265.088.441.088a1.232,1.232,0,0,0,.795-.265,1.079,1.079,0,0,0,.265-.795c0-.353-.088-.618-.265-.706a1.079,1.079,0,0,0-.795-.265.8.8,0,0,0-.441.088.459.459,0,0,0-.353.177,1.219,1.219,0,0,0-.265.353.662.662,0,0,0-.088.441.88.88,0,0,0,.088.353" transform="translate(-21.952 -25.359)" fill="#666"/>
      <path id="Trazado_229692" data-name="Trazado 229692" d="M222.678,223.134v-4.679H221v-.618a1.5,1.5,0,0,0,.618-.088c.177-.088.353-.088.53-.177a.882.882,0,0,0,.441-.353,4.309,4.309,0,0,0,.265-.618h.618v6.445h-.795Z" transform="translate(-25.874 -25.359)" fill="#666"/>
      <rect id="Rectángulo_304822" data-name="Rectángulo 304822" width="1.06" height="1.06" transform="translate(200.158 196.715)" fill="#666"/>
      <path id="Trazado_229693" data-name="Trazado 229693" d="M229.2,219.16a1.721,1.721,0,0,1,.088-.706c.088-.265.088-.441.177-.706a2.214,2.214,0,0,1,.353-.618,1.423,1.423,0,0,1,.618-.353,2.3,2.3,0,0,1,1.766,0,3.84,3.84,0,0,1,.618.353c.177.088.265.353.353.618a1.664,1.664,0,0,1,.177.706,2.194,2.194,0,0,1,.088.706v1.413a1.721,1.721,0,0,1-.088.706c-.088.265-.088.441-.177.706-.088.177-.177.441-.353.53a3.84,3.84,0,0,1-.618.353,2.3,2.3,0,0,1-1.766,0,3.839,3.839,0,0,1-.618-.353c-.177-.088-.265-.353-.353-.53a1.663,1.663,0,0,1-.177-.706,2.194,2.194,0,0,1-.088-.706V219.16Zm.883,1.589a3.137,3.137,0,0,0,.177.883,1.213,1.213,0,0,0,.441.706,1.324,1.324,0,0,0,1.589,0,1.922,1.922,0,0,0,.441-.706c.088-.265.088-.53.177-.883v-1.324a1.724,1.724,0,0,0-.088-.618,1.312,1.312,0,0,1-.088-.53c-.088-.177-.088-.353-.265-.441-.088-.177-.265-.265-.353-.353s-.353-.088-.53-.088-.441,0-.53.088-.265.177-.353.353-.177.265-.265.441a1.12,1.12,0,0,0-.088.53,1.724,1.724,0,0,1-.088.618c-.088.265,0,.353,0,.53-.265.177-.265.441-.177.795" transform="translate(-26.834 -25.359)" fill="#666"/>
      <path id="Trazado_229694" data-name="Trazado 229694" d="M262.478,223.134v-4.679H260.8v-.618a1.5,1.5,0,0,0,.618-.088c.177-.088.353-.088.53-.177a.882.882,0,0,0,.441-.353,4.309,4.309,0,0,0,.265-.618h.618v6.445h-.795Z" transform="translate(-30.534 -25.359)" fill="#666"/>
      <rect id="Rectángulo_304823" data-name="Rectángulo 304823" width="1.06" height="1.06" transform="translate(235.299 196.715)" fill="#666"/>
      <path id="Trazado_229695" data-name="Trazado 229695" d="M269.553,218.024a1.213,1.213,0,0,1,.441-.706,1.922,1.922,0,0,1,.706-.441,2.613,2.613,0,0,1,.883-.177,2.444,2.444,0,0,1,.795.088,1.423,1.423,0,0,1,.618.353,1.583,1.583,0,0,1,.441.618,1.876,1.876,0,0,1,0,1.589,2.213,2.213,0,0,1-.353.618,2.339,2.339,0,0,1-.53.441c-.177.088-.353.265-.618.441-.177.088-.441.265-.618.353s-.353.265-.53.353c-.177.177-.353.265-.441.441l-.265.53h3.355v.706H269.2a3.173,3.173,0,0,1,.177-.971,1.922,1.922,0,0,1,.441-.706l.53-.53c.177-.177.441-.265.618-.441a8.137,8.137,0,0,1,.706-.441c.177-.177.353-.265.53-.441a1.55,1.55,0,0,0,.353-.441,1.309,1.309,0,0,0,.088-.618.661.661,0,0,0-.088-.441,1.219,1.219,0,0,0-.265-.353,1.929,1.929,0,0,0-.441-.265.96.96,0,0,0-.441-.088,1.276,1.276,0,0,0-.618.177,1.55,1.55,0,0,0-.441.353l-.265.53a1.309,1.309,0,0,0-.088.618H269.2a5.116,5.116,0,0,0,.353-1.148" transform="translate(-31.517 -25.371)" fill="#666"/>
      <line id="Línea_595" data-name="Línea 595" x2="221.084" transform="translate(16.776 186.915)" fill="none" stroke="#333" stroke-miterlimit="10" stroke-width="1"/>
      <line id="Línea_596" data-name="Línea 596" y1="4.591" transform="translate(53.858 182.323)" fill="none" stroke="#333" stroke-miterlimit="10" stroke-width="1"/>
      <line id="Línea_597" data-name="Línea 597" y1="4.591" transform="translate(90.588 182.323)" fill="none" stroke="#333" stroke-miterlimit="10" stroke-width="1"/>
      <line id="Línea_598" data-name="Línea 598" y1="4.591" transform="translate(127.317 182.323)" fill="none" stroke="#333" stroke-miterlimit="10" stroke-width="1"/>
      <line id="Línea_599" data-name="Línea 599" y1="4.591" transform="translate(163.959 182.323)" fill="none" stroke="#333" stroke-miterlimit="10" stroke-width="1"/>
      <line id="Línea_600" data-name="Línea 600" y1="4.591" transform="translate(200.688 182.323)" fill="none" stroke="#333" stroke-miterlimit="10" stroke-width="1"/>
      <line id="Línea_601" data-name="Línea 601" y1="4.591" transform="translate(237.418 182.323)" fill="none" stroke="#333" stroke-miterlimit="10" stroke-width="1"/>
      <path id="Trazado_229696" data-name="Trazado 229696" d="M0,168.16a1.721,1.721,0,0,1,.088-.706c.088-.265.088-.441.177-.706a2.213,2.213,0,0,1,.353-.618,1.423,1.423,0,0,1,.618-.353,2.612,2.612,0,0,1,.883-.177,2.612,2.612,0,0,1,.883.177,3.839,3.839,0,0,1,.618.353c.177.088.265.353.353.618a1.663,1.663,0,0,1,.177.706,2.194,2.194,0,0,1,.088.706v1.413a1.721,1.721,0,0,1-.088.706c-.088.265-.088.441-.177.706-.088.177-.177.441-.353.53a3.839,3.839,0,0,1-.618.353,2.612,2.612,0,0,1-.883.177,2.612,2.612,0,0,1-.883-.177,3.839,3.839,0,0,1-.618-.353c-.177-.088-.265-.353-.353-.53a1.663,1.663,0,0,1-.177-.706A2.194,2.194,0,0,1,0,169.573V168.16Zm.795,1.5a3.137,3.137,0,0,0,.177.883,1.213,1.213,0,0,0,.441.706,1.079,1.079,0,0,0,.795.265A1.079,1.079,0,0,0,3,171.251a1.922,1.922,0,0,0,.441-.706c.088-.265.088-.53.177-.883v-1.324a1.724,1.724,0,0,0-.088-.618,1.312,1.312,0,0,1-.088-.53c-.088-.177-.088-.353-.265-.441-.088-.177-.265-.265-.353-.353s-.353-.088-.53-.088-.441,0-.53.088-.265.177-.353.353-.177.265-.265.441a1.12,1.12,0,0,0-.088.53,1.724,1.724,0,0,1-.088.618c-.088.265,0,.353,0,.53a1.312,1.312,0,0,0-.177.795" transform="translate(0 -19.388)" fill="#666"/>
      <rect id="Rectángulo_304824" data-name="Rectángulo 304824" width="1.06" height="1.06" transform="translate(5.386 151.686)" fill="#666"/>
      <path id="Trazado_229697" data-name="Trazado 229697" d="M9.253,166.924a1.213,1.213,0,0,1,.441-.706,1.922,1.922,0,0,1,.706-.441,2.612,2.612,0,0,1,.883-.177,2.444,2.444,0,0,1,.795.088,1.423,1.423,0,0,1,.618.353,1.584,1.584,0,0,1,.441.618,1.876,1.876,0,0,1,0,1.589,2.213,2.213,0,0,1-.353.618,2.341,2.341,0,0,1-.53.441c-.177.088-.353.265-.618.441-.177.088-.441.265-.618.353s-.353.265-.53.353c-.177.177-.353.265-.441.441l-.265.53h3.355v.706H8.9a3.174,3.174,0,0,1,.177-.971,1.923,1.923,0,0,1,.441-.706l.53-.53c.177-.177.441-.265.618-.441a8.141,8.141,0,0,1,.706-.441c.177-.177.353-.265.53-.441a1.55,1.55,0,0,0,.353-.441,1.309,1.309,0,0,0,.088-.618.662.662,0,0,0-.088-.441,1.219,1.219,0,0,0-.265-.353,1.93,1.93,0,0,0-.441-.265.96.96,0,0,0-.441-.088,1.276,1.276,0,0,0-.618.177,1.55,1.55,0,0,0-.441.353l-.265.53a1.309,1.309,0,0,0-.088.618H8.9c.177-.53.265-.883.353-1.148" transform="translate(-1.042 -19.388)" fill="#666"/>
      <path id="Trazado_229698" data-name="Trazado 229698" d="M.5,126.56a1.721,1.721,0,0,1,.088-.706c.088-.265.088-.441.177-.706a2.213,2.213,0,0,1,.353-.618,1.423,1.423,0,0,1,.618-.353A2.612,2.612,0,0,1,2.619,124a2.612,2.612,0,0,1,.883.177,3.84,3.84,0,0,1,.618.353c.177.088.265.353.353.618a1.663,1.663,0,0,1,.177.706,2.194,2.194,0,0,1,.088.706v1.413a1.721,1.721,0,0,1-.088.706c-.088.265-.088.441-.177.706-.088.177-.177.441-.353.53a3.84,3.84,0,0,1-.618.353,2.612,2.612,0,0,1-.883.177,2.612,2.612,0,0,1-.883-.177,3.84,3.84,0,0,1-.618-.353c-.177-.088-.265-.353-.353-.53a1.663,1.663,0,0,1-.177-.706,2.194,2.194,0,0,1-.088-.706V126.56Zm.795,1.5a3.137,3.137,0,0,0,.177.883,1.213,1.213,0,0,0,.441.706,1.079,1.079,0,0,0,.795.265,1.079,1.079,0,0,0,.795-.265,1.923,1.923,0,0,0,.441-.706c.088-.265.088-.53.177-.883v-1.324a1.724,1.724,0,0,0-.088-.618,1.312,1.312,0,0,1-.088-.53c-.088-.177-.088-.353-.265-.441-.088-.177-.265-.265-.353-.353s-.353-.088-.53-.088-.441,0-.53.088-.265.177-.353.353-.177.265-.265.441a1.12,1.12,0,0,0-.088.53,1.724,1.724,0,0,1-.088.618c-.088.265,0,.353,0,.53a1.312,1.312,0,0,0-.177.795" transform="translate(-0.059 -14.518)" fill="#666"/>
      <rect id="Rectángulo_304825" data-name="Rectángulo 304825" width="1.06" height="1.06" transform="translate(5.827 114.957)" fill="#666"/>
      <path id="Trazado_229699" data-name="Trazado 229699" d="M13.415,128.226v.706h-.883v1.5h-.706v-1.5H9v-.795l2.914-4.238h.618v4.326Zm-1.589-3.179h0l-2.207,3.179h2.207Z" transform="translate(-1.054 -14.506)" fill="#666"/>
      <path id="Trazado_229700" data-name="Trazado 229700" d="M.5,85.849a2.444,2.444,0,0,1,.088-.795c.088-.265.088-.441.177-.706a2.213,2.213,0,0,1,.353-.618,1.423,1.423,0,0,1,.618-.353,2.612,2.612,0,0,1,.883-.177,2.612,2.612,0,0,1,.883.177,3.838,3.838,0,0,1,.618.353c.177.088.265.353.353.618a1.663,1.663,0,0,1,.177.706,2.444,2.444,0,0,1,.088.795v1.413a2.444,2.444,0,0,1-.088.795c-.088.265-.088.441-.177.706-.088.177-.177.441-.353.53a3.838,3.838,0,0,1-.618.353,2.612,2.612,0,0,1-.883.177,2.612,2.612,0,0,1-.883-.177,3.838,3.838,0,0,1-.618-.353c-.177-.088-.265-.353-.353-.53a1.663,1.663,0,0,1-.177-.706A2.444,2.444,0,0,1,.5,87.261V85.849Zm.795,1.5a3.137,3.137,0,0,0,.177.883,1.213,1.213,0,0,0,.441.706,1.079,1.079,0,0,0,.795.265,1.079,1.079,0,0,0,.795-.265,1.922,1.922,0,0,0,.441-.706c.088-.265.088-.53.177-.883V86.025a1.724,1.724,0,0,0-.088-.618,1.312,1.312,0,0,1-.088-.53c-.088-.177-.088-.353-.265-.441-.088-.177-.265-.265-.353-.353s-.353-.088-.53-.088-.441,0-.53.088-.265.177-.353.353-.177.265-.265.441a1.12,1.12,0,0,0-.088.53,1.724,1.724,0,0,1-.088.618c-.088.265,0,.353,0,.53a1.312,1.312,0,0,0-.177.795" transform="translate(-0.059 -9.741)" fill="#666"/>
      <rect id="Rectángulo_304826" data-name="Rectángulo 304826" width="1.06" height="1.06" transform="translate(5.827 79.022)" fill="#666"/>
      <path id="Trazado_229701" data-name="Trazado 229701" d="M12.167,84.171a1.079,1.079,0,0,0-.795-.265,1.079,1.079,0,0,0-.795.265,1.584,1.584,0,0,0-.441.618l-.265.795c0,.265-.088.53-.088.795a1.571,1.571,0,0,1,.706-.618,1.746,1.746,0,0,1,.971-.177,1.763,1.763,0,0,1,.795.177,1.584,1.584,0,0,1,.618.441,1.775,1.775,0,0,1,.353.706,2.578,2.578,0,0,1,.177.795,1.944,1.944,0,0,1-.088.706,1.775,1.775,0,0,1-.353.706,2.438,2.438,0,0,1-.706.53,1.912,1.912,0,0,1-1.06.177,2.209,2.209,0,0,1-1.148-.265,2.085,2.085,0,0,1-.706-.795,3.163,3.163,0,0,1-.353-.971,4.3,4.3,0,0,1-.088-1.06,6.682,6.682,0,0,1,.088-1.324,4.371,4.371,0,0,1,.353-1.148,2.085,2.085,0,0,1,.706-.795A2.209,2.209,0,0,1,11.2,83.2a2.169,2.169,0,0,1,1.324.441,1.482,1.482,0,0,1,.53,1.236h-.795a.534.534,0,0,0-.088-.706m-1.413,2.207a1.55,1.55,0,0,0-.441.353,1.93,1.93,0,0,0-.265.441,1.633,1.633,0,0,0,0,1.06,1.93,1.93,0,0,0,.265.441.751.751,0,0,0,.441.265c.177,0,.353.088.53.088s.441,0,.53-.088a1.55,1.55,0,0,0,.441-.353c.088-.177.177-.265.265-.441a1.633,1.633,0,0,0,0-1.06c-.088-.177-.088-.353-.265-.441a1.926,1.926,0,0,0-.441-.353A1.309,1.309,0,0,0,11.2,86.2c-.088.088-.265.088-.441.177" transform="translate(-1.042 -9.741)" fill="#666"/>
      <path id="Trazado_229702" data-name="Trazado 229702" d="M.5,44.249a2.444,2.444,0,0,1,.088-.795c.088-.265.088-.441.177-.706a2.213,2.213,0,0,1,.353-.618,1.423,1.423,0,0,1,.618-.353,2.612,2.612,0,0,1,.883-.177,2.612,2.612,0,0,1,.883.177,3.84,3.84,0,0,1,.618.353c.177.088.265.353.353.618a1.663,1.663,0,0,1,.177.706,2.444,2.444,0,0,1,.088.795v1.413a2.444,2.444,0,0,1-.088.795c-.088.265-.088.441-.177.706-.088.177-.177.441-.353.53a3.84,3.84,0,0,1-.618.353,2.612,2.612,0,0,1-.883.177,2.612,2.612,0,0,1-.883-.177,3.839,3.839,0,0,1-.618-.353c-.177-.088-.265-.353-.353-.53a1.663,1.663,0,0,1-.177-.706A2.444,2.444,0,0,1,.5,45.661V44.249Zm.795,1.5a3.137,3.137,0,0,0,.177.883,1.213,1.213,0,0,0,.441.706,1.079,1.079,0,0,0,.795.265,1.079,1.079,0,0,0,.795-.265,1.922,1.922,0,0,0,.441-.706c.088-.265.088-.53.177-.883V44.425a1.724,1.724,0,0,0-.088-.618,1.312,1.312,0,0,1-.088-.53c-.088-.177-.088-.353-.265-.441-.088-.177-.265-.265-.353-.353s-.353-.088-.53-.088-.441,0-.53.088-.265.177-.353.353-.177.265-.265.441a1.12,1.12,0,0,0-.088.53,1.724,1.724,0,0,1-.088.618c-.088.265,0,.353,0,.53a1.312,1.312,0,0,0-.177.795" transform="translate(-0.059 -4.87)" fill="#666"/>
      <rect id="Rectángulo_304827" data-name="Rectángulo 304827" width="1.06" height="1.06" transform="translate(5.827 42.292)" fill="#666"/>
      <path id="Trazado_229703" data-name="Trazado 229703" d="M9.441,42.671a2.341,2.341,0,0,1,.441-.53,1.423,1.423,0,0,1,.618-.353,1.944,1.944,0,0,1,.706-.088,2.612,2.612,0,0,1,.883.177,1.423,1.423,0,0,1,.618.353,1.847,1.847,0,0,1,.353.53,1.5,1.5,0,0,1,.088.618,1.424,1.424,0,0,1-.265.795,1.242,1.242,0,0,1-.618.53,1.619,1.619,0,0,1,.883.618,1.883,1.883,0,0,1,.265,1.06,2.612,2.612,0,0,1-.177.883,1.584,1.584,0,0,1-.441.618,1.775,1.775,0,0,1-.706.353,2.722,2.722,0,0,1-.883.088,2.722,2.722,0,0,1-.883-.088,1.775,1.775,0,0,1-.706-.353,1.584,1.584,0,0,1-.441-.618A2.612,2.612,0,0,1,9,46.379a1.78,1.78,0,0,1,.265-.971,1.353,1.353,0,0,1,.883-.618.933.933,0,0,1-.618-.53,2.806,2.806,0,0,1-.265-.795,5.628,5.628,0,0,1,.177-.795m.883,4.591a1.328,1.328,0,0,0,.971.353,1.12,1.12,0,0,0,.53-.088c.177-.088.265-.177.441-.265s.177-.265.265-.441a1.633,1.633,0,0,0,0-1.06,1.219,1.219,0,0,0-.265-.353,1.93,1.93,0,0,0-.441-.265,1.12,1.12,0,0,0-.53-.088,1.12,1.12,0,0,0-.53.088,1.93,1.93,0,0,0-.441.265c-.088.088-.265.265-.265.353s-.088.353-.088.53a.916.916,0,0,0,.353.971m-.088-3.443c.088.088.177.265.265.353a.669.669,0,0,0,.353.177c.177,0,.265.088.441.088a1.233,1.233,0,0,0,.795-.265,1.079,1.079,0,0,0,.265-.795c0-.353-.088-.618-.265-.706a1.079,1.079,0,0,0-.795-.265.8.8,0,0,0-.441.088.459.459,0,0,0-.353.177,1.219,1.219,0,0,0-.265.353.662.662,0,0,0-.088.441.531.531,0,0,0,.088.353" transform="translate(-1.054 -4.882)" fill="#666"/>
      <path id="Trazado_229704" data-name="Trazado 229704" d="M2.678,6.634V1.954H1V1.336a1.5,1.5,0,0,0,.618-.088,1.255,1.255,0,0,0,.53-.177A.881.881,0,0,0,2.589.718,4.3,4.3,0,0,0,2.854.1h.618V6.545H2.678Z" transform="translate(-0.117 -0.012)" fill="#666"/>
      <rect id="Rectángulo_304828" data-name="Rectángulo 304828" width="1.06" height="1.06" transform="translate(5.827 5.562)" fill="#666"/>
      <path id="Trazado_229705" data-name="Trazado 229705" d="M9.195,2.649a2.444,2.444,0,0,1,.088-.795c.088-.265.088-.441.177-.706A2.213,2.213,0,0,1,9.813.53a1.423,1.423,0,0,1,.618-.353A2.612,2.612,0,0,1,11.314,0,2.612,2.612,0,0,1,12.2.177a3.839,3.839,0,0,1,.618.353c.177.088.265.353.353.618a1.663,1.663,0,0,1,.177.706,2.444,2.444,0,0,1,.088.795V4.061a2.444,2.444,0,0,1-.088.795c-.088.265-.088.441-.177.706-.088.177-.177.441-.353.53a3.839,3.839,0,0,1-.618.353,2.612,2.612,0,0,1-.883.177,2.612,2.612,0,0,1-.883-.177,3.839,3.839,0,0,1-.618-.353c-.177-.088-.265-.353-.353-.53a1.663,1.663,0,0,1-.177-.706,2.444,2.444,0,0,1-.088-.795V3.355a1.884,1.884,0,0,1,0-.706m.795,1.589a3.137,3.137,0,0,0,.177.883,1.213,1.213,0,0,0,.441.706,1.079,1.079,0,0,0,.795.265,1.079,1.079,0,0,0,.795-.265,1.922,1.922,0,0,0,.441-.706c.088-.265.088-.53.177-.883V2.914a1.724,1.724,0,0,0-.088-.618,1.312,1.312,0,0,1-.088-.53c-.088-.177-.088-.353-.265-.441-.088-.177-.265-.265-.353-.353s-.353-.088-.53-.088-.441,0-.53.088-.265.177-.353.353-.177.265-.265.441a1.12,1.12,0,0,0-.088.53,1.724,1.724,0,0,1-.088.618c-.088.265,0,.353,0,.53-.177.177-.177.441-.177.795" transform="translate(-1.072)" fill="#666"/>
      <line id="Línea_602" data-name="Línea 602" y1="184.001" transform="translate(17.129 2.914)" fill="none" stroke="#333" stroke-miterlimit="10" stroke-width="1"/>
      <line id="Línea_603" data-name="Línea 603" x2="4.591" transform="translate(17.129 150.185)" fill="none" stroke="#333" stroke-miterlimit="10" stroke-width="1"/>
      <line id="Línea_604" data-name="Línea 604" x2="4.591" transform="translate(17.129 113.456)" fill="none" stroke="#333" stroke-miterlimit="10" stroke-width="1"/>
      <line id="Línea_605" data-name="Línea 605" x2="4.591" transform="translate(17.129 76.814)" fill="none" stroke="#333" stroke-miterlimit="10" stroke-width="1"/>
      <line id="Línea_606" data-name="Línea 606" x2="4.591" transform="translate(17.129 40.085)" fill="none" stroke="#333" stroke-miterlimit="10" stroke-width="1"/>
      <line id="Línea_607" data-name="Línea 607" x2="4.591" transform="translate(17.129 3.355)" fill="none" stroke="#333" stroke-miterlimit="10" stroke-width="1"/>
      <path id="Trazado_229706" data-name="Trazado 229706" d="M60.7,156.7a2.3,2.3,0,1,1-2.3,2.3,2.3,2.3,0,0,1,2.3-2.3" transform="translate(-6.837 -18.346)" fill="#4dd0e1"/>
      <path id="Trazado_229707" data-name="Trazado 229707" d="M42.4,177.4a2.3,2.3,0,1,1-2.3,2.3,2.3,2.3,0,0,1,2.3-2.3" transform="translate(-4.695 -20.77)" fill="#4dd0e1"/>
      <path id="Trazado_229708" data-name="Trazado 229708" d="M89.9,171.4a2.3,2.3,0,1,1-2.3,2.3,2.3,2.3,0,0,1,2.3-2.3" transform="translate(-10.256 -20.067)" fill="#4dd0e1"/>
      <path id="Trazado_229709" data-name="Trazado 229709" d="M107.2,133.4a2.3,2.3,0,1,1-2.3,2.3,2.3,2.3,0,0,1,2.3-2.3" transform="translate(-12.282 -15.618)" fill="#4dd0e1"/>
      <path id="Trazado_229710" data-name="Trazado 229710" d="M106.3,100.6a2.3,2.3,0,1,1-2.3,2.3,2.3,2.3,0,0,1,2.3-2.3" transform="translate(-12.176 -11.778)" fill="#4dd0e1"/>
      <path id="Trazado_229711" data-name="Trazado 229711" d="M135.7,130.8a2.3,2.3,0,1,1-2.3,2.3,2.3,2.3,0,0,1,2.3-2.3" transform="translate(-15.618 -15.314)" fill="#4dd0e1"/>
      <path id="Trazado_229712" data-name="Trazado 229712" d="M127,109.2a2.3,2.3,0,1,1-2.3,2.3,2.3,2.3,0,0,1,2.3-2.3" transform="translate(-14.6 -12.785)" fill="#4dd0e1"/>
      <path id="Trazado_229713" data-name="Trazado 229713" d="M58.8,174a2.3,2.3,0,1,1-2.3,2.3,2.3,2.3,0,0,1,2.3-2.3" transform="translate(-6.615 -20.371)" fill="#4dd0e1"/>
      <path id="Trazado_229714" data-name="Trazado 229714" d="M33.7,195.6a2.3,2.3,0,1,1-2.3,2.3,2.3,2.3,0,0,1,2.3-2.3" transform="translate(-3.676 -22.9)" fill="#4dd0e1"/>
      <path id="Trazado_229715" data-name="Trazado 229715" d="M172,104a2.3,2.3,0,1,1-2.3,2.3A2.3,2.3,0,0,1,172,104" transform="translate(-19.868 -12.176)" fill="#4dd0e1"/>
      <path id="Trazado_229716" data-name="Trazado 229716" d="M203.9,78.1a2.3,2.3,0,1,1-2.3,2.3,2.3,2.3,0,0,1,2.3-2.3" transform="translate(-23.603 -9.144)" fill="#4dd0e1"/>
      <path id="Trazado_229717" data-name="Trazado 229717" d="M165,79.8a2.3,2.3,0,1,1-2.3,2.3,2.3,2.3,0,0,1,2.3-2.3" transform="translate(-19.049 -9.343)" fill="#4dd0e1"/>
      <path id="Trazado_229718" data-name="Trazado 229718" d="M206.5,63.4a2.3,2.3,0,1,1-2.3,2.3,2.3,2.3,0,0,1,2.3-2.3" transform="translate(-23.907 -7.423)" fill="#4dd0e1"/>
      <path id="Trazado_229719" data-name="Trazado 229719" d="M235.9,60a2.3,2.3,0,1,1-2.3,2.3,2.3,2.3,0,0,1,2.3-2.3" transform="translate(-27.349 -7.025)" fill="#4dd0e1"/>
      <path id="Trazado_229720" data-name="Trazado 229720" d="M250.6,69.5a2.3,2.3,0,1,1-2.3,2.3,2.3,2.3,0,0,1,2.3-2.3" transform="translate(-29.071 -8.137)" fill="#4dd0e1"/>
      <path id="Trazado_229721" data-name="Trazado 229721" d="M237.6,37.5a2.3,2.3,0,1,1-2.3,2.3,2.3,2.3,0,0,1,2.3-2.3" transform="translate(-27.549 -4.39)" fill="#4dd0e1"/>
      <path id="Trazado_229722" data-name="Trazado 229722" d="M260.9,4.7A2.3,2.3,0,1,1,258.6,7a2.3,2.3,0,0,1,2.3-2.3" transform="translate(-30.276 -0.55)" fill="#4dd0e1"/>
      <path id="Trazado_229723" data-name="Trazado 229723" d="M191,110.1a2.3,2.3,0,1,1-2.3,2.3,2.3,2.3,0,0,1,2.3-2.3" transform="translate(-22.093 -12.89)" fill="#4dd0e1"/>
      <path id="Trazado_229724" data-name="Trazado 229724" d="M146.9,91.1a2.3,2.3,0,1,1-2.3,2.3,2.3,2.3,0,0,1,2.3-2.3" transform="translate(-16.93 -10.666)" fill="#4dd0e1"/>
      <path id="Trazado_229725" data-name="Trazado 229725" d="M96.8,145.5a2.3,2.3,0,1,1-2.3,2.3,2.3,2.3,0,0,1,2.3-2.3" transform="translate(-11.064 -17.035)" fill="#4dd0e1"/>
      <path id="Trazado_229726" data-name="Trazado 229726" d="M74.3,137.7A2.3,2.3,0,1,1,72,140a2.3,2.3,0,0,1,2.3-2.3" transform="translate(-8.43 -16.122)" fill="#4dd0e1"/>
      <path id="Trazado_229727" data-name="Trazado 229727" d="M262.7,28a2.3,2.3,0,1,1-2.3,2.3,2.3,2.3,0,0,1,2.3-2.3" transform="translate(-30.487 -3.278)" fill="#4dd0e1"/>
    </g>
    <g id="Grupo_219986" data-name="Grupo 219986" transform="translate(-3556.803 -9096.594)" clip-path="url(#clip-path-2)">
      <path id="Trazado_229728" data-name="Trazado 229728" d="M8.6,218.96a1.721,1.721,0,0,1,.088-.706c.088-.177.088-.441.177-.706a2.213,2.213,0,0,1,.353-.618,1.423,1.423,0,0,1,.618-.353,2.612,2.612,0,0,1,.883-.177,2.612,2.612,0,0,1,.883.177,3.838,3.838,0,0,1,.618.353c.177.088.265.353.353.618a2.078,2.078,0,0,1,.177.706,2.194,2.194,0,0,1,.088.706v1.413a1.721,1.721,0,0,1-.088.706c-.088.265-.088.441-.177.706a.811.811,0,0,1-.353.53,3.84,3.84,0,0,1-.618.353,2.612,2.612,0,0,1-.883.177,2.612,2.612,0,0,1-.883-.177,3.84,3.84,0,0,1-.618-.353,1.847,1.847,0,0,1-.353-.53,1.663,1.663,0,0,1-.177-.706c0-.265-.088-.53-.088-.706V218.96Zm.795,1.589a3.137,3.137,0,0,0,.177.883,1.213,1.213,0,0,0,.441.706,1.079,1.079,0,0,0,.795.265,1.079,1.079,0,0,0,.795-.265,1.922,1.922,0,0,0,.441-.706c.088-.265.088-.53.177-.883v-1.324a1.724,1.724,0,0,0-.088-.618c0-.177-.088-.353-.088-.53-.088-.177-.088-.353-.265-.441s-.265-.265-.353-.353a1.12,1.12,0,0,0-.53-.088c-.177,0-.441,0-.53.088a.689.689,0,0,0-.353.353c-.088.177-.177.265-.265.441a1.12,1.12,0,0,0-.088.53,1.724,1.724,0,0,1-.088.618v.53a1.187,1.187,0,0,0-.177.795" transform="translate(-1.007 -25.336)" fill="#666"/>
      <path id="Trazado_229729" data-name="Trazado 229729" d="M54,219.16a1.721,1.721,0,0,1,.088-.706c.088-.177.088-.441.177-.706a2.213,2.213,0,0,1,.353-.618,1.423,1.423,0,0,1,.618-.353,2.3,2.3,0,0,1,1.766,0,3.839,3.839,0,0,1,.618.353c.177.088.265.353.353.618a2.078,2.078,0,0,1,.177.706,2.194,2.194,0,0,1,.088.706v1.413a1.721,1.721,0,0,1-.088.706c-.088.265-.088.441-.177.706a.811.811,0,0,1-.353.53,3.839,3.839,0,0,1-.618.353,2.3,2.3,0,0,1-1.766,0,3.839,3.839,0,0,1-.618-.353,1.847,1.847,0,0,1-.353-.53,1.663,1.663,0,0,1-.177-.706c0-.265-.088-.53-.088-.706V219.16Zm.883,1.589a3.137,3.137,0,0,0,.177.883,1.213,1.213,0,0,0,.441.706,1.324,1.324,0,0,0,1.589,0,1.922,1.922,0,0,0,.441-.706c.088-.265.088-.53.177-.883v-1.324a1.724,1.724,0,0,0-.088-.618c0-.177-.088-.353-.088-.53-.088-.177-.088-.353-.265-.441s-.265-.265-.353-.353a1.12,1.12,0,0,0-.53-.088c-.177,0-.441,0-.53.088a.689.689,0,0,0-.353.353c-.088.177-.177.265-.265.441a1.12,1.12,0,0,0-.088.53,1.724,1.724,0,0,1-.088.618v.53c-.265.177-.177.441-.177.795" transform="translate(-6.322 -25.359)" fill="#666"/>
      <rect id="Rectángulo_304830" data-name="Rectángulo 304830" width="1.06" height="1.06" transform="translate(53.152 196.715)" fill="#666"/>
      <path id="Trazado_229730" data-name="Trazado 229730" d="M63.253,218.024a1.213,1.213,0,0,1,.441-.706,1.923,1.923,0,0,1,.706-.441,2.613,2.613,0,0,1,.883-.177,2.444,2.444,0,0,1,.795.088,1.423,1.423,0,0,1,.618.353,1.584,1.584,0,0,1,.441.618,2.578,2.578,0,0,1,.177.795,1.312,1.312,0,0,1-.177.795,2.213,2.213,0,0,1-.353.618,2.34,2.34,0,0,1-.53.441,3.737,3.737,0,0,1-.618.441c-.177.088-.441.265-.618.353s-.353.265-.53.353c-.177.177-.353.265-.441.441l-.265.53h3.355v.706H62.9a3.174,3.174,0,0,1,.177-.971,1.923,1.923,0,0,1,.441-.706l.53-.53c.177-.177.441-.265.618-.441a8.137,8.137,0,0,1,.706-.441c.177-.177.353-.265.53-.441a1.55,1.55,0,0,0,.353-.441,1.309,1.309,0,0,0,.088-.618.662.662,0,0,0-.088-.441,1.219,1.219,0,0,0-.265-.353,1.929,1.929,0,0,0-.441-.265.96.96,0,0,0-.441-.088,1.276,1.276,0,0,0-.618.177,1.55,1.55,0,0,0-.441.353l-.265.53a1.309,1.309,0,0,0-.088.618H62.9a5.116,5.116,0,0,0,.353-1.148" transform="translate(-7.364 -25.371)" fill="#666"/>
      <path id="Trazado_229731" data-name="Trazado 229731" d="M95.9,219.16a1.721,1.721,0,0,1,.088-.706c.088-.177.088-.441.177-.706a2.213,2.213,0,0,1,.353-.618,1.423,1.423,0,0,1,.618-.353,2.3,2.3,0,0,1,1.766,0,3.839,3.839,0,0,1,.618.353c.177.088.265.353.353.618a2.078,2.078,0,0,1,.177.706,2.194,2.194,0,0,1,.088.706v1.413a1.721,1.721,0,0,1-.088.706c-.088.265-.088.441-.177.706a.811.811,0,0,1-.353.53,3.839,3.839,0,0,1-.618.353,2.3,2.3,0,0,1-1.766,0,3.839,3.839,0,0,1-.618-.353,1.847,1.847,0,0,1-.353-.53,1.663,1.663,0,0,1-.177-.706c0-.265-.088-.53-.088-.706V219.16Zm.795,1.589a3.137,3.137,0,0,0,.177.883,1.213,1.213,0,0,0,.441.706,1.324,1.324,0,0,0,1.589,0,1.923,1.923,0,0,0,.441-.706c.088-.265.088-.53.177-.883v-1.324a1.724,1.724,0,0,0-.088-.618c0-.177-.088-.353-.088-.53-.088-.177-.088-.353-.265-.441s-.265-.265-.353-.353a1.12,1.12,0,0,0-.53-.088c-.177,0-.441,0-.53.088a.689.689,0,0,0-.353.353c-.088.177-.177.265-.265.441a1.12,1.12,0,0,0-.088.53,1.724,1.724,0,0,1-.088.618v.53c-.177.177-.177.441-.177.795" transform="translate(-11.228 -25.359)" fill="#666"/>
      <rect id="Rectángulo_304831" data-name="Rectángulo 304831" width="1.06" height="1.06" transform="translate(90.058 196.715)" fill="#666"/>
      <path id="Trazado_229732" data-name="Trazado 229732" d="M108.815,220.926v.706h-.883v1.5h-.706v-1.5H104.4v-.795l2.914-4.238h.618v4.326Zm-1.589-3.179h0l-2.207,3.179h2.207Z" transform="translate(-12.223 -25.359)" fill="#666"/>
      <path id="Trazado_229733" data-name="Trazado 229733" d="M137.4,219.16a1.721,1.721,0,0,1,.088-.706c.088-.177.088-.441.177-.706a2.213,2.213,0,0,1,.353-.618,1.423,1.423,0,0,1,.618-.353,2.3,2.3,0,0,1,1.766,0,3.839,3.839,0,0,1,.618.353c.177.088.265.353.353.618a2.078,2.078,0,0,1,.177.706,2.194,2.194,0,0,1,.088.706v1.413a1.721,1.721,0,0,1-.088.706c-.088.265-.088.441-.177.706a.811.811,0,0,1-.353.53,3.839,3.839,0,0,1-.618.353,2.3,2.3,0,0,1-1.766,0,3.838,3.838,0,0,1-.618-.353,1.847,1.847,0,0,1-.353-.53,1.663,1.663,0,0,1-.177-.706c0-.265-.088-.53-.088-.706V219.16Zm.883,1.589a3.136,3.136,0,0,0,.177.883,1.213,1.213,0,0,0,.441.706,1.324,1.324,0,0,0,1.589,0,1.922,1.922,0,0,0,.441-.706c.088-.265.088-.53.177-.883v-1.324a1.723,1.723,0,0,0-.088-.618c0-.177-.088-.353-.088-.53-.088-.177-.088-.353-.265-.441s-.265-.265-.353-.353a1.12,1.12,0,0,0-.53-.088c-.177,0-.441,0-.53.088a.689.689,0,0,0-.353.353c-.088.177-.177.265-.265.441a1.12,1.12,0,0,0-.088.53,1.724,1.724,0,0,1-.088.618v.53c-.177.177-.177.441-.177.795" transform="translate(-16.087 -25.359)" fill="#666"/>
      <rect id="Rectángulo_304832" data-name="Rectángulo 304832" width="1.06" height="1.06" transform="translate(126.788 196.715)" fill="#666"/>
      <path id="Trazado_229734" data-name="Trazado 229734" d="M149.079,217.583a1,1,0,0,0-.706-.265,1.079,1.079,0,0,0-.795.265,1.584,1.584,0,0,0-.441.618l-.265.795c0,.265-.088.53-.088.795a1.571,1.571,0,0,1,.706-.618,3.174,3.174,0,0,1,.971-.177,1.763,1.763,0,0,1,.795.177,1.584,1.584,0,0,1,.618.441,1.774,1.774,0,0,1,.353.706,2.578,2.578,0,0,1,.177.795,1.944,1.944,0,0,1-.088.706,1.775,1.775,0,0,1-.353.706,2.438,2.438,0,0,1-.706.53,2.07,2.07,0,0,1-1.06.177,2.209,2.209,0,0,1-1.148-.265,2.687,2.687,0,0,1-.706-.706,3.163,3.163,0,0,1-.353-.971,4.3,4.3,0,0,1-.088-1.06,6.683,6.683,0,0,1,.088-1.324,4.372,4.372,0,0,1,.353-1.148,2.085,2.085,0,0,1,.706-.795,2.209,2.209,0,0,1,1.148-.265,2.169,2.169,0,0,1,1.324.441,1.482,1.482,0,0,1,.53,1.236h-.618a.861.861,0,0,0-.353-.795m-1.413,2.207a1.55,1.55,0,0,0-.441.353,1.929,1.929,0,0,0-.265.441,1.633,1.633,0,0,0,0,1.059,1.93,1.93,0,0,0,.265.441.751.751,0,0,0,.441.265,1.12,1.12,0,0,0,.53.088c.177,0,.441,0,.53-.088a1.55,1.55,0,0,0,.441-.353c.088-.177.177-.265.265-.441a1.633,1.633,0,0,0,0-1.059,1.526,1.526,0,0,0-.706-.795,1.309,1.309,0,0,0-.618-.088c-.265,0-.265.088-.441.177" transform="translate(-17.082 -25.371)" fill="#666"/>
      <path id="Trazado_229735" data-name="Trazado 229735" d="M179,219.16a1.721,1.721,0,0,1,.088-.706c.088-.177.088-.441.177-.706a2.213,2.213,0,0,1,.353-.618,1.423,1.423,0,0,1,.618-.353,2.3,2.3,0,0,1,1.766,0,3.839,3.839,0,0,1,.618.353c.177.088.265.353.353.618a2.078,2.078,0,0,1,.177.706,2.194,2.194,0,0,1,.088.706v1.413a1.721,1.721,0,0,1-.088.706c-.088.265-.088.441-.177.706a.811.811,0,0,1-.353.53,3.839,3.839,0,0,1-.618.353,2.3,2.3,0,0,1-1.766,0,3.84,3.84,0,0,1-.618-.353,1.847,1.847,0,0,1-.353-.53,1.663,1.663,0,0,1-.177-.706c0-.265-.088-.53-.088-.706V219.16Zm.883,1.589a3.137,3.137,0,0,0,.177.883,1.213,1.213,0,0,0,.441.706,1.324,1.324,0,0,0,1.589,0,1.923,1.923,0,0,0,.441-.706c.088-.265.088-.53.177-.883v-1.324a1.724,1.724,0,0,0-.088-.618c0-.177-.088-.353-.088-.53-.088-.177-.088-.353-.265-.441s-.265-.265-.353-.353a1.12,1.12,0,0,0-.53-.088c-.177,0-.441,0-.53.088a.689.689,0,0,0-.353.353c-.088.177-.177.265-.265.441a1.12,1.12,0,0,0-.088.53,1.724,1.724,0,0,1-.088.618v.53c-.265.177-.265.441-.177.795" transform="translate(-20.957 -25.359)" fill="#666"/>
      <rect id="Rectángulo_304833" data-name="Rectángulo 304833" width="1.06" height="1.06" transform="translate(163.429 196.715)" fill="#666"/>
      <path id="Trazado_229736" data-name="Trazado 229736" d="M188.041,217.571a2.34,2.34,0,0,1,.441-.53,1.423,1.423,0,0,1,.618-.353,1.945,1.945,0,0,1,.706-.088,2.612,2.612,0,0,1,.883.177,1.423,1.423,0,0,1,.618.353,1.847,1.847,0,0,1,.353.53,1.5,1.5,0,0,1,.088.618,1.424,1.424,0,0,1-.265.795,1.187,1.187,0,0,1-.618.53,1.619,1.619,0,0,1,.883.618,1.883,1.883,0,0,1,.265,1.059,2.612,2.612,0,0,1-.177.883,1.584,1.584,0,0,1-.441.618,1.775,1.775,0,0,1-.706.353,4.459,4.459,0,0,1-1.766,0,1.775,1.775,0,0,1-.706-.353,1.584,1.584,0,0,1-.441-.618,2.611,2.611,0,0,1-.177-.883,1.78,1.78,0,0,1,.265-.971,1.353,1.353,0,0,1,.883-.618.934.934,0,0,1-.618-.53,1.424,1.424,0,0,1-.265-.795c0-.353,0-.618.177-.795m.795,4.591a1.328,1.328,0,0,0,.971.353,1.12,1.12,0,0,0,.53-.088c.177-.088.265-.177.441-.265s.177-.265.265-.441a1.633,1.633,0,0,0,0-1.06,1.219,1.219,0,0,0-.265-.353,1.93,1.93,0,0,0-.441-.265,1.633,1.633,0,0,0-1.06,0,1.931,1.931,0,0,0-.441.265c-.088.088-.265.265-.265.353a1.12,1.12,0,0,0-.088.53,1.1,1.1,0,0,0,.353.971m-.088-3.355c.088.088.177.265.265.353a.669.669,0,0,0,.353.177c.177,0,.265.088.441.088a1.232,1.232,0,0,0,.795-.265,1.079,1.079,0,0,0,.265-.795c0-.353-.088-.618-.265-.706a1.676,1.676,0,0,0-.795-.265.8.8,0,0,0-.441.088.459.459,0,0,0-.353.177,1.219,1.219,0,0,0-.265.353.662.662,0,0,0-.088.441.913.913,0,0,1,.088.353" transform="translate(-21.964 -25.359)" fill="#666"/>
      <path id="Trazado_229737" data-name="Trazado 229737" d="M222.778,223.134v-4.679H221.1v-.618a1.5,1.5,0,0,0,.618-.088,1.255,1.255,0,0,0,.53-.177.881.881,0,0,0,.441-.353,4.305,4.305,0,0,0,.265-.618h.618v6.445h-.795Z" transform="translate(-25.886 -25.359)" fill="#666"/>
      <rect id="Rectángulo_304834" data-name="Rectángulo 304834" width="1.06" height="1.06" transform="translate(200.158 196.715)" fill="#666"/>
      <path id="Trazado_229738" data-name="Trazado 229738" d="M229.2,219.16a1.721,1.721,0,0,1,.088-.706c.088-.177.088-.441.177-.706a2.214,2.214,0,0,1,.353-.618,1.423,1.423,0,0,1,.618-.353,2.3,2.3,0,0,1,1.766,0,3.84,3.84,0,0,1,.618.353c.177.088.265.353.353.618a2.078,2.078,0,0,1,.177.706,2.194,2.194,0,0,1,.088.706v1.413a1.721,1.721,0,0,1-.088.706c-.088.265-.088.441-.177.706a.811.811,0,0,1-.353.53,3.84,3.84,0,0,1-.618.353,2.3,2.3,0,0,1-1.766,0,3.839,3.839,0,0,1-.618-.353,1.848,1.848,0,0,1-.353-.53,1.663,1.663,0,0,1-.177-.706c0-.265-.088-.53-.088-.706V219.16Zm.883,1.589a3.137,3.137,0,0,0,.177.883,1.213,1.213,0,0,0,.441.706,1.324,1.324,0,0,0,1.589,0,1.922,1.922,0,0,0,.441-.706c.088-.265.088-.53.177-.883v-1.324a1.724,1.724,0,0,0-.088-.618c0-.177-.088-.353-.088-.53-.088-.177-.088-.353-.265-.441s-.265-.265-.353-.353a1.12,1.12,0,0,0-.53-.088c-.177,0-.441,0-.53.088a.689.689,0,0,0-.353.353c-.088.177-.177.265-.265.441a1.12,1.12,0,0,0-.088.53,1.724,1.724,0,0,1-.088.618v.53c-.177.177-.177.441-.177.795" transform="translate(-26.834 -25.359)" fill="#666"/>
      <path id="Trazado_229739" data-name="Trazado 229739" d="M262.478,223.134v-4.679H260.8v-.618a1.5,1.5,0,0,0,.618-.088,1.255,1.255,0,0,0,.53-.177.882.882,0,0,0,.441-.353,4.309,4.309,0,0,0,.265-.618h.618v6.445h-.795Z" transform="translate(-30.534 -25.359)" fill="#666"/>
      <rect id="Rectángulo_304835" data-name="Rectángulo 304835" width="1.06" height="1.06" transform="translate(235.299 196.715)" fill="#666"/>
      <path id="Trazado_229740" data-name="Trazado 229740" d="M269.653,218.024a1.213,1.213,0,0,1,.441-.706,1.922,1.922,0,0,1,.706-.441,2.613,2.613,0,0,1,.883-.177,2.444,2.444,0,0,1,.795.088,1.423,1.423,0,0,1,.618.353,1.584,1.584,0,0,1,.441.618,2.578,2.578,0,0,1,.177.795,1.312,1.312,0,0,1-.177.795,2.214,2.214,0,0,1-.353.618,2.34,2.34,0,0,1-.53.441,3.736,3.736,0,0,1-.618.441c-.177.088-.441.265-.618.353s-.353.265-.53.353c-.177.177-.353.265-.441.441l-.265.53h3.355v.706H269.3a3.173,3.173,0,0,1,.177-.971,1.923,1.923,0,0,1,.441-.706l.53-.53c.177-.177.441-.265.618-.441a8.141,8.141,0,0,1,.706-.441c.177-.177.353-.265.53-.441a1.55,1.55,0,0,0,.353-.441,1.309,1.309,0,0,0,.088-.618.661.661,0,0,0-.088-.441,1.219,1.219,0,0,0-.265-.353,1.929,1.929,0,0,0-.441-.265.96.96,0,0,0-.441-.088,1.276,1.276,0,0,0-.618.177,1.55,1.55,0,0,0-.441.353l-.265.53a1.31,1.31,0,0,0-.088.618H269.3c.177-.53.265-.883.353-1.148" transform="translate(-31.529 -25.371)" fill="#666"/>
      <line id="Línea_608" data-name="Línea 608" x2="221.084" transform="translate(16.776 186.915)" fill="none" stroke="#333" stroke-miterlimit="10" stroke-width="1"/>
      <line id="Línea_609" data-name="Línea 609" y1="4.591" transform="translate(53.858 182.323)" fill="none" stroke="#333" stroke-miterlimit="10" stroke-width="1"/>
      <line id="Línea_610" data-name="Línea 610" y1="4.591" transform="translate(90.588 182.323)" fill="none" stroke="#333" stroke-miterlimit="10" stroke-width="1"/>
      <line id="Línea_611" data-name="Línea 611" y1="4.591" transform="translate(127.317 182.323)" fill="none" stroke="#333" stroke-miterlimit="10" stroke-width="1"/>
      <line id="Línea_612" data-name="Línea 612" y1="4.591" transform="translate(164.047 182.323)" fill="none" stroke="#333" stroke-miterlimit="10" stroke-width="1"/>
      <line id="Línea_613" data-name="Línea 613" y1="4.591" transform="translate(200.776 182.323)" fill="none" stroke="#333" stroke-miterlimit="10" stroke-width="1"/>
      <line id="Línea_614" data-name="Línea 614" y1="4.591" transform="translate(237.418 182.323)" fill="none" stroke="#333" stroke-miterlimit="10" stroke-width="1"/>
      <path id="Trazado_229741" data-name="Trazado 229741" d="M0,168.16a1.721,1.721,0,0,1,.088-.706c.088-.177.088-.441.177-.706a2.213,2.213,0,0,1,.353-.618,1.423,1.423,0,0,1,.618-.353,2.612,2.612,0,0,1,.883-.177,2.612,2.612,0,0,1,.883.177,3.839,3.839,0,0,1,.618.353c.177.088.265.353.353.618a2.078,2.078,0,0,1,.177.706,2.194,2.194,0,0,1,.088.706v1.413a1.721,1.721,0,0,1-.088.706c-.088.265-.088.441-.177.706a.811.811,0,0,1-.353.53,3.839,3.839,0,0,1-.618.353,2.612,2.612,0,0,1-.883.177,2.612,2.612,0,0,1-.883-.177,3.839,3.839,0,0,1-.618-.353,1.847,1.847,0,0,1-.353-.53,1.663,1.663,0,0,1-.177-.706c0-.265-.088-.53-.088-.706V168.16Zm.883,1.5a3.137,3.137,0,0,0,.177.883,1.213,1.213,0,0,0,.441.706,1.079,1.079,0,0,0,.795.265,1.079,1.079,0,0,0,.795-.265,1.922,1.922,0,0,0,.441-.706c.088-.265.088-.53.177-.883v-1.324a1.724,1.724,0,0,0-.088-.618c0-.177-.088-.353-.088-.53-.088-.177-.088-.353-.265-.441s-.265-.265-.353-.353a1.12,1.12,0,0,0-.53-.088c-.177,0-.441,0-.53.088a.689.689,0,0,0-.353.353c-.088.177-.177.265-.265.441a1.12,1.12,0,0,0-.088.53,1.724,1.724,0,0,1-.088.618v.53a.7.7,0,0,0-.177.795" transform="translate(0 -19.388)" fill="#666"/>
      <rect id="Rectángulo_304836" data-name="Rectángulo 304836" width="1.06" height="1.06" transform="translate(5.386 151.686)" fill="#666"/>
      <path id="Trazado_229742" data-name="Trazado 229742" d="M9.253,166.924a1.213,1.213,0,0,1,.441-.706,1.922,1.922,0,0,1,.706-.441,2.612,2.612,0,0,1,.883-.177,2.444,2.444,0,0,1,.795.088,1.423,1.423,0,0,1,.618.353,1.584,1.584,0,0,1,.441.618,2.578,2.578,0,0,1,.177.795,1.312,1.312,0,0,1-.177.795,2.213,2.213,0,0,1-.353.618,2.341,2.341,0,0,1-.53.441,3.738,3.738,0,0,1-.618.441c-.177.088-.441.265-.618.353s-.353.265-.53.353c-.177.177-.353.265-.441.441l-.265.53h3.355v.706H8.9a3.174,3.174,0,0,1,.177-.971,1.923,1.923,0,0,1,.441-.706l.53-.53c.177-.177.441-.265.618-.441a8.141,8.141,0,0,1,.706-.441c.177-.177.353-.265.53-.441a1.55,1.55,0,0,0,.353-.441,1.309,1.309,0,0,0,.088-.618.662.662,0,0,0-.088-.441,1.219,1.219,0,0,0-.265-.353,1.93,1.93,0,0,0-.441-.265.96.96,0,0,0-.441-.088,1.276,1.276,0,0,0-.618.177,1.55,1.55,0,0,0-.441.353l-.265.53a1.309,1.309,0,0,0-.088.618H8.9a5.116,5.116,0,0,0,.353-1.148" transform="translate(-1.042 -19.388)" fill="#666"/>
      <path id="Trazado_229743" data-name="Trazado 229743" d="M.5,126.56a1.721,1.721,0,0,1,.088-.706c.088-.177.088-.441.177-.706a2.213,2.213,0,0,1,.353-.618,1.423,1.423,0,0,1,.618-.353A2.612,2.612,0,0,1,2.619,124a2.612,2.612,0,0,1,.883.177,3.84,3.84,0,0,1,.618.353c.177.088.265.353.353.618a2.078,2.078,0,0,1,.177.706,2.194,2.194,0,0,1,.088.706v1.413a1.721,1.721,0,0,1-.088.706c-.088.265-.088.441-.177.706a.811.811,0,0,1-.353.53,3.84,3.84,0,0,1-.618.353,2.612,2.612,0,0,1-.883.177,2.612,2.612,0,0,1-.883-.177,3.84,3.84,0,0,1-.618-.353,1.847,1.847,0,0,1-.353-.53,1.663,1.663,0,0,1-.177-.706c0-.265-.088-.53-.088-.706V126.56Zm.883,1.5a3.137,3.137,0,0,0,.177.883,1.213,1.213,0,0,0,.441.706,1.079,1.079,0,0,0,.795.265,1.079,1.079,0,0,0,.795-.265,1.923,1.923,0,0,0,.441-.706c.088-.265.088-.53.177-.883v-1.324a1.724,1.724,0,0,0-.088-.618c0-.177-.088-.353-.088-.53-.088-.177-.088-.353-.265-.441s-.265-.265-.353-.353a1.12,1.12,0,0,0-.53-.088c-.177,0-.441,0-.53.088a.689.689,0,0,0-.353.353c-.088.177-.177.265-.265.441a1.12,1.12,0,0,0-.088.53,1.724,1.724,0,0,1-.088.618v.53c-.265.265-.177.53-.177.795" transform="translate(-0.059 -14.518)" fill="#666"/>
      <rect id="Rectángulo_304837" data-name="Rectángulo 304837" width="1.06" height="1.06" transform="translate(5.916 114.957)" fill="#666"/>
      <path id="Trazado_229744" data-name="Trazado 229744" d="M13.515,128.226v.706h-.883v1.5h-.706v-1.5H9.1v-.795l2.914-4.238h.618v4.326Zm-1.678-3.179h0L9.63,128.226h2.207Z" transform="translate(-1.065 -14.506)" fill="#666"/>
      <path id="Trazado_229745" data-name="Trazado 229745" d="M.5,85.849a2.444,2.444,0,0,1,.088-.795c.088-.265.088-.441.177-.706a2.213,2.213,0,0,1,.353-.618,1.423,1.423,0,0,1,.618-.353,2.612,2.612,0,0,1,.883-.177,2.612,2.612,0,0,1,.883.177,3.838,3.838,0,0,1,.618.353c.177.088.265.353.353.618a1.663,1.663,0,0,1,.177.706,2.444,2.444,0,0,1,.088.795v1.413a2.444,2.444,0,0,1-.088.795c-.088.265-.088.441-.177.706-.088.177-.177.441-.353.53a3.838,3.838,0,0,1-.618.353,2.612,2.612,0,0,1-.883.177,2.612,2.612,0,0,1-.883-.177,3.838,3.838,0,0,1-.618-.353,1.847,1.847,0,0,1-.353-.53,1.663,1.663,0,0,1-.177-.706A2.444,2.444,0,0,1,.5,87.261V85.849Zm.883,1.5a3.137,3.137,0,0,0,.177.883A1.213,1.213,0,0,0,2,88.939,1.079,1.079,0,0,0,2.8,89.2a1.079,1.079,0,0,0,.795-.265,1.922,1.922,0,0,0,.441-.706c.088-.265.088-.53.177-.883V86.025a1.724,1.724,0,0,0-.088-.618c0-.177-.088-.353-.088-.53-.088-.177-.088-.353-.265-.441s-.265-.265-.353-.353a1.12,1.12,0,0,0-.53-.088c-.177,0-.441,0-.53.088A.689.689,0,0,0,2,84.436c-.088.177-.177.265-.265.441a1.12,1.12,0,0,0-.088.53,1.724,1.724,0,0,1-.088.618v.53c-.265.265-.177.53-.177.795" transform="translate(-0.059 -9.741)" fill="#666"/>
      <rect id="Rectángulo_304838" data-name="Rectángulo 304838" width="1.06" height="1.06" transform="translate(5.916 79.022)" fill="#666"/>
      <path id="Trazado_229746" data-name="Trazado 229746" d="M12.179,84.171a1,1,0,0,0-.706-.265,1.079,1.079,0,0,0-.795.265,1.584,1.584,0,0,0-.441.618l-.265.795c0,.265-.088.53-.088.795a1.571,1.571,0,0,1,.706-.618,3.174,3.174,0,0,1,.971-.177,1.763,1.763,0,0,1,.795.177,1.584,1.584,0,0,1,.618.441,1.775,1.775,0,0,1,.353.706,2.578,2.578,0,0,1,.177.795,1.944,1.944,0,0,1-.088.706,1.775,1.775,0,0,1-.353.706,2.438,2.438,0,0,1-.706.53,1.912,1.912,0,0,1-1.06.177,2.209,2.209,0,0,1-1.148-.265,2.085,2.085,0,0,1-.706-.795,3.163,3.163,0,0,1-.353-.971A4.3,4.3,0,0,1,9,86.732a6.682,6.682,0,0,1,.088-1.324,4.371,4.371,0,0,1,.353-1.148,2.085,2.085,0,0,1,.706-.795A2.209,2.209,0,0,1,11.3,83.2a2.169,2.169,0,0,1,1.324.441,1.482,1.482,0,0,1,.53,1.236h-.795c.177-.265,0-.53-.177-.706m-1.413,2.207a1.55,1.55,0,0,0-.441.353,1.93,1.93,0,0,0-.265.441,1.633,1.633,0,0,0,0,1.06,1.93,1.93,0,0,0,.265.441.751.751,0,0,0,.441.265,1.12,1.12,0,0,0,.53.088c.177,0,.441,0,.53-.088a1.55,1.55,0,0,0,.441-.353c.088-.177.177-.265.265-.441a1.633,1.633,0,0,0,0-1.06,1.527,1.527,0,0,0-.706-.795,1.309,1.309,0,0,0-.618-.088c-.265,0-.265.088-.441.177" transform="translate(-1.054 -9.741)" fill="#666"/>
      <path id="Trazado_229747" data-name="Trazado 229747" d="M0,44.249a2.444,2.444,0,0,1,.088-.795c.088-.265.088-.441.177-.706a2.213,2.213,0,0,1,.353-.618,1.423,1.423,0,0,1,.618-.353,2.612,2.612,0,0,1,.883-.177A2.612,2.612,0,0,1,3,41.777a3.839,3.839,0,0,1,.618.353c.177.088.265.353.353.618a1.663,1.663,0,0,1,.177.706,2.444,2.444,0,0,1,.088.795v1.413a2.444,2.444,0,0,1-.088.795c-.088.265-.088.441-.177.706-.088.177-.177.441-.353.53A3.839,3.839,0,0,1,3,48.045a2.612,2.612,0,0,1-.883.177,2.612,2.612,0,0,1-.883-.177,3.84,3.84,0,0,1-.618-.353,1.847,1.847,0,0,1-.353-.53,1.663,1.663,0,0,1-.177-.706A2.444,2.444,0,0,1,0,45.661V44.249Zm.883,1.5a3.137,3.137,0,0,0,.177.883,1.213,1.213,0,0,0,.441.706A1.079,1.079,0,0,0,2.3,47.6a1.079,1.079,0,0,0,.795-.265,1.922,1.922,0,0,0,.441-.706c.088-.265.088-.53.177-.883V44.425a1.724,1.724,0,0,0-.088-.618c0-.177-.088-.353-.088-.53-.088-.177-.088-.353-.265-.441s-.265-.265-.353-.353a1.12,1.12,0,0,0-.53-.088c-.177,0-.441,0-.53.088a.689.689,0,0,0-.353.353c-.088.177-.177.265-.265.441a1.12,1.12,0,0,0-.088.53,1.724,1.724,0,0,1-.088.618v.53a.7.7,0,0,0-.177.795" transform="translate(0 -4.87)" fill="#666"/>
      <rect id="Rectángulo_304839" data-name="Rectángulo 304839" width="1.06" height="1.06" transform="translate(5.386 42.292)" fill="#666"/>
      <path id="Trazado_229748" data-name="Trazado 229748" d="M9.541,42.671a2.341,2.341,0,0,1,.441-.53,1.423,1.423,0,0,1,.618-.353,1.944,1.944,0,0,1,.706-.088,2.612,2.612,0,0,1,.883.177,1.423,1.423,0,0,1,.618.353,1.847,1.847,0,0,1,.353.53,1.5,1.5,0,0,1,.088.618,1.424,1.424,0,0,1-.265.795,1.187,1.187,0,0,1-.618.53,1.619,1.619,0,0,1,.883.618,1.883,1.883,0,0,1,.265,1.06,2.612,2.612,0,0,1-.177.883,1.584,1.584,0,0,1-.441.618,1.775,1.775,0,0,1-.706.353,2.722,2.722,0,0,1-.883.088,2.722,2.722,0,0,1-.883-.088,1.775,1.775,0,0,1-.706-.353,1.584,1.584,0,0,1-.441-.618,2.612,2.612,0,0,1-.177-.883,1.78,1.78,0,0,1,.265-.971,1.353,1.353,0,0,1,.883-.618.933.933,0,0,1-.618-.53,2.806,2.806,0,0,1-.265-.795,1.763,1.763,0,0,1,.177-.795m.795,4.591a1.328,1.328,0,0,0,.971.353,1.12,1.12,0,0,0,.53-.088c.177-.088.265-.177.441-.265s.177-.265.265-.441a1.633,1.633,0,0,0,0-1.06,1.219,1.219,0,0,0-.265-.353,1.93,1.93,0,0,0-.441-.265,1.12,1.12,0,0,0-.53-.088,1.12,1.12,0,0,0-.53.088,1.93,1.93,0,0,0-.441.265c-.088.088-.265.265-.265.353s-.088.353-.088.53a1.1,1.1,0,0,0,.353.971m-.088-3.443c.088.088.177.265.265.353a.669.669,0,0,0,.353.177c.177,0,.265.088.441.088a1.233,1.233,0,0,0,.795-.265,1.079,1.079,0,0,0,.265-.795c0-.353-.088-.618-.265-.706a1.676,1.676,0,0,0-.795-.265.8.8,0,0,0-.441.088.459.459,0,0,0-.353.177,1.219,1.219,0,0,0-.265.353.662.662,0,0,0-.088.441c0,.088.088.265.088.353" transform="translate(-1.065 -4.882)" fill="#666"/>
      <path id="Trazado_229749" data-name="Trazado 229749" d="M2.678,6.634V1.954H1V1.336a1.5,1.5,0,0,0,.618-.088,1.255,1.255,0,0,0,.53-.177A.881.881,0,0,0,2.589.718,4.3,4.3,0,0,0,2.854.1h.618V6.545H2.678Z" transform="translate(-0.117 -0.012)" fill="#666"/>
      <rect id="Rectángulo_304840" data-name="Rectángulo 304840" width="1.06" height="1.06" transform="translate(5.916 5.562)" fill="#666"/>
      <path id="Trazado_229750" data-name="Trazado 229750" d="M9.2,2.649a2.444,2.444,0,0,1,.088-.795c.088-.265.088-.441.177-.706A2.213,2.213,0,0,1,9.818.53a1.423,1.423,0,0,1,.618-.353A2.612,2.612,0,0,1,11.319,0,2.612,2.612,0,0,1,12.2.177,3.839,3.839,0,0,1,12.82.53c.177.088.265.353.353.618a1.663,1.663,0,0,1,.177.706,2.444,2.444,0,0,1,.088.795V4.061a2.444,2.444,0,0,1-.088.795c-.088.265-.088.441-.177.706-.088.177-.177.441-.353.53a3.839,3.839,0,0,1-.618.353,2.612,2.612,0,0,1-.883.177,2.612,2.612,0,0,1-.883-.177,3.839,3.839,0,0,1-.618-.353,1.847,1.847,0,0,1-.353-.53,1.663,1.663,0,0,1-.177-.706A2.444,2.444,0,0,1,9.2,4.061V2.649Zm.795,1.589a3.137,3.137,0,0,0,.177.883,1.213,1.213,0,0,0,.441.706,1.079,1.079,0,0,0,.795.265,1.079,1.079,0,0,0,.795-.265,1.922,1.922,0,0,0,.441-.706c.088-.265.088-.53.177-.883V2.914a1.724,1.724,0,0,0-.088-.618c0-.177-.088-.353-.088-.53-.088-.177-.088-.353-.265-.441s-.265-.265-.353-.353A1.12,1.12,0,0,0,11.5.883c-.177,0-.441,0-.53.088a.689.689,0,0,0-.353.353c-.088.177-.177.265-.265.441a1.12,1.12,0,0,0-.088.53,1.724,1.724,0,0,1-.088.618v.53c-.177.177-.177.441-.177.795" transform="translate(-1.077)" fill="#666"/>
      <line id="Línea_615" data-name="Línea 615" y1="184.001" transform="translate(17.217 2.914)" fill="none" stroke="#333" stroke-miterlimit="10" stroke-width="1"/>
      <line id="Línea_616" data-name="Línea 616" x2="4.591" transform="translate(17.217 150.185)" fill="none" stroke="#333" stroke-miterlimit="10" stroke-width="1"/>
      <line id="Línea_617" data-name="Línea 617" x2="4.591" transform="translate(17.217 113.455)" fill="none" stroke="#333" stroke-miterlimit="10" stroke-width="1"/>
      <line id="Línea_618" data-name="Línea 618" x2="4.591" transform="translate(17.217 76.814)" fill="none" stroke="#333" stroke-miterlimit="10" stroke-width="1"/>
      <line id="Línea_619" data-name="Línea 619" x2="4.591" transform="translate(17.217 40.085)" fill="none" stroke="#333" stroke-miterlimit="10" stroke-width="1"/>
      <line id="Línea_620" data-name="Línea 620" x2="4.591" transform="translate(17.217 3.355)" fill="none" stroke="#333" stroke-miterlimit="10" stroke-width="1"/>
      <path id="Trazado_229751" data-name="Trazado 229751" d="M50,184.3a2.3,2.3,0,1,1-2.3,2.3,2.3,2.3,0,0,1,2.3-2.3" transform="translate(-5.585 -21.577)" fill="#0f2771"/>
      <path id="Trazado_229752" data-name="Trazado 229752" d="M56,115.2a2.3,2.3,0,1,1-2.3,2.3,2.3,2.3,0,0,1,2.3-2.3" transform="translate(-6.287 -13.487)" fill="#0f2771"/>
      <path id="Trazado_229753" data-name="Trazado 229753" d="M112.2,176.6a2.3,2.3,0,1,1-2.3,2.3,2.3,2.3,0,0,1,2.3-2.3" transform="translate(-12.867 -20.676)" fill="#0f2771"/>
      <path id="Trazado_229754" data-name="Trazado 229754" d="M103.5,97.1a2.3,2.3,0,1,1-2.3,2.3,2.3,2.3,0,0,1,2.3-2.3" transform="translate(-11.848 -11.368)" fill="#0f2771"/>
      <path id="Trazado_229755" data-name="Trazado 229755" d="M173.5,161a2.3,2.3,0,1,1-2.3,2.3,2.3,2.3,0,0,1,2.3-2.3" transform="translate(-20.044 -18.849)" fill="#0f2771"/>
      <path id="Trazado_229756" data-name="Trazado 229756" d="M144.1,42.7a2.3,2.3,0,1,1-2.3,2.3,2.3,2.3,0,0,1,2.3-2.3" transform="translate(-16.602 -4.999)" fill="#0f2771"/>
      <path id="Trazado_229757" data-name="Trazado 229757" d="M195.1,109.2a2.3,2.3,0,1,1-2.3,2.3,2.3,2.3,0,0,1,2.3-2.3" transform="translate(-22.573 -12.785)" fill="#0f2771"/>
      <path id="Trazado_229758" data-name="Trazado 229758" d="M188.2,49.6a2.3,2.3,0,1,1-2.3,2.3,2.3,2.3,0,0,1,2.3-2.3" transform="translate(-21.765 -5.807)" fill="#0f2771"/>
      <path id="Trazado_229759" data-name="Trazado 229759" d="M221.9,81.5a2.3,2.3,0,1,1-2.3,2.3,2.3,2.3,0,0,1,2.3-2.3" transform="translate(-25.71 -9.542)" fill="#0f2771"/>
      <path id="Trazado_229760" data-name="Trazado 229760" d="M221.9,73.8a2.3,2.3,0,1,1-2.3,2.3,2.3,2.3,0,0,1,2.3-2.3" transform="translate(-25.71 -8.64)" fill="#0f2771"/>
      <path id="Trazado_229761" data-name="Trazado 229761" d="M221.9,13.3a2.3,2.3,0,1,1-2.3,2.3,2.3,2.3,0,0,1,2.3-2.3" transform="translate(-25.71 -1.557)" fill="#0f2771"/>
      <path id="Trazado_229762" data-name="Trazado 229762" d="M213.2,183.5a2.3,2.3,0,1,1-2.3,2.3,2.3,2.3,0,0,1,2.3-2.3" transform="translate(-24.692 -21.484)" fill="#0f2771"/>
      <path id="Trazado_229763" data-name="Trazado 229763" d="M134.6,110.1a2.3,2.3,0,1,1-2.3,2.3,2.3,2.3,0,0,1,2.3-2.3" transform="translate(-15.489 -12.89)" fill="#0f2771"/>
      <path id="Trazado_229764" data-name="Trazado 229764" d="M144.1,82.4a2.3,2.3,0,1,1-2.3,2.3,2.3,2.3,0,0,1,2.3-2.3" transform="translate(-16.602 -9.647)" fill="#0f2771"/>
      <path id="Trazado_229765" data-name="Trazado 229765" d="M209.8,42.7a2.3,2.3,0,1,1-2.3,2.3,2.3,2.3,0,0,1,2.3-2.3" transform="translate(-24.294 -4.999)" fill="#0f2771"/>
      <path id="Trazado_229766" data-name="Trazado 229766" d="M240.9,24.5a2.3,2.3,0,1,1-2.3,2.3,2.3,2.3,0,0,1,2.3-2.3" transform="translate(-27.935 -2.868)" fill="#0f2771"/>
      <path id="Trazado_229767" data-name="Trazado 229767" d="M95.7,151.5a2.3,2.3,0,1,1-2.3,2.3,2.3,2.3,0,0,1,2.3-2.3" transform="translate(-10.935 -17.737)" fill="#0f2771"/>
      <path id="Trazado_229768" data-name="Trazado 229768" d="M119.9,149.8a2.3,2.3,0,1,1-2.3,2.3,2.3,2.3,0,0,1,2.3-2.3" transform="translate(-13.768 -17.538)" fill="#0f2771"/>
      <path id="Trazado_229769" data-name="Trazado 229769" d="M160.5,85.9a2.3,2.3,0,1,1-2.3,2.3,2.3,2.3,0,0,1,2.3-2.3" transform="translate(-18.522 -10.057)" fill="#0f2771"/>
      <path id="Trazado_229770" data-name="Trazado 229770" d="M161.4,126.5a2.3,2.3,0,1,1-2.3,2.3,2.3,2.3,0,0,1,2.3-2.3" transform="translate(-18.627 -14.81)" fill="#0f2771"/>
      <path id="Trazado_229771" data-name="Trazado 229771" d="M91.4,129.9a2.3,2.3,0,1,1-2.3,2.3,2.3,2.3,0,0,1,2.3-2.3" transform="translate(-10.432 -15.208)" fill="#0f2771"/>
      <path id="Trazado_229772" data-name="Trazado 229772" d="M68.1,164.5a2.3,2.3,0,1,1-2.3,2.3,2.3,2.3,0,0,1,2.3-2.3" transform="translate(-7.704 -19.259)" fill="#0f2771"/>
    </g>
  </g>
</svg>
