<svg xmlns="http://www.w3.org/2000/svg" width="67.139" height="87.63" viewBox="0 0 67.139 87.63">
  <g id="Grupo_146391" data-name="Grupo 146391" transform="translate(-214.432 -1668.68)">
    <g id="Grupo_146390" data-name="Grupo 146390" transform="translate(214.432 1668.679)">
      <path id="Trazado_202457" data-name="Trazado 202457" d="M270.939,1747.778v4.607l-.889,1.023c-.832.957-5.807,5.734-22.048,5.734s-21.234-4.183-22.067-5.14h-11.46a2.56,2.56,0,0,0-.043.468c0,5.062,15.03,9.166,33.57,9.166s33.569-4.1,33.569-9.166C281.571,1751.83,277.481,1749.45,270.939,1747.778Z" transform="translate(-214.432 -1718.192)" fill="#0f2771"/>
      <g id="Grupo_146389" data-name="Grupo 146389" transform="translate(0 0)">
        <g id="Grupo_146388" data-name="Grupo 146388" transform="translate(0 41.283)">
          <path id="Trazado_202458" data-name="Trazado 202458" d="M272.455,1783.149A96.986,96.986,0,0,1,248,1785.929a96.985,96.985,0,0,1-24.453-2.781q-6.15-1.68-9.117-4.1v9.159c0,5.063,15.03,9.166,33.57,9.166s33.569-4.1,33.569-9.166v-9.159Q278.611,1781.463,272.455,1783.149Zm-31.928,10.836a1.96,1.96,0,1,1,1.96-1.96A1.96,1.96,0,0,1,240.527,1793.984Zm7.475,0a1.96,1.96,0,1,1,1.96-1.96A1.96,1.96,0,0,1,248,1793.984Zm7.475,0a1.96,1.96,0,1,1,1.96-1.96A1.96,1.96,0,0,1,255.477,1793.984Z" transform="translate(-214.432 -1779.05)" fill="#0f2771"/>
          <path id="Trazado_202459" data-name="Trazado 202459" d="M272.455,1820.607a96.988,96.988,0,0,1-24.453,2.78,96.986,96.986,0,0,1-24.453-2.78q-6.15-1.68-9.117-4.1v9.159c0,5.062,15.03,9.166,33.57,9.166s33.569-4.1,33.569-9.166v-9.159Q278.611,1818.92,272.455,1820.607Zm-31.928,10.619a1.96,1.96,0,1,1,1.96-1.96A1.959,1.959,0,0,1,240.527,1831.225Zm7.475,0a1.96,1.96,0,1,1,1.96-1.96A1.959,1.959,0,0,1,248,1831.225Zm7.475,0a1.96,1.96,0,1,1,1.96-1.96A1.96,1.96,0,0,1,255.477,1831.225Z" transform="translate(-214.432 -1802.497)" fill="#0f2771"/>
          <path id="Trazado_202460" data-name="Trazado 202460" d="M272.455,1858.064A96.964,96.964,0,0,1,248,1860.845a96.962,96.962,0,0,1-24.453-2.781q-6.15-1.679-9.117-4.1v9.159c0,5.062,15.03,9.166,33.57,9.166s33.569-4.1,33.569-9.166v-9.159Q278.611,1856.378,272.455,1858.064Zm-31.928,10.4a1.96,1.96,0,1,1,1.96-1.959A1.959,1.959,0,0,1,240.527,1868.467Zm7.475,0a1.96,1.96,0,1,1,1.96-1.959A1.96,1.96,0,0,1,248,1868.467Zm7.475,0a1.96,1.96,0,1,1,1.96-1.959A1.96,1.96,0,0,1,255.477,1868.467Z" transform="translate(-214.432 -1825.944)" fill="#0f2771"/>
        </g>
        <path id="Trazado_202461" data-name="Trazado 202461" d="M281.39,1679.378l-26.466,8.031a14.759,14.759,0,0,1-7.284,0l-26.466-8.031c-2-.608-2-1.6,0-2.211l26.466-8.031a14.767,14.767,0,0,1,7.284,0l5.769,1.751,20.7,6.281C283.392,1677.775,283.392,1678.77,281.39,1679.378Zm-49.422,7.726v14.414s3.9,4.487,19.314,4.487,19.313-4.487,19.313-4.487V1687.1l-19.313,6.015Zm-8,7.232v-10.717l-2.146-.761v11.479h0l-1.624,3v3.529h5.388v-3.529l-1.625-3Z" transform="translate(-217.712 -1668.679)" fill="#feca2e"/>
      </g>
    </g>
  </g>
</svg>
