<svg xmlns="http://www.w3.org/2000/svg" width="190" height="115" viewBox="0 0 190 115">
  <g id="Grupo_220143" data-name="Grupo 220143" transform="translate(-180 -399)">
    <rect id="Rectángulo_43992" data-name="Rectángulo 43992" width="190" height="115" transform="translate(180 399)" fill="none"/>
    <rect id="Rectángulo_41430" data-name="Rectángulo 41430" width="85" height="28" rx="14" transform="translate(285 407)" fill="#feca2e" opacity="0.2"/>
    <rect id="Rectángulo_41431" data-name="Rectángulo 41431" width="85" height="28" rx="14" transform="translate(180 468)" fill="#4dd0e1" opacity="0.2"/>
    <g id="monitor" transform="translate(217 397.974)">
      <path id="Trazado_222029" data-name="Trazado 222029" d="M102.062,32.277H99.956a14.6,14.6,0,1,0-21.736,0H58.275V16.059a1.622,1.622,0,0,0-1.622-1.622H50.166a1.622,1.622,0,0,0-1.622,1.622V32.277H46.922V9.572A1.622,1.622,0,0,0,45.3,7.95H38.813a1.622,1.622,0,0,0-1.622,1.622v22.7H35.57V20.925A1.622,1.622,0,0,0,33.948,19.3H27.461a1.622,1.622,0,0,0-1.622,1.622V32.277H14.487A6.494,6.494,0,0,0,8,38.764V87.417A6.494,6.494,0,0,0,14.487,93.9H47.916l-2.163,6.487H40.435a1.622,1.622,0,0,0-1.622,1.622v3.244H22.6a1.622,1.622,0,1,0,0,3.244H93.953a1.622,1.622,0,1,0,0-3.244H77.736v-3.244a1.622,1.622,0,0,0-1.622-1.622H70.8L68.634,93.9h33.429a6.494,6.494,0,0,0,6.487-6.487V38.764A6.494,6.494,0,0,0,102.062,32.277ZM90.71,11.312a11.375,11.375,0,0,1,9.613,9.613H90.71Zm-.951,12.857h10.564a11.345,11.345,0,0,1-18.03,7.466ZM77.736,22.546a11.37,11.37,0,0,1,9.731-11.235V21.875L80,29.342a11.293,11.293,0,0,1-2.264-6.8ZM51.788,17.681h3.244V48.495H51.788ZM46.922,35.52h1.622V48.495H46.922ZM40.435,11.194h3.244v37.3H40.435ZM35.57,35.52h1.622V48.495H35.57ZM29.083,22.546h3.244V48.495H29.083Zm45.409,81.088v1.622H42.057v-1.622Zm-25.32-3.244L51.336,93.9H65.214l2.163,6.487Zm56.133-12.974a3.248,3.248,0,0,1-3.244,3.244H14.487a3.248,3.248,0,0,1-3.244-3.244V84.173h94.062Zm0-6.487H11.244V38.764a3.248,3.248,0,0,1,3.244-3.244H25.839V48.495H24.218V38.764A1.622,1.622,0,0,0,22.6,37.142H16.109a1.622,1.622,0,0,0-1.622,1.622V50.116a1.622,1.622,0,0,0,1.622,1.622h51.9a1.622,1.622,0,0,0,1.622-1.622V38.764a1.622,1.622,0,0,0-1.622-1.622H61.518A1.622,1.622,0,0,0,59.9,38.764v9.731H58.275V35.52h24.14a14.542,14.542,0,0,0,13.347,0h6.3a3.248,3.248,0,0,1,3.244,3.244ZM20.974,40.386v8.109H17.731V40.386ZM63.14,48.495V40.386h3.244v8.109Z" transform="translate(0 0)" fill="#0f2771"/>
      <path id="Trazado_222030" data-name="Trazado 222030" d="M51.352,392H41.622a1.622,1.622,0,1,0,0,3.243h9.731a1.622,1.622,0,1,0,0-3.243Z" transform="translate(-25.513 -306.205)" fill="#0f2771"/>
      <path id="Trazado_222031" data-name="Trazado 222031" d="M115.244,392h-1.622a1.622,1.622,0,1,0,0,3.243h1.622a1.622,1.622,0,1,0,0-3.243Z" transform="translate(-82.917 -306.205)" fill="#0f2771"/>
      <path id="Trazado_222032" data-name="Trazado 222032" d="M337.621,169.731a1.616,1.616,0,0,0,1.147-.475l6.012-6.012H358.7a1.622,1.622,0,1,0,0-3.244h-14.6a1.622,1.622,0,0,0-1.147.475l-6.487,6.487a1.622,1.622,0,0,0,1.147,2.769Z" transform="translate(-261.507 -121.236)" fill="#0f2771"/>
      <path id="Trazado_222033" data-name="Trazado 222033" d="M122.687,251.352a4.865,4.865,0,0,0-4.206,2.427l-16.978-9.9a4.865,4.865,0,0,0-9.55.122L74.867,256.81a4.861,4.861,0,0,0-8.409.442l-16.887-7.036a4.867,4.867,0,1,0-.4,3.347L66.061,260.6a4.864,4.864,0,0,0,9.516-.268l17.085-12.814a4.86,4.86,0,0,0,8.283-.213l16.978,9.9a4.865,4.865,0,1,0,4.764-5.857Zm-76.223.008a1.626,1.626,0,1,1,0-.008Zm24.326,9.722a1.624,1.624,0,0,1-1.622-1.622v-.008a1.622,1.622,0,1,1,1.622,1.63Zm25.948-14.6a1.622,1.622,0,1,1,1.622-1.622A1.622,1.622,0,0,1,96.738,246.487Zm25.948,11.352a1.622,1.622,0,1,1,1.622-1.622A1.622,1.622,0,0,1,122.687,257.839Z" transform="translate(-25.49 -185.018)" fill="#0f2771"/>
      <path id="Trazado_222034" data-name="Trazado 222034" d="M332.974,344H321.622a1.622,1.622,0,1,0,0,3.243h11.352a1.622,1.622,0,1,0,0-3.243Z" transform="translate(-248.751 -267.935)" fill="#0f2771"/>
      <path id="Trazado_222035" data-name="Trazado 222035" d="M358.487,320h-4.865a1.622,1.622,0,0,0,0,3.244h4.865a1.622,1.622,0,1,0,0-3.244Z" transform="translate(-274.264 -248.801)" fill="#0f2771"/>
      <path id="Trazado_222036" data-name="Trazado 222036" d="M41.622,235.243H59.461a1.622,1.622,0,1,0,0-3.244H41.622a1.622,1.622,0,1,0,0,3.244Z" transform="translate(-25.513 -178.64)" fill="#0f2771"/>
      <path id="Trazado_222037" data-name="Trazado 222037" d="M153.622,235.243h1.622a1.622,1.622,0,1,0,0-3.244h-1.622a1.622,1.622,0,0,0,0,3.244Z" transform="translate(-114.808 -178.64)" fill="#0f2771"/>
    </g>
  </g>
</svg>
