<svg xmlns="http://www.w3.org/2000/svg" width="190" height="115" viewBox="0 0 190 115">
  <g id="Grupo_148514" data-name="Grupo 148514" transform="translate(-180 -399)">
    <rect id="Rectángulo_43992" data-name="Rectángulo 43992" width="190" height="115" transform="translate(180 399)" fill="none"/>
    <rect id="Rectángulo_41430" data-name="Rectángulo 41430" width="85" height="28" rx="14" transform="translate(285 407)" fill="#feca2e" opacity="0.2"/>
    <rect id="Rectángulo_41431" data-name="Rectángulo 41431" width="85" height="28" rx="14" transform="translate(180 468)" fill="#4dd0e1" opacity="0.2"/>
    <g id="OUTLINE" transform="translate(209 390.526)">
      <path id="Trazado_207208" data-name="Trazado 207208" d="M110.951,96H95.959v3.332h14.992A1.668,1.668,0,0,1,112.617,101v48.308H85.964v3.332h26.653v5a1.668,1.668,0,0,1-1.666,1.666H21a1.668,1.668,0,0,1-1.666-1.666v-5H45.984v-3.332H19.332V101A1.668,1.668,0,0,1,21,99.332H34.324V96H21a5,5,0,0,0-5,5v56.637a5,5,0,0,0,5,5H53.74l-4,13.326H44.319v3.332H87.63v-3.332H82.206l-4-13.326h32.743a5,5,0,0,0,5-5V101A5,5,0,0,0,110.951,96ZM78.728,175.959H53.221l4-13.326H74.729Z" transform="translate(0 -63.342)" fill="#0f2771"/>
      <path id="Trazado_207209" data-name="Trazado 207209" d="M191.139,219.609l2.895-.694a1.666,1.666,0,0,0,1.277-1.62v-5.254a1.666,1.666,0,0,0-1.277-1.62l-2.894-.694a2.624,2.624,0,0,1-1.625-3.922l1.565-2.554a1.666,1.666,0,0,0-.242-2.049l-3.715-3.715-2.356,2.356,2.787,2.787-.879,1.435a5.955,5.955,0,0,0,3.689,8.9l1.617.388v2.627l-1.617.388a5.955,5.955,0,0,0-3.689,8.9l.879,1.435-1.858,1.858-1.435-.879a5.955,5.955,0,0,0-8.9,3.689l-.388,1.617h-2.627l-.388-1.617a5.955,5.955,0,0,0-8.9-3.689l-1.435.879-1.858-1.858.879-1.435a5.955,5.955,0,0,0-3.689-8.9l-1.617-.388v-2.627l1.617-.388a5.955,5.955,0,0,0,3.689-8.9l-.879-1.435,2.787-2.786-2.356-2.356-3.715,3.715a1.666,1.666,0,0,0-.242,2.048L157.8,205.8a2.624,2.624,0,0,1-1.625,3.922l-2.895.694a1.666,1.666,0,0,0-1.277,1.62V217.3a1.666,1.666,0,0,0,1.277,1.62l2.894.694a2.624,2.624,0,0,1,1.625,3.922l-1.565,2.554a1.666,1.666,0,0,0,.242,2.048l3.715,3.715a1.666,1.666,0,0,0,2.048.242l2.554-1.565a2.624,2.624,0,0,1,3.922,1.625l.694,2.894a1.666,1.666,0,0,0,1.62,1.277h5.254a1.666,1.666,0,0,0,1.62-1.277l.694-2.894a2.624,2.624,0,0,1,3.922-1.625l2.554,1.565a1.666,1.666,0,0,0,2.048-.242l3.715-3.715a1.666,1.666,0,0,0,.242-2.048l-1.565-2.554a2.624,2.624,0,0,1,1.625-3.922Z" transform="translate(-107.681 -143.697)" fill="#0f2771"/>
      <path id="Trazado_207210" data-name="Trazado 207210" d="M217.995,267.184a10,10,0,0,0,7.995-15.994l-2.663,2a6.663,6.663,0,1,1-10.663,0l-2.663-2a10,10,0,0,0,7.995,15.994Z" transform="translate(-152.021 -186.218)" fill="#0f2771"/>
      <path id="Trazado_207211" data-name="Trazado 207211" d="M208.157,142.286a1.666,1.666,0,0,0,.229,1.773l8.329,9.995a1.666,1.666,0,0,0,2.56,0l8.329-9.995a1.666,1.666,0,0,0-1.28-2.732h-3.332V129.666A1.666,1.666,0,0,0,221.326,128h-6.663A1.666,1.666,0,0,0,213,129.666v11.661h-3.332a1.666,1.666,0,0,0-1.509.959Zm6.506,2.372a1.666,1.666,0,0,0,1.666-1.666V131.332h3.332v11.661a1.666,1.666,0,0,0,1.666,1.666h1.441l-4.773,5.727-4.773-5.727Z" transform="translate(-152.02 -88.679)" fill="#0f2771"/>
      <path id="Trazado_207212" data-name="Trazado 207212" d="M65.177,198.853H49.209l-4.51-4.51L42.343,196.7l5,5a1.666,1.666,0,0,0,1.178.488H65.177Z" transform="translate(-20.858 -141.207)" fill="#0f2771"/>
      <rect id="Rectángulo_296666" data-name="Rectángulo 296666" width="17.569" height="3.514" transform="translate(23.028 64.022)" fill="#0f2771"/>
      <path id="Trazado_207213" data-name="Trazado 207213" d="M42.343,285.485l2.356,2.356,4.509-4.51H61.845V280H48.519a1.666,1.666,0,0,0-1.178.488Z" transform="translate(-20.858 -209.028)" fill="#0f2771"/>
      <path id="Trazado_207214" data-name="Trazado 207214" d="M376,283.332h12.637l4.509,4.51,2.356-2.356-5-5a1.666,1.666,0,0,0-1.178-.488H376Z" transform="translate(-285.039 -209.028)" fill="#0f2771"/>
      <rect id="Rectángulo_296667" data-name="Rectángulo 296667" width="18.74" height="3.514" transform="translate(90.961 64.022)" fill="#0f2771"/>
      <path id="Trazado_207215" data-name="Trazado 207215" d="M380.477,194.343l-4.51,4.51H360v3.332h16.658a1.666,1.666,0,0,0,1.178-.488l5-5Z" transform="translate(-272.37 -141.207)" fill="#0f2771"/>
      <path id="Trazado_207216" data-name="Trazado 207216" d="M121.666,49.316H139.99V45.984H123.332V19.332h19.99V35.99h3.332V17.666A1.666,1.666,0,0,0,144.987,16H121.666A1.666,1.666,0,0,0,120,17.666V47.65a1.666,1.666,0,0,0,1.666,1.666Z" transform="translate(-82.345 0)" fill="#0f2771"/>
      <rect id="Rectángulo_296668" data-name="Rectángulo 296668" width="14.055" height="3.514" transform="translate(44.111 24.199)" fill="#0f2771"/>
      <rect id="Rectángulo_296669" data-name="Rectángulo 296669" width="14.055" height="3.514" transform="translate(44.111 31.227)" fill="#0f2771"/>
      <rect id="Rectángulo_296670" data-name="Rectángulo 296670" width="14.055" height="3.514" transform="translate(44.111 37.083)" fill="#0f2771"/>
      <path id="Trazado_207217" data-name="Trazado 207217" d="M268.755,34.529a9.969,9.969,0,0,1-1.418-4.894l8.32,1.189v8.41a9.909,9.909,0,0,1-4.044-1.651l-1.906,2.733a13.318,13.318,0,1,0-3.805-4.068Zm10.234,4.7V30.07l6.476-6.476a9.984,9.984,0,0,1-6.476,15.64Zm-1.666-19.848a9.937,9.937,0,0,1,5.786,1.853l-6.375,6.375L267.8,26.337a10.012,10.012,0,0,1,9.52-6.952Z" transform="translate(-196.356 -0.053)" fill="#0f2771"/>
    </g>
  </g>
</svg>
