<svg id="Grupo_220172" data-name="Grupo 220172" xmlns="http://www.w3.org/2000/svg" xmlns:xlink="http://www.w3.org/1999/xlink" width="62.44" height="66.553" viewBox="0 0 62.44 66.553">
  <defs>
    <clipPath id="clip-path">
      <rect id="Rectángulo_304971" data-name="Rectángulo 304971" width="62.44" height="66.553" fill="#4dd0e1" stroke="#4dd0e1" stroke-width="0.5"/>
    </clipPath>
  </defs>
  <g id="Grupo_220171" data-name="Grupo 220171" clip-path="url(#clip-path)">
    <path id="Trazado_229855" data-name="Trazado 229855" d="M13.552,66.552a4.363,4.363,0,0,1-3.075-3.3,4.906,4.906,0,0,1-.078-.967q-.006-13.377,0-26.755A4.175,4.175,0,0,1,14.689,31.2c2.944-.022,5.888-.008,8.832,0a4.419,4.419,0,0,1,3.211,1.331c.646.64,1.286,1.285,1.93,1.927.138.137.273.28.423.4.267.218.575.524.907.388s.15-.546.153-.831c.014-1.623,0-3.247.012-4.87a.781.781,0,0,0-.471-.827,2.169,2.169,0,0,1-1.068-1.011c-.256-.553-.654-.634-1.2-.633-5.541.015-11.083.006-16.624.012A3.438,3.438,0,0,1,8.016,25.94a2.871,2.871,0,0,1-.735-1.9c-.008-.866-.02-1.732,0-2.6.011-.452-.166-.615-.609-.61-1.385.014-2.771.009-4.156,0C.8,20.832,0,20.035,0,18.348q0-7.955,0-15.91C0,.751.731.011,2.395.009,4.949.008,7.5.02,10.057,0a1.786,1.786,0,0,1,1.379.577q2.278,2.314,4.592,4.592a2.044,2.044,0,0,1,.652,1.558c-.011,3.853,0,7.706-.008,11.559a2.256,2.256,0,0,1-2.564,2.554c-1.342.007-2.684.015-4.026,0-.493-.007-.714.161-.7.675.026.779-.007,1.559.014,2.338a.986.986,0,0,0,1.137,1.106q8.6.012,17.209.01a.707.707,0,0,0,.725-.414,2.907,2.907,0,0,1,1.264-1.27.7.7,0,0,0,.423-.72c-.036-2.037.259-1.687-1.644-1.716-1.039-.016-2.078,0-3.117-.005a2.228,2.228,0,0,1-2.521-2.513q0-7.922,0-15.845A2.156,2.156,0,0,1,25.329.009c2.533,0,5.065.011,7.6-.009A1.768,1.768,0,0,1,34.31.557Q36.606,2.9,38.947,5.2a1.94,1.94,0,0,1,.62,1.5c-.016,3.9-.006,7.793-.009,11.689a2.2,2.2,0,0,1-2.446,2.456c-1.363.017-2.728.025-4.091-.005-.562-.012-.81.171-.746.745a3.394,3.394,0,0,1,0,.713.948.948,0,0,0,.578,1.094,2.361,2.361,0,0,1,1.07,1.1.8.8,0,0,0,.819.481q8.539-.016,17.079-.011c.878,0,1.2-.336,1.217-1.228.013-.736-.015-1.473.009-2.208.017-.5-.184-.693-.687-.685-1.342.02-2.684.011-4.026,0A2.258,2.258,0,0,1,45.76,18.3q-.011-7.922,0-15.845A2.164,2.164,0,0,1,48.195.009c2.554,0,5.109.011,7.663-.01a1.8,1.8,0,0,1,1.386.566Q59.551,2.9,61.881,5.2a1.811,1.811,0,0,1,.559,1.39c-.016,3.961-.007,7.922-.01,11.884a2.138,2.138,0,0,1-2.321,2.358q-2.142.031-4.286,0c-.5-.008-.7.165-.676.678.033.691.009,1.385.007,2.078a3.2,3.2,0,0,1-3.52,3.5q-4.871.009-9.741,0c-2.36,0-4.719.008-7.078-.006a.875.875,0,0,0-.932.52,2.415,2.415,0,0,1-1.138,1.122.787.787,0,0,0-.471.826c.011,3.1.017,6.191,0,9.286,0,.557.216.694.73.693,5.39-.013,10.78-.007,16.17-.009.741,0,.9-.253.547-.9a2.128,2.128,0,0,0-2.035-1.137c-3.9.013-7.793.006-11.689,0a3.776,3.776,0,0,1-.775-.047,1.023,1.023,0,0,1-.038-2.015,3.049,3.049,0,0,1,.708-.061q5.845,0,11.689,0a4.182,4.182,0,0,1,4.407,3.59c.1.487.311.578.737.574,1.58-.015,3.16-.012,4.74,0,1.975.01,2.894,1.275,2.275,3.138Q56.265,53.1,52.79,63.537a4.449,4.449,0,0,1-3.132,3.015ZM39.59,41.646q-8.567,0-17.135,0a2.212,2.212,0,0,0-2.564,1.866q-1.306,3.907-2.607,7.815c-1.333,4-2.652,8.005-4.011,12-.2.587-.022.846.483,1.035a3.756,3.756,0,0,0,1.338.2q16.519,0,33.037,0c1.66,0,2.247-.423,2.767-1.983q3.332-10,6.663-20c.308-.926.307-.927-.641-.927H39.59M12.512,58.6l.119.027c1.251-3.511,2.371-7.074,3.55-10.61.83-2.491,1.33-6.712,3.948-8.023,2.662-1.333,6.222-.11,9.077-.477.825-.106.963-.029.948-.982-.024-1.5-1.4-1.247-2.442-2.073-1.071-.851-1.906-2.4-3.176-2.958-1.373-.6-3.592-.178-5.07-.179-2.478,0-6.774-1.026-6.953,2.438-.39,7.566,0,15.259,0,22.837M2.041,10.334c0,1.52,0,3.041,0,4.562,0,.72-.381,3.036.045,3.566.508.631,2.521.259,3.26.259H9.6c1.242,0,3.083.381,4.254,0,1.1-.354.7-1.574.7-2.643-.007-2.563.366-5.425,0-7.958-.279-1.945-3.462-.089-4.724-1.621-1.083-1.315.415-3.895-1.183-4.464-.981-.349-2.826.023-3.892.018-.791,0-2.216-.366-2.692.377s-.02,2.887-.019,3.8c0,1.368,0,2.736,0,4.1m45.836.022c0,2.574.008,5.148-.007,7.722,0,.466.134.652.626.65q5.645-.022,11.291,0c.443,0,.611-.142.61-.6q-.02-5.159,0-10.317c0-.424-.155-.576-.572-.567-.821.019-1.644.011-2.466,0a2.023,2.023,0,0,1-2.178-1.932,17.076,17.076,0,0,1-.045-2.528c.012-.559-.17-.759-.745-.75-1.9.029-3.807.033-5.71,0-.612-.011-.825.154-.816.794.034,2.509.014,5.018.014,7.527M25,10.362c0,2.554,0,5.107,0,7.66,0,.41.031.707.576.7q5.648-.022,11.3,0c.425,0,.569-.17.569-.579q-.012-5.161,0-10.322c0-.411-.144-.589-.569-.578-.8.019-1.6.011-2.4,0a2.1,2.1,0,0,1-2.228-2.18c-.021-.757-.041-1.517.005-2.271.037-.617-.207-.77-.788-.76-1.86.031-3.722.011-5.583.012C25,2.048,25,2.05,25,2.9q0,3.733,0,7.466m6.238,14.657a.968.968,0,0,0-1.026,1c-.014,2.864,3.873-.946,1.026-1M11.553,3.8c-.294,1.331-.046,1.574,1.342,1.341L11.553,3.8M35.811,5.138A5.315,5.315,0,0,0,34.44,3.766c-.278,1.391-.061,1.607,1.371,1.372m22.924-.005a4.65,4.65,0,0,0-1.447-1.364c-.189,1.463-.052,1.6,1.447,1.364" transform="translate(0 0)" fill="#4dd0e1" stroke="#4dd0e1" stroke-width="0.5"/>
    <path id="Trazado_229856" data-name="Trazado 229856" d="M238.619,319.343c-1.005,0-4.568.637-4.659-.983-.1-1.717,3.66-1.11,4.689-1.111,1.1,0,4.356-.607,4.626.873.347,1.9-3.65,1.221-4.655,1.221" transform="translate(-193.363 -262.101)" fill="#4dd0e1" stroke="#4dd0e1" stroke-width="0.5"/>
    <path id="Trazado_229857" data-name="Trazado 229857" d="M226.619,343.477c-1,0-4.783.656-4.7-1.071.076-1.636,3.651-.973,4.69-.973,1.067,0,4.321-.638,4.639.827.407,1.871-3.727,1.217-4.626,1.217" transform="translate(-183.41 -282.077)" fill="#4dd0e1" stroke="#4dd0e1" stroke-width="0.5"/>
    <path id="Trazado_229858" data-name="Trazado 229858" d="M27.644,77.536c.972,0,3.512-.518,3.59,1,.083,1.607-2.637,1.112-3.6,1.111-.939,0-3.791.48-3.633-1.155.141-1.462,2.684-.952,3.643-.951" transform="translate(-19.831 -64.011)" fill="#4dd0e1" stroke="#4dd0e1" stroke-width="0.5"/>
    <path id="Trazado_229859" data-name="Trazado 229859" d="M27.63,53.564c.967,0,3.507-.518,3.612.969.113,1.6-2.652,1.165-3.61,1.165s-3.736.431-3.623-1.162c.1-1.481,2.669-.971,3.621-.971" transform="translate(-19.841 -44.198)" fill="#4dd0e1" stroke="#4dd0e1" stroke-width="0.5"/>
    <path id="Trazado_229860" data-name="Trazado 229860" d="M291.684,77.52c.948,0,3.532-.51,3.6.995.075,1.576-2.67,1.144-3.616,1.144s-3.777.447-3.624-1.185c.139-1.478,2.665-.953,3.636-.953" transform="translate(-238.064 -63.995)" fill="#4dd0e1" stroke="#4dd0e1" stroke-width="0.5"/>
    <path id="Trazado_229861" data-name="Trazado 229861" d="M291.664,53.56c.952,0,3.514-.51,3.63.964.126,1.6-2.707,1.17-3.649,1.171s-3.687.425-3.591-1.157c.091-1.5,2.652-.976,3.611-.978" transform="translate(-238.071 -44.194)" fill="#4dd0e1" stroke="#4dd0e1" stroke-width="0.5"/>
    <path id="Trazado_229862" data-name="Trazado 229862" d="M159.553,53.582c.934,0,3.54-.505,3.639.97.107,1.592-2.719,1.161-3.643,1.161s-3.752.429-3.639-1.165c.1-1.472,2.707-.966,3.642-.966" transform="translate(-128.855 -44.215)" fill="#4dd0e1" stroke="#4dd0e1" stroke-width="0.5"/>
    <path id="Trazado_229863" data-name="Trazado 229863" d="M159.594,77.54c.931,0,3.564-.493,3.6,1.019.035,1.57-2.728,1.087-3.659,1.086s-3.711.476-3.628-1.116c.079-1.506,2.749-.989,3.69-.989" transform="translate(-128.852 -64.016)" fill="#4dd0e1" stroke="#4dd0e1" stroke-width="0.5"/>
  </g>
</svg>
