<svg xmlns="http://www.w3.org/2000/svg" width="190" height="121" viewBox="0 0 190 121">
  <g id="Grupo_220181" data-name="Grupo 220181" transform="translate(-180 -3026)">
    <g id="Grupo_215476" data-name="Grupo 215476" transform="translate(0 361)">
      <rect id="Rect치ngulo_41430" data-name="Rect치ngulo 41430" width="85" height="28" rx="14" transform="translate(285 2665)" fill="#feca2e" opacity="0.2"/>
      <rect id="Rect치ngulo_41431" data-name="Rect치ngulo 41431" width="85" height="28" rx="14" transform="translate(180 2758)" fill="#4dd0e1" opacity="0.2"/>
      <g id="Grupo_215474" data-name="Grupo 215474" transform="translate(-211.851 -33.059)">
        <g id="Grupo_215477" data-name="Grupo 215477" transform="translate(205.324 2506.149)">
          <path id="Trazado_227379" data-name="Trazado 227379" d="M258.963,289.15h1.069q10.6,0,21.2,0a32.226,32.226,0,0,0,31.961-25.5,31.381,31.381,0,0,0-1.638-19,.98.98,0,0,0-1.091-.745c-1.682.044-3.366-.007-5.048.029a.8.8,0,0,1-.934-.659c-.187-.644-.412-1.279-.66-1.9a.841.841,0,0,0-1.281-.522c-.06.029-.125.049-.187.076-.732.33-1.553,1.041-2.175.895-.737-.172-1.318-1.064-1.934-1.675-1.984-1.965-3.939-3.962-5.94-5.91a1.1,1.1,0,0,1-.293-1.545c1.409-2.706,1.339-2.511-1.4-3.47-.284-.1-.563-.207-.9-.33V225.4c-2.345-.285-4.656-.754-6.98-.818a32.206,32.206,0,0,0-32.709,25.656,35.494,35.494,0,0,0-.674,6.305c-.109,3.328-.031,6.663-.033,9.993v.872l3.56-3.7,2.211,2.372-7.355,7.33-7.42-7.435,2.23-2,3.287,3.374.256-.115c0-.348,0-.7,0-1.045.055-4.2-.132-8.429.216-12.608a33.875,33.875,0,0,1,12.459-23.835A73.233,73.233,0,0,1,265.886,225a1.3,1.3,0,0,0,.535-.466h-1.067c-8.616,0-17.231.038-25.847-.015a8.033,8.033,0,0,1-7.144-11.594,7.679,7.679,0,0,1,6.991-4.524c1.744-.074,3.494-.014,5.214-.014,1.626-4.4,4.339-6.529,8.175-6.462,3.65.064,6.367,2.3,7.769,6.413h19.666l-4.381-3.553,2.012-2.505L287.455,210l-9.647,7.721-2.017-2.512,4.366-3.52H260.531c-1.26,4.025-3.916,6.487-8.3,6.335-4.044-.139-6.492-2.546-7.649-6.387-1.845,0-3.7-.1-5.54.025a4.69,4.69,0,0,0-4.255,4.906,4.784,4.784,0,0,0,4.475,4.729c.37.022.741.011,1.11.011,11.174,0,22.349-.025,33.522.012,5.24.016,10.507-.383,15.771.929v-5.267c.854-.314,1.658-.619,2.47-.9.777-.27.947-.749.6-1.483-.356-.753-1.042-1.608-.9-2.268.158-.73,1.083-1.3,1.7-1.919,1.97-1.98,3.965-3.935,5.911-5.94.477-.491.862-.634,1.466-.261a16.81,16.81,0,0,0,1.633.787.855.855,0,0,0,1.285-.521c.041-.091.06-.192.1-.286.842-2.264.842-2.264,3.312-2.264,2.894,0,5.79.018,8.682-.015.607-.007.911.176,1.065.758s.391,1.143.593,1.713a.9.9,0,0,0,1.413.586c.787-.353,1.661-1.045,2.366-.908s1.288,1.1,1.905,1.71c1.956,1.946,3.89,3.917,5.867,5.84.506.492.709.9.286,1.544a13.933,13.933,0,0,0-.712,1.446.921.921,0,0,0,.6,1.48c.791.273,1.575.566,2.384.858v11.975c-.824.3-1.642.582-2.456.884a.86.86,0,0,0-.565,1.337c.014.031.023.063.037.094.326.8,1,1.653.877,2.372-.116.683-1.063,1.23-1.656,1.825-1.971,1.978-3.97,3.931-5.91,5.94a1.05,1.05,0,0,1-1.551.232,13.941,13.941,0,0,0-1.45-.7.9.9,0,0,0-1.427.554c-.082.221-.154.445-.232.667-.618,1.746-.618,1.746-2.553,1.859a35.234,35.234,0,0,1-.184,26.05c-3.457,8.606-9.51,14.847-17.99,19.064h12.475q0-2.4,0-4.8c0-3.984,3.084-5.889,6.652-4.109,4.48,2.235,8.965,4.465,13.433,6.725,2.248,1.136,3.192,3.474,2.113,5.562a5.165,5.165,0,0,1-2.05,2.1c-4.615,2.41-9.28,4.731-13.961,7.017a4.207,4.207,0,0,1-6.184-3.94c-.014-1.71,0-3.421,0-5.194H258.917a11.4,11.4,0,0,1-5.806,8.228,10.988,10.988,0,0,1-7.713,1.158,11.308,11.308,0,0,1,1.222-22.323C251.153,279.025,257.337,281.538,258.963,289.15Zm67.012-56.337a3.273,3.273,0,0,1-.338-3.942,3.158,3.158,0,0,1,2.188-2.044,1.083,1.083,0,0,0,.638-.79c.053-2.084.045-4.169.007-6.255,0-.245-.278-.667-.479-.7-1.417-.239-1.939-1.2-2.455-2.424a2.9,2.9,0,0,1,.048-3.067,1.058,1.058,0,0,0-.106-1c-1.553-1.628-3.16-3.208-4.768-4.819a3.326,3.326,0,0,0-.674.281,2.714,2.714,0,0,1-2.964.105c-1.234-.535-2.259-1.037-2.518-2.5-.037-.211-.581-.469-.9-.476-1.916-.045-3.835.015-5.751-.042-.705-.02-1.086.194-1.191.87-.164,1.043-.843,1.473-1.768,1.914-1.477.7-2.806.951-4.124-.245-1.544,1.548-2.951,3.041-4.454,4.434-.679.63-.889,1.17-.327,1.939a1.662,1.662,0,0,1,.04,2.115,1.685,1.685,0,0,0-.286.641,2.6,2.6,0,0,1-2.225,2.238,1.073,1.073,0,0,0-.593.817c-.05,2.05-.042,4.1-.007,6.154,0,.258.25.708.431.734,1.533.222,2.013,1.333,2.568,2.574a2.637,2.637,0,0,1-.112,2.872.756.756,0,0,0,.11,1.129c1.48,1.421,2.9,2.905,4.379,4.325a.992.992,0,0,0,.9.194,3.1,3.1,0,0,1,3.347-.05c1.116.5,1.979.971,2.229,2.259a1.068,1.068,0,0,0,.8.615q3.077.078,6.155,0a1.061,1.061,0,0,0,.814-.592c.246-1.345,1.17-1.809,2.316-2.3s2.083-.723,3.157.026a.978.978,0,0,0,.932-.063C322.654,236.153,324.258,234.525,325.975,232.813Zm-13.639,57.9c0,2.25-.01,4.5.005,6.754.007,1.23.67,1.65,1.765,1.1q6.761-3.363,13.5-6.776c.366-.185.836-.674.812-.986a1.64,1.64,0,0,0-.833-1.083c-4.483-2.289-8.988-4.536-13.494-6.779-1.109-.551-1.739-.143-1.747,1.11C312.327,286.276,312.336,288.494,312.336,290.713Zm-56.548.09a8.075,8.075,0,1,0-8.14,8.036A8.094,8.094,0,0,0,255.788,290.8Zm1.615-80.772a4.843,4.843,0,1,0-4.824,4.813A4.865,4.865,0,0,0,257.4,210.031Z" transform="translate(0)" fill="#0f2771"/>
          <path id="Trazado_227380" data-name="Trazado 227380" d="M263.711,230.391v9.547h-9.6v-9.547Zm-3.258,3.238h-3.106v3.108h3.106Z" transform="translate(8.217 10.364)" fill="#0f2771"/>
          <path id="Trazado_227381" data-name="Trazado 227381" d="M254.087,249.442V239.87h9.591v9.572Zm3.269-6.375v3.141h3.088v-3.141Z" transform="translate(8.209 13.813)" fill="#0f2771"/>
          <path id="Trazado_227382" data-name="Trazado 227382" d="M263.683,249.346v9.566h-9.568v-9.566Zm-6.361,3.207v3.118h3.1v-3.118Z" transform="translate(8.22 17.262)" fill="#0f2771"/>
          <path id="Trazado_227383" data-name="Trazado 227383" d="M282.85,239.87v3.11H263.592v-3.11Z" transform="translate(11.668 13.813)" fill="#0f2771"/>
          <path id="Trazado_227384" data-name="Trazado 227384" d="M282.862,244.609v3.1h-19.3v-3.1Z" transform="translate(11.659 15.538)" fill="#0f2771"/>
          <path id="Trazado_227385" data-name="Trazado 227385" d="M282.85,249.345v3.11H263.592v-3.11Z" transform="translate(11.668 17.261)" fill="#0f2771"/>
          <path id="Trazado_227386" data-name="Trazado 227386" d="M263.567,257.179v-3.111h19.258v3.111Z" transform="translate(11.659 18.98)" fill="#0f2771"/>
          <path id="Trazado_227387" data-name="Trazado 227387" d="M281.127,233.522H268.32v-3.136h12.807Z" transform="translate(13.389 10.362)" fill="#0f2771"/>
          <path id="Trazado_227388" data-name="Trazado 227388" d="M268.3,238.23v-3.11h12.8v3.11Z" transform="translate(13.383 12.085)" fill="#0f2771"/>
          <path id="Trazado_227389" data-name="Trazado 227389" d="M263.583,230.378h3.11v3.106h-3.11Z" transform="translate(11.665 10.359)" fill="#0f2771"/>
          <path id="Trazado_227390" data-name="Trazado 227390" d="M266.709,235.137v3.1h-3.142v-3.1Z" transform="translate(11.659 12.091)" fill="#0f2771"/>
          <path id="Trazado_227391" data-name="Trazado 227391" d="M293.009,233.686a12.922,12.922,0,1,1,12.954-12.866A12.963,12.963,0,0,1,293.009,233.686Zm.059-22.611a9.689,9.689,0,1,0,9.662,9.716A9.719,9.719,0,0,0,293.068,211.075Z" transform="translate(17.681 2.159)" fill="#0f2771"/>
          <path id="Trazado_227392" data-name="Trazado 227392" d="M239.844,268.216a4.844,4.844,0,1,1,4.76,4.977A4.866,4.866,0,0,1,239.844,268.216Zm6.45.139a1.607,1.607,0,1,0-1.612,1.6A1.624,1.624,0,0,0,246.294,268.355Z" transform="translate(3.026 22.415)" fill="#0f2771"/>
          <path id="Trazado_227393" data-name="Trazado 227393" d="M291.33,212.582a6.458,6.458,0,1,1-6.474,6.466A6.471,6.471,0,0,1,291.33,212.582Zm-.1,9.685a3.228,3.228,0,1,0-3.144-3.286A3.259,3.259,0,0,0,291.231,222.267Z" transform="translate(19.406 3.884)" fill="#0f2771"/>
        </g>
      </g>
    </g>
  </g>
</svg>
