<svg xmlns="http://www.w3.org/2000/svg" width="555" height="402" viewBox="0 0 555 402">
  <g id="Grupo_225034" data-name="Grupo 225034" transform="translate(5123 7290)">
    <path id="Trazado_231161" data-name="Trazado 231161" d="M0,0H510V2H0Z" transform="translate(-5078 -7290)" fill="#4dd0e1" opacity="0.2"/>
    <path id="Trazado_231162" data-name="Trazado 231162" d="M0,0H510V2H0Z" transform="translate(-5078 -6890)" fill="#4dd0e1" opacity="0.2"/>
    <path id="Trazado_231163" data-name="Trazado 231163" d="M0,0H190V402H0Z" transform="translate(-4758 -7290)" fill="#4dd0e1"/>
    <path id="metaverso-nft-ob-01-1" d="M15,0H529a15,15,0,0,1,15,15V369a15,15,0,0,1-15,15H15A15,15,0,0,1,0,369V15A15,15,0,0,1,15,0Z" transform="translate(-5123 -7281)" fill="#fff"/>
    <path id="Trazado_194449" data-name="Trazado 194449" d="M5690.4-10318.569v119.062h237.259" transform="translate(-10524.972 3185.733)" fill="none" stroke="#e8e8e8" stroke-width="1"/>
    <path id="Trazado_194450" data-name="Trazado 194450" d="M5690.4-10297.3h237.569" transform="translate(-10524.972 3178.372)" fill="none" stroke="#e8e8e8" stroke-width="1"/>
    <path id="Trazado_194451" data-name="Trazado 194451" d="M5690.4-10297.3h237.569" transform="translate(-10524.972 3164.464)" fill="none" stroke="#e8e8e8" stroke-width="1"/>
    <path id="Trazado_194452" data-name="Trazado 194452" d="M5690.4-10297.3h237.569" transform="translate(-10524.972 3194.242)" fill="none" stroke="#e8e8e8" stroke-width="1"/>
    <path id="Trazado_194453" data-name="Trazado 194453" d="M5690.4-10297.3h237.569" transform="translate(-10524.972 3208.151)" fill="none" stroke="#e8e8e8" stroke-width="1"/>
    <path id="Trazado_194454" data-name="Trazado 194454" d="M5690.4-10297.3h237.569" transform="translate(-10524.972 3224.021)" fill="none" stroke="#e8e8e8" stroke-width="1"/>
    <path id="Trazado_194455" data-name="Trazado 194455" d="M5690.4-10297.3h237.569" transform="translate(-10524.972 3237.929)" fill="none" stroke="#e8e8e8" stroke-width="1"/>
    <path id="Trazado_194456" data-name="Trazado 194456" d="M5690.4-10297.3h237.569" transform="translate(-10524.972 3253.799)" fill="none" stroke="#e8e8e8" stroke-width="1"/>
    <path id="Trazado_231164" data-name="Trazado 231164" d="M4.241,8H3.514V3.184l-1.457.535V3.063l2.07-.777h.113ZM7.409,4.8h.543a1.193,1.193,0,0,0,.8-.27.9.9,0,0,0,.293-.707.882.882,0,0,0-1-1,1.036,1.036,0,0,0-.748.268.936.936,0,0,0-.279.709H6.3A1.451,1.451,0,0,1,6.8,2.682a1.8,1.8,0,0,1,1.256-.447,1.779,1.779,0,0,1,1.262.426,1.538,1.538,0,0,1,.457,1.184,1.248,1.248,0,0,1-.24.719,1.451,1.451,0,0,1-.654.52,1.4,1.4,0,0,1,.725.492,1.367,1.367,0,0,1,.256.84,1.551,1.551,0,0,1-.5,1.215,1.872,1.872,0,0,1-1.3.449,1.922,1.922,0,0,1-1.3-.434,1.438,1.438,0,0,1-.5-1.145h.727a.93.93,0,0,0,.293.719,1.114,1.114,0,0,0,.785.27,1.093,1.093,0,0,0,.8-.273,1.054,1.054,0,0,0,.277-.785.956.956,0,0,0-.3-.762,1.328,1.328,0,0,0-.879-.273H7.409Z" transform="translate(-4820.152 -7000.369) rotate(-90)" fill="#12263f"/>
    <path id="Trazado_231165" data-name="Trazado 231165" d="M4.241,8H3.514V3.184l-1.457.535V3.063l2.07-.777h.113ZM9.409,6.09H10.2v.59H9.409V8H8.682V6.68H6.092V6.254L8.639,2.313h.77Zm-2.5,0h1.77V3.3L8.6,3.457Z" transform="translate(-4793.634 -7000.369) rotate(-90)" fill="#12263f"/>
    <path id="Trazado_231166" data-name="Trazado 231166" d="M4.241,8H3.514V3.184l-1.457.535V3.063l2.07-.777h.113ZM6.69,5.148l.289-2.836H9.893V2.98h-2.3L7.421,4.531a1.835,1.835,0,0,1,.949-.246A1.569,1.569,0,0,1,9.6,4.8a2.013,2.013,0,0,1,.457,1.389,1.943,1.943,0,0,1-.475,1.385,1.73,1.73,0,0,1-1.326.506A1.8,1.8,0,0,1,7.03,7.66,1.668,1.668,0,0,1,6.487,6.5h.684a1.148,1.148,0,0,0,.348.736,1.081,1.081,0,0,0,.742.248.975.975,0,0,0,.791-.344A1.437,1.437,0,0,0,9.339,6.2a1.319,1.319,0,0,0-.311-.916A1.056,1.056,0,0,0,8.2,4.934a1.191,1.191,0,0,0-.742.207L7.268,5.3Z" transform="translate(-4767.116 -7000.369) rotate(-90)" fill="#12263f"/>
    <path id="Trazado_231167" data-name="Trazado 231167" d="M4.241,8H3.514V3.184l-1.457.535V3.063l2.07-.777h.113ZM9.194,2.309v.613H9.061a1.9,1.9,0,0,0-1.344.5,2.081,2.081,0,0,0-.578,1.363A1.543,1.543,0,0,1,8.366,4.27a1.475,1.475,0,0,1,1.186.523,2.019,2.019,0,0,1,.443,1.352,2.013,2.013,0,0,1-.479,1.406,1.648,1.648,0,0,1-1.283.527,1.623,1.623,0,0,1-1.324-.627A2.485,2.485,0,0,1,6.4,5.836V5.559a3.744,3.744,0,0,1,.67-2.4,2.46,2.46,0,0,1,1.994-.85ZM8.245,4.871a1.215,1.215,0,0,0-1.117.781v.266a1.866,1.866,0,0,0,.316,1.133.948.948,0,0,0,.789.43A.919.919,0,0,0,9,7.121,1.491,1.491,0,0,0,9.28,6.18,1.492,1.492,0,0,0,9,5.232.908.908,0,0,0,8.245,4.871Z" transform="translate(-4740.599 -7000.369) rotate(-90)" fill="#12263f"/>
    <path id="Trazado_231168" data-name="Trazado 231168" d="M4.241,8H3.514V3.184l-1.457.535V3.063l2.07-.777h.113ZM10.03,2.719,7.674,8H6.917L9.264,2.906H6.186V2.313H10.03Z" transform="translate(-4714.081 -7000.369) rotate(-90)" fill="#12263f"/>
    <path id="Trazado_231169" data-name="Trazado 231169" d="M4.241,8H3.514V3.184l-1.457.535V3.063l2.07-.777h.113ZM9.807,3.8a1.321,1.321,0,0,1-.225.758,1.528,1.528,0,0,1-.607.52,1.63,1.63,0,0,1,.705.559,1.406,1.406,0,0,1,.26.832,1.486,1.486,0,0,1-.5,1.176,1.913,1.913,0,0,1-1.311.438,1.9,1.9,0,0,1-1.314-.439,1.493,1.493,0,0,1-.494-1.174,1.448,1.448,0,0,1,.252-.832,1.568,1.568,0,0,1,.7-.562,1.491,1.491,0,0,1-.6-.52A1.34,1.34,0,0,1,6.456,3.8a1.47,1.47,0,0,1,.461-1.141,1.729,1.729,0,0,1,1.215-.422,1.731,1.731,0,0,1,1.213.422A1.467,1.467,0,0,1,9.807,3.8Zm-.59,2.652a1.048,1.048,0,0,0-.3-.777,1.074,1.074,0,0,0-.791-.3A1.017,1.017,0,0,0,7.046,6.449a1.01,1.01,0,0,0,.287.762,1.1,1.1,0,0,0,.8.277,1.1,1.1,0,0,0,.8-.279A1.007,1.007,0,0,0,9.217,6.449ZM8.132,2.828a.932.932,0,0,0-.689.264.969.969,0,0,0-.264.717.964.964,0,0,0,.26.7.922.922,0,0,0,.693.268.922.922,0,0,0,.693-.268.964.964,0,0,0,.26-.7.964.964,0,0,0-.27-.707A.919.919,0,0,0,8.132,2.828Z" transform="translate(-4687.563 -7000.369) rotate(-90)" fill="#12263f"/>
    <path id="Trazado_231170" data-name="Trazado 231170" d="M4.241,8H3.514V3.184l-1.457.535V3.063l2.07-.777h.113ZM9.128,5.5a1.768,1.768,0,0,1-.541.434A1.468,1.468,0,0,1,7.9,6.1a1.515,1.515,0,0,1-.857-.242,1.574,1.574,0,0,1-.564-.682,2.324,2.324,0,0,1-.2-.971,2.368,2.368,0,0,1,.217-1.027,1.593,1.593,0,0,1,.615-.7,1.754,1.754,0,0,1,.93-.242,1.588,1.588,0,0,1,1.33.631,2.752,2.752,0,0,1,.486,1.721V4.8A3.677,3.677,0,0,1,9.2,7.221,2.521,2.521,0,0,1,7.217,8H7.077V7.391h.152A1.99,1.99,0,0,0,8.6,6.925,2,2,0,0,0,9.128,5.5Zm-1.113,0a1.116,1.116,0,0,0,.67-.223,1.313,1.313,0,0,0,.447-.551V4.438a1.989,1.989,0,0,0-.309-1.156A.943.943,0,0,0,7.276,3.2a1.507,1.507,0,0,0-.289.963,1.568,1.568,0,0,0,.279.959A.884.884,0,0,0,8.014,5.5Z" transform="translate(-4661.045 -7000.369) rotate(-90)" fill="#12263f"/>
    <path id="Trazado_231171" data-name="Trazado 231171" d="M5.592,8H1.866V7.48L3.835,5.293a4.677,4.677,0,0,0,.6-.807A1.346,1.346,0,0,0,4.6,3.844a1.02,1.02,0,0,0-.27-.73.942.942,0,0,0-.719-.285,1.116,1.116,0,0,0-.838.307,1.171,1.171,0,0,0-.3.854H1.757a1.677,1.677,0,0,1,.506-1.27,1.875,1.875,0,0,1,1.354-.484A1.8,1.8,0,0,1,4.87,2.65a1.419,1.419,0,0,1,.461,1.107,3.253,3.253,0,0,1-1.07,2L2.737,7.41H5.592ZM9.924,5.574a3.305,3.305,0,0,1-.434,1.887,1.542,1.542,0,0,1-1.355.617,1.553,1.553,0,0,1-1.348-.6,3.137,3.137,0,0,1-.453-1.8V4.707a3.232,3.232,0,0,1,.434-1.863,1.554,1.554,0,0,1,1.359-.609,1.568,1.568,0,0,1,1.352.588,3.119,3.119,0,0,1,.445,1.814ZM9.2,4.586a2.648,2.648,0,0,0-.258-1.338.887.887,0,0,0-.816-.42.876.876,0,0,0-.809.418,2.585,2.585,0,0,0-.262,1.285V5.688a2.69,2.69,0,0,0,.268,1.361.886.886,0,0,0,.811.439.874.874,0,0,0,.795-.414A2.593,2.593,0,0,0,9.2,5.77Z" transform="translate(-4634.528 -7000.369) rotate(-90)" fill="#12263f"/>
    <path id="Trazado_231172" data-name="Trazado 231172" d="M5.592,8H1.866V7.48L3.835,5.293a4.677,4.677,0,0,0,.6-.807A1.346,1.346,0,0,0,4.6,3.844a1.02,1.02,0,0,0-.27-.73.942.942,0,0,0-.719-.285,1.116,1.116,0,0,0-.838.307,1.171,1.171,0,0,0-.3.854H1.757a1.677,1.677,0,0,1,.506-1.27,1.875,1.875,0,0,1,1.354-.484A1.8,1.8,0,0,1,4.87,2.65a1.419,1.419,0,0,1,.461,1.107,3.253,3.253,0,0,1-1.07,2L2.737,7.41H5.592ZM8.733,8H8.007V3.184l-1.457.535V3.063l2.07-.777h.113Z" transform="translate(-4608.01 -7000.369) rotate(-90)" fill="#12263f"/>
    <path id="Trazado_231173" data-name="Trazado 231173" d="M-6.568-1.416l.742-1.428H-5.4l-.98,1.783V0h-.375V-1.061l-.98-1.783h.43Zm1.256.34a1.248,1.248,0,0,1,.122-.559.911.911,0,0,1,.34-.383.925.925,0,0,1,.5-.135.891.891,0,0,1,.7.3,1.15,1.15,0,0,1,.267.795v.025a1.259,1.259,0,0,1-.118.554A.9.9,0,0,1-3.845-.1a.936.936,0,0,1-.5.137.889.889,0,0,1-.7-.3,1.144,1.144,0,0,1-.267-.791Zm.363.043a.9.9,0,0,0,.163.564.522.522,0,0,0,.437.213.519.519,0,0,0,.438-.216.989.989,0,0,0,.162-.6.9.9,0,0,0-.165-.563.525.525,0,0,0-.438-.216.519.519,0,0,0-.432.213A.981.981,0,0,0-4.949-1.033Zm3.318.824A.767.767,0,0,1-2.25.039a.657.657,0,0,1-.515-.2.85.85,0,0,1-.179-.581V-2.113h.361V-.748q0,.48.391.48a.541.541,0,0,0,.551-.309V-2.113h.361V0h-.344ZM1.291-2.537H.377V0H0V-2.537H-.908v-.307h2.2ZM2.775-.209a.767.767,0,0,1-.619.248.657.657,0,0,1-.515-.2.85.85,0,0,1-.179-.581V-2.113h.361V-.748q0,.48.391.48a.541.541,0,0,0,.551-.309V-2.113h.361V0H2.783Zm2.689-.824a1.257,1.257,0,0,1-.223.778.711.711,0,0,1-.6.294.737.737,0,0,1-.619-.283L4.008,0H3.676V-3h.361v1.119a.733.733,0,0,1,.6-.271.716.716,0,0,1,.6.291,1.294,1.294,0,0,1,.22.8ZM5.1-1.074a.976.976,0,0,0-.143-.57.472.472,0,0,0-.41-.2.53.53,0,0,0-.514.332V-.6a.545.545,0,0,0,.518.332.469.469,0,0,0,.4-.2A1.038,1.038,0,0,0,5.1-1.074ZM6.8.039a.923.923,0,0,1-.7-.282A1.047,1.047,0,0,1,5.828-1v-.066a1.268,1.268,0,0,1,.12-.562.937.937,0,0,1,.336-.387.845.845,0,0,1,.468-.14.791.791,0,0,1,.641.271,1.175,1.175,0,0,1,.229.777v.15H6.189a.751.751,0,0,0,.183.5.574.574,0,0,0,.444.192.629.629,0,0,0,.324-.078.815.815,0,0,0,.232-.207l.221.172A.887.887,0,0,1,6.8.039ZM6.752-1.855a.482.482,0,0,0-.367.159A.774.774,0,0,0,6.2-1.25H7.26v-.027A.688.688,0,0,0,7.111-1.7.454.454,0,0,0,6.752-1.855Z" transform="translate(-4814 -7127.264)" fill="#12263f"/>
    <path id="Trazado_231174" data-name="Trazado 231174" d="M0,0H178.713V7.169H0Z" transform="translate(-4820.152 -7123.095)" fill="#0f2771"/>
    <path id="Trazado_231175" data-name="Trazado 231175" d="M-6.139-1.649a1.043,1.043,0,0,1-.715.287,1.154,1.154,0,0,1-.92-.393A1.547,1.547,0,0,1-8.114-2.8a1.574,1.574,0,0,1,.19-.762,1.429,1.429,0,0,1,.535-.557,1.458,1.458,0,0,1,.76-.205,1.415,1.415,0,0,1,.763.212,1.43,1.43,0,0,1,.532.6,2.063,2.063,0,0,1,.2.9v.378a2.564,2.564,0,0,1-.277,1.225,1.911,1.911,0,0,1-.79.8A2.467,2.467,0,0,1-7.4.059H-7.46V-.732l.188,0Q-6.253-.785-6.139-1.649Zm-.448-.425a.481.481,0,0,0,.463-.278v-.41a1.066,1.066,0,0,0-.138-.606.432.432,0,0,0-.372-.2.408.408,0,0,0-.349.223.989.989,0,0,0-.141.539.887.887,0,0,0,.144.532A.459.459,0,0,0-6.587-2.074Zm2.036-.009.261-2.182H-1.8V-3.5h-1.69l-.1.847a1.164,1.164,0,0,1,.277-.109,1.263,1.263,0,0,1,.335-.047A1.251,1.251,0,0,1-2-2.43a1.516,1.516,0,0,1,.341,1.056,1.514,1.514,0,0,1-.183.743,1.259,1.259,0,0,1-.514.511,1.623,1.623,0,0,1-.782.179,1.747,1.747,0,0,1-.753-.165,1.351,1.351,0,0,1-.551-.454,1.1,1.1,0,0,1-.2-.651h.99a.56.56,0,0,0,.149.371A.474.474,0,0,0-3.139-.7q.5,0,.5-.737,0-.681-.609-.681a.608.608,0,0,0-.516.222ZM-.508-.958a.562.562,0,0,1,.39.139.457.457,0,0,1,.155.356.457.457,0,0,1-.155.356.562.562,0,0,1-.39.139A.557.557,0,0,1-.9-.108a.46.46,0,0,1-.154-.354A.46.46,0,0,1-.9-.817.557.557,0,0,1-.508-.958Zm4.151-2.78L2.049,0H1.006L2.6-3.5H.57v-.762H3.643Zm.513.293a.837.837,0,0,1,.258-.639A.967.967,0,0,1,5.1-4.327a.968.968,0,0,1,.694.242.859.859,0,0,1,.255.655v.211a.833.833,0,0,1-.255.636.963.963,0,0,1-.688.24.989.989,0,0,1-.693-.239.841.841,0,0,1-.262-.655Zm.636.225a.354.354,0,0,0,.085.246.3.3,0,0,0,.234.095q.308,0,.308-.39v-.175a.373.373,0,0,0-.082-.249.286.286,0,0,0-.231-.1.292.292,0,0,0-.229.095.371.371,0,0,0-.085.258ZM6.183-1.046a.829.829,0,0,1,.259-.639.975.975,0,0,1,.69-.24.985.985,0,0,1,.694.237.855.855,0,0,1,.258.662V-.82a.836.836,0,0,1-.255.639.967.967,0,0,1-.691.24A.989.989,0,0,1,6.445-.18a.841.841,0,0,1-.262-.655Zm.633.225a.346.346,0,0,0,.094.24.3.3,0,0,0,.229.1.269.269,0,0,0,.308-.268l0-.3a.358.358,0,0,0-.085-.249.3.3,0,0,0-.231-.095.3.3,0,0,0-.226.089.354.354,0,0,0-.091.24ZM5.3-.319l-.46-.231L6.921-3.885l.46.231Z" transform="translate(-4631.382 -7120.095)" fill="#12263f"/>
    <path id="Trazado_231176" data-name="Trazado 231176" d="M1.9-1.256H.705V0H.33V-2.844H2.092v.307H.705v.975H1.9ZM3.723,0a.759.759,0,0,1-.051-.223.806.806,0,0,1-.6.262.746.746,0,0,1-.513-.177.572.572,0,0,1-.2-.448A.6.6,0,0,1,2.608-1.1a1.183,1.183,0,0,1,.706-.183h.352v-.166a.406.406,0,0,0-.113-.3.455.455,0,0,0-.334-.112.527.527,0,0,0-.324.1.288.288,0,0,0-.131.236H2.4a.5.5,0,0,1,.112-.306.766.766,0,0,1,.3-.233,1.025,1.025,0,0,1,.423-.086.835.835,0,0,1,.572.183.659.659,0,0,1,.215.5v.973A1.189,1.189,0,0,0,4.1-.031V0Zm-.6-.275a.635.635,0,0,0,.322-.088.532.532,0,0,0,.221-.229v-.434H3.383q-.664,0-.664.389a.329.329,0,0,0,.113.266A.435.435,0,0,0,3.123-.275Zm2.318.02a.52.52,0,0,0,.338-.117.412.412,0,0,0,.16-.293h.342a.655.655,0,0,1-.125.346.823.823,0,0,1-.308.262.888.888,0,0,1-.407.1.871.871,0,0,1-.687-.288A1.147,1.147,0,0,1,4.5-1.037V-1.1a1.272,1.272,0,0,1,.113-.549.863.863,0,0,1,.325-.373.924.924,0,0,1,.5-.133.848.848,0,0,1,.591.213.761.761,0,0,1,.251.553H5.939a.5.5,0,0,0-.155-.337.483.483,0,0,0-.345-.132.506.506,0,0,0-.427.2.931.931,0,0,0-.151.573v.068a.912.912,0,0,0,.15.563A.508.508,0,0,0,5.441-.256ZM7.564.039a.923.923,0,0,1-.7-.282A1.047,1.047,0,0,1,6.6-1v-.066a1.268,1.268,0,0,1,.12-.562.937.937,0,0,1,.336-.387.845.845,0,0,1,.468-.14.791.791,0,0,1,.641.271,1.175,1.175,0,0,1,.229.777v.15H6.957a.751.751,0,0,0,.183.5.574.574,0,0,0,.444.192.629.629,0,0,0,.324-.078.815.815,0,0,0,.232-.207l.221.172A.887.887,0,0,1,7.564.039ZM7.52-1.855a.482.482,0,0,0-.367.159.774.774,0,0,0-.184.446H8.027v-.027A.688.688,0,0,0,7.879-1.7.454.454,0,0,0,7.52-1.855Zm3.076.822a1.257,1.257,0,0,1-.223.778.711.711,0,0,1-.6.294.737.737,0,0,1-.619-.283L9.139,0H8.807V-3h.361v1.119a.733.733,0,0,1,.6-.271.716.716,0,0,1,.6.291,1.294,1.294,0,0,1,.22.8Zm-.361-.041a.976.976,0,0,0-.143-.57.472.472,0,0,0-.41-.2.53.53,0,0,0-.514.332V-.6a.545.545,0,0,0,.518.332.469.469,0,0,0,.4-.2A1.038,1.038,0,0,0,10.234-1.074Zm.721,0a1.248,1.248,0,0,1,.122-.559.911.911,0,0,1,.34-.383.925.925,0,0,1,.5-.135.891.891,0,0,1,.7.3,1.15,1.15,0,0,1,.267.795v.025a1.259,1.259,0,0,1-.118.554.9.9,0,0,1-.338.382.936.936,0,0,1-.5.137.889.889,0,0,1-.7-.3,1.144,1.144,0,0,1-.267-.791Zm.363.043a.9.9,0,0,0,.163.564.522.522,0,0,0,.437.213.519.519,0,0,0,.438-.216.989.989,0,0,0,.162-.6.9.9,0,0,0-.165-.563.525.525,0,0,0-.438-.216.519.519,0,0,0-.432.213A.981.981,0,0,0,11.318-1.033Zm1.918-.043a1.248,1.248,0,0,1,.122-.559.911.911,0,0,1,.34-.383.925.925,0,0,1,.5-.135.891.891,0,0,1,.7.3,1.15,1.15,0,0,1,.267.795v.025a1.259,1.259,0,0,1-.118.554A.9.9,0,0,1,14.7-.1a.936.936,0,0,1-.5.137.889.889,0,0,1-.7-.3,1.144,1.144,0,0,1-.267-.791Zm.363.043a.9.9,0,0,0,.163.564.522.522,0,0,0,.437.213.519.519,0,0,0,.438-.216.989.989,0,0,0,.162-.6.9.9,0,0,0-.165-.563.525.525,0,0,0-.438-.216.519.519,0,0,0-.432.213A.981.981,0,0,0,13.6-1.033Zm2.6.055-.227.236V0h-.361V-3h.361v1.814l.193-.232.658-.7h.439l-.822.883L17.363,0h-.424Z" transform="translate(-4822 -7106.712)" fill="#12263f"/>
    <path id="Trazado_231177" data-name="Trazado 231177" d="M0,0H138.085V7.169H0Z" transform="translate(-4820.152 -7102.544)" fill="#0f2771"/>
    <path id="Trazado_231178" data-name="Trazado 231178" d="M-6.139-1.649a1.043,1.043,0,0,1-.715.287,1.154,1.154,0,0,1-.92-.393A1.547,1.547,0,0,1-8.114-2.8a1.574,1.574,0,0,1,.19-.762,1.429,1.429,0,0,1,.535-.557,1.458,1.458,0,0,1,.76-.205,1.415,1.415,0,0,1,.763.212,1.43,1.43,0,0,1,.532.6,2.063,2.063,0,0,1,.2.9v.378a2.564,2.564,0,0,1-.277,1.225,1.911,1.911,0,0,1-.79.8A2.467,2.467,0,0,1-7.4.059H-7.46V-.732l.188,0Q-6.253-.785-6.139-1.649Zm-.448-.425a.481.481,0,0,0,.463-.278v-.41a1.066,1.066,0,0,0-.138-.606.432.432,0,0,0-.372-.2.408.408,0,0,0-.349.223.989.989,0,0,0-.141.539.887.887,0,0,0,.144.532A.459.459,0,0,0-6.587-2.074Zm2.88-.472h.466a.484.484,0,0,0,.554-.542.469.469,0,0,0-.132-.344.5.5,0,0,0-.372-.133.535.535,0,0,0-.341.114.349.349,0,0,0-.145.284h-.987a1.011,1.011,0,0,1,.188-.6,1.238,1.238,0,0,1,.52-.412,1.778,1.778,0,0,1,.731-.148A1.747,1.747,0,0,1-2.108-4a1.081,1.081,0,0,1,.407.894.9.9,0,0,1-.168.52,1.2,1.2,0,0,1-.491.4,1.147,1.147,0,0,1,.533.374.984.984,0,0,1,.193.62,1.1,1.1,0,0,1-.439.914A1.824,1.824,0,0,1-3.227.059,1.892,1.892,0,0,1-4-.1a1.219,1.219,0,0,1-.543-.442,1.15,1.15,0,0,1-.185-.643h.993a.445.445,0,0,0,.158.34.559.559,0,0,0,.39.144.585.585,0,0,0,.416-.145.485.485,0,0,0,.155-.371.567.567,0,0,0-.161-.457.674.674,0,0,0-.445-.135h-.48Zm3.2,1.588a.562.562,0,0,1,.39.139.457.457,0,0,1,.155.356.457.457,0,0,1-.155.356.562.562,0,0,1-.39.139A.557.557,0,0,1-.9-.108a.46.46,0,0,1-.154-.354A.46.46,0,0,1-.9-.817.557.557,0,0,1-.508-.958ZM3.063-4.327v.776H3.019a1.482,1.482,0,0,0-.91.265,1.119,1.119,0,0,0-.438.737,1.155,1.155,0,0,1,.844-.328,1.077,1.077,0,0,1,.882.4,1.631,1.631,0,0,1,.328,1.061,1.493,1.493,0,0,1-.192.747A1.369,1.369,0,0,1,3-.133a1.541,1.541,0,0,1-.763.192,1.592,1.592,0,0,1-.812-.207,1.42,1.42,0,0,1-.557-.59,1.944,1.944,0,0,1-.205-.885v-.4A2.462,2.462,0,0,1,.943-3.2a2.05,2.05,0,0,1,.807-.825,2.308,2.308,0,0,1,1.163-.3ZM2.172-2.121a.565.565,0,0,0-.328.091.577.577,0,0,0-.2.223v.3q0,.809.56.809a.454.454,0,0,0,.376-.2.824.824,0,0,0,.151-.507.809.809,0,0,0-.154-.511A.492.492,0,0,0,2.172-2.121ZM4.156-3.445a.837.837,0,0,1,.258-.639A.967.967,0,0,1,5.1-4.327a.968.968,0,0,1,.694.242.859.859,0,0,1,.255.655v.211a.833.833,0,0,1-.255.636.963.963,0,0,1-.688.24.989.989,0,0,1-.693-.239.841.841,0,0,1-.262-.655Zm.636.225a.354.354,0,0,0,.085.246.3.3,0,0,0,.234.095q.308,0,.308-.39v-.175a.373.373,0,0,0-.082-.249.286.286,0,0,0-.231-.1.292.292,0,0,0-.229.095.371.371,0,0,0-.085.258ZM6.183-1.046a.829.829,0,0,1,.259-.639.975.975,0,0,1,.69-.24.985.985,0,0,1,.694.237.855.855,0,0,1,.258.662V-.82a.836.836,0,0,1-.255.639.967.967,0,0,1-.691.24A.989.989,0,0,1,6.445-.18a.841.841,0,0,1-.262-.655Zm.633.225a.346.346,0,0,0,.094.24.3.3,0,0,0,.229.1.269.269,0,0,0,.308-.268l0-.3a.358.358,0,0,0-.085-.249.3.3,0,0,0-.231-.095.3.3,0,0,0-.226.089.354.354,0,0,0-.091.24ZM5.3-.319l-.46-.231L6.921-3.885l.46.231Z" transform="translate(-4651.974 -7099.544)" fill="#12263f"/>
    <path id="Trazado_231179" data-name="Trazado 231179" d="M.943-.9,1-.521l.08-.338.563-1.984h.316L2.506-.859l.078.344L2.645-.9l.441-1.945h.377L2.773,0H2.432L1.846-2.072,1.8-2.289l-.045.217L1.148,0H.807L.119-2.844H.494Zm3.24-.961a.768.768,0,0,1,.625-.295q.67,0,.676.756V0H5.123V-1.4a.486.486,0,0,0-.1-.338A.419.419,0,0,0,4.7-1.846a.521.521,0,0,0-.309.094.637.637,0,0,0-.207.246V0H3.822V-3h.361ZM7.33,0a.759.759,0,0,1-.051-.223.806.806,0,0,1-.6.262.746.746,0,0,1-.513-.177.572.572,0,0,1-.2-.448A.6.6,0,0,1,6.216-1.1a1.183,1.183,0,0,1,.706-.183h.352v-.166a.406.406,0,0,0-.113-.3.455.455,0,0,0-.334-.112.527.527,0,0,0-.324.1.288.288,0,0,0-.131.236H6.008a.5.5,0,0,1,.112-.306.766.766,0,0,1,.3-.233,1.025,1.025,0,0,1,.423-.086.835.835,0,0,1,.572.183.659.659,0,0,1,.215.5v.973a1.189,1.189,0,0,0,.074.463V0Zm-.6-.275a.635.635,0,0,0,.322-.088.532.532,0,0,0,.221-.229v-.434H6.99q-.664,0-.664.389a.329.329,0,0,0,.113.266A.435.435,0,0,0,6.73-.275Zm1.961-2.35v.512h.395v.279H8.691V-.522a.293.293,0,0,0,.053.191.222.222,0,0,0,.18.064A.875.875,0,0,0,9.1-.291V0a1.054,1.054,0,0,1-.277.039.45.45,0,0,1-.365-.146A.629.629,0,0,1,8.33-.523V-1.834H7.945v-.279H8.33v-.512ZM10.738-.561a.266.266,0,0,0-.11-.228,1.062,1.062,0,0,0-.385-.14,1.819,1.819,0,0,1-.436-.141.62.62,0,0,1-.238-.2.467.467,0,0,1-.077-.27.548.548,0,0,1,.22-.439.858.858,0,0,1,.562-.18.883.883,0,0,1,.583.186.589.589,0,0,1,.224.475h-.363a.326.326,0,0,0-.126-.256.472.472,0,0,0-.317-.107.494.494,0,0,0-.309.086.271.271,0,0,0-.111.225.219.219,0,0,0,.1.2,1.274,1.274,0,0,0,.374.127,1.949,1.949,0,0,1,.438.145.64.64,0,0,1,.249.2.5.5,0,0,1,.081.288.541.541,0,0,1-.227.454.95.95,0,0,1-.588.171,1.064,1.064,0,0,1-.449-.09A.731.731,0,0,1,9.53-.3.6.6,0,0,1,9.42-.65h.361a.374.374,0,0,0,.146.288.564.564,0,0,0,.358.106.583.583,0,0,0,.329-.083A.255.255,0,0,0,10.738-.561ZM13.2-.744H12.006L11.738,0h-.387l1.086-2.844h.328L13.854,0h-.385Zm-1.078-.307h.967L12.6-2.381Zm3.846.018a1.265,1.265,0,0,1-.221.777.707.707,0,0,1-.6.295.775.775,0,0,1-.605-.244V.813H14.18V-2.113h.33l.018.234a.744.744,0,0,1,.613-.273.721.721,0,0,1,.6.287,1.279,1.279,0,0,1,.222.8ZM15.6-1.074a.934.934,0,0,0-.152-.564.491.491,0,0,0-.418-.207.531.531,0,0,0-.492.291v1.01a.532.532,0,0,0,.5.289.488.488,0,0,0,.413-.206A1.019,1.019,0,0,0,15.6-1.074Zm2.605.041a1.265,1.265,0,0,1-.221.777.707.707,0,0,1-.6.295.775.775,0,0,1-.605-.244V.813h-.361V-2.113h.33l.018.234a.744.744,0,0,1,.613-.273.721.721,0,0,1,.6.287,1.279,1.279,0,0,1,.222.8Zm-.361-.041a.934.934,0,0,0-.152-.564.491.491,0,0,0-.418-.207.531.531,0,0,0-.492.291v1.01a.532.532,0,0,0,.5.289.488.488,0,0,0,.413-.206A1.019,1.019,0,0,0,17.848-1.074Z" transform="translate(-4822 -7090.029)" fill="#12263f"/>
    <path id="Trazado_231180" data-name="Trazado 231180" d="M0,0H117.494V7.169H0Z" transform="translate(-4820.152 -7084.86)" fill="#0f2771"/>
    <path id="Trazado_231181" data-name="Trazado 231181" d="M-6.139-1.649a1.043,1.043,0,0,1-.715.287,1.154,1.154,0,0,1-.92-.393A1.547,1.547,0,0,1-8.114-2.8a1.574,1.574,0,0,1,.19-.762,1.429,1.429,0,0,1,.535-.557,1.458,1.458,0,0,1,.76-.205,1.415,1.415,0,0,1,.763.212,1.43,1.43,0,0,1,.532.6,2.063,2.063,0,0,1,.2.9v.378a2.564,2.564,0,0,1-.277,1.225,1.911,1.911,0,0,1-.79.8A2.467,2.467,0,0,1-7.4.059H-7.46V-.732l.188,0Q-6.253-.785-6.139-1.649Zm-.448-.425a.481.481,0,0,0,.463-.278v-.41a1.066,1.066,0,0,0-.138-.606.432.432,0,0,0-.372-.2.408.408,0,0,0-.349.223.989.989,0,0,0-.141.539.887.887,0,0,0,.144.532A.459.459,0,0,0-6.587-2.074Zm4.939.331A2.037,2.037,0,0,1-2.036-.41,1.341,1.341,0,0,1-3.13.059a1.349,1.349,0,0,1-1.1-.472,2.034,2.034,0,0,1-.39-1.33v-.779a2.037,2.037,0,0,1,.388-1.333,1.345,1.345,0,0,1,1.1-.469,1.345,1.345,0,0,1,1.1.472,2.039,2.039,0,0,1,.39,1.333Zm-.987-.905a1.521,1.521,0,0,0-.12-.687.4.4,0,0,0-.381-.227.392.392,0,0,0-.371.211,1.433,1.433,0,0,0-.125.639v1.09a1.533,1.533,0,0,0,.12.7A.4.4,0,0,0-3.13-.7a.4.4,0,0,0,.372-.215,1.463,1.463,0,0,0,.123-.675ZM-.508-.958a.562.562,0,0,1,.39.139.457.457,0,0,1,.155.356.457.457,0,0,1-.155.356.562.562,0,0,1-.39.139A.557.557,0,0,1-.9-.108a.46.46,0,0,1-.154-.354A.46.46,0,0,1-.9-.817.557.557,0,0,1-.508-.958Zm4.151-2.78L2.049,0H1.006L2.6-3.5H.57v-.762H3.643Zm.513.293a.837.837,0,0,1,.258-.639A.967.967,0,0,1,5.1-4.327a.968.968,0,0,1,.694.242.859.859,0,0,1,.255.655v.211a.833.833,0,0,1-.255.636.963.963,0,0,1-.688.24.989.989,0,0,1-.693-.239.841.841,0,0,1-.262-.655Zm.636.225a.354.354,0,0,0,.085.246.3.3,0,0,0,.234.095q.308,0,.308-.39v-.175a.373.373,0,0,0-.082-.249.286.286,0,0,0-.231-.1.292.292,0,0,0-.229.095.371.371,0,0,0-.085.258ZM6.183-1.046a.829.829,0,0,1,.259-.639.975.975,0,0,1,.69-.24.985.985,0,0,1,.694.237.855.855,0,0,1,.258.662V-.82a.836.836,0,0,1-.255.639.967.967,0,0,1-.691.24A.989.989,0,0,1,6.445-.18a.841.841,0,0,1-.262-.655Zm.633.225a.346.346,0,0,0,.094.24.3.3,0,0,0,.229.1.269.269,0,0,0,.308-.268l0-.3a.358.358,0,0,0-.085-.249.3.3,0,0,0-.231-.095.3.3,0,0,0-.226.089.354.354,0,0,0-.091.24ZM5.3-.319l-.46-.231L6.921-3.885l.46.231Z" transform="translate(-4677.574 -7081.86)" fill="#12263f"/>
    <path id="Trazado_231182" data-name="Trazado 231182" d="M.732,0H.357V-2.844H.732ZM1.7-2.113l.012.266a.77.77,0,0,1,.633-.3q.67,0,.676.756V0H2.662V-1.4a.486.486,0,0,0-.1-.338.419.419,0,0,0-.319-.109.521.521,0,0,0-.309.094.637.637,0,0,0-.207.246V0H1.361V-2.113ZM4.8-.561a.266.266,0,0,0-.11-.228A1.062,1.062,0,0,0,4.3-.928a1.819,1.819,0,0,1-.436-.141.62.62,0,0,1-.238-.2.467.467,0,0,1-.077-.27.548.548,0,0,1,.22-.439.858.858,0,0,1,.562-.18.883.883,0,0,1,.583.186.589.589,0,0,1,.224.475H4.777a.326.326,0,0,0-.126-.256.472.472,0,0,0-.317-.107.494.494,0,0,0-.309.086.271.271,0,0,0-.111.225.219.219,0,0,0,.1.2,1.274,1.274,0,0,0,.374.127,1.949,1.949,0,0,1,.438.145.64.64,0,0,1,.249.2.5.5,0,0,1,.081.288.541.541,0,0,1-.227.454.95.95,0,0,1-.588.171A1.064,1.064,0,0,1,3.9-.051.731.731,0,0,1,3.591-.3.6.6,0,0,1,3.48-.65h.361a.374.374,0,0,0,.146.288.564.564,0,0,0,.358.106.583.583,0,0,0,.329-.083A.255.255,0,0,0,4.8-.561ZM6.121-2.625v.512h.395v.279H6.121V-.522a.293.293,0,0,0,.053.191.222.222,0,0,0,.18.064.875.875,0,0,0,.172-.023V0a1.054,1.054,0,0,1-.277.039.45.45,0,0,1-.365-.146A.629.629,0,0,1,5.76-.523V-1.834H5.375v-.279H5.76v-.512ZM8.242,0a.759.759,0,0,1-.051-.223.806.806,0,0,1-.6.262.746.746,0,0,1-.513-.177.572.572,0,0,1-.2-.448A.6.6,0,0,1,7.128-1.1a1.183,1.183,0,0,1,.706-.183h.352v-.166a.406.406,0,0,0-.113-.3.455.455,0,0,0-.334-.112.527.527,0,0,0-.324.1.288.288,0,0,0-.131.236H6.92a.5.5,0,0,1,.112-.306.766.766,0,0,1,.3-.233,1.025,1.025,0,0,1,.423-.086.835.835,0,0,1,.572.183.659.659,0,0,1,.215.5v.973a1.189,1.189,0,0,0,.074.463V0Zm-.6-.275a.635.635,0,0,0,.322-.088.532.532,0,0,0,.221-.229v-.434H7.9q-.664,0-.664.389a.329.329,0,0,0,.113.266A.435.435,0,0,0,7.643-.275Zm1.385-.8a1.242,1.242,0,0,1,.229-.786.731.731,0,0,1,.605-.292.727.727,0,0,1,.6.273l.018-.234h.33V-.051A.86.86,0,0,1,10.569.6a.9.9,0,0,1-.653.236,1.087,1.087,0,0,1-.447-.1A.77.77,0,0,1,9.135.467L9.322.25a.707.707,0,0,0,.568.287A.554.554,0,0,0,10.3.389a.567.567,0,0,0,.147-.418V-.211a.743.743,0,0,1-.592.25.722.722,0,0,1-.6-.3A1.306,1.306,0,0,1,9.027-1.074Zm.363.041a.948.948,0,0,0,.146.562.476.476,0,0,0,.41.2.529.529,0,0,0,.5-.311v-.965a.535.535,0,0,0-.5-.3.48.48,0,0,0-.412.205A1.032,1.032,0,0,0,9.391-1.033Zm2.988-.756A1.083,1.083,0,0,0,12.2-1.8a.476.476,0,0,0-.482.3V0h-.361V-2.113h.352l.006.244a.563.563,0,0,1,.5-.283.369.369,0,0,1,.16.027ZM13.938,0a.759.759,0,0,1-.051-.223.806.806,0,0,1-.6.262.746.746,0,0,1-.513-.177.572.572,0,0,1-.2-.448.6.6,0,0,1,.251-.513,1.183,1.183,0,0,1,.706-.183h.352v-.166a.406.406,0,0,0-.113-.3.455.455,0,0,0-.334-.112.527.527,0,0,0-.324.1.288.288,0,0,0-.131.236h-.363a.5.5,0,0,1,.112-.306.766.766,0,0,1,.3-.233,1.025,1.025,0,0,1,.423-.086.835.835,0,0,1,.572.183.659.659,0,0,1,.215.5v.973a1.189,1.189,0,0,0,.074.463V0Zm-.6-.275a.635.635,0,0,0,.322-.088.532.532,0,0,0,.221-.229v-.434H13.6q-.664,0-.664.389a.329.329,0,0,0,.113.266A.435.435,0,0,0,13.338-.275Zm1.811-1.838.01.234a.78.78,0,0,1,.627-.273.6.6,0,0,1,.6.34.8.8,0,0,1,.274-.246.81.81,0,0,1,.4-.094q.7,0,.707.736V0h-.361V-1.395a.485.485,0,0,0-.1-.339.456.456,0,0,0-.348-.112.479.479,0,0,0-.334.12.487.487,0,0,0-.154.323V0h-.363V-1.385a.4.4,0,0,0-.451-.461.483.483,0,0,0-.486.3V0h-.361V-2.113Z" transform="translate(-4822 -7070.913)" fill="#12263f"/>
    <path id="Trazado_231183" data-name="Trazado 231183" d="M0,0H96.9V7.169H0Z" transform="translate(-4820.152 -7065.744)" fill="#0f2771"/>
    <path id="Trazado_231184" data-name="Trazado 231184" d="M-5.208-3.126a.985.985,0,0,1-.154.548,1.12,1.12,0,0,1-.423.381,1.233,1.233,0,0,1,.483.409,1.055,1.055,0,0,1,.179.614,1.116,1.116,0,0,1-.394.9A1.636,1.636,0,0,1-6.6.059,1.666,1.666,0,0,1-7.7-.274a1.108,1.108,0,0,1-.4-.9,1.068,1.068,0,0,1,.176-.606,1.2,1.2,0,0,1,.5-.416,1.127,1.127,0,0,1-.428-.381.978.978,0,0,1-.155-.548A1.1,1.1,0,0,1-7.63-4a1.519,1.519,0,0,1,1.02-.322A1.529,1.529,0,0,1-5.585-4,1.1,1.1,0,0,1-5.208-3.126Zm-.905,1.872a.563.563,0,0,0-.136-.406A.474.474,0,0,0-6.608-1.8a.479.479,0,0,0-.36.142.559.559,0,0,0-.138.406.564.564,0,0,0,.139.4A.478.478,0,0,0-6.6-.7.459.459,0,0,0-6.248-.85.574.574,0,0,0-6.113-1.254Zm-.5-2.312a.365.365,0,0,0-.3.13.566.566,0,0,0-.1.362.6.6,0,0,0,.105.369.364.364,0,0,0,.311.141A.349.349,0,0,0-6.3-2.7a.619.619,0,0,0,.1-.369.567.567,0,0,0-.1-.36A.37.37,0,0,0-6.611-3.565ZM-1.633,0H-4.61V-.645l1.371-1.441A1.636,1.636,0,0,0-2.732-3a.638.638,0,0,0-.12-.419A.429.429,0,0,0-3.2-3.565a.434.434,0,0,0-.366.192.789.789,0,0,0-.141.479H-4.7a1.4,1.4,0,0,1,.2-.725,1.376,1.376,0,0,1,.545-.52,1.619,1.619,0,0,1,.779-.187,1.592,1.592,0,0,1,1.065.319,1.14,1.14,0,0,1,.374.917,1.332,1.332,0,0,1-.094.491,2.152,2.152,0,0,1-.292.5,7.343,7.343,0,0,1-.637.7l-.551.636h1.679ZM-.508-.958a.562.562,0,0,1,.39.139.457.457,0,0,1,.155.356.457.457,0,0,1-.155.356.562.562,0,0,1-.39.139A.557.557,0,0,1-.9-.108a.46.46,0,0,1-.154-.354A.46.46,0,0,1-.9-.817.557.557,0,0,1-.508-.958ZM3.64-1.743A2.037,2.037,0,0,1,3.252-.41,1.341,1.341,0,0,1,2.158.059a1.349,1.349,0,0,1-1.1-.472,2.034,2.034,0,0,1-.39-1.33v-.779a2.037,2.037,0,0,1,.388-1.333,1.345,1.345,0,0,1,1.1-.469,1.345,1.345,0,0,1,1.1.472A2.039,2.039,0,0,1,3.64-2.52Zm-.987-.905a1.521,1.521,0,0,0-.12-.687.4.4,0,0,0-.381-.227.392.392,0,0,0-.371.211,1.433,1.433,0,0,0-.125.639v1.09a1.533,1.533,0,0,0,.12.7A.4.4,0,0,0,2.158-.7.4.4,0,0,0,2.53-.918a1.463,1.463,0,0,0,.123-.675Zm1.5-.8a.837.837,0,0,1,.258-.639A.967.967,0,0,1,5.1-4.327a.968.968,0,0,1,.694.242.859.859,0,0,1,.255.655v.211a.833.833,0,0,1-.255.636.963.963,0,0,1-.688.24.989.989,0,0,1-.693-.239.841.841,0,0,1-.262-.655Zm.636.225a.354.354,0,0,0,.085.246.3.3,0,0,0,.234.095q.308,0,.308-.39v-.175a.373.373,0,0,0-.082-.249.286.286,0,0,0-.231-.1.292.292,0,0,0-.229.095.371.371,0,0,0-.085.258ZM6.183-1.046a.829.829,0,0,1,.259-.639.975.975,0,0,1,.69-.24.985.985,0,0,1,.694.237.855.855,0,0,1,.258.662V-.82a.836.836,0,0,1-.255.639.967.967,0,0,1-.691.24A.989.989,0,0,1,6.445-.18a.841.841,0,0,1-.262-.655Zm.633.225a.346.346,0,0,0,.094.24.3.3,0,0,0,.229.1.269.269,0,0,0,.308-.268l0-.3a.358.358,0,0,0-.085-.249.3.3,0,0,0-.231-.095.3.3,0,0,0-.226.089.354.354,0,0,0-.091.24ZM5.3-.319l-.46-.231L6.921-3.885l.46.231Z" transform="translate(-4700.671 -7062.744)" fill="#12263f"/>
    <path id="Trazado_231185" data-name="Trazado 231185" d="M1.9-1.256H.705V0H.33V-2.844H2.092v.307H.705v.975H1.9ZM2.541,0V-2.844h.93a1.079,1.079,0,0,1,.7.191.69.69,0,0,1,.233.566.578.578,0,0,1-.113.353.734.734,0,0,1-.309.237.66.66,0,0,1,.364.245.7.7,0,0,1,.134.431.761.761,0,0,1-.248.6,1.026,1.026,0,0,1-.7.219Zm.375-1.33V-.307h.619a.6.6,0,0,0,.413-.136A.477.477,0,0,0,4.1-.816q0-.514-.559-.514Zm0-.3h.566a.594.594,0,0,0,.394-.123.413.413,0,0,0,.147-.335.407.407,0,0,0-.137-.342.671.671,0,0,0-.416-.107H2.916Zm3.59-1.213.93,2.32.93-2.32h.486V0H8.477V-1.107l.035-1.2L7.578,0H7.291L6.359-2.3,6.4-1.107V0H6.021V-2.844ZM10.334.039a.923.923,0,0,1-.7-.282A1.047,1.047,0,0,1,9.365-1v-.066a1.268,1.268,0,0,1,.12-.562.937.937,0,0,1,.336-.387.845.845,0,0,1,.468-.14.791.791,0,0,1,.641.271,1.175,1.175,0,0,1,.229.777v.15H9.727a.751.751,0,0,0,.183.5.574.574,0,0,0,.444.192.629.629,0,0,0,.324-.078.815.815,0,0,0,.232-.207l.221.172A.887.887,0,0,1,10.334.039Zm-.045-1.895a.482.482,0,0,0-.367.159.774.774,0,0,0-.184.446H10.8v-.027a.688.688,0,0,0-.148-.427A.454.454,0,0,0,10.289-1.855ZM12.807-.561a.266.266,0,0,0-.11-.228,1.062,1.062,0,0,0-.385-.14,1.819,1.819,0,0,1-.436-.141.62.62,0,0,1-.238-.2.467.467,0,0,1-.077-.27.548.548,0,0,1,.22-.439.858.858,0,0,1,.562-.18.883.883,0,0,1,.583.186.589.589,0,0,1,.224.475h-.363a.326.326,0,0,0-.126-.256.472.472,0,0,0-.317-.107.494.494,0,0,0-.309.086.271.271,0,0,0-.111.225.219.219,0,0,0,.1.2,1.274,1.274,0,0,0,.374.127,1.949,1.949,0,0,1,.438.145.64.64,0,0,1,.249.2.5.5,0,0,1,.081.288.541.541,0,0,1-.227.454.95.95,0,0,1-.588.171,1.064,1.064,0,0,1-.449-.09A.731.731,0,0,1,11.6-.3a.6.6,0,0,1-.11-.349h.361A.374.374,0,0,0,12-.362a.564.564,0,0,0,.358.106.583.583,0,0,0,.329-.083A.255.255,0,0,0,12.807-.561Zm2.063,0a.266.266,0,0,0-.11-.228,1.062,1.062,0,0,0-.385-.14,1.819,1.819,0,0,1-.436-.141.62.62,0,0,1-.238-.2.467.467,0,0,1-.077-.27.548.548,0,0,1,.22-.439.858.858,0,0,1,.562-.18.883.883,0,0,1,.583.186.589.589,0,0,1,.224.475h-.363a.326.326,0,0,0-.126-.256.472.472,0,0,0-.317-.107.494.494,0,0,0-.309.086.271.271,0,0,0-.111.225.219.219,0,0,0,.1.2,1.274,1.274,0,0,0,.374.127,1.949,1.949,0,0,1,.438.145.64.64,0,0,1,.249.2.5.5,0,0,1,.081.288A.541.541,0,0,1,15-.132a.95.95,0,0,1-.588.171,1.064,1.064,0,0,1-.449-.09A.731.731,0,0,1,13.661-.3a.6.6,0,0,1-.11-.349h.361a.374.374,0,0,0,.146.288.564.564,0,0,0,.358.106.583.583,0,0,0,.329-.083A.255.255,0,0,0,14.869-.561Zm1.709.6a.923.923,0,0,1-.7-.282A1.047,1.047,0,0,1,15.609-1v-.066a1.268,1.268,0,0,1,.12-.562.937.937,0,0,1,.336-.387.845.845,0,0,1,.468-.14.791.791,0,0,1,.641.271A1.175,1.175,0,0,1,17.4-1.1v.15H15.971a.751.751,0,0,0,.183.5.574.574,0,0,0,.444.192.629.629,0,0,0,.324-.078.815.815,0,0,0,.232-.207l.221.172A.887.887,0,0,1,16.578.039Zm-.045-1.895a.482.482,0,0,0-.367.159.774.774,0,0,0-.184.446h1.059v-.027a.688.688,0,0,0-.148-.427A.454.454,0,0,0,16.533-1.855Zm1.629-.258.012.266a.77.77,0,0,1,.633-.3q.67,0,.676.756V0h-.361V-1.4a.486.486,0,0,0-.1-.338.419.419,0,0,0-.319-.109.521.521,0,0,0-.309.094.637.637,0,0,0-.207.246V0H17.82V-2.113Zm1.779,1.039a1.242,1.242,0,0,1,.229-.786.731.731,0,0,1,.605-.292.727.727,0,0,1,.6.273l.018-.234h.33V-.051A.86.86,0,0,1,21.483.6a.9.9,0,0,1-.653.236,1.087,1.087,0,0,1-.447-.1.77.77,0,0,1-.334-.268L20.236.25A.707.707,0,0,0,20.8.537a.554.554,0,0,0,.411-.148.567.567,0,0,0,.147-.418V-.211a.743.743,0,0,1-.592.25.722.722,0,0,1-.6-.3A1.306,1.306,0,0,1,19.941-1.074Zm.363.041a.948.948,0,0,0,.146.562.476.476,0,0,0,.41.2.529.529,0,0,0,.5-.311v-.965a.535.535,0,0,0-.5-.3.48.48,0,0,0-.412.205A1.032,1.032,0,0,0,20.3-1.033ZM23.148.039a.923.923,0,0,1-.7-.282A1.047,1.047,0,0,1,22.18-1v-.066a1.268,1.268,0,0,1,.12-.562.937.937,0,0,1,.336-.387.845.845,0,0,1,.468-.14.791.791,0,0,1,.641.271,1.175,1.175,0,0,1,.229.777v.15H22.541a.751.751,0,0,0,.183.5.574.574,0,0,0,.444.192.629.629,0,0,0,.324-.078.815.815,0,0,0,.232-.207l.221.172A.887.887,0,0,1,23.148.039ZM23.1-1.855a.482.482,0,0,0-.367.159.774.774,0,0,0-.184.446h1.059v-.027a.688.688,0,0,0-.148-.427A.454.454,0,0,0,23.1-1.855Zm2.309.066a1.083,1.083,0,0,0-.178-.014.476.476,0,0,0-.482.3V0h-.361V-2.113h.352l.006.244a.563.563,0,0,1,.5-.283.369.369,0,0,1,.16.027Z" transform="translate(-4822 -7050.795)" fill="#12263f"/>
    <path id="Trazado_231186" data-name="Trazado 231186" d="M0,0H76.31V7.169H0Z" transform="translate(-4820.152 -7046.626)" fill="#0f2771"/>
    <path id="Trazado_231187" data-name="Trazado 231187" d="M-5.12-3.738-6.713,0H-7.756l1.6-3.5H-8.193v-.762H-5.12Zm3.472,2A2.037,2.037,0,0,1-2.036-.41,1.341,1.341,0,0,1-3.13.059a1.349,1.349,0,0,1-1.1-.472,2.034,2.034,0,0,1-.39-1.33v-.779a2.037,2.037,0,0,1,.388-1.333,1.345,1.345,0,0,1,1.1-.469,1.345,1.345,0,0,1,1.1.472,2.039,2.039,0,0,1,.39,1.333Zm-.987-.905a1.521,1.521,0,0,0-.12-.687.4.4,0,0,0-.381-.227.392.392,0,0,0-.371.211,1.433,1.433,0,0,0-.125.639v1.09a1.533,1.533,0,0,0,.12.7A.4.4,0,0,0-3.13-.7a.4.4,0,0,0,.372-.215,1.463,1.463,0,0,0,.123-.675ZM-.508-.958a.562.562,0,0,1,.39.139.457.457,0,0,1,.155.356.457.457,0,0,1-.155.356.562.562,0,0,1-.39.139A.557.557,0,0,1-.9-.108a.46.46,0,0,1-.154-.354A.46.46,0,0,1-.9-.817.557.557,0,0,1-.508-.958Zm3.794-.709h.434v.762H3.286V0H2.3V-.905H.649l-.059-.6L2.3-4.257v-.009h.987Zm-1.755,0H2.3V-2.979l-.062.1ZM4.156-3.445a.837.837,0,0,1,.258-.639A.967.967,0,0,1,5.1-4.327a.968.968,0,0,1,.694.242.859.859,0,0,1,.255.655v.211a.833.833,0,0,1-.255.636.963.963,0,0,1-.688.24.989.989,0,0,1-.693-.239.841.841,0,0,1-.262-.655Zm.636.225a.354.354,0,0,0,.085.246.3.3,0,0,0,.234.095q.308,0,.308-.39v-.175a.373.373,0,0,0-.082-.249.286.286,0,0,0-.231-.1.292.292,0,0,0-.229.095.371.371,0,0,0-.085.258ZM6.183-1.046a.829.829,0,0,1,.259-.639.975.975,0,0,1,.69-.24.985.985,0,0,1,.694.237.855.855,0,0,1,.258.662V-.82a.836.836,0,0,1-.255.639.967.967,0,0,1-.691.24A.989.989,0,0,1,6.445-.18a.841.841,0,0,1-.262-.655Zm.633.225a.346.346,0,0,0,.094.24.3.3,0,0,0,.229.1.269.269,0,0,0,.308-.268l0-.3a.358.358,0,0,0-.085-.249.3.3,0,0,0-.231-.095.3.3,0,0,0-.226.089.354.354,0,0,0-.091.24ZM5.3-.319l-.46-.231L6.921-3.885l.46.231Z" transform="translate(-4723.767 -7043.626)" fill="#12263f"/>
    <path id="Trazado_231188" data-name="Trazado 231188" d="M2.295-2.537H1.381V0H1.008V-2.537H.1v-.307h2.2ZM4.42-.5l.406-1.615h.361L4.572,0H4.279L3.766-1.6,3.266,0H2.973L2.359-2.113h.359L3.135-.531l.492-1.582h.291ZM5.947,0H5.586V-2.113h.361ZM5.557-2.674a.216.216,0,0,1,.054-.148.2.2,0,0,1,.159-.061.2.2,0,0,1,.16.061.213.213,0,0,1,.055.148.206.206,0,0,1-.055.146.209.209,0,0,1-.16.059.205.205,0,0,1-.159-.059A.209.209,0,0,1,5.557-2.674Zm1.459.049v.512H7.41v.279H7.016V-.522a.293.293,0,0,0,.053.191.222.222,0,0,0,.18.064A.875.875,0,0,0,7.42-.291V0a1.054,1.054,0,0,1-.277.039.45.45,0,0,1-.365-.146.629.629,0,0,1-.123-.416V-1.834H6.27v-.279h.385v-.512Zm1.307,0v.512h.395v.279H8.322V-.522a.293.293,0,0,0,.053.191.222.222,0,0,0,.18.064.875.875,0,0,0,.172-.023V0a1.054,1.054,0,0,1-.277.039.45.45,0,0,1-.365-.146.629.629,0,0,1-.123-.416V-1.834H7.576v-.279h.385v-.512ZM10.016.039a.923.923,0,0,1-.7-.282A1.047,1.047,0,0,1,9.047-1v-.066a1.268,1.268,0,0,1,.12-.562A.937.937,0,0,1,9.5-2.013a.845.845,0,0,1,.468-.14.791.791,0,0,1,.641.271,1.175,1.175,0,0,1,.229.777v.15H9.408a.751.751,0,0,0,.183.5.574.574,0,0,0,.444.192.629.629,0,0,0,.324-.078.815.815,0,0,0,.232-.207l.221.172A.887.887,0,0,1,10.016.039ZM9.971-1.855A.482.482,0,0,0,9.6-1.7a.774.774,0,0,0-.184.446h1.059v-.027A.688.688,0,0,0,10.33-1.7.454.454,0,0,0,9.971-1.855Zm2.309.066A1.083,1.083,0,0,0,12.1-1.8a.476.476,0,0,0-.482.3V0h-.361V-2.113h.352l.006.244a.563.563,0,0,1,.5-.283.369.369,0,0,1,.16.027Z" transform="translate(-4822 -7030.244)" fill="#12263f"/>
    <path id="Trazado_231189" data-name="Trazado 231189" d="M0,0H55.719V7.169H0Z" transform="translate(-4820.152 -7026.076)" fill="#0f2771"/>
    <path id="Trazado_231190" data-name="Trazado 231190" d="M-8.026-2.084l.261-2.182h2.493V-3.5h-1.69l-.1.847a1.164,1.164,0,0,1,.277-.109,1.263,1.263,0,0,1,.335-.047,1.251,1.251,0,0,1,.977.376,1.516,1.516,0,0,1,.341,1.056,1.514,1.514,0,0,1-.183.743,1.259,1.259,0,0,1-.514.511,1.623,1.623,0,0,1-.782.179,1.747,1.747,0,0,1-.753-.165,1.351,1.351,0,0,1-.551-.454,1.1,1.1,0,0,1-.2-.651h.99a.56.56,0,0,0,.149.371A.474.474,0,0,0-6.614-.7q.5,0,.5-.737,0-.681-.609-.681a.608.608,0,0,0-.516.222Zm5.361.434a1.043,1.043,0,0,1-.715.287,1.154,1.154,0,0,1-.92-.393A1.547,1.547,0,0,1-4.639-2.8a1.574,1.574,0,0,1,.19-.762,1.429,1.429,0,0,1,.535-.557,1.458,1.458,0,0,1,.76-.205,1.415,1.415,0,0,1,.763.212,1.43,1.43,0,0,1,.532.6,2.063,2.063,0,0,1,.2.9v.378a2.564,2.564,0,0,1-.277,1.225,1.911,1.911,0,0,1-.79.8,2.467,2.467,0,0,1-1.2.278h-.062V-.732l.188,0Q-2.779-.785-2.665-1.649Zm-.448-.425a.481.481,0,0,0,.463-.278v-.41a1.066,1.066,0,0,0-.138-.606.432.432,0,0,0-.372-.2.408.408,0,0,0-.349.223.989.989,0,0,0-.141.539.887.887,0,0,0,.144.532A.459.459,0,0,0-3.113-2.074Zm2.6,1.116a.562.562,0,0,1,.39.139.457.457,0,0,1,.155.356.457.457,0,0,1-.155.356.562.562,0,0,1-.39.139A.557.557,0,0,1-.9-.108a.46.46,0,0,1-.154-.354A.46.46,0,0,1-.9-.817.557.557,0,0,1-.508-.958ZM3.655,0H.678V-.645L2.049-2.086A1.636,1.636,0,0,0,2.556-3a.638.638,0,0,0-.12-.419.429.429,0,0,0-.349-.144.434.434,0,0,0-.366.192.789.789,0,0,0-.141.479H.59a1.4,1.4,0,0,1,.2-.725,1.376,1.376,0,0,1,.545-.52,1.619,1.619,0,0,1,.779-.187,1.592,1.592,0,0,1,1.065.319,1.14,1.14,0,0,1,.374.917,1.332,1.332,0,0,1-.094.491,2.152,2.152,0,0,1-.292.5,7.343,7.343,0,0,1-.637.7l-.551.636H3.655Zm.5-3.445a.837.837,0,0,1,.258-.639A.967.967,0,0,1,5.1-4.327a.968.968,0,0,1,.694.242.859.859,0,0,1,.255.655v.211a.833.833,0,0,1-.255.636.963.963,0,0,1-.688.24.989.989,0,0,1-.693-.239.841.841,0,0,1-.262-.655Zm.636.225a.354.354,0,0,0,.085.246.3.3,0,0,0,.234.095q.308,0,.308-.39v-.175a.373.373,0,0,0-.082-.249.286.286,0,0,0-.231-.1.292.292,0,0,0-.229.095.371.371,0,0,0-.085.258ZM6.183-1.046a.829.829,0,0,1,.259-.639.975.975,0,0,1,.69-.24.985.985,0,0,1,.694.237.855.855,0,0,1,.258.662V-.82a.836.836,0,0,1-.255.639.967.967,0,0,1-.691.24A.989.989,0,0,1,6.445-.18a.841.841,0,0,1-.262-.655Zm.633.225a.346.346,0,0,0,.094.24.3.3,0,0,0,.229.1.269.269,0,0,0,.308-.268l0-.3a.358.358,0,0,0-.085-.249.3.3,0,0,0-.231-.095.3.3,0,0,0-.226.089.354.354,0,0,0-.091.24ZM5.3-.319l-.46-.231L6.921-3.885l.46.231Z" transform="translate(-4746.863 -7023.076)" fill="#12263f"/>
    <path id="Trazado_231211" data-name="Trazado 231211" d="M16.875,15V5.047h3.206a4.716,4.716,0,0,1,2.372.6A4.2,4.2,0,0,1,24.1,7.333a5.1,5.1,0,0,1,.6,2.444v.458a5.127,5.127,0,0,1-.578,2.451,4.223,4.223,0,0,1-1.627,1.7A4.612,4.612,0,0,1,20.149,15Zm2.4-8.1v6.255h.834a1.867,1.867,0,0,0,1.586-.735,3.6,3.6,0,0,0,.554-2.184V9.8a3.572,3.572,0,0,0-.554-2.174A1.9,1.9,0,0,0,20.081,6.9ZM28.25,15H25.939V7.6H28.25ZM25.8,5.7a1.028,1.028,0,0,1,.355-.807A1.511,1.511,0,0,1,28,4.89a1.028,1.028,0,0,1,.355.807A1.028,1.028,0,0,1,28,6.5a1.511,1.511,0,0,1-1.846,0A1.028,1.028,0,0,1,25.8,5.7ZM33.834,15a2.6,2.6,0,0,1-.219-.663,2.142,2.142,0,0,1-1.777.8,2.624,2.624,0,0,1-1.777-.632,2.013,2.013,0,0,1-.731-1.589,2.069,2.069,0,0,1,.889-1.818,4.527,4.527,0,0,1,2.584-.615h.711V10.09q0-1.023-.882-1.023a.721.721,0,0,0-.82.811h-2.3a2.065,2.065,0,0,1,.913-1.741,3.835,3.835,0,0,1,2.328-.669,3.363,3.363,0,0,1,2.235.69,2.4,2.4,0,0,1,.841,1.894v3.274a3.353,3.353,0,0,0,.314,1.559V15Zm-1.442-1.5a1.285,1.285,0,0,0,.714-.185,1.157,1.157,0,0,0,.407-.417V11.712h-.67q-1.2,0-1.2,1.08a.659.659,0,0,0,.212.509A.767.767,0,0,0,32.392,13.5Zm4.437-2.249A4.994,4.994,0,0,1,37.2,9.265a2.972,2.972,0,0,1,1.06-1.33,2.793,2.793,0,0,1,1.606-.468,2.221,2.221,0,0,1,1.8.779L41.75,7.6h2.092V14.72a3.118,3.118,0,0,1-.455,1.7,2.917,2.917,0,0,1-1.316,1.107,4.837,4.837,0,0,1-2,.386A4.173,4.173,0,0,1,38.5,17.6a2.844,2.844,0,0,1-1.166-.8l.964-1.354a2.112,2.112,0,0,0,1.7.759,1.372,1.372,0,0,0,1.531-1.572v-.232a2.163,2.163,0,0,1-1.675.731A2.673,2.673,0,0,1,37.663,14.1a4.291,4.291,0,0,1-.834-2.772Zm2.311.144a2.631,2.631,0,0,0,.342,1.439,1.078,1.078,0,0,0,.957.53,1.224,1.224,0,0,0,1.087-.5V9.75a1.193,1.193,0,0,0-1.073-.506,1.086,1.086,0,0,0-.964.55A3,3,0,0,0,39.139,11.391Zm10.486-1.7-.759-.055a1.363,1.363,0,0,0-1.395.684V15h-2.3V7.6h2.16l.075.95a1.784,1.784,0,0,1,1.62-1.087,2.247,2.247,0,0,1,.643.082ZM54.417,15a2.6,2.6,0,0,1-.219-.663,2.142,2.142,0,0,1-1.777.8,2.624,2.624,0,0,1-1.777-.632,2.013,2.013,0,0,1-.731-1.589A2.069,2.069,0,0,1,50.8,11.1a4.527,4.527,0,0,1,2.584-.615H54.1V10.09q0-1.023-.882-1.023a.721.721,0,0,0-.82.811h-2.3A2.065,2.065,0,0,1,51,8.136a3.835,3.835,0,0,1,2.328-.669,3.363,3.363,0,0,1,2.235.69,2.4,2.4,0,0,1,.841,1.894v3.274a3.353,3.353,0,0,0,.314,1.559V15Zm-1.442-1.5a1.285,1.285,0,0,0,.714-.185,1.157,1.157,0,0,0,.407-.417V11.712h-.67q-1.2,0-1.2,1.08a.659.659,0,0,0,.212.509A.767.767,0,0,0,52.975,13.5ZM59.859,7.6l.075.868a2.543,2.543,0,0,1,2.112-1A1.872,1.872,0,0,1,63.94,8.581a2.462,2.462,0,0,1,2.174-1.114q2.249,0,2.311,2.721V15H66.114V10.331a1.41,1.41,0,0,0-.191-.827.815.815,0,0,0-.7-.26,1.091,1.091,0,0,0-1.019.608l.007.1V15H61.9V10.345a1.482,1.482,0,0,0-.185-.841.812.812,0,0,0-.7-.26A1.1,1.1,0,0,0,60,9.853V15H57.7V7.6ZM73.907,15a2.6,2.6,0,0,1-.219-.663,2.142,2.142,0,0,1-1.777.8,2.624,2.624,0,0,1-1.777-.632,2.013,2.013,0,0,1-.731-1.589,2.069,2.069,0,0,1,.889-1.818,4.527,4.527,0,0,1,2.584-.615h.711V10.09q0-1.023-.882-1.023a.721.721,0,0,0-.82.811h-2.3a2.065,2.065,0,0,1,.913-1.741,3.835,3.835,0,0,1,2.328-.669,3.363,3.363,0,0,1,2.235.69,2.4,2.4,0,0,1,.841,1.894v3.274a3.353,3.353,0,0,0,.314,1.559V15Zm-1.442-1.5a1.285,1.285,0,0,0,.714-.185,1.157,1.157,0,0,0,.407-.417V11.712h-.67q-1.2,0-1.2,1.08a.659.659,0,0,0,.212.509A.767.767,0,0,0,72.464,13.5Zm7.9-2.249a4.518,4.518,0,0,1,.759-2.769,2.5,2.5,0,0,1,2.119-1.012,2.124,2.124,0,0,1,1.668.779V4.5h2.311V15H85.152l-.116-.793a2.181,2.181,0,0,1-1.8.93,2.493,2.493,0,0,1-2.092-1.012A4.661,4.661,0,0,1,80.367,11.247Zm2.3.144q0,1.969,1.148,1.969a1.134,1.134,0,0,0,1.094-.643V9.9a1.1,1.1,0,0,0-1.08-.656q-1.066,0-1.155,1.723Zm9.44,3.746a3.8,3.8,0,0,1-2.755-1.015A3.506,3.506,0,0,1,88.3,11.479v-.191a4.542,4.542,0,0,1,.42-2,3.076,3.076,0,0,1,1.227-1.343,3.7,3.7,0,0,1,1.914-.475,3.2,3.2,0,0,1,2.461.967,3.8,3.8,0,0,1,.9,2.7v.9h-4.58a1.66,1.66,0,0,0,.54.978,1.607,1.607,0,0,0,1.08.355,2.07,2.07,0,0,0,1.709-.766l1.053,1.244a2.943,2.943,0,0,1-1.22.947A4.124,4.124,0,0,1,92.111,15.137Zm-.26-5.893q-1.012,0-1.2,1.34h2.324v-.178a1.141,1.141,0,0,0-.28-.858A1.115,1.115,0,0,0,91.851,9.244Zm14.656,2.119a4.508,4.508,0,0,1-.752,2.8,2.519,2.519,0,0,1-2.119.978,2.186,2.186,0,0,1-1.818-.9l-.1.759H99.658V4.5h2.3V8.2a2.109,2.109,0,0,1,1.661-.731,2.519,2.519,0,0,1,2.133.991,4.531,4.531,0,0,1,.752,2.789Zm-2.311-.147a3.007,3.007,0,0,0-.284-1.518.956.956,0,0,0-.872-.454,1.1,1.1,0,0,0-1.08.594v2.935a1.109,1.109,0,0,0,1.094.587.978.978,0,0,0,1.032-.792A5.685,5.685,0,0,0,104.2,11.216ZM111.689,15a2.6,2.6,0,0,1-.219-.663,2.142,2.142,0,0,1-1.777.8,2.624,2.624,0,0,1-1.777-.632,2.013,2.013,0,0,1-.731-1.589,2.069,2.069,0,0,1,.889-1.818,4.527,4.527,0,0,1,2.584-.615h.711V10.09q0-1.023-.882-1.023a.721.721,0,0,0-.82.811h-2.3a2.065,2.065,0,0,1,.913-1.741,3.835,3.835,0,0,1,2.328-.669,3.363,3.363,0,0,1,2.235.69,2.4,2.4,0,0,1,.841,1.894v3.274a3.353,3.353,0,0,0,.314,1.559V15Zm-1.442-1.5a1.285,1.285,0,0,0,.714-.185,1.157,1.157,0,0,0,.407-.417V11.712h-.67q-1.2,0-1.2,1.08a.659.659,0,0,0,.212.509A.767.767,0,0,0,110.247,13.5Zm9.181-3.808-.759-.055a1.363,1.363,0,0,0-1.395.684V15h-2.3V7.6h2.16l.075.95a1.784,1.784,0,0,1,1.62-1.087,2.246,2.246,0,0,1,.643.082Zm5.3,0-.759-.055a1.363,1.363,0,0,0-1.395.684V15h-2.3V7.6h2.16l.075.95a1.784,1.784,0,0,1,1.62-1.087,2.246,2.246,0,0,1,.643.082ZM129.524,15a2.6,2.6,0,0,1-.219-.663,2.142,2.142,0,0,1-1.777.8,2.624,2.624,0,0,1-1.777-.632,2.013,2.013,0,0,1-.731-1.589,2.069,2.069,0,0,1,.889-1.818,4.527,4.527,0,0,1,2.584-.615h.711V10.09q0-1.023-.882-1.023a.721.721,0,0,0-.82.811h-2.3a2.065,2.065,0,0,1,.913-1.741,3.835,3.835,0,0,1,2.328-.669,3.363,3.363,0,0,1,2.235.69,2.4,2.4,0,0,1,.841,1.894v3.274a3.353,3.353,0,0,0,.314,1.559V15Zm-1.442-1.5a1.285,1.285,0,0,0,.714-.185,1.157,1.157,0,0,0,.407-.417V11.712h-.67q-1.2,0-1.2,1.08a.659.659,0,0,0,.212.509A.767.767,0,0,0,128.082,13.5Zm8.579-.574a.532.532,0,0,0-.308-.472,4.679,4.679,0,0,0-1.169-.369,5.33,5.33,0,0,1-1.422-.5,2.382,2.382,0,0,1-.854-.755,1.8,1.8,0,0,1-.294-1.019,2.044,2.044,0,0,1,.841-1.678,3.464,3.464,0,0,1,2.2-.66,3.837,3.837,0,0,1,2.352.663,2.074,2.074,0,0,1,.889,1.743h-2.311q0-.889-.937-.889a.928.928,0,0,0-.608.2.624.624,0,0,0-.246.5.573.573,0,0,0,.3.5,2.842,2.842,0,0,0,.96.314,8.3,8.3,0,0,1,1.159.294,2.105,2.105,0,0,1,1.668,2.058,1.937,1.937,0,0,1-.9,1.647,3.942,3.942,0,0,1-2.328.636,4.023,4.023,0,0,1-1.7-.342,2.835,2.835,0,0,1-1.162-.93,2.105,2.105,0,0,1-.417-1.237h2.153a.89.89,0,0,0,.342.749,1.406,1.406,0,0,0,.841.236,1.106,1.106,0,0,0,.708-.191A.612.612,0,0,0,136.661,12.922ZM145.7,8.4a2.528,2.528,0,0,1,3.732-.205,3.256,3.256,0,0,1,.636,2.14V15h-2.311V10.386a1.3,1.3,0,0,0-.239-.865,1.028,1.028,0,0,0-.813-.277,1.107,1.107,0,0,0-1,.451V15h-2.3V4.5h2.3Zm5.359,2.837a4.366,4.366,0,0,1,.431-1.972,3.08,3.08,0,0,1,1.237-1.33,3.726,3.726,0,0,1,1.894-.465A3.4,3.4,0,0,1,157.237,8.5a3.948,3.948,0,0,1,.957,2.8v.082a3.83,3.83,0,0,1-.96,2.745,3.41,3.41,0,0,1-2.6,1.015,3.449,3.449,0,0,1-2.536-.947,3.7,3.7,0,0,1-1.032-2.567Zm2.3.144a2.752,2.752,0,0,0,.321,1.5,1.07,1.07,0,0,0,.95.479q1.23,0,1.258-1.894v-.232q0-1.989-1.271-1.989-1.155,0-1.251,1.716Zm10.322-1.688-.759-.055a1.363,1.363,0,0,0-1.395.684V15h-2.3V7.6h2.16l.075.95a1.784,1.784,0,0,1,1.62-1.087,2.247,2.247,0,0,1,.643.082ZM166.944,15h-2.311V7.6h2.311ZM164.5,5.7a1.028,1.028,0,0,1,.355-.807,1.511,1.511,0,0,1,1.846,0,1.028,1.028,0,0,1,.355.807,1.028,1.028,0,0,1-.355.807,1.511,1.511,0,0,1-1.846,0A1.028,1.028,0,0,1,164.5,5.7Zm6.583,7.526h3.37V15h-6.282V13.715l3.281-4.334h-3.138V7.6h6.063V8.848Zm4.088-1.989a4.366,4.366,0,0,1,.431-1.972,3.08,3.08,0,0,1,1.237-1.33,3.726,3.726,0,0,1,1.894-.465A3.4,3.4,0,0,1,181.347,8.5a3.948,3.948,0,0,1,.957,2.8v.082a3.83,3.83,0,0,1-.96,2.745,3.41,3.41,0,0,1-2.6,1.015,3.449,3.449,0,0,1-2.536-.947,3.7,3.7,0,0,1-1.032-2.567Zm2.3.144a2.752,2.752,0,0,0,.321,1.5,1.07,1.07,0,0,0,.95.479q1.23,0,1.258-1.894v-.232q0-1.989-1.271-1.989-1.155,0-1.251,1.716ZM185.435,7.6l.075.868a2.508,2.508,0,0,1,2.112-1,2.11,2.11,0,0,1,1.726.69,3.287,3.287,0,0,1,.591,2.078V15h-2.311V10.331a1.248,1.248,0,0,0-.226-.824,1.044,1.044,0,0,0-.82-.263,1.1,1.1,0,0,0-1,.533V15h-2.3V7.6ZM193.9,5.765V7.6h1.217V9.2H193.9v3.384a.864.864,0,0,0,.15.581.807.807,0,0,0,.595.164,3.38,3.38,0,0,0,.574-.041v1.647a4.252,4.252,0,0,1-1.3.2,2.413,2.413,0,0,1-1.757-.561,2.3,2.3,0,0,1-.567-1.7V9.2h-.943V7.6h.943V5.765ZM200.187,15a2.6,2.6,0,0,1-.219-.663,2.142,2.142,0,0,1-1.777.8,2.624,2.624,0,0,1-1.777-.632,2.013,2.013,0,0,1-.731-1.589,2.069,2.069,0,0,1,.889-1.818,4.527,4.527,0,0,1,2.584-.615h.711V10.09q0-1.023-.882-1.023a.721.721,0,0,0-.82.811h-2.3a2.065,2.065,0,0,1,.913-1.741,3.835,3.835,0,0,1,2.328-.669,3.363,3.363,0,0,1,2.235.69,2.4,2.4,0,0,1,.841,1.894v3.274a3.353,3.353,0,0,0,.314,1.559V15Zm-1.442-1.5a1.285,1.285,0,0,0,.714-.185,1.157,1.157,0,0,0,.407-.417V11.712h-.67q-1.2,0-1.2,1.08a.659.659,0,0,0,.212.509A.767.767,0,0,0,198.745,13.5Zm7.137,1.5h-2.311V4.5h2.311Zm5,.137a3.8,3.8,0,0,1-2.755-1.015,3.505,3.505,0,0,1-1.053-2.642v-.191a4.542,4.542,0,0,1,.42-2,3.076,3.076,0,0,1,1.227-1.343,3.7,3.7,0,0,1,1.914-.475,3.2,3.2,0,0,1,2.461.967,3.8,3.8,0,0,1,.9,2.7v.9h-4.58a1.66,1.66,0,0,0,.54.978,1.607,1.607,0,0,0,1.08.355,2.07,2.07,0,0,0,1.709-.766l1.053,1.244a2.943,2.943,0,0,1-1.22.947A4.123,4.123,0,0,1,210.878,15.137Zm-.26-5.893q-1.012,0-1.2,1.34h2.324v-.178a1.141,1.141,0,0,0-.28-.858A1.115,1.115,0,0,0,210.619,9.244Zm8.176,3.678a.532.532,0,0,0-.308-.472,4.679,4.679,0,0,0-1.169-.369,5.33,5.33,0,0,1-1.422-.5,2.382,2.382,0,0,1-.854-.755,1.8,1.8,0,0,1-.294-1.019,2.044,2.044,0,0,1,.841-1.678,3.464,3.464,0,0,1,2.2-.66,3.837,3.837,0,0,1,2.352.663,2.074,2.074,0,0,1,.889,1.743h-2.311q0-.889-.937-.889a.928.928,0,0,0-.608.2.624.624,0,0,0-.246.5.573.573,0,0,0,.3.5,2.842,2.842,0,0,0,.96.314,8.3,8.3,0,0,1,1.159.294,2.105,2.105,0,0,1,1.668,2.058,1.937,1.937,0,0,1-.9,1.647,3.942,3.942,0,0,1-2.328.636,4.023,4.023,0,0,1-1.7-.342,2.835,2.835,0,0,1-1.162-.93,2.105,2.105,0,0,1-.417-1.237h2.153a.89.89,0,0,0,.342.749,1.406,1.406,0,0,0,.841.236,1.106,1.106,0,0,0,.708-.191A.612.612,0,0,0,218.794,12.922Z" transform="translate(-4834.569 -7169.5)" fill="#12263f"/>
    <path id="Trazado_229675" data-name="Trazado 229675" d="M5690.4-10318.569v119.062h235.865" transform="translate(-10780.918 3188.63)" fill="none" stroke="#e8e8e8" stroke-width="1"/>
    <path id="Trazado_229676" data-name="Trazado 229676" d="M5690.4-10297.3h236.189" transform="translate(-10780.916 3181.27)" fill="none" stroke="#e8e8e8" stroke-width="1"/>
    <path id="Trazado_229677" data-name="Trazado 229677" d="M5690.4-10297.3h236.189" transform="translate(-10780.916 3167.361)" fill="none" stroke="#e8e8e8" stroke-width="1"/>
    <path id="Trazado_229678" data-name="Trazado 229678" d="M5690.4-10297.3h236.189" transform="translate(-10780.916 3197.14)" fill="none" stroke="#e8e8e8" stroke-width="1"/>
    <path id="Trazado_229679" data-name="Trazado 229679" d="M5690.4-10297.3h236.189" transform="translate(-10780.916 3211.048)" fill="none" stroke="#e8e8e8" stroke-width="1"/>
    <path id="Trazado_229680" data-name="Trazado 229680" d="M5690.4-10297.3h236.189" transform="translate(-10780.916 3226.917)" fill="none" stroke="#e8e8e8" stroke-width="1"/>
    <path id="Trazado_229681" data-name="Trazado 229681" d="M5690.4-10297.3h236.189" transform="translate(-10780.916 3240.826)" fill="none" stroke="#e8e8e8" stroke-width="1"/>
    <path id="Trazado_229682" data-name="Trazado 229682" d="M5690.4-10297.3h236.189" transform="translate(-10780.916 3256.697)" fill="none" stroke="#e8e8e8" stroke-width="1"/>
    <path id="Trazado_231216" data-name="Trazado 231216" d="M0,0H17.34V35.966H0Z" transform="translate(-5087.856 -7046.517)" fill="#0f2771"/>
    <path id="Trazado_231215" data-name="Trazado 231215" d="M0,0H17.34V18.31H0Z" transform="translate(-5065.314 -7028.861)" fill="#0f2771"/>
    <path id="Trazado_231214" data-name="Trazado 231214" d="M0,0H18.5V7.847H0Z" transform="translate(-5051.655 -7018.398)" fill="#0f2771"/>
    <path id="Trazado_231213" data-name="Trazado 231213" d="M0,0H17.34V17H0Z" transform="translate(-5031.407 -7027.553)" fill="#0f2771"/>
    <path id="Trazado_231210" data-name="Trazado 231210" d="M0,0H17.34V3.924H0Z" transform="translate(-4991.97 -7014.474)" fill="#0f2771"/>
    <path id="Trazado_231209" data-name="Trazado 231209" d="M0,0H17.34V23.542H0Z" transform="translate(-4972.252 -7034.092)" fill="#0f2771"/>
    <path id="Trazado_231208" data-name="Trazado 231208" d="M0,0H18.5V107.9H0Z" transform="translate(-4953.63 -7118.45)" fill="#0f2771"/>
    <path id="Trazado_231205" data-name="Trazado 231205" d="M0,0H17.34V10.463H0Z" transform="translate(-4933.802 -7021.014)" fill="#0f2771"/>
    <path id="Trazado_231206" data-name="Trazado 231206" d="M0,0H17.34V24.85H0Z" transform="translate(-4913.591 -7035.4)" fill="#0f2771"/>
    <path id="Trazado_231207" data-name="Trazado 231207" d="M0,0H17.918V27.465H0Z" transform="translate(-4898.283 -7038.016)" fill="#0f2771"/>
    <path id="Trazado_231191" data-name="Trazado 231191" d="M0,0H18.5V30.081H0Z" transform="translate(-4875.162 -7040.632)" fill="#0f2771"/>
    <path id="Trazado_231192" data-name="Trazado 231192" d="M1.156,0A1.239,1.239,0,0,1,2.312,1.308,1.239,1.239,0,0,1,1.156,2.616,1.239,1.239,0,0,1,0,1.308,1.239,1.239,0,0,1,1.156,0Z" transform="translate(-4867.648 -7036.708)" fill="#feca2e"/>
    <path id="Trazado_231193" data-name="Trazado 231193" d="M.981,0H213.447a.981.981,0,0,1,0,1.962H.981A.981.981,0,0,1,.981,0Z" transform="translate(-5079.765 -7036.708)" fill="#feca2e"/>
    <path id="Trazado_231194" data-name="Trazado 231194" d="M1.156,0A1.239,1.239,0,0,1,2.312,1.308,1.239,1.239,0,0,1,1.156,2.616,1.239,1.239,0,0,1,0,1.308,1.239,1.239,0,0,1,1.156,0Z" transform="translate(-4890.769 -7036.708)" fill="#feca2e"/>
    <path id="Trazado_231195" data-name="Trazado 231195" d="M1.156,0A1.239,1.239,0,0,1,2.312,1.308,1.239,1.239,0,0,1,1.156,2.616,1.239,1.239,0,0,1,0,1.308,1.239,1.239,0,0,1,1.156,0Z" transform="translate(-4913.312 -7036.708)" fill="#feca2e"/>
    <path id="Trazado_231196" data-name="Trazado 231196" d="M1.156,0A1.239,1.239,0,0,1,2.312,1.308,1.239,1.239,0,0,1,1.156,2.616,1.239,1.239,0,0,1,0,1.308,1.239,1.239,0,0,1,1.156,0Z" transform="translate(-4926.054 -7036.708)" fill="#feca2e"/>
    <path id="Trazado_231197" data-name="Trazado 231197" d="M1.156,0A1.239,1.239,0,0,1,2.312,1.308,1.239,1.239,0,0,1,1.156,2.616,1.239,1.239,0,0,1,0,1.308,1.239,1.239,0,0,1,1.156,0Z" transform="translate(-4945.523 -7036.708)" fill="#feca2e"/>
    <path id="Trazado_231198" data-name="Trazado 231198" d="M1.156,0A1.239,1.239,0,0,1,2.312,1.308,1.239,1.239,0,0,1,1.156,2.616,1.239,1.239,0,0,1,0,1.308,1.239,1.239,0,0,1,1.156,0Z" transform="translate(-4964.505 -7036.708)" fill="#feca2e"/>
    <path id="Trazado_231199" data-name="Trazado 231199" d="M1.156,0A1.239,1.239,0,0,1,2.312,1.308,1.239,1.239,0,0,1,1.156,2.616,1.239,1.239,0,0,1,0,1.308,1.239,1.239,0,0,1,1.156,0Z" transform="translate(-4983.487 -7036.708)" fill="#feca2e"/>
    <path id="Trazado_231200" data-name="Trazado 231200" d="M1.156,0A1.239,1.239,0,0,1,2.312,1.308,1.239,1.239,0,0,1,1.156,2.616,1.239,1.239,0,0,1,0,1.308,1.239,1.239,0,0,1,1.156,0Z" transform="translate(-5002.955 -7036.708)" fill="#feca2e"/>
    <path id="Trazado_231201" data-name="Trazado 231201" d="M1.156,0A1.239,1.239,0,0,1,2.312,1.308,1.239,1.239,0,0,1,1.156,2.616,1.239,1.239,0,0,1,0,1.308,1.239,1.239,0,0,1,1.156,0Z" transform="translate(-5021.937 -7036.708)" fill="#feca2e"/>
    <path id="Trazado_231202" data-name="Trazado 231202" d="M1.156,0A1.239,1.239,0,0,1,2.312,1.308,1.239,1.239,0,0,1,1.156,2.616,1.239,1.239,0,0,1,0,1.308,1.239,1.239,0,0,1,1.156,0Z" transform="translate(-5034.102 -7036.708)" fill="#feca2e"/>
    <path id="Trazado_231203" data-name="Trazado 231203" d="M1.156,0A1.239,1.239,0,0,1,2.312,1.308,1.239,1.239,0,0,1,1.156,2.616,1.239,1.239,0,0,1,0,1.308,1.239,1.239,0,0,1,1.156,0Z" transform="translate(-5057.222 -7036.708)" fill="#feca2e"/>
    <path id="Trazado_231204" data-name="Trazado 231204" d="M1.156,0A1.239,1.239,0,0,1,2.312,1.308,1.239,1.239,0,0,1,1.156,2.616,1.239,1.239,0,0,1,0,1.308,1.239,1.239,0,0,1,1.156,0Z" transform="translate(-5080.343 -7036.708)" fill="#feca2e"/>
    <path id="Trazado_231217" data-name="Trazado 231217" d="M5.694,6.09h.789v.59H5.694V8H4.968V6.68H2.378V6.254L4.925,2.313h.77Zm-2.5,0h1.77V3.3l-.086.156ZM7.186,9.133l-.41-.281A1.885,1.885,0,0,0,7.159,7.8V7.145h.707v.566a1.779,1.779,0,0,1-.193.789A1.847,1.847,0,0,1,7.186,9.133Z" transform="translate(-5102.885 -7132.837)" fill="#12263f"/>
    <path id="Trazado_231218" data-name="Trazado 231218" d="M3.694,4.8h.543a1.193,1.193,0,0,0,.8-.27.9.9,0,0,0,.293-.707.882.882,0,0,0-1-1,1.036,1.036,0,0,0-.748.268.936.936,0,0,0-.279.709H2.589a1.451,1.451,0,0,1,.494-1.123,1.8,1.8,0,0,1,1.256-.447A1.779,1.779,0,0,1,5.6,2.66a1.538,1.538,0,0,1,.457,1.184,1.248,1.248,0,0,1-.24.719,1.451,1.451,0,0,1-.654.52,1.4,1.4,0,0,1,.725.492,1.367,1.367,0,0,1,.256.84,1.551,1.551,0,0,1-.5,1.215,1.872,1.872,0,0,1-1.3.449,1.922,1.922,0,0,1-1.3-.434,1.438,1.438,0,0,1-.5-1.145h.727a.93.93,0,0,0,.293.719,1.114,1.114,0,0,0,.785.27,1.093,1.093,0,0,0,.8-.273,1.054,1.054,0,0,0,.277-.785.956.956,0,0,0-.3-.762,1.328,1.328,0,0,0-.879-.273H3.694ZM7.186,9.133l-.41-.281A1.885,1.885,0,0,0,7.159,7.8V7.145h.707v.566a1.779,1.779,0,0,1-.193.789A1.847,1.847,0,0,1,7.186,9.133Z" transform="translate(-5102.885 -7117.796)" fill="#12263f"/>
    <path id="Trazado_231219" data-name="Trazado 231219" d="M3.694,4.8h.543a1.193,1.193,0,0,0,.8-.27.9.9,0,0,0,.293-.707.882.882,0,0,0-1-1,1.036,1.036,0,0,0-.748.268.936.936,0,0,0-.279.709H2.589a1.451,1.451,0,0,1,.494-1.123,1.8,1.8,0,0,1,1.256-.447A1.779,1.779,0,0,1,5.6,2.66a1.538,1.538,0,0,1,.457,1.184,1.248,1.248,0,0,1-.24.719,1.451,1.451,0,0,1-.654.52,1.4,1.4,0,0,1,.725.492,1.367,1.367,0,0,1,.256.84,1.551,1.551,0,0,1-.5,1.215,1.872,1.872,0,0,1-1.3.449,1.922,1.922,0,0,1-1.3-.434,1.438,1.438,0,0,1-.5-1.145h.727a.93.93,0,0,0,.293.719,1.114,1.114,0,0,0,.785.27,1.093,1.093,0,0,0,.8-.273,1.054,1.054,0,0,0,.277-.785.956.956,0,0,0-.3-.762,1.328,1.328,0,0,0-.879-.273H3.694ZM7.186,9.133l-.41-.281A1.885,1.885,0,0,0,7.159,7.8V7.145h.707v.566a1.779,1.779,0,0,1-.193.789A1.847,1.847,0,0,1,7.186,9.133Z" transform="translate(-5102.885 -7102.756)" fill="#12263f"/>
    <path id="Trazado_231220" data-name="Trazado 231220" d="M6.37,8H2.644V7.48L4.612,5.293a4.677,4.677,0,0,0,.6-.807,1.346,1.346,0,0,0,.166-.643,1.02,1.02,0,0,0-.27-.73.942.942,0,0,0-.719-.285,1.116,1.116,0,0,0-.838.307,1.171,1.171,0,0,0-.3.854H2.534a1.677,1.677,0,0,1,.506-1.27,1.875,1.875,0,0,1,1.354-.484,1.8,1.8,0,0,1,1.254.416,1.419,1.419,0,0,1,.461,1.107,3.253,3.253,0,0,1-1.07,2L3.515,7.41H6.37Zm.816,1.133-.41-.281A1.885,1.885,0,0,0,7.159,7.8V7.145h.707v.566a1.779,1.779,0,0,1-.193.789A1.847,1.847,0,0,1,7.186,9.133Z" transform="translate(-5102.885 -7087.715)" fill="#12263f"/>
    <path id="Trazado_231221" data-name="Trazado 231221" d="M6.37,8H2.644V7.48L4.612,5.293a4.677,4.677,0,0,0,.6-.807,1.346,1.346,0,0,0,.166-.643,1.02,1.02,0,0,0-.27-.73.942.942,0,0,0-.719-.285,1.116,1.116,0,0,0-.838.307,1.171,1.171,0,0,0-.3.854H2.534a1.677,1.677,0,0,1,.506-1.27,1.875,1.875,0,0,1,1.354-.484,1.8,1.8,0,0,1,1.254.416,1.419,1.419,0,0,1,.461,1.107,3.253,3.253,0,0,1-1.07,2L3.515,7.41H6.37Zm.816,1.133-.41-.281A1.885,1.885,0,0,0,7.159,7.8V7.145h.707v.566a1.779,1.779,0,0,1-.193.789A1.847,1.847,0,0,1,7.186,9.133Z" transform="translate(-5102.885 -7073.329)" fill="#12263f"/>
    <path id="Trazado_231222" data-name="Trazado 231222" d="M5.019,8H4.292V3.184l-1.457.535V3.063l2.07-.777h.113ZM7.186,9.133l-.41-.281A1.885,1.885,0,0,0,7.159,7.8V7.145h.707v.566a1.779,1.779,0,0,1-.193.789A1.847,1.847,0,0,1,7.186,9.133Z" transform="translate(-5102.885 -7058.942)" fill="#12263f"/>
    <path id="Trazado_231223" data-name="Trazado 231223" d="M5.019,8H4.292V3.184l-1.457.535V3.063l2.07-.777h.113ZM7.186,9.133l-.41-.281A1.885,1.885,0,0,0,7.159,7.8V7.145h.707v.566a1.779,1.779,0,0,1-.193.789A1.847,1.847,0,0,1,7.186,9.133Z" transform="translate(-5102.885 -7043.901)" fill="#12263f"/>
    <path id="Trazado_231224" data-name="Trazado 231224" d="M6.21,5.574a3.305,3.305,0,0,1-.434,1.887,1.542,1.542,0,0,1-1.355.617,1.553,1.553,0,0,1-1.348-.6,3.137,3.137,0,0,1-.453-1.8V4.707a3.232,3.232,0,0,1,.434-1.863,1.554,1.554,0,0,1,1.359-.609,1.568,1.568,0,0,1,1.352.588A3.119,3.119,0,0,1,6.21,4.637Zm-.723-.988a2.648,2.648,0,0,0-.258-1.338.887.887,0,0,0-.816-.42.876.876,0,0,0-.809.418,2.585,2.585,0,0,0-.262,1.285V5.688A2.69,2.69,0,0,0,3.61,7.049a.886.886,0,0,0,.811.439.874.874,0,0,0,.795-.414,2.593,2.593,0,0,0,.271-1.3Zm1.7,4.547-.41-.281A1.885,1.885,0,0,0,7.159,7.8V7.145h.707v.566a1.779,1.779,0,0,1-.193.789A1.847,1.847,0,0,1,7.186,9.133Z" transform="translate(-5102.885 -7029.515)" fill="#12263f"/>
    <path id="Trazado_231225" data-name="Trazado 231225" d="M6.21,5.574a3.305,3.305,0,0,1-.434,1.887,1.542,1.542,0,0,1-1.355.617,1.553,1.553,0,0,1-1.348-.6,3.137,3.137,0,0,1-.453-1.8V4.707a3.232,3.232,0,0,1,.434-1.863,1.554,1.554,0,0,1,1.359-.609,1.568,1.568,0,0,1,1.352.588A3.119,3.119,0,0,1,6.21,4.637Zm-.723-.988a2.648,2.648,0,0,0-.258-1.338.887.887,0,0,0-.816-.42.876.876,0,0,0-.809.418,2.585,2.585,0,0,0-.262,1.285V5.688A2.69,2.69,0,0,0,3.61,7.049a.886.886,0,0,0,.811.439.874.874,0,0,0,.795-.414,2.593,2.593,0,0,0,.271-1.3Zm1.7,4.547-.41-.281A1.885,1.885,0,0,0,7.159,7.8V7.145h.707v.566a1.779,1.779,0,0,1-.193.789A1.847,1.847,0,0,1,7.186,9.133Z" transform="translate(-5102.885 -7015.128)" fill="#12263f"/>
    <path id="Trazado_231212" data-name="Trazado 231212" d="M29.492,15V5.047H32.7a4.716,4.716,0,0,1,2.372.6,4.2,4.2,0,0,1,1.644,1.688,5.1,5.1,0,0,1,.6,2.444v.458a5.127,5.127,0,0,1-.578,2.451,4.223,4.223,0,0,1-1.627,1.7A4.612,4.612,0,0,1,32.767,15Zm2.4-8.1v6.255h.834a1.867,1.867,0,0,0,1.586-.735,3.6,3.6,0,0,0,.554-2.184V9.8a3.572,3.572,0,0,0-.554-2.174A1.9,1.9,0,0,0,32.7,6.9ZM40.867,15H38.557V7.6h2.311ZM38.42,5.7a1.028,1.028,0,0,1,.355-.807,1.511,1.511,0,0,1,1.846,0,1.028,1.028,0,0,1,.355.807,1.028,1.028,0,0,1-.355.807,1.511,1.511,0,0,1-1.846,0A1.028,1.028,0,0,1,38.42,5.7ZM46.452,15a2.6,2.6,0,0,1-.219-.663,2.142,2.142,0,0,1-1.777.8,2.624,2.624,0,0,1-1.777-.632,2.013,2.013,0,0,1-.731-1.589,2.069,2.069,0,0,1,.889-1.818,4.527,4.527,0,0,1,2.584-.615h.711V10.09q0-1.023-.882-1.023a.721.721,0,0,0-.82.811h-2.3a2.065,2.065,0,0,1,.913-1.741,3.835,3.835,0,0,1,2.328-.669,3.363,3.363,0,0,1,2.235.69,2.4,2.4,0,0,1,.841,1.894v3.274a3.353,3.353,0,0,0,.314,1.559V15ZM45.01,13.5a1.285,1.285,0,0,0,.714-.185,1.157,1.157,0,0,0,.407-.417V11.712h-.67q-1.2,0-1.2,1.08a.659.659,0,0,0,.212.509A.767.767,0,0,0,45.01,13.5Zm4.437-2.249a4.994,4.994,0,0,1,.369-1.982,2.972,2.972,0,0,1,1.06-1.33,2.793,2.793,0,0,1,1.606-.468,2.221,2.221,0,0,1,1.8.779l.082-.643H56.46V14.72a3.118,3.118,0,0,1-.455,1.7,2.917,2.917,0,0,1-1.316,1.107,4.837,4.837,0,0,1-2,.386,4.173,4.173,0,0,1-1.576-.308,2.844,2.844,0,0,1-1.166-.8l.964-1.354a2.112,2.112,0,0,0,1.7.759,1.372,1.372,0,0,0,1.531-1.572v-.232a2.163,2.163,0,0,1-1.675.731A2.673,2.673,0,0,1,50.281,14.1a4.291,4.291,0,0,1-.834-2.772Zm2.311.144A2.631,2.631,0,0,0,52.1,12.83a1.078,1.078,0,0,0,.957.53,1.224,1.224,0,0,0,1.087-.5V9.75a1.193,1.193,0,0,0-1.073-.506,1.086,1.086,0,0,0-.964.55A3,3,0,0,0,51.757,11.391Zm10.486-1.7-.759-.055a1.363,1.363,0,0,0-1.395.684V15h-2.3V7.6h2.16l.075.95a1.784,1.784,0,0,1,1.62-1.087,2.247,2.247,0,0,1,.643.082ZM67.035,15a2.6,2.6,0,0,1-.219-.663,2.142,2.142,0,0,1-1.777.8,2.624,2.624,0,0,1-1.777-.632,2.013,2.013,0,0,1-.731-1.589,2.069,2.069,0,0,1,.889-1.818A4.527,4.527,0,0,1,66,10.481h.711V10.09q0-1.023-.882-1.023a.721.721,0,0,0-.82.811h-2.3a2.065,2.065,0,0,1,.913-1.741,3.835,3.835,0,0,1,2.328-.669,3.363,3.363,0,0,1,2.235.69,2.4,2.4,0,0,1,.841,1.894v3.274a3.353,3.353,0,0,0,.314,1.559V15Zm-1.442-1.5a1.285,1.285,0,0,0,.714-.185,1.157,1.157,0,0,0,.407-.417V11.712h-.67q-1.2,0-1.2,1.08a.659.659,0,0,0,.212.509A.767.767,0,0,0,65.593,13.5ZM72.477,7.6l.075.868a2.543,2.543,0,0,1,2.112-1,1.872,1.872,0,0,1,1.894,1.114,2.462,2.462,0,0,1,2.174-1.114q2.249,0,2.311,2.721V15H78.732V10.331A1.41,1.41,0,0,0,78.54,9.5a.815.815,0,0,0-.7-.26,1.091,1.091,0,0,0-1.019.608l.007.1V15H74.521V10.345a1.482,1.482,0,0,0-.185-.841.812.812,0,0,0-.7-.26,1.1,1.1,0,0,0-1.012.608V15h-2.3V7.6ZM86.525,15a2.6,2.6,0,0,1-.219-.663,2.142,2.142,0,0,1-1.777.8,2.624,2.624,0,0,1-1.777-.632,2.013,2.013,0,0,1-.731-1.589,2.069,2.069,0,0,1,.889-1.818,4.527,4.527,0,0,1,2.584-.615H86.2V10.09q0-1.023-.882-1.023a.721.721,0,0,0-.82.811H82.2a2.065,2.065,0,0,1,.913-1.741,3.835,3.835,0,0,1,2.328-.669,3.363,3.363,0,0,1,2.235.69,2.4,2.4,0,0,1,.841,1.894v3.274a3.353,3.353,0,0,0,.314,1.559V15Zm-1.442-1.5a1.285,1.285,0,0,0,.714-.185,1.157,1.157,0,0,0,.407-.417V11.712h-.67q-1.2,0-1.2,1.08a.659.659,0,0,0,.212.509A.767.767,0,0,0,85.082,13.5Zm7.9-2.249a4.518,4.518,0,0,1,.759-2.769,2.5,2.5,0,0,1,2.119-1.012,2.124,2.124,0,0,1,1.668.779V4.5h2.311V15H97.77l-.116-.793a2.181,2.181,0,0,1-1.8.93,2.493,2.493,0,0,1-2.092-1.012A4.661,4.661,0,0,1,92.985,11.247Zm2.3.144q0,1.969,1.148,1.969a1.134,1.134,0,0,0,1.094-.643V9.9a1.1,1.1,0,0,0-1.08-.656q-1.066,0-1.155,1.723Zm9.44,3.746a3.8,3.8,0,0,1-2.755-1.015,3.506,3.506,0,0,1-1.053-2.642v-.191a4.542,4.542,0,0,1,.42-2,3.076,3.076,0,0,1,1.227-1.343,3.7,3.7,0,0,1,1.914-.475,3.2,3.2,0,0,1,2.461.967,3.8,3.8,0,0,1,.9,2.7v.9h-4.58a1.66,1.66,0,0,0,.54.978,1.607,1.607,0,0,0,1.08.355,2.07,2.07,0,0,0,1.709-.766l1.053,1.244a2.943,2.943,0,0,1-1.22.947A4.124,4.124,0,0,1,104.729,15.137Zm-.26-5.893q-1.012,0-1.2,1.34h2.324v-.178a1.141,1.141,0,0,0-.28-.858A1.115,1.115,0,0,0,104.469,9.244Zm14.656,2.119a4.508,4.508,0,0,1-.752,2.8,2.519,2.519,0,0,1-2.119.978,2.186,2.186,0,0,1-1.818-.9l-.1.759h-2.064V4.5h2.3V8.2a2.109,2.109,0,0,1,1.661-.731,2.519,2.519,0,0,1,2.133.991,4.531,4.531,0,0,1,.752,2.789Zm-2.311-.147a3.007,3.007,0,0,0-.284-1.518.956.956,0,0,0-.872-.454,1.1,1.1,0,0,0-1.08.594v2.935a1.109,1.109,0,0,0,1.094.587.978.978,0,0,0,1.032-.792A5.685,5.685,0,0,0,116.815,11.216ZM124.307,15a2.6,2.6,0,0,1-.219-.663,2.142,2.142,0,0,1-1.777.8,2.624,2.624,0,0,1-1.777-.632,2.013,2.013,0,0,1-.731-1.589,2.069,2.069,0,0,1,.889-1.818,4.527,4.527,0,0,1,2.584-.615h.711V10.09q0-1.023-.882-1.023a.721.721,0,0,0-.82.811h-2.3a2.065,2.065,0,0,1,.913-1.741,3.835,3.835,0,0,1,2.328-.669,3.363,3.363,0,0,1,2.235.69,2.4,2.4,0,0,1,.841,1.894v3.274a3.353,3.353,0,0,0,.314,1.559V15Zm-1.442-1.5a1.285,1.285,0,0,0,.714-.185,1.157,1.157,0,0,0,.407-.417V11.712h-.67q-1.2,0-1.2,1.08a.659.659,0,0,0,.212.509A.767.767,0,0,0,122.865,13.5Zm9.181-3.808-.759-.055a1.363,1.363,0,0,0-1.395.684V15h-2.3V7.6h2.16l.075.95a1.784,1.784,0,0,1,1.62-1.087,2.247,2.247,0,0,1,.643.082Zm5.3,0-.759-.055a1.363,1.363,0,0,0-1.395.684V15h-2.3V7.6h2.16l.075.95a1.784,1.784,0,0,1,1.62-1.087,2.247,2.247,0,0,1,.643.082ZM142.142,15a2.6,2.6,0,0,1-.219-.663,2.142,2.142,0,0,1-1.777.8,2.624,2.624,0,0,1-1.777-.632,2.013,2.013,0,0,1-.731-1.589,2.069,2.069,0,0,1,.889-1.818,4.527,4.527,0,0,1,2.584-.615h.711V10.09q0-1.023-.882-1.023a.721.721,0,0,0-.82.811h-2.3a2.065,2.065,0,0,1,.913-1.741,3.835,3.835,0,0,1,2.328-.669,3.363,3.363,0,0,1,2.235.69,2.4,2.4,0,0,1,.841,1.894v3.274a3.353,3.353,0,0,0,.314,1.559V15ZM140.7,13.5a1.285,1.285,0,0,0,.714-.185,1.157,1.157,0,0,0,.407-.417V11.712h-.67q-1.2,0-1.2,1.08a.659.659,0,0,0,.212.509A.767.767,0,0,0,140.7,13.5Zm8.579-.574a.532.532,0,0,0-.308-.472,4.679,4.679,0,0,0-1.169-.369,5.33,5.33,0,0,1-1.422-.5,2.382,2.382,0,0,1-.854-.755,1.8,1.8,0,0,1-.294-1.019,2.044,2.044,0,0,1,.841-1.678,3.464,3.464,0,0,1,2.2-.66,3.837,3.837,0,0,1,2.352.663,2.074,2.074,0,0,1,.889,1.743H149.2q0-.889-.937-.889a.928.928,0,0,0-.608.2.624.624,0,0,0-.246.5.573.573,0,0,0,.3.5,2.842,2.842,0,0,0,.96.314,8.3,8.3,0,0,1,1.159.294,2.105,2.105,0,0,1,1.668,2.058,1.937,1.937,0,0,1-.9,1.647,3.942,3.942,0,0,1-2.328.636,4.023,4.023,0,0,1-1.7-.342,2.835,2.835,0,0,1-1.162-.93A2.105,2.105,0,0,1,145,12.628h2.153a.89.89,0,0,0,.342.749,1.406,1.406,0,0,0,.841.236,1.106,1.106,0,0,0,.708-.191A.612.612,0,0,0,149.279,12.922Zm10.753-.629,1.982-7.246h2.68L161.344,15h-2.625L155.4,5.047h2.659Zm8.859,2.844a3.8,3.8,0,0,1-2.755-1.015,3.505,3.505,0,0,1-1.053-2.642v-.191a4.542,4.542,0,0,1,.42-2,3.076,3.076,0,0,1,1.227-1.343,3.7,3.7,0,0,1,1.914-.475,3.2,3.2,0,0,1,2.461.967,3.8,3.8,0,0,1,.9,2.7v.9h-4.58a1.66,1.66,0,0,0,.54.978,1.607,1.607,0,0,0,1.08.355,2.07,2.07,0,0,0,1.709-.766l1.053,1.244a2.943,2.943,0,0,1-1.22.947A4.123,4.123,0,0,1,168.891,15.137Zm-.26-5.893q-1.012,0-1.2,1.34h2.324v-.178a1.141,1.141,0,0,0-.28-.858A1.115,1.115,0,0,0,168.631,9.244Zm8.777.444-.759-.055a1.363,1.363,0,0,0-1.395.684V15h-2.3V7.6h2.16l.075.95a1.784,1.784,0,0,1,1.62-1.087,2.247,2.247,0,0,1,.643.082Zm3.855-3.924V7.6h1.217V9.2h-1.217v3.384a.864.864,0,0,0,.15.581.807.807,0,0,0,.595.164,3.38,3.38,0,0,0,.574-.041v1.647a4.252,4.252,0,0,1-1.3.2,2.413,2.413,0,0,1-1.757-.561,2.3,2.3,0,0,1-.567-1.7V9.2h-.943V7.6h.943V5.765ZM185.817,15h-2.311V7.6h2.311Zm-2.447-9.3a1.028,1.028,0,0,1,.355-.807,1.511,1.511,0,0,1,1.846,0,1.028,1.028,0,0,1,.355.807,1.028,1.028,0,0,1-.355.807,1.511,1.511,0,0,1-1.846,0A1.028,1.028,0,0,1,183.369,5.7Zm6.993,7.663a1.025,1.025,0,0,0,.752-.263.965.965,0,0,0,.26-.735h2.16a2.557,2.557,0,0,1-.872,2,3.242,3.242,0,0,1-2.246.779,3.283,3.283,0,0,1-2.543-1.012,3.986,3.986,0,0,1-.93-2.8v-.1a4.505,4.505,0,0,1,.414-1.979,3.011,3.011,0,0,1,1.193-1.319,3.557,3.557,0,0,1,1.846-.461,3.2,3.2,0,0,1,2.29.8,2.837,2.837,0,0,1,.848,2.167h-2.16a1.265,1.265,0,0,0-.28-.882.967.967,0,0,0-.752-.308q-.9,0-1.046,1.142a8.054,8.054,0,0,0-.048,1,3.164,3.164,0,0,0,.267,1.545A.923.923,0,0,0,190.363,13.359ZM198.675,15a2.6,2.6,0,0,1-.219-.663,2.142,2.142,0,0,1-1.777.8A2.624,2.624,0,0,1,194.9,14.5a2.013,2.013,0,0,1-.731-1.589,2.069,2.069,0,0,1,.889-1.818,4.527,4.527,0,0,1,2.584-.615h.711V10.09q0-1.023-.882-1.023a.721.721,0,0,0-.82.811h-2.3a2.065,2.065,0,0,1,.913-1.741,3.835,3.835,0,0,1,2.328-.669,3.363,3.363,0,0,1,2.235.69,2.4,2.4,0,0,1,.841,1.894v3.274a3.353,3.353,0,0,0,.314,1.559V15Zm-1.442-1.5a1.285,1.285,0,0,0,.714-.185,1.157,1.157,0,0,0,.407-.417V11.712h-.67q-1.2,0-1.2,1.08a.659.659,0,0,0,.212.509A.767.767,0,0,0,197.233,13.5Zm7.137,1.5h-2.311V4.5h2.311Zm5,.137a3.8,3.8,0,0,1-2.755-1.015,3.505,3.505,0,0,1-1.053-2.642v-.191a4.542,4.542,0,0,1,.42-2,3.076,3.076,0,0,1,1.227-1.343,3.7,3.7,0,0,1,1.914-.475,3.2,3.2,0,0,1,2.461.967,3.8,3.8,0,0,1,.9,2.7v.9H207.9a1.66,1.66,0,0,0,.54.978,1.607,1.607,0,0,0,1.08.355,2.07,2.07,0,0,0,1.709-.766l1.053,1.244a2.943,2.943,0,0,1-1.22.947A4.123,4.123,0,0,1,209.366,15.137Zm-.26-5.893q-1.012,0-1.2,1.34h2.324v-.178a1.141,1.141,0,0,0-.28-.858A1.115,1.115,0,0,0,209.107,9.244Zm8.176,3.678a.532.532,0,0,0-.308-.472,4.679,4.679,0,0,0-1.169-.369,5.33,5.33,0,0,1-1.422-.5,2.382,2.382,0,0,1-.854-.755,1.8,1.8,0,0,1-.294-1.019,2.044,2.044,0,0,1,.841-1.678,3.464,3.464,0,0,1,2.2-.66,3.837,3.837,0,0,1,2.352.663,2.074,2.074,0,0,1,.889,1.743h-2.311q0-.889-.937-.889a.928.928,0,0,0-.608.2.624.624,0,0,0-.246.5.573.573,0,0,0,.3.5,2.842,2.842,0,0,0,.96.314,8.3,8.3,0,0,1,1.159.294,2.105,2.105,0,0,1,1.668,2.058,1.937,1.937,0,0,1-.9,1.647,3.942,3.942,0,0,1-2.328.636,4.023,4.023,0,0,1-1.7-.342,2.835,2.835,0,0,1-1.162-.93A2.105,2.105,0,0,1,213,12.628h2.153a.89.89,0,0,0,.342.749,1.406,1.406,0,0,0,.841.236,1.106,1.106,0,0,0,.708-.191A.612.612,0,0,0,217.282,12.922Z" transform="translate(-5103 -7169.5)" fill="#12263f"/>
  </g>
</svg>
