<svg xmlns="http://www.w3.org/2000/svg" xmlns:xlink="http://www.w3.org/1999/xlink" width="555" height="402" viewBox="0 0 555 402">
  <defs>
    <clipPath id="clip-path">
      <rect id="Rectángulo_304919" data-name="Rectángulo 304919" width="489.133" height="0.39" fill="none"/>
    </clipPath>
  </defs>
  <g id="Grupo_225035" data-name="Grupo 225035" transform="translate(3839 7290)">
    <path id="Trazado_231226" data-name="Trazado 231226" d="M0,0H510V2H0Z" transform="translate(-3794 -7290)" fill="#4dd0e1" opacity="0.2"/>
    <path id="Trazado_231227" data-name="Trazado 231227" d="M0,0H510V2H0Z" transform="translate(-3794 -6890)" fill="#4dd0e1" opacity="0.2"/>
    <path id="Trazado_231228" data-name="Trazado 231228" d="M0,0H190V402H0Z" transform="translate(-3474 -7290)" fill="#4dd0e1"/>
    <path id="metaverso-nft-ob-01-1" d="M15,0H529a15,15,0,0,1,15,15V369a15,15,0,0,1-15,15H15A15,15,0,0,1,0,369V15A15,15,0,0,1,15,0Z" transform="translate(-3839 -7281)" fill="#fff"/>
    <g id="Grupo_220072" data-name="Grupo 220072" transform="translate(-3802.914 -7186.54)" opacity="0.4" style="isolation: isolate">
      <g id="Grupo_220071" data-name="Grupo 220071">
        <g id="Grupo_220070" data-name="Grupo 220070" clip-path="url(#clip-path)">
          <line id="Línea_622" data-name="Línea 622" x2="489.133" transform="translate(0 0.195)" fill="none" stroke="#666" stroke-width="0.5"/>
        </g>
      </g>
    </g>
    <g id="Grupo_220075" data-name="Grupo 220075" transform="translate(-3802.914 -7153.197)" opacity="0.4" style="isolation: isolate">
      <g id="Grupo_220074" data-name="Grupo 220074">
        <g id="Grupo_220073" data-name="Grupo 220073" clip-path="url(#clip-path)">
          <line id="Línea_623" data-name="Línea 623" x2="489.133" transform="translate(0 0.195)" fill="none" stroke="#666" stroke-width="0.5"/>
        </g>
      </g>
    </g>
    <g id="Grupo_220078" data-name="Grupo 220078" transform="translate(-3802.914 -7119.933)" opacity="0.4" style="isolation: isolate">
      <g id="Grupo_220077" data-name="Grupo 220077">
        <g id="Grupo_220076" data-name="Grupo 220076" clip-path="url(#clip-path)">
          <line id="Línea_624" data-name="Línea 624" x2="489.133" transform="translate(0 0.195)" fill="none" stroke="#666" stroke-width="0.5"/>
        </g>
      </g>
    </g>
    <g id="Grupo_220081" data-name="Grupo 220081" transform="translate(-3802.914 -7086.59)" opacity="0.4" style="isolation: isolate">
      <g id="Grupo_220080" data-name="Grupo 220080">
        <g id="Grupo_220079" data-name="Grupo 220079" clip-path="url(#clip-path)">
          <line id="Línea_625" data-name="Línea 625" x2="489.133" transform="translate(0 0.195)" fill="none" stroke="#666" stroke-width="0.5"/>
        </g>
      </g>
    </g>
    <g id="Grupo_220084" data-name="Grupo 220084" transform="translate(-3802.914 -7053.013)" opacity="0.4" style="isolation: isolate">
      <g id="Grupo_220083" data-name="Grupo 220083">
        <g id="Grupo_220082" data-name="Grupo 220082" clip-path="url(#clip-path)">
          <line id="Línea_626" data-name="Línea 626" x2="489.133" transform="translate(0 0.195)" fill="none" stroke="#666" stroke-width="0.5"/>
        </g>
      </g>
    </g>
    <g id="Grupo_220087" data-name="Grupo 220087" transform="translate(-3802.914 -7019.904)" opacity="0.4" style="isolation: isolate">
      <g id="Grupo_220086" data-name="Grupo 220086">
        <g id="Grupo_220085" data-name="Grupo 220085" clip-path="url(#clip-path)">
          <line id="Línea_627" data-name="Línea 627" x2="489.133" transform="translate(0 0.195)" fill="none" stroke="#666" stroke-width="0.5"/>
        </g>
      </g>
    </g>
    <path id="Trazado_229783" data-name="Trazado 229783" d="M52.2,270.4a6,6,0,0,1,.7-1.718l.39-.078a11.036,11.036,0,0,0-.469,1.718Z" transform="translate(-3830.439 -7247.86)" fill="gray"/>
    <path id="Trazado_229784" data-name="Trazado 229784" d="M56.186,273.763v-1.327H54v-.39L56.108,269h.7v2.967h.7v.547h-.7v1.327h-.625Zm0-1.8v-2.343a5.666,5.666,0,0,1-.39.7l-1.171,1.64Z" transform="translate(-3830.833 -7247.948)" fill="gray"/>
    <path id="Trazado_229785" data-name="Trazado 229785" d="M62.2,271.221c0,1.64-.625,2.5-1.64,2.5-.937,0-1.562-.859-1.562-2.421,0-1.64.7-2.5,1.64-2.5,1.015,0,1.562.937,1.562,2.421m-2.577.078c0,1.249.39,1.952.937,1.952.625,0,1.015-.781,1.015-2.03,0-1.171-.312-1.952-.937-1.952-.625.078-1.015.781-1.015,2.03" transform="translate(-3831.929 -7247.904)" fill="gray"/>
    <path id="Trazado_229786" data-name="Trazado 229786" d="M87.9,270.4a6,6,0,0,1,.7-1.718l.39-.078a11.037,11.037,0,0,0-.469,1.718Z" transform="translate(-3838.262 -7247.86)" fill="gray"/>
    <path id="Trazado_229787" data-name="Trazado 229787" d="M91.886,273.763v-1.327H89.7v-.39L91.808,269h.7v2.967h.7v.547h-.7v1.327h-.625Zm0-1.8v-2.343a5.666,5.666,0,0,1-.39.7l-1.171,1.64Z" transform="translate(-3838.656 -7247.948)" fill="gray"/>
    <path id="Trazado_229788" data-name="Trazado 229788" d="M94.8,273.741v-.39l.547-.469c1.249-1.171,1.8-1.8,1.8-2.5a.858.858,0,0,0-.937-.937,1.738,1.738,0,0,0-1.015.39l-.234-.469a1.837,1.837,0,0,1,1.327-.469,1.372,1.372,0,0,1,1.484,1.406c0,.859-.625,1.562-1.64,2.577l-.39.39h2.186v.547H94.8Z" transform="translate(-3839.774 -7247.926)" fill="gray"/>
    <path id="Trazado_229789" data-name="Trazado 229789" d="M123.5,270.4a6,6,0,0,1,.7-1.718l.39-.078a11.036,11.036,0,0,0-.469,1.718Z" transform="translate(-3846.063 -7247.86)" fill="gray"/>
    <path id="Trazado_229790" data-name="Trazado 229790" d="M127.486,273.763v-1.327H125.3v-.39L127.408,269h.7v2.967h.7v.547h-.7v1.327h-.625Zm0-1.8v-2.343a5.667,5.667,0,0,1-.39.7l-1.171,1.64Z" transform="translate(-3846.458 -7247.948)" fill="gray"/>
    <path id="Trazado_229791" data-name="Trazado 229791" d="M132.386,273.763v-1.327H130.2v-.39L132.308,269h.7v2.967h.7v.547h-.7v1.327h-.625Zm0-1.8v-2.343a5.664,5.664,0,0,1-.39.7l-1.171,1.64Z" transform="translate(-3847.531 -7247.948)" fill="gray"/>
    <path id="Trazado_229792" data-name="Trazado 229792" d="M158.4,270.4a6,6,0,0,1,.7-1.718l.39-.078a11.035,11.035,0,0,0-.469,1.718Z" transform="translate(-3853.711 -7247.86)" fill="gray"/>
    <path id="Trazado_229793" data-name="Trazado 229793" d="M162.486,273.763v-1.327H160.3v-.39L162.408,269h.7v2.967h.7v.547h-.7v1.327h-.625Zm0-1.8v-2.343a5.67,5.67,0,0,1-.39.7l-1.171,1.64Z" transform="translate(-3854.127 -7247.948)" fill="gray"/>
    <path id="Trazado_229794" data-name="Trazado 229794" d="M168.011,269.369h-.469a1.9,1.9,0,0,0-1.64,1.718,1.448,1.448,0,0,1,2.577,1.015,1.652,1.652,0,0,1-1.562,1.718c-1.015,0-1.718-.781-1.718-2.03a3.09,3.09,0,0,1,.781-2.186,2.634,2.634,0,0,1,1.562-.7h.469Zm-.156,2.811a.967.967,0,0,0-1.015-1.093,1.015,1.015,0,0,0-.937.625c-.078.078-.078.156-.078.312,0,.781.39,1.406,1.015,1.406a1.253,1.253,0,0,0,1.015-1.249" transform="translate(-3855.201 -7247.926)" fill="gray"/>
    <path id="Trazado_229795" data-name="Trazado 229795" d="M195.1,270.4a6,6,0,0,1,.7-1.718l.39-.078a11.039,11.039,0,0,0-.469,1.718Z" transform="translate(-3861.753 -7247.86)" fill="gray"/>
    <path id="Trazado_229796" data-name="Trazado 229796" d="M199.086,273.763v-1.327H196.9v-.39L199.008,269h.7v2.967h.7v.547h-.7v1.327h-.625Zm0-1.8v-2.343a5.664,5.664,0,0,1-.39.7l-1.171,1.64Z" transform="translate(-3862.148 -7247.948)" fill="gray"/>
    <path id="Trazado_229797" data-name="Trazado 229797" d="M201.9,272.492a1.337,1.337,0,0,1,.937-1.249,1.14,1.14,0,0,1-.781-1.093c0-.781.625-1.249,1.484-1.249.937,0,1.406.547,1.406,1.171a1.213,1.213,0,0,1-.781,1.093,1.244,1.244,0,0,1,.937,1.249,1.466,1.466,0,0,1-1.64,1.406,1.432,1.432,0,0,1-1.562-1.327m2.577,0c0-.547-.39-.859-1.015-1.015a1.065,1.065,0,0,0-.859,1.015.9.9,0,0,0,.937.937,1,1,0,0,0,.937-.937m-1.8-2.421c0,.469.39.7.937.859a.994.994,0,0,0,.7-.859.735.735,0,0,0-.781-.781.8.8,0,0,0-.859.781" transform="translate(-3863.243 -7247.926)" fill="gray"/>
    <path id="Trazado_229798" data-name="Trazado 229798" d="M230.4,270.4a6,6,0,0,1,.7-1.718l.39-.078a11.037,11.037,0,0,0-.469,1.718Z" transform="translate(-3869.489 -7247.86)" fill="gray"/>
    <path id="Trazado_229799" data-name="Trazado 229799" d="M235.311,269.469h-1.8l-.156,1.249h.39a2.162,2.162,0,0,1,1.015.234,1.381,1.381,0,0,1,.7,1.249,1.689,1.689,0,0,1-1.8,1.64,2.107,2.107,0,0,1-1.171-.312l.156-.469a1.954,1.954,0,0,0,1.015.234,1.073,1.073,0,0,0,1.171-1.015c0-.625-.39-1.093-1.406-1.093a1.522,1.522,0,0,0-.625.078l.312-2.264h2.264v.469Z" transform="translate(-3869.949 -7247.948)" fill="gray"/>
    <path id="Trazado_229800" data-name="Trazado 229800" d="M240.4,271.221c0,1.64-.625,2.5-1.64,2.5-.937,0-1.562-.859-1.562-2.421,0-1.64.7-2.5,1.64-2.5,1.015,0,1.562.937,1.562,2.421m-2.577.078c0,1.249.39,1.952.937,1.952.625,0,1.015-.781,1.015-2.03,0-1.171-.312-1.952-.937-1.952-.625.078-1.015.781-1.015,2.03" transform="translate(-3870.979 -7247.904)" fill="gray"/>
    <path id="Trazado_229801" data-name="Trazado 229801" d="M266,270.4a6,6,0,0,1,.7-1.718l.39-.078a11.039,11.039,0,0,0-.469,1.718Z" transform="translate(-3877.29 -7247.86)" fill="gray"/>
    <path id="Trazado_229802" data-name="Trazado 229802" d="M270.911,269.469h-1.8l-.156,1.249h.39a2.162,2.162,0,0,1,1.015.234,1.381,1.381,0,0,1,.7,1.249,1.689,1.689,0,0,1-1.8,1.64,2.107,2.107,0,0,1-1.171-.312l.156-.469a1.954,1.954,0,0,0,1.015.234,1.073,1.073,0,0,0,1.171-1.015c0-.625-.39-1.093-1.406-1.093a1.522,1.522,0,0,0-.625.078l.312-2.264h2.264v.469Z" transform="translate(-3877.75 -7247.948)" fill="gray"/>
    <path id="Trazado_229803" data-name="Trazado 229803" d="M272.9,273.741v-.39l.547-.469c1.249-1.171,1.8-1.8,1.8-2.5a.858.858,0,0,0-.937-.937,1.738,1.738,0,0,0-1.015.39l-.234-.469a1.837,1.837,0,0,1,1.327-.469,1.372,1.372,0,0,1,1.484,1.406c0,.859-.625,1.562-1.64,2.577l-.39.39h2.186v.547H272.9Z" transform="translate(-3878.802 -7247.926)" fill="gray"/>
    <path id="Trazado_229804" data-name="Trazado 229804" d="M301.7,270.4a6,6,0,0,1,.7-1.718l.39-.078a11.035,11.035,0,0,0-.469,1.718Z" transform="translate(-3885.113 -7247.86)" fill="gray"/>
    <path id="Trazado_229805" data-name="Trazado 229805" d="M306.611,269.469h-1.8l-.156,1.249h.39a2.162,2.162,0,0,1,1.015.234,1.381,1.381,0,0,1,.7,1.249,1.689,1.689,0,0,1-1.8,1.64,2.107,2.107,0,0,1-1.171-.312l.156-.469a1.954,1.954,0,0,0,1.015.234,1.073,1.073,0,0,0,1.171-1.015c0-.625-.39-1.093-1.406-1.093a1.522,1.522,0,0,0-.625.078l.312-2.264h2.265v.469Z" transform="translate(-3885.573 -7247.948)" fill="gray"/>
    <path id="Trazado_229806" data-name="Trazado 229806" d="M310.586,273.763v-1.327H308.4v-.39L310.508,269h.7v2.967h.7v.547h-.7v1.327h-.625Zm0-1.8v-2.343a5.666,5.666,0,0,1-.39.7l-1.171,1.64Z" transform="translate(-3886.582 -7247.948)" fill="gray"/>
    <path id="Trazado_229807" data-name="Trazado 229807" d="M337,270.4a6,6,0,0,1,.7-1.718l.39-.078a11.039,11.039,0,0,0-.469,1.718Z" transform="translate(-3892.849 -7247.86)" fill="gray"/>
    <path id="Trazado_229808" data-name="Trazado 229808" d="M341.911,269.469h-1.8l-.156,1.249h.39a2.162,2.162,0,0,1,1.015.234,1.381,1.381,0,0,1,.7,1.249,1.689,1.689,0,0,1-1.8,1.64,2.107,2.107,0,0,1-1.171-.312l.156-.469a1.954,1.954,0,0,0,1.015.234,1.073,1.073,0,0,0,1.171-1.015c0-.625-.39-1.093-1.406-1.093a1.522,1.522,0,0,0-.625.078l.312-2.264h2.264v.469Z" transform="translate(-3893.309 -7247.948)" fill="gray"/>
    <path id="Trazado_229809" data-name="Trazado 229809" d="M346.611,269.369h-.469a1.9,1.9,0,0,0-1.64,1.718,1.448,1.448,0,0,1,2.577,1.015,1.652,1.652,0,0,1-1.562,1.718c-1.015,0-1.718-.781-1.718-2.03a3.09,3.09,0,0,1,.781-2.186,2.634,2.634,0,0,1,1.562-.7h.469Zm-.234,2.811a.967.967,0,0,0-1.015-1.093,1.015,1.015,0,0,0-.937.625c-.078.078-.078.156-.078.312,0,.781.39,1.406,1.015,1.406a1.253,1.253,0,0,0,1.015-1.249" transform="translate(-3894.339 -7247.926)" fill="gray"/>
    <path id="Trazado_229810" data-name="Trazado 229810" d="M372.9,270.4a6,6,0,0,1,.7-1.718l.39-.078a11.035,11.035,0,0,0-.469,1.718Z" transform="translate(-3900.716 -7247.86)" fill="gray"/>
    <path id="Trazado_229811" data-name="Trazado 229811" d="M377.911,269.469h-1.8l-.156,1.249h.39a2.162,2.162,0,0,1,1.015.234,1.381,1.381,0,0,1,.7,1.249,1.689,1.689,0,0,1-1.8,1.64,2.107,2.107,0,0,1-1.171-.312l.156-.469a1.954,1.954,0,0,0,1.015.234,1.073,1.073,0,0,0,1.171-1.015c0-.625-.39-1.093-1.406-1.093a1.522,1.522,0,0,0-.625.078l.312-2.264h2.265v.469Z" transform="translate(-3901.198 -7247.948)" fill="gray"/>
    <path id="Trazado_229812" data-name="Trazado 229812" d="M379.8,272.492a1.337,1.337,0,0,1,.937-1.249,1.14,1.14,0,0,1-.781-1.093c0-.781.625-1.249,1.484-1.249.937,0,1.406.547,1.406,1.171a1.213,1.213,0,0,1-.781,1.093,1.244,1.244,0,0,1,.937,1.249,1.466,1.466,0,0,1-1.64,1.406,1.387,1.387,0,0,1-1.562-1.327m2.577,0c0-.547-.39-.859-1.015-1.015a1.065,1.065,0,0,0-.859,1.015.9.9,0,0,0,.937.937,1,1,0,0,0,.937-.937m-1.8-2.421c0,.469.39.7.937.859a.994.994,0,0,0,.7-.859.735.735,0,0,0-.781-.781.8.8,0,0,0-.859.781" transform="translate(-3902.228 -7247.926)" fill="gray"/>
    <path id="Trazado_229813" data-name="Trazado 229813" d="M408.9,270.4a6,6,0,0,1,.7-1.718l.39-.078a11.039,11.039,0,0,0-.468,1.718Z" transform="translate(-3908.604 -7247.86)" fill="gray"/>
    <path id="Trazado_229814" data-name="Trazado 229814" d="M413.711,269.369h-.469a1.9,1.9,0,0,0-1.64,1.718,1.448,1.448,0,0,1,2.577,1.015,1.652,1.652,0,0,1-1.562,1.718c-1.015,0-1.718-.781-1.718-2.03a3.09,3.09,0,0,1,.781-2.186,2.634,2.634,0,0,1,1.562-.7h.469Zm-.234,2.811a.967.967,0,0,0-1.015-1.093,1.015,1.015,0,0,0-.937.625c-.078.078-.078.156-.078.312,0,.781.39,1.406,1.015,1.406a1.253,1.253,0,0,0,1.015-1.249" transform="translate(-3909.043 -7247.926)" fill="gray"/>
    <path id="Trazado_229815" data-name="Trazado 229815" d="M419,271.221c0,1.64-.625,2.5-1.64,2.5-.937,0-1.562-.859-1.562-2.421,0-1.64.7-2.5,1.64-2.5s1.562.937,1.562,2.421m-2.655.078c0,1.249.39,1.952.937,1.952.625,0,1.015-.781,1.015-2.03,0-1.171-.312-1.952-.937-1.952-.547.078-1.015.781-1.015,2.03" transform="translate(-3910.117 -7247.904)" fill="gray"/>
    <path id="Trazado_229816" data-name="Trazado 229816" d="M444.8,270.4a6,6,0,0,1,.7-1.718l.39-.078a11.039,11.039,0,0,0-.469,1.718Z" transform="translate(-3916.472 -7247.86)" fill="gray"/>
    <path id="Trazado_229817" data-name="Trazado 229817" d="M449.511,269.369h-.469a1.9,1.9,0,0,0-1.64,1.718,1.448,1.448,0,0,1,2.577,1.015,1.652,1.652,0,0,1-1.562,1.718c-1.015,0-1.718-.781-1.718-2.03a3.09,3.09,0,0,1,.781-2.186,2.634,2.634,0,0,1,1.562-.7h.469Zm-.156,2.811a.967.967,0,0,0-1.015-1.093,1.015,1.015,0,0,0-.937.625c-.078.078-.078.156-.078.312,0,.781.39,1.406,1.015,1.406a1.253,1.253,0,0,0,1.015-1.249" transform="translate(-3916.888 -7247.926)" fill="gray"/>
    <path id="Trazado_229818" data-name="Trazado 229818" d="M451.7,273.741v-.39l.547-.469c1.249-1.171,1.8-1.8,1.8-2.5a.858.858,0,0,0-.937-.937,1.738,1.738,0,0,0-1.015.39l-.234-.469a1.837,1.837,0,0,1,1.327-.469,1.372,1.372,0,0,1,1.484,1.406c0,.859-.625,1.562-1.64,2.577l-.39.39h2.186v.547H451.7Z" transform="translate(-3917.984 -7247.926)" fill="gray"/>
    <path id="Trazado_229819" data-name="Trazado 229819" d="M479.7,270.4a6,6,0,0,1,.7-1.718l.39-.078a11.035,11.035,0,0,0-.469,1.718Z" transform="translate(-3924.119 -7247.86)" fill="gray"/>
    <path id="Trazado_229820" data-name="Trazado 229820" d="M484.411,269.369h-.469a1.9,1.9,0,0,0-1.64,1.718,1.448,1.448,0,0,1,2.577,1.015,1.652,1.652,0,0,1-1.562,1.718c-1.015,0-1.718-.781-1.718-2.03a3.089,3.089,0,0,1,.781-2.186,2.634,2.634,0,0,1,1.562-.7h.469Zm-.156,2.811a.967.967,0,0,0-1.015-1.093,1.015,1.015,0,0,0-.937.625c-.078.078-.078.156-.078.312,0,.781.39,1.406,1.015,1.406a1.253,1.253,0,0,0,1.015-1.249" transform="translate(-3924.536 -7247.926)" fill="gray"/>
    <path id="Trazado_229821" data-name="Trazado 229821" d="M488.486,273.763v-1.327H486.3v-.39L488.408,269h.7v2.967h.7v.547h-.7v1.327h-.625Zm0-1.8v-2.343a5.669,5.669,0,0,1-.39.7l-1.171,1.64Z" transform="translate(-3925.566 -7247.948)" fill="gray"/>
    <path id="Trazado_229822" data-name="Trazado 229822" d="M515.9,270.4a6,6,0,0,1,.7-1.718l.39-.078a11.032,11.032,0,0,0-.469,1.718Z" transform="translate(-3932.052 -7247.86)" fill="gray"/>
    <path id="Trazado_229823" data-name="Trazado 229823" d="M520.711,269.369h-.469a1.9,1.9,0,0,0-1.64,1.718,1.448,1.448,0,0,1,2.577,1.015,1.652,1.652,0,0,1-1.562,1.718c-1.015,0-1.718-.781-1.718-2.03a3.09,3.09,0,0,1,.781-2.186,2.634,2.634,0,0,1,1.562-.7h.469Zm-.234,2.811a.967.967,0,0,0-1.015-1.093,1.015,1.015,0,0,0-.937.625c-.078.078-.078.156-.078.312,0,.781.39,1.406,1.015,1.406a1.253,1.253,0,0,0,1.015-1.249" transform="translate(-3932.49 -7247.926)" fill="gray"/>
    <path id="Trazado_229824" data-name="Trazado 229824" d="M525.511,269.369h-.469a1.9,1.9,0,0,0-1.64,1.718,1.448,1.448,0,0,1,2.577,1.015,1.652,1.652,0,0,1-1.562,1.718c-1.015,0-1.718-.781-1.718-2.03a3.09,3.09,0,0,1,.781-2.186,2.635,2.635,0,0,1,1.562-.7h.469Zm-.156,2.811a.967.967,0,0,0-1.015-1.093,1.015,1.015,0,0,0-.937.625c-.078.078-.078.156-.078.312,0,.781.39,1.406,1.015,1.406a1.253,1.253,0,0,0,1.015-1.249" transform="translate(-3933.542 -7247.926)" fill="gray"/>
    <path id="Trazado_229825" data-name="Trazado 229825" d="M551.7,270.4a6,6,0,0,1,.7-1.718l.39-.078a11.039,11.039,0,0,0-.469,1.718Z" transform="translate(-3939.897 -7247.86)" fill="gray"/>
    <path id="Trazado_229826" data-name="Trazado 229826" d="M556.411,269.369h-.469a1.9,1.9,0,0,0-1.64,1.718,1.448,1.448,0,0,1,2.577,1.015,1.652,1.652,0,0,1-1.562,1.718c-1.015,0-1.718-.781-1.718-2.03a3.09,3.09,0,0,1,.781-2.186,2.634,2.634,0,0,1,1.562-.7h.469Zm-.156,2.811a.967.967,0,0,0-1.015-1.093,1.015,1.015,0,0,0-.937.625c-.078.078-.078.156-.078.312,0,.781.39,1.406,1.015,1.406a1.253,1.253,0,0,0,1.015-1.249" transform="translate(-3940.313 -7247.926)" fill="gray"/>
    <path id="Trazado_229827" data-name="Trazado 229827" d="M558.5,272.492a1.337,1.337,0,0,1,.937-1.249,1.14,1.14,0,0,1-.781-1.093c0-.781.625-1.249,1.484-1.249.937,0,1.406.547,1.406,1.171a1.213,1.213,0,0,1-.781,1.093,1.244,1.244,0,0,1,.937,1.249,1.466,1.466,0,0,1-1.64,1.406,1.432,1.432,0,0,1-1.562-1.327m2.577,0c0-.547-.39-.859-1.015-1.015a1.065,1.065,0,0,0-.859,1.015.9.9,0,0,0,.937.937,1,1,0,0,0,.937-.937m-1.8-2.421c0,.469.39.7.937.859a.994.994,0,0,0,.7-.859.735.735,0,0,0-.781-.781.8.8,0,0,0-.859.781" transform="translate(-3941.387 -7247.926)" fill="gray"/>
    <path id="Trazado_229828" data-name="Trazado 229828" d="M587.1,270.4a6,6,0,0,1,.7-1.718l.39-.078a11.032,11.032,0,0,0-.469,1.718Z" transform="translate(-3947.655 -7247.86)" fill="gray"/>
    <path id="Trazado_229829" data-name="Trazado 229829" d="M592.345,268.9v.39l-2.108,4.373h-.7l2.108-4.217H589.3V268.9Z" transform="translate(-3948.137 -7247.926)" fill="gray"/>
    <path id="Trazado_229830" data-name="Trazado 229830" d="M597.2,271.221c0,1.64-.625,2.5-1.64,2.5-.937,0-1.562-.859-1.562-2.421,0-1.64.7-2.5,1.64-2.5,1.015,0,1.562.937,1.562,2.421m-2.577.078c0,1.249.39,1.952.937,1.952.625,0,1.015-.781,1.015-2.03,0-1.171-.312-1.952-.937-1.952-.625.078-1.015.781-1.015,2.03" transform="translate(-3949.167 -7247.904)" fill="gray"/>
    <path id="Trazado_229831" data-name="Trazado 229831" d="M623.2,270.4a6,6,0,0,1,.7-1.718l.391-.078a11.032,11.032,0,0,0-.469,1.718Z" transform="translate(-3955.565 -7247.86)" fill="gray"/>
    <path id="Trazado_229832" data-name="Trazado 229832" d="M628.445,268.9v.39l-2.108,4.373h-.7l2.108-4.217H625.4V268.9Z" transform="translate(-3956.047 -7247.926)" fill="gray"/>
    <path id="Trazado_229833" data-name="Trazado 229833" d="M630.1,273.741v-.39l.547-.469c1.249-1.171,1.8-1.8,1.8-2.5a.858.858,0,0,0-.937-.937,1.738,1.738,0,0,0-1.015.39l-.234-.469a1.837,1.837,0,0,1,1.327-.469,1.372,1.372,0,0,1,1.484,1.406c0,.859-.625,1.562-1.64,2.577l-.39.39h2.186v.547H630.1Z" transform="translate(-3957.077 -7247.926)" fill="gray"/>
    <path id="Trazado_229834" data-name="Trazado 229834" d="M50.184,221,36.6,223.967,23.4,230.6" transform="translate(-3824.128 -7237.429)" fill="none" stroke="#4dd0e1" stroke-linecap="round" stroke-width="3"/>
    <path id="Trazado_231229" data-name="Trazado 231229" d="M13.9,6.715,0,0" transform="translate(-3773.944 -7016.429)" fill="none" stroke="#4dd0e1" stroke-linecap="round" stroke-width="3"/>
    <path id="Trazado_231230" data-name="Trazado 231230" d="M13.977,0,0,16.71" transform="translate(-3760.045 -7026.424)" fill="none" stroke="#4dd0e1" stroke-linecap="round" stroke-width="3"/>
    <path id="Trazado_231231" data-name="Trazado 231231" d="M13.9,3.358,0,0" transform="translate(-3746.067 -7026.424)" fill="none" stroke="#4dd0e1" stroke-linecap="round" stroke-width="3"/>
    <path id="Trazado_231232" data-name="Trazado 231232" d="M13.977,13.353,0,0" transform="translate(-3732.168 -7023.066)" fill="none" stroke="#4dd0e1" stroke-linecap="round" stroke-width="3"/>
    <path id="Trazado_231233" data-name="Trazado 231233" d="M13.9,0,0,20.068" transform="translate(-3718.19 -7029.782)" fill="none" stroke="#4dd0e1" stroke-linecap="round" stroke-width="3"/>
    <path id="Trazado_231234" data-name="Trazado 231234" d="M13.977,10,0,0" transform="translate(-3704.291 -7029.782)" fill="none" stroke="#4dd0e1" stroke-linecap="round" stroke-width="3"/>
    <path id="Trazado_231235" data-name="Trazado 231235" d="M13.9,0,0,26.706" transform="translate(-3690.313 -7046.492)" fill="none" stroke="#4dd0e1" stroke-linecap="round" stroke-width="3"/>
    <path id="Trazado_231236" data-name="Trazado 231236" d="M13.977,3.358,0,0" transform="translate(-3676.414 -7046.492)" fill="none" stroke="#4dd0e1" stroke-linecap="round" stroke-width="3"/>
    <path id="Trazado_231237" data-name="Trazado 231237" d="M13.9,0,0,6.715" transform="translate(-3662.437 -7049.85)" fill="none" stroke="#4dd0e1" stroke-linecap="round" stroke-width="3"/>
    <path id="Trazado_231238" data-name="Trazado 231238" d="M13.9,3.358,0,0" transform="translate(-3648.537 -7049.85)" fill="none" stroke="#4dd0e1" stroke-linecap="round" stroke-width="3"/>
    <path id="Trazado_231239" data-name="Trazado 231239" d="M13.977,0,0,19.99" transform="translate(-3634.638 -7066.482)" fill="none" stroke="#4dd0e1" stroke-linecap="round" stroke-width="3"/>
    <path id="Trazado_231240" data-name="Trazado 231240" d="M13.9,33.343,0,0" transform="translate(-3620.66 -7066.482)" fill="none" stroke="#4dd0e1" stroke-linecap="round" stroke-width="3"/>
    <path id="Trazado_231241" data-name="Trazado 231241" d="M13.977,0,0,13.353" transform="translate(-3606.761 -7046.492)" fill="none" stroke="#4dd0e1" stroke-linecap="round" stroke-width="3"/>
    <path id="Trazado_231242" data-name="Trazado 231242" d="M13.9,3.358,0,0" transform="translate(-3592.784 -7046.492)" fill="none" stroke="#4dd0e1" stroke-linecap="round" stroke-width="3"/>
    <path id="Trazado_231243" data-name="Trazado 231243" d="M13.977,0,0,6.715" transform="translate(-3578.884 -7049.85)" fill="none" stroke="#4dd0e1" stroke-linecap="round" stroke-width="3"/>
    <path id="Trazado_231244" data-name="Trazado 231244" d="M13.9,0,0,36.7" transform="translate(-3564.907 -7086.551)" fill="none" stroke="#4dd0e1" stroke-linecap="round" stroke-width="3"/>
    <path id="Trazado_231245" data-name="Trazado 231245" d="M13.9,13.353,0,0" transform="translate(-3551.007 -7086.551)" fill="none" stroke="#4dd0e1" stroke-linecap="round" stroke-width="3"/>
    <path id="Trazado_231246" data-name="Trazado 231246" d="M13.977,0,0,26.706" transform="translate(-3537.108 -7099.903)" fill="none" stroke="#4dd0e1" stroke-linecap="round" stroke-width="3"/>
    <path id="Trazado_231247" data-name="Trazado 231247" d="M13.9,53.411,0,0" transform="translate(-3523.131 -7099.903)" fill="none" stroke="#4dd0e1" stroke-linecap="round" stroke-width="3"/>
    <path id="Trazado_231248" data-name="Trazado 231248" d="M13.977,0,0,73.479" transform="translate(-3509.231 -7119.972)" fill="none" stroke="#4dd0e1" stroke-linecap="round" stroke-width="3"/>
    <path id="Trazado_231249" data-name="Trazado 231249" d="M13.9,33.421,0,0" transform="translate(-3495.254 -7119.972)" fill="none" stroke="#4dd0e1" stroke-linecap="round" stroke-width="3"/>
    <path id="Trazado_231250" data-name="Trazado 231250" d="M13.977,0,0,66.764" transform="translate(-3481.354 -7153.314)" fill="none" stroke="#4dd0e1" stroke-linecap="round" stroke-width="3"/>
    <path id="Trazado_231251" data-name="Trazado 231251" d="M13.9,19.99,0,0" transform="translate(-3467.377 -7153.314)" fill="none" stroke="#4dd0e1" stroke-linecap="round" stroke-width="3"/>
    <path id="Trazado_231252" data-name="Trazado 231252" d="M13.9,0,0,46.774" transform="translate(-3453.478 -7180.098)" fill="none" stroke="#4dd0e1" stroke-linecap="round" stroke-width="3"/>
    <path id="Trazado_231253" data-name="Trazado 231253" d="M13.977,6.715,0,0" transform="translate(-3439.578 -7180.098)" fill="none" stroke="#4dd0e1" stroke-linecap="round" stroke-width="3"/>
    <path id="Trazado_231254" data-name="Trazado 231254" d="M13.9,0,0,6.715" transform="translate(-3425.601 -7180.098)" fill="none" stroke="#4dd0e1" stroke-linecap="round" stroke-width="3"/>
    <path id="Trazado_231255" data-name="Trazado 231255" d="M13.977,20.068,0,0" transform="translate(-3411.701 -7180.098)" fill="none" stroke="#4dd0e1" stroke-linecap="round" stroke-width="3"/>
    <path id="Trazado_231256" data-name="Trazado 231256" d="M13.9,6.715,0,0" transform="translate(-3397.724 -7160.03)" fill="none" stroke="#4dd0e1" stroke-linecap="round" stroke-width="3"/>
    <path id="Trazado_231257" data-name="Trazado 231257" d="M13.977,66.764,0,0" transform="translate(-3383.824 -7153.314)" fill="none" stroke="#4dd0e1" stroke-linecap="round" stroke-width="3"/>
    <path id="Trazado_231258" data-name="Trazado 231258" d="M13.9,0,0,20.068" transform="translate(-3369.847 -7106.619)" fill="none" stroke="#4dd0e1" stroke-linecap="round" stroke-width="3"/>
    <path id="Trazado_231259" data-name="Trazado 231259" d="M13.9,20.068,0,0" transform="translate(-3355.948 -7106.619)" fill="none" stroke="#4dd0e1" stroke-linecap="round" stroke-width="3"/>
    <path id="Trazado_231260" data-name="Trazado 231260" d="M13.977,0,0,46.774" transform="translate(-3342.048 -7133.324)" fill="none" stroke="#4dd0e1" stroke-linecap="round" stroke-width="3"/>
    <path id="Trazado_231261" data-name="Trazado 231261" d="M13.9,13.353,0,0" transform="translate(-3328.071 -7133.324)" fill="none" stroke="#4dd0e1" stroke-linecap="round" stroke-width="3"/>
    <path id="Trazado_229835" data-name="Trazado 229835" d="M50.584,254.1,36.45,255.818,23.8,257.77" transform="translate(-3824.215 -7244.683)" fill="none" stroke="#a4f6fc" stroke-linecap="round" stroke-width="3"/>
    <path id="Trazado_231262" data-name="Trazado 231262" d="M13.977,0,0,.234" transform="translate(-3773.944 -6990.816)" fill="none" stroke="#a4f6fc" stroke-linecap="round" stroke-width="3"/>
    <path id="Trazado_231263" data-name="Trazado 231263" d="M13.9.469,0,0" transform="translate(-3759.967 -6990.816)" fill="none" stroke="#a4f6fc" stroke-linecap="round" stroke-width="3"/>
    <path id="Trazado_231264" data-name="Trazado 231264" d="M13.9,2.655,0,0" transform="translate(-3746.067 -6990.348)" fill="none" stroke="#a4f6fc" stroke-linecap="round" stroke-width="3"/>
    <path id="Trazado_231265" data-name="Trazado 231265" d="M13.977,0,0,.7" transform="translate(-3732.168 -6988.396)" fill="none" stroke="#a4f6fc" stroke-linecap="round" stroke-width="3"/>
    <path id="Trazado_231266" data-name="Trazado 231266" d="M13.9.7,0,0" transform="translate(-3718.19 -6988.396)" fill="none" stroke="#a4f6fc" stroke-linecap="round" stroke-width="3"/>
    <path id="Trazado_231267" data-name="Trazado 231267" d="M13.977,0,0,4.685" transform="translate(-3704.291 -6992.378)" fill="none" stroke="#a4f6fc" stroke-linecap="round" stroke-width="3"/>
    <path id="Trazado_231268" data-name="Trazado 231268" d="M13.9,1.327,0,0" transform="translate(-3690.313 -6992.378)" fill="none" stroke="#a4f6fc" stroke-linecap="round" stroke-width="3"/>
    <path id="Trazado_231269" data-name="Trazado 231269" d="M13.977,0,0,2.03" transform="translate(-3676.414 -6993.081)" fill="none" stroke="#a4f6fc" stroke-linecap="round" stroke-width="3"/>
    <path id="Trazado_231270" data-name="Trazado 231270" d="M13.9,0H0" transform="translate(-3662.437 -6993.081)" fill="none" stroke="#a4f6fc" stroke-linecap="round" stroke-width="3"/>
    <path id="Trazado_231271" data-name="Trazado 231271" d="M13.9,3.358,0,0" transform="translate(-3648.537 -6993.081)" fill="none" stroke="#a4f6fc" stroke-linecap="round" stroke-width="3"/>
    <path id="Trazado_231272" data-name="Trazado 231272" d="M13.977,0,0,6.637" transform="translate(-3634.638 -6996.361)" fill="none" stroke="#a4f6fc" stroke-linecap="round" stroke-width="3"/>
    <path id="Trazado_231273" data-name="Trazado 231273" d="M13.9,1.327,0,0" transform="translate(-3620.66 -6996.361)" fill="none" stroke="#a4f6fc" stroke-linecap="round" stroke-width="3"/>
    <path id="Trazado_231274" data-name="Trazado 231274" d="M13.977,0,0,4.685" transform="translate(-3606.761 -6999.719)" fill="none" stroke="#a4f6fc" stroke-linecap="round" stroke-width="3"/>
    <path id="Trazado_231275" data-name="Trazado 231275" d="M13.9,6.013,0,0" transform="translate(-3592.784 -6999.719)" fill="none" stroke="#a4f6fc" stroke-linecap="round" stroke-width="3"/>
    <path id="Trazado_231276" data-name="Trazado 231276" d="M13.977,0,0,1.327" transform="translate(-3578.884 -6995.033)" fill="none" stroke="#a4f6fc" stroke-linecap="round" stroke-width="3"/>
    <path id="Trazado_231277" data-name="Trazado 231277" d="M13.9,3.982,0,0" transform="translate(-3564.907 -6995.033)" fill="none" stroke="#a4f6fc" stroke-linecap="round" stroke-width="3"/>
    <path id="Trazado_231278" data-name="Trazado 231278" d="M13.9,0,0,10" transform="translate(-3551.007 -7001.046)" fill="none" stroke="#a4f6fc" stroke-linecap="round" stroke-width="3"/>
    <path id="Trazado_231279" data-name="Trazado 231279" d="M13.977,1.952,0,0" transform="translate(-3537.108 -7001.046)" fill="none" stroke="#a4f6fc" stroke-linecap="round" stroke-width="3"/>
    <path id="Trazado_231280" data-name="Trazado 231280" d="M13.9,0,0,7.34" transform="translate(-3523.131 -7006.434)" fill="none" stroke="#a4f6fc" stroke-linecap="round" stroke-width="3"/>
    <path id="Trazado_231281" data-name="Trazado 231281" d="M13.977,3.358,0,0" transform="translate(-3509.231 -7006.434)" fill="none" stroke="#a4f6fc" stroke-linecap="round" stroke-width="3"/>
    <path id="Trazado_231282" data-name="Trazado 231282" d="M13.9,0,0,16.71" transform="translate(-3495.254 -7019.787)" fill="none" stroke="#a4f6fc" stroke-linecap="round" stroke-width="3"/>
    <path id="Trazado_231283" data-name="Trazado 231283" d="M13.977,6.715,0,0" transform="translate(-3481.354 -7019.787)" fill="none" stroke="#a4f6fc" stroke-linecap="round" stroke-width="3"/>
    <path id="Trazado_231284" data-name="Trazado 231284" d="M13.9,0,0,26.706" transform="translate(-3467.377 -7039.777)" fill="none" stroke="#a4f6fc" stroke-linecap="round" stroke-width="3"/>
    <path id="Trazado_231285" data-name="Trazado 231285" d="M13.9,13.353,0,0" transform="translate(-3453.478 -7039.777)" fill="none" stroke="#a4f6fc" stroke-linecap="round" stroke-width="3"/>
    <path id="Trazado_231286" data-name="Trazado 231286" d="M13.977,0,0,6.715" transform="translate(-3439.578 -7033.14)" fill="none" stroke="#a4f6fc" stroke-linecap="round" stroke-width="3"/>
    <path id="Trazado_231287" data-name="Trazado 231287" d="M13.9,20.068,0,0" transform="translate(-3425.601 -7033.14)" fill="none" stroke="#a4f6fc" stroke-linecap="round" stroke-width="3"/>
    <path id="Trazado_231288" data-name="Trazado 231288" d="M13.977,0,0,3.358" transform="translate(-3411.701 -7016.429)" fill="none" stroke="#a4f6fc" stroke-linecap="round" stroke-width="3"/>
    <path id="Trazado_231289" data-name="Trazado 231289" d="M13.9,2.03,0,0" transform="translate(-3397.724 -7016.429)" fill="none" stroke="#a4f6fc" stroke-linecap="round" stroke-width="3"/>
    <path id="Trazado_231290" data-name="Trazado 231290" d="M13.977,0,0,3.358" transform="translate(-3383.824 -7017.756)" fill="none" stroke="#a4f6fc" stroke-linecap="round" stroke-width="3"/>
    <path id="Trazado_231291" data-name="Trazado 231291" d="M13.9,1.327,0,0" transform="translate(-3369.847 -7017.756)" fill="none" stroke="#a4f6fc" stroke-linecap="round" stroke-width="3"/>
    <path id="Trazado_231292" data-name="Trazado 231292" d="M13.9,0,0,30.063" transform="translate(-3355.948 -7046.492)" fill="none" stroke="#a4f6fc" stroke-linecap="round" stroke-width="3"/>
    <path id="Trazado_231293" data-name="Trazado 231293" d="M13.977,3.358,0,0" transform="translate(-3342.048 -7046.492)" fill="none" stroke="#a4f6fc" stroke-linecap="round" stroke-width="3"/>
    <path id="Trazado_231294" data-name="Trazado 231294" d="M13.9,0,0,23.348" transform="translate(-3328.071 -7066.482)" fill="none" stroke="#a4f6fc" stroke-linecap="round" stroke-width="3"/>
    <path id="Trazado_231295" data-name="Trazado 231295" d="M0,0H488.04" transform="translate(-3801.431 -6986.366)" fill="none" stroke="#666" stroke-width="1"/>
    <path id="Trazado_231296" data-name="Trazado 231296" d="M0,2.811V0" transform="translate(-3773.632 -6986.131)" fill="none" stroke="#666" stroke-width="1"/>
    <path id="Trazado_231297" data-name="Trazado 231297" d="M0,2.811V0" transform="translate(-3745.755 -6986.131)" fill="none" stroke="#666" stroke-width="1"/>
    <path id="Trazado_231298" data-name="Trazado 231298" d="M0,2.811V0" transform="translate(-3717.878 -6986.131)" fill="none" stroke="#666" stroke-width="1"/>
    <path id="Trazado_231299" data-name="Trazado 231299" d="M0,2.811V0" transform="translate(-3690.001 -6986.131)" fill="none" stroke="#666" stroke-width="1"/>
    <path id="Trazado_231300" data-name="Trazado 231300" d="M0,2.811V0" transform="translate(-3662.125 -6986.131)" fill="none" stroke="#666" stroke-width="1"/>
    <path id="Trazado_231301" data-name="Trazado 231301" d="M0,2.811V0" transform="translate(-3634.248 -6986.131)" fill="none" stroke="#666" stroke-width="1"/>
    <path id="Trazado_231302" data-name="Trazado 231302" d="M0,2.811V0" transform="translate(-3606.371 -6986.131)" fill="none" stroke="#666" stroke-width="1"/>
    <path id="Trazado_231303" data-name="Trazado 231303" d="M0,2.811V0" transform="translate(-3578.494 -6986.131)" fill="none" stroke="#666" stroke-width="1"/>
    <path id="Trazado_231304" data-name="Trazado 231304" d="M0,2.811V0" transform="translate(-3550.695 -6986.131)" fill="none" stroke="#666" stroke-width="1"/>
    <path id="Trazado_231305" data-name="Trazado 231305" d="M0,2.811V0" transform="translate(-3522.818 -6986.131)" fill="none" stroke="#666" stroke-width="1"/>
    <path id="Trazado_231306" data-name="Trazado 231306" d="M0,2.811V0" transform="translate(-3494.941 -6986.131)" fill="none" stroke="#666" stroke-width="1"/>
    <path id="Trazado_231307" data-name="Trazado 231307" d="M0,2.811V0" transform="translate(-3467.064 -6986.131)" fill="none" stroke="#666" stroke-width="1"/>
    <path id="Trazado_231308" data-name="Trazado 231308" d="M0,2.811V0" transform="translate(-3439.188 -6986.131)" fill="none" stroke="#666" stroke-width="1"/>
    <path id="Trazado_231309" data-name="Trazado 231309" d="M0,2.811V0" transform="translate(-3411.311 -6986.131)" fill="none" stroke="#666" stroke-width="1"/>
    <path id="Trazado_231310" data-name="Trazado 231310" d="M0,2.811V0" transform="translate(-3383.434 -6986.131)" fill="none" stroke="#666" stroke-width="1"/>
    <path id="Trazado_231311" data-name="Trazado 231311" d="M0,2.811V0" transform="translate(-3355.635 -6986.131)" fill="none" stroke="#666" stroke-width="1"/>
    <path id="Trazado_231312" data-name="Trazado 231312" d="M0,2.811V0" transform="translate(-3327.758 -6986.131)" fill="none" stroke="#666" stroke-width="1"/>
    <path id="Trazado_229836" data-name="Trazado 229836" d="M12.9,259.021c0,1.64-.625,2.5-1.64,2.5-.937,0-1.562-.859-1.562-2.421,0-1.64.7-2.5,1.64-2.5s1.562.937,1.562,2.421m-2.655.078c0,1.249.39,1.952.937,1.952.625,0,1.015-.781,1.015-2.03,0-1.171-.312-1.952-.937-1.952-.547.078-1.015.781-1.015,2.03" transform="translate(-3821.126 -7245.23)" fill="gray"/>
    <path id="Trazado_229837" data-name="Trazado 229837" d="M7.711,214.569h-1.8l-.156,1.249h.39a2.161,2.161,0,0,1,1.015.234,1.381,1.381,0,0,1,.7,1.249,1.689,1.689,0,0,1-1.8,1.64,2.107,2.107,0,0,1-1.171-.312l.156-.469a1.954,1.954,0,0,0,1.015.234,1.073,1.073,0,0,0,1.171-1.015c0-.625-.39-1.093-1.406-1.093a1.522,1.522,0,0,0-.625.078l.312-2.264H7.789v.469Z" transform="translate(-3820.074 -7235.917)" fill="gray"/>
    <path id="Trazado_229838" data-name="Trazado 229838" d="M12.9,216.321c0,1.64-.625,2.5-1.64,2.5-.937,0-1.562-.859-1.562-2.421,0-1.64.7-2.5,1.64-2.5s1.562.859,1.562,2.421m-2.655.078c0,1.249.39,1.952.937,1.952.625,0,1.015-.781,1.015-2.03,0-1.171-.312-1.952-.937-1.952-.547,0-1.015.7-1.015,2.03" transform="translate(-3821.126 -7235.873)" fill="gray"/>
    <path id="Trazado_229839" data-name="Trazado 229839" d="M1.515,171.847h0l-.859.469L.5,171.847l1.015-.547h.547v4.763H1.437v-4.217Z" transform="translate(-3819.11 -7226.538)" fill="gray"/>
    <path id="Trazado_229840" data-name="Trazado 229840" d="M8,173.521c0,1.64-.625,2.5-1.64,2.5-.937,0-1.562-.859-1.562-2.421,0-1.64.7-2.5,1.64-2.5,1.015,0,1.562.859,1.562,2.421m-2.577.078c0,1.249.39,1.952.937,1.952.625,0,1.015-.781,1.015-2.03,0-1.171-.312-1.952-.937-1.952s-1.015.7-1.015,2.03" transform="translate(-3820.052 -7226.494)" fill="gray"/>
    <path id="Trazado_229841" data-name="Trazado 229841" d="M12.9,173.521c0,1.64-.625,2.5-1.64,2.5-.937,0-1.562-.859-1.562-2.421,0-1.64.7-2.5,1.64-2.5s1.562.859,1.562,2.421m-2.655.078c0,1.249.39,1.952.937,1.952.625,0,1.015-.781,1.015-2.03,0-1.171-.312-1.952-.937-1.952-.547,0-1.015.7-1.015,2.03" transform="translate(-3821.126 -7226.494)" fill="gray"/>
    <path id="Trazado_229842" data-name="Trazado 229842" d="M1.515,129.047h0l-.859.469L.5,129.047l1.015-.547h.547v4.763H1.437v-4.217Z" transform="translate(-3819.11 -7217.159)" fill="gray"/>
    <path id="Trazado_229843" data-name="Trazado 229843" d="M7.711,128.969h-1.8l-.156,1.249h.39a2.162,2.162,0,0,1,1.015.234,1.381,1.381,0,0,1,.7,1.249,1.689,1.689,0,0,1-1.8,1.64,2.107,2.107,0,0,1-1.171-.312l.156-.469a1.954,1.954,0,0,0,1.015.234,1.073,1.073,0,0,0,1.171-1.015c0-.625-.39-1.093-1.406-1.093a1.522,1.522,0,0,0-.625.078l.312-2.264H7.789v.469Z" transform="translate(-3820.074 -7217.159)" fill="gray"/>
    <path id="Trazado_229844" data-name="Trazado 229844" d="M12.9,130.721c0,1.64-.625,2.5-1.64,2.5-.937,0-1.562-.859-1.562-2.421,0-1.64.7-2.5,1.64-2.5s1.562.937,1.562,2.421m-2.655.078c0,1.249.39,1.952.937,1.952.625,0,1.015-.781,1.015-2.03,0-1.171-.312-1.952-.937-1.952-.547.078-1.015.781-1.015,2.03" transform="translate(-3821.126 -7217.115)" fill="gray"/>
    <path id="Trazado_229845" data-name="Trazado 229845" d="M0,90.441v-.39l.547-.469c1.249-1.171,1.8-1.8,1.8-2.5a.858.858,0,0,0-.937-.937,1.738,1.738,0,0,0-1.015.39l-.234-.469A1.837,1.837,0,0,1,1.484,85.6a1.372,1.372,0,0,1,1.484,1.406c0,.859-.625,1.562-1.64,2.577l-.39.39H3.045v.547H0Z" transform="translate(-3819 -7207.758)" fill="gray"/>
    <path id="Trazado_229846" data-name="Trazado 229846" d="M8,88.021c0,1.64-.625,2.5-1.64,2.5-.937,0-1.562-.859-1.562-2.421,0-1.64.7-2.5,1.64-2.5C7.455,85.6,8,86.459,8,88.021M5.425,88.1c0,1.249.39,1.952.937,1.952.625,0,1.015-.781,1.015-2.03,0-1.171-.312-1.952-.937-1.952s-1.015.7-1.015,2.03" transform="translate(-3820.052 -7207.758)" fill="gray"/>
    <path id="Trazado_229847" data-name="Trazado 229847" d="M12.9,88.021c0,1.64-.625,2.5-1.64,2.5-.937,0-1.562-.859-1.562-2.421,0-1.64.7-2.5,1.64-2.5s1.562.859,1.562,2.421m-2.655.078c0,1.249.39,1.952.937,1.952.625,0,1.015-.781,1.015-2.03,0-1.171-.312-1.952-.937-1.952-.547,0-1.015.7-1.015,2.03" transform="translate(-3821.126 -7207.758)" fill="gray"/>
    <path id="Trazado_229848" data-name="Trazado 229848" d="M0,47.641v-.39l.547-.469c1.249-1.171,1.8-1.8,1.8-2.5a.858.858,0,0,0-.937-.937,1.738,1.738,0,0,0-1.015.39l-.234-.469A1.837,1.837,0,0,1,1.484,42.8a1.372,1.372,0,0,1,1.484,1.406c0,.859-.625,1.562-1.64,2.577l-.39.39H3.045v.547H0Z" transform="translate(-3819 -7198.379)" fill="gray"/>
    <path id="Trazado_229849" data-name="Trazado 229849" d="M7.689,43.469h-1.8l-.234,1.249h.39a2.162,2.162,0,0,1,1.015.234,1.381,1.381,0,0,1,.7,1.249,1.689,1.689,0,0,1-1.8,1.64A2.107,2.107,0,0,1,4.8,47.529l.156-.469a1.954,1.954,0,0,0,1.015.234A1.073,1.073,0,0,0,7.143,46.28c0-.625-.39-1.093-1.406-1.093a1.522,1.522,0,0,0-.625.078L5.425,43H7.689v.469" transform="translate(-3820.052 -7198.423)" fill="gray"/>
    <path id="Trazado_229850" data-name="Trazado 229850" d="M12.9,45.221c0,1.64-.625,2.5-1.64,2.5-.937,0-1.562-.859-1.562-2.421,0-1.64.7-2.5,1.64-2.5s1.562.859,1.562,2.421m-2.655.078c0,1.249.39,1.952.937,1.952.625,0,1.015-.781,1.015-2.03,0-1.171-.312-1.952-.937-1.952-.547,0-1.015.7-1.015,2.03" transform="translate(-3821.126 -7198.379)" fill="gray"/>
    <path id="Trazado_229851" data-name="Trazado 229851" d="M.2,4.16a1.82,1.82,0,0,0,1.093.312c.859,0,1.093-.547,1.093-.937,0-.7-.625-.937-1.249-.937H.747V2.13h.39c.469,0,1.093-.234,1.093-.781,0-.39-.234-.7-.859-.7A1.481,1.481,0,0,0,.434.959L.278.49A2.356,2.356,0,0,1,1.527.1c.937,0,1.406.547,1.406,1.171a1.149,1.149,0,0,1-.859,1.093A1.262,1.262,0,0,1,3.167,3.614c0,.781-.625,1.406-1.718,1.406A2.419,2.419,0,0,1,.2,4.707Z" transform="translate(-3819.044 -7189.022)" fill="gray"/>
    <path id="Trazado_229852" data-name="Trazado 229852" d="M8,2.421c0,1.64-.625,2.5-1.64,2.5C5.425,4.919,4.8,4.06,4.8,2.5,4.8.859,5.5,0,6.44,0,7.455,0,8,.937,8,2.421M5.425,2.5c0,1.249.39,1.952.937,1.952.625,0,1.015-.781,1.015-2.03,0-1.171-.312-1.952-.937-1.952-.625.078-1.015.7-1.015,2.03" transform="translate(-3820.052 -7189)" fill="gray"/>
    <path id="Trazado_229853" data-name="Trazado 229853" d="M12.9,2.421c0,1.64-.625,2.5-1.64,2.5C10.325,4.919,9.7,4.06,9.7,2.5c0-1.64.7-2.5,1.64-2.5S12.9.937,12.9,2.421M10.247,2.5c0,1.249.39,1.952.937,1.952.625,0,1.015-.781,1.015-2.03,0-1.171-.312-1.952-.937-1.952-.547.078-1.015.7-1.015,2.03" transform="translate(-3821.126 -7189)" fill="gray"/>
    <path id="Trazado_231313" data-name="Trazado 231313" d="M0,200.37V0" transform="translate(-3801.431 -7186.735)" fill="none" stroke="#666" stroke-width="1"/>
    <path id="Trazado_231314" data-name="Trazado 231314" d="M0,0H4.451" transform="translate(-3805.647 -7019.475)" fill="none" stroke="#666" stroke-width="1"/>
    <path id="Trazado_231315" data-name="Trazado 231315" d="M0,0H4.451" transform="translate(-3805.647 -7052.817)" fill="none" stroke="#666" stroke-width="1"/>
    <path id="Trazado_231316" data-name="Trazado 231316" d="M0,0H4.451" transform="translate(-3805.647 -7086.238)" fill="none" stroke="#666" stroke-width="1"/>
    <path id="Trazado_231317" data-name="Trazado 231317" d="M0,0H4.451" transform="translate(-3805.647 -7119.659)" fill="none" stroke="#666" stroke-width="1"/>
    <path id="Trazado_231318" data-name="Trazado 231318" d="M0,0H4.451" transform="translate(-3805.647 -7153.002)" fill="none" stroke="#666" stroke-width="1"/>
    <path id="Trazado_231319" data-name="Trazado 231319" d="M0,0H4.451" transform="translate(-3805.647 -7186.423)" fill="none" stroke="#666" stroke-width="1"/>
    <path id="Trazado_231320" data-name="Trazado 231320" d="M0,0H506V214.894H0Z" transform="translate(-3819 -7189)" fill="none"/>
    <path id="Trazado_231321" data-name="Trazado 231321" d="M0,0H506V214.894H0Z" transform="translate(-3819 -7189)" fill="none"/>
  </g>
</svg>
