<svg xmlns="http://www.w3.org/2000/svg" xmlns:xlink="http://www.w3.org/1999/xlink" width="555" height="402" viewBox="0 0 555 402">
  <defs>
    <clipPath id="clip-path">
      <rect id="Rectángulo_304992" data-name="Rectángulo 304992" width="310.795" height="310.273" fill="none"/>
    </clipPath>
    <clipPath id="clip-path-2">
      <rect id="Rectángulo_304992-2" data-name="Rectángulo 304992" width="150.979" height="150.725" fill="none"/>
    </clipPath>
  </defs>
  <g id="Grupo_225036" data-name="Grupo 225036" transform="translate(3839 7926)">
    <path id="Trazado_231322" data-name="Trazado 231322" d="M0,0H510V2H0Z" transform="translate(-3794 -7926)" fill="#4dd0e1" opacity="0.2"/>
    <path id="Trazado_231323" data-name="Trazado 231323" d="M0,0H510V2H0Z" transform="translate(-3794 -7526)" fill="#4dd0e1" opacity="0.2"/>
    <path id="Trazado_231324" data-name="Trazado 231324" d="M0,0H190V402H0Z" transform="translate(-3474 -7926)" fill="#4dd0e1"/>
    <path id="metaverso-nft-ob-01-1" d="M15,0H529a15,15,0,0,1,15,15V369a15,15,0,0,1-15,15H15A15,15,0,0,1,0,369V15A15,15,0,0,1,15,0Z" transform="translate(-3839 -7917)" fill="#fff"/>
    <g id="Grupo_222990" data-name="Grupo 222990" transform="translate(-3804.67 -7880.603)" clip-path="url(#clip-path)">
      <path id="Trazado_230280" data-name="Trazado 230280" d="M96.11,154.086,28.759,16.037A150.391,150.391,0,0,1,96.11.526Z" transform="translate(59.589 1.09)" fill="#feca2e"/>
      <path id="Trazado_230281" data-name="Trazado 230281" d="M96.11,154.086,28.759,16.037A150.391,150.391,0,0,1,96.11.526Z" transform="translate(59.589 1.09)" fill="none" stroke="#fff" stroke-miterlimit="10" stroke-width="1"/>
      <path id="Trazado_230282" data-name="Trazado 230282" d="M142.141,143.679,6.543,71.511C22.462,41.55,44.341,20.488,74.791,5.549Z" transform="translate(13.557 11.498)" fill="#bddcf6"/>
      <path id="Trazado_230283" data-name="Trazado 230283" d="M142.141,143.679,6.543,71.511C22.462,41.55,44.341,20.488,74.791,5.549Z" transform="translate(13.557 11.498)" fill="none" stroke="#fff" stroke-miterlimit="10" stroke-width="1"/>
      <path id="Trazado_230284" data-name="Trazado 230284" d="M154.663,99.189,44.126,205.806C-2.977,156.988-12.857,86.944,18.981,27.021Z" transform="translate(1.036 55.988)" fill="#0f2771"/>
      <path id="Trazado_230285" data-name="Trazado 230285" d="M154.663,99.189,44.126,205.806C-2.977,156.988-12.857,86.944,18.981,27.021Z" transform="translate(1.036 55.988)" fill="none" stroke="#fff" stroke-miterlimit="10" stroke-width="1"/>
      <path id="Trazado_230286" data-name="Trazado 230286" d="M125.182,50.513v153.56c-44.083,0-79.841-15.185-110.454-46.86Z" transform="translate(30.516 104.663)" fill="#dfdfdf"/>
      <path id="Trazado_230287" data-name="Trazado 230287" d="M125.182,50.513v153.56c-44.083,0-79.841-15.185-110.454-46.86Z" transform="translate(30.516 104.663)" fill="none" stroke="#fff" stroke-miterlimit="10" stroke-width="1"/>
      <path id="Trazado_230288" data-name="Trazado 230288" d="M50.683,154.14V.5a153.542,153.542,0,0,1,153.56,153.557c0,84.821-68.739,153.643-153.56,153.643Z" transform="translate(105.015 1.036)" fill="#4dd0e1"/>
      <path id="Trazado_230289" data-name="Trazado 230289" d="M50.683,154.14V.5a153.542,153.542,0,0,1,153.56,153.557c0,84.821-68.739,153.643-153.56,153.643Z" transform="translate(105.015 1.036)" fill="none" stroke="#fff" stroke-miterlimit="10" stroke-width="1"/>
    </g>
    <g id="Grupo_222990-2" data-name="Grupo 222990" transform="translate(-3469.646 -7880.603)" clip-path="url(#clip-path-2)">
      <path id="Trazado_230280-2" data-name="Trazado 230280" d="M61.477,75.123,28.759,8.061A73.057,73.057,0,0,1,61.477.526Z" transform="translate(14.159 0.259)" fill="#bddcf6"/>
      <path id="Trazado_230281-2" data-name="Trazado 230281" d="M61.477,75.123,28.759,8.061A73.057,73.057,0,0,1,61.477.526Z" transform="translate(14.159 0.259)" fill="none" stroke="#fff" stroke-miterlimit="10" stroke-width="1"/>
      <path id="Trazado_230282-2" data-name="Trazado 230282" d="M72.414,72.65,6.543,37.592A71.7,71.7,0,0,1,39.7,5.549Z" transform="translate(3.221 2.732)" fill="#0f2771"/>
      <path id="Trazado_230283-2" data-name="Trazado 230283" d="M72.414,72.65,6.543,37.592A71.7,71.7,0,0,1,39.7,5.549Z" transform="translate(3.221 2.732)" fill="none" stroke="#fff" stroke-miterlimit="10" stroke-width="1"/>
      <path id="Trazado_230284-2" data-name="Trazado 230284" d="M75.39,62.079l-53.7,51.793C-1.189,90.157-5.989,56.13,9.478,27.021Z" transform="translate(0.246 13.303)" fill="#feca2e" stroke="rgba(0,0,0,0)" stroke-miterlimit="10" stroke-width="1"/>
      <path id="Trazado_230286-2" data-name="Trazado 230286" d="M68.385,50.513v74.6c-21.415,0-38.786-7.377-53.657-22.764Z" transform="translate(7.251 24.869)" fill="#feca2e" stroke="rgba(0,0,0,0)" stroke-miterlimit="10" stroke-width="1"/>
      <path id="Trazado_230288-2" data-name="Trazado 230288" d="M50.683,75.136V.5a74.617,74.617,0,0,1,0,149.233Z" transform="translate(24.953 0.246)" fill="#4dd0e1"/>
      <path id="Trazado_230289-2" data-name="Trazado 230289" d="M50.683,75.136V.5a74.617,74.617,0,0,1,0,149.233Z" transform="translate(24.953 0.246)" fill="none" stroke="#fff" stroke-miterlimit="10" stroke-width="1"/>
    </g>
    <g id="Grupo_222990-3" data-name="Grupo 222990" transform="translate(-3469.646 -7721.056)" clip-path="url(#clip-path-2)">
      <path id="Unión_8" data-name="Unión 8" d="M21.232,126.432,74.89,74.6v74.6C53.475,149.2,36.1,141.817,21.232,126.432ZM8.978,39.541,74.89,74.6l-53.7,51.79C-1.689,102.676-6.489,68.649,8.978,39.541ZM74.89,74.6,9.02,39.541A71.7,71.7,0,0,1,42.172,7.5l.015.032A73.072,73.072,0,0,1,74.89,0Z" transform="translate(0.746 0.784)" fill="#feca2e" stroke="rgba(0,0,0,0)" stroke-miterlimit="10" stroke-width="1"/>
      <path id="Trazado_230288-3" data-name="Trazado 230288" d="M50.683,75.136V.5a74.617,74.617,0,0,1,0,149.233Z" transform="translate(24.953 0.246)" fill="#4dd0e1"/>
      <path id="Trazado_230289-3" data-name="Trazado 230289" d="M50.683,75.136V.5a74.617,74.617,0,0,1,0,149.233Z" transform="translate(24.953 0.246)" fill="none" stroke="#fff" stroke-miterlimit="10" stroke-width="1"/>
    </g>
    <path id="Trazado_231325" data-name="Trazado 231325" d="M-20.091-8.041l.943-8.311h9.164v2.707h-6.5l-.4,3.515a5.146,5.146,0,0,1,2.459-.618A4.713,4.713,0,0,1-10.77-9.3,5.787,5.787,0,0,1-9.445-5.245a5.928,5.928,0,0,1-.668,2.836A4.716,4.716,0,0,1-12.028-.466,5.978,5.978,0,0,1-14.97.225a6.348,6.348,0,0,1-2.751-.6,4.88,4.88,0,0,1-2-1.69,4.606,4.606,0,0,1-.781-2.482h3.212a2.4,2.4,0,0,0,.713,1.589,2.261,2.261,0,0,0,1.6.567,2,2,0,0,0,1.7-.792,3.668,3.668,0,0,0,.6-2.24,3.033,3.033,0,0,0-.685-2.134A2.514,2.514,0,0,0-15.318-8.3a2.809,2.809,0,0,0-1.875.606l-.314.292ZM3.627-6.761a8.284,8.284,0,0,1-1.4,5.188,4.9,4.9,0,0,1-4.11,1.8A4.934,4.934,0,0,1-5.975-1.539,8.041,8.041,0,0,1-7.423-6.592V-9.6A8.175,8.175,0,0,1-6-14.8a4.937,4.937,0,0,1,4.094-1.774,4.941,4.941,0,0,1,4.088,1.758A8.016,8.016,0,0,1,3.627-9.771ZM.382-10.07a5.988,5.988,0,0,0-.556-2.962,1.879,1.879,0,0,0-1.735-.927,1.845,1.845,0,0,0-1.69.882,5.6,5.6,0,0,0-.578,2.76v3.979a6.285,6.285,0,0,0,.545,2.973,1.854,1.854,0,0,0,1.746.972A1.823,1.823,0,0,0-.168-3.325,6.135,6.135,0,0,0,.382-6.18Zm5.391-3.137A3.233,3.233,0,0,1,6.75-15.65a3.543,3.543,0,0,1,2.561-.938,3.6,3.6,0,0,1,2.583.927,3.294,3.294,0,0,1,.977,2.51v.809a3.192,3.192,0,0,1-.977,2.437,3.581,3.581,0,0,1-2.561.921,3.6,3.6,0,0,1-2.577-.927,3.27,3.27,0,0,1-.983-2.5Zm2.156.865a1.513,1.513,0,0,0,.387,1.084,1.334,1.334,0,0,0,1.016.41,1.272,1.272,0,0,0,1-.416,1.609,1.609,0,0,0,.371-1.112v-.831a1.575,1.575,0,0,0-.371-1.089,1.3,1.3,0,0,0-1.022-.416,1.3,1.3,0,0,0-1,.41,1.608,1.608,0,0,0-.382,1.14Zm5.66,8.333a3.192,3.192,0,0,1,.988-2.443,3.593,3.593,0,0,1,2.561-.927,3.63,3.63,0,0,1,2.577.915A3.277,3.277,0,0,1,20.7-3.942v.809A3.216,3.216,0,0,1,19.732-.7,3.559,3.559,0,0,1,17.16.225a3.6,3.6,0,0,1-2.594-.932,3.256,3.256,0,0,1-.977-2.471Zm2.156.876a1.5,1.5,0,0,0,.4,1.056,1.318,1.318,0,0,0,1.011.438q1.37,0,1.37-1.516v-.854a1.526,1.526,0,0,0-.382-1.084,1.316,1.316,0,0,0-1.011-.41,1.316,1.316,0,0,0-1.011.41,1.575,1.575,0,0,0-.382,1.117ZM9.973-1.224,8.389-2.078l7.985-12.78L17.958-14Z" transform="translate(-3359.023 -7634.936)" fill="#12263f"/>
    <path id="Trazado_231326" data-name="Trazado 231326" d="M-20.091-8.041l.943-8.311h9.164v2.707h-6.5l-.4,3.515a5.146,5.146,0,0,1,2.459-.618A4.713,4.713,0,0,1-10.77-9.3,5.787,5.787,0,0,1-9.445-5.245a5.928,5.928,0,0,1-.668,2.836A4.716,4.716,0,0,1-12.028-.466,5.978,5.978,0,0,1-14.97.225a6.348,6.348,0,0,1-2.751-.6,4.88,4.88,0,0,1-2-1.69,4.606,4.606,0,0,1-.781-2.482h3.212a2.4,2.4,0,0,0,.713,1.589,2.261,2.261,0,0,0,1.6.567,2,2,0,0,0,1.7-.792,3.668,3.668,0,0,0,.6-2.24,3.033,3.033,0,0,0-.685-2.134A2.514,2.514,0,0,0-15.318-8.3a2.809,2.809,0,0,0-1.875.606l-.314.292ZM3.627-6.761a8.284,8.284,0,0,1-1.4,5.188,4.9,4.9,0,0,1-4.11,1.8A4.934,4.934,0,0,1-5.975-1.539,8.041,8.041,0,0,1-7.423-6.592V-9.6A8.175,8.175,0,0,1-6-14.8a4.937,4.937,0,0,1,4.094-1.774,4.941,4.941,0,0,1,4.088,1.758A8.016,8.016,0,0,1,3.627-9.771ZM.382-10.07a5.988,5.988,0,0,0-.556-2.962,1.879,1.879,0,0,0-1.735-.927,1.845,1.845,0,0,0-1.69.882,5.6,5.6,0,0,0-.578,2.76v3.979a6.285,6.285,0,0,0,.545,2.973,1.854,1.854,0,0,0,1.746.972A1.823,1.823,0,0,0-.168-3.325,6.135,6.135,0,0,0,.382-6.18Zm5.391-3.137A3.233,3.233,0,0,1,6.75-15.65a3.543,3.543,0,0,1,2.561-.938,3.6,3.6,0,0,1,2.583.927,3.294,3.294,0,0,1,.977,2.51v.809a3.192,3.192,0,0,1-.977,2.437,3.581,3.581,0,0,1-2.561.921,3.6,3.6,0,0,1-2.577-.927,3.27,3.27,0,0,1-.983-2.5Zm2.156.865a1.513,1.513,0,0,0,.387,1.084,1.334,1.334,0,0,0,1.016.41,1.272,1.272,0,0,0,1-.416,1.609,1.609,0,0,0,.371-1.112v-.831a1.575,1.575,0,0,0-.371-1.089,1.3,1.3,0,0,0-1.022-.416,1.3,1.3,0,0,0-1,.41,1.608,1.608,0,0,0-.382,1.14Zm5.66,8.333a3.192,3.192,0,0,1,.988-2.443,3.593,3.593,0,0,1,2.561-.927,3.63,3.63,0,0,1,2.577.915A3.277,3.277,0,0,1,20.7-3.942v.809A3.216,3.216,0,0,1,19.732-.7,3.559,3.559,0,0,1,17.16.225a3.6,3.6,0,0,1-2.594-.932,3.256,3.256,0,0,1-.977-2.471Zm2.156.876a1.5,1.5,0,0,0,.4,1.056,1.318,1.318,0,0,0,1.011.438q1.37,0,1.37-1.516v-.854a1.526,1.526,0,0,0-.382-1.084,1.316,1.316,0,0,0-1.011-.41,1.316,1.316,0,0,0-1.011.41,1.575,1.575,0,0,0-.382,1.117ZM9.973-1.224,8.389-2.078l7.985-12.78L17.958-14Z" transform="translate(-3429.027 -7634.936)" fill="#12263f"/>
    <path id="Trazado_231327" data-name="Trazado 231327" d="M-20.091-8.041l.943-8.311h9.164v2.707h-6.5l-.4,3.515a5.146,5.146,0,0,1,2.459-.618A4.713,4.713,0,0,1-10.77-9.3,5.787,5.787,0,0,1-9.445-5.245a5.928,5.928,0,0,1-.668,2.836A4.716,4.716,0,0,1-12.028-.466,5.978,5.978,0,0,1-14.97.225a6.348,6.348,0,0,1-2.751-.6,4.88,4.88,0,0,1-2-1.69,4.606,4.606,0,0,1-.781-2.482h3.212a2.4,2.4,0,0,0,.713,1.589,2.261,2.261,0,0,0,1.6.567,2,2,0,0,0,1.7-.792,3.668,3.668,0,0,0,.6-2.24,3.033,3.033,0,0,0-.685-2.134A2.514,2.514,0,0,0-15.318-8.3a2.809,2.809,0,0,0-1.875.606l-.314.292ZM3.627-6.761a8.284,8.284,0,0,1-1.4,5.188,4.9,4.9,0,0,1-4.11,1.8A4.934,4.934,0,0,1-5.975-1.539,8.041,8.041,0,0,1-7.423-6.592V-9.6A8.175,8.175,0,0,1-6-14.8a4.937,4.937,0,0,1,4.094-1.774,4.941,4.941,0,0,1,4.088,1.758A8.016,8.016,0,0,1,3.627-9.771ZM.382-10.07a5.988,5.988,0,0,0-.556-2.962,1.879,1.879,0,0,0-1.735-.927,1.845,1.845,0,0,0-1.69.882,5.6,5.6,0,0,0-.578,2.76v3.979a6.285,6.285,0,0,0,.545,2.973,1.854,1.854,0,0,0,1.746.972A1.823,1.823,0,0,0-.168-3.325,6.135,6.135,0,0,0,.382-6.18Zm5.391-3.137A3.233,3.233,0,0,1,6.75-15.65a3.543,3.543,0,0,1,2.561-.938,3.6,3.6,0,0,1,2.583.927,3.294,3.294,0,0,1,.977,2.51v.809a3.192,3.192,0,0,1-.977,2.437,3.581,3.581,0,0,1-2.561.921,3.6,3.6,0,0,1-2.577-.927,3.27,3.27,0,0,1-.983-2.5Zm2.156.865a1.513,1.513,0,0,0,.387,1.084,1.334,1.334,0,0,0,1.016.41,1.272,1.272,0,0,0,1-.416,1.609,1.609,0,0,0,.371-1.112v-.831a1.575,1.575,0,0,0-.371-1.089,1.3,1.3,0,0,0-1.022-.416,1.3,1.3,0,0,0-1,.41,1.608,1.608,0,0,0-.382,1.14Zm5.66,8.333a3.192,3.192,0,0,1,.988-2.443,3.593,3.593,0,0,1,2.561-.927,3.63,3.63,0,0,1,2.577.915A3.277,3.277,0,0,1,20.7-3.942v.809A3.216,3.216,0,0,1,19.732-.7,3.559,3.559,0,0,1,17.16.225a3.6,3.6,0,0,1-2.594-.932,3.256,3.256,0,0,1-.977-2.471Zm2.156.876a1.5,1.5,0,0,0,.4,1.056,1.318,1.318,0,0,0,1.011.438q1.37,0,1.37-1.516v-.854a1.526,1.526,0,0,0-.382-1.084,1.316,1.316,0,0,0-1.011-.41,1.316,1.316,0,0,0-1.011.41,1.575,1.575,0,0,0-.382,1.117ZM9.973-1.224,8.389-2.078l7.985-12.78L17.958-14Z" transform="translate(-3359.023 -7797.877)" fill="#12263f"/>
    <path id="Trazado_231328" data-name="Trazado 231328" d="M-17.272-9.613h1.729a2.437,2.437,0,0,0,1.831-.618,2.263,2.263,0,0,0,.6-1.64,2,2,0,0,0-.59-1.539,2.285,2.285,0,0,0-1.623-.55,2.4,2.4,0,0,0-1.561.511,1.634,1.634,0,0,0-.629,1.331h-3.246a3.991,3.991,0,0,1,.691-2.3A4.6,4.6,0,0,1-18.143-16a6.447,6.447,0,0,1,2.735-.573,6.114,6.114,0,0,1,4.065,1.241,4.234,4.234,0,0,1,1.471,3.42,3.441,3.441,0,0,1-.685,2.066,4.451,4.451,0,0,1-1.8,1.449,4.063,4.063,0,0,1,2.061,1.482,4.021,4.021,0,0,1,.679,2.336A4.3,4.3,0,0,1-11.2-1.089,6.389,6.389,0,0,1-15.408.225a6.058,6.058,0,0,1-4-1.292,4.218,4.218,0,0,1-1.555-3.414h3.246a1.88,1.88,0,0,0,.691,1.5,2.545,2.545,0,0,0,1.7.584A2.557,2.557,0,0,0-13.516-3a2.113,2.113,0,0,0,.657-1.623q0-2.448-2.7-2.448h-1.718Zm20.9,2.853a8.284,8.284,0,0,1-1.4,5.188,4.9,4.9,0,0,1-4.11,1.8A4.934,4.934,0,0,1-5.975-1.539,8.041,8.041,0,0,1-7.423-6.592V-9.6A8.175,8.175,0,0,1-6-14.8a4.937,4.937,0,0,1,4.094-1.774,4.941,4.941,0,0,1,4.088,1.758A8.016,8.016,0,0,1,3.627-9.771ZM.382-10.07a5.988,5.988,0,0,0-.556-2.962,1.879,1.879,0,0,0-1.735-.927,1.845,1.845,0,0,0-1.69.882,5.6,5.6,0,0,0-.578,2.76v3.979a6.285,6.285,0,0,0,.545,2.973,1.854,1.854,0,0,0,1.746.972A1.823,1.823,0,0,0-.168-3.325,6.135,6.135,0,0,0,.382-6.18Zm5.391-3.137A3.233,3.233,0,0,1,6.75-15.65a3.543,3.543,0,0,1,2.561-.938,3.6,3.6,0,0,1,2.583.927,3.294,3.294,0,0,1,.977,2.51v.809a3.192,3.192,0,0,1-.977,2.437,3.581,3.581,0,0,1-2.561.921,3.6,3.6,0,0,1-2.577-.927,3.27,3.27,0,0,1-.983-2.5Zm2.156.865a1.513,1.513,0,0,0,.387,1.084,1.334,1.334,0,0,0,1.016.41,1.272,1.272,0,0,0,1-.416,1.609,1.609,0,0,0,.371-1.112v-.831a1.575,1.575,0,0,0-.371-1.089,1.3,1.3,0,0,0-1.022-.416,1.3,1.3,0,0,0-1,.41,1.608,1.608,0,0,0-.382,1.14Zm5.66,8.333a3.192,3.192,0,0,1,.988-2.443,3.593,3.593,0,0,1,2.561-.927,3.63,3.63,0,0,1,2.577.915A3.277,3.277,0,0,1,20.7-3.942v.809A3.216,3.216,0,0,1,19.732-.7,3.559,3.559,0,0,1,17.16.225a3.6,3.6,0,0,1-2.594-.932,3.256,3.256,0,0,1-.977-2.471Zm2.156.876a1.5,1.5,0,0,0,.4,1.056,1.318,1.318,0,0,0,1.011.438q1.37,0,1.37-1.516v-.854a1.526,1.526,0,0,0-.382-1.084,1.316,1.316,0,0,0-1.011-.41,1.316,1.316,0,0,0-1.011.41,1.575,1.575,0,0,0-.382,1.117ZM9.973-1.224,8.389-2.078l7.985-12.78L17.958-14Z" transform="translate(-3426.614 -7779.772)" fill="#12263f"/>
    <path id="Trazado_231329" data-name="Trazado 231329" d="M-4.966,0h-1.27V-4.9l-1.516.47V-5.458l2.65-.949h.136ZM1.419-2.646A3.241,3.241,0,0,1,.87-.615a1.917,1.917,0,0,1-1.608.7,1.931,1.931,0,0,1-1.6-.69A3.147,3.147,0,0,1-2.9-2.58V-3.757a3.2,3.2,0,0,1,.556-2.035,1.932,1.932,0,0,1,1.6-.694,1.934,1.934,0,0,1,1.6.688,3.137,3.137,0,0,1,.567,1.975ZM.149-3.94A2.343,2.343,0,0,0-.068-5.1a.735.735,0,0,0-.679-.363.722.722,0,0,0-.661.345,2.193,2.193,0,0,0-.226,1.08V-2.48a2.46,2.46,0,0,0,.213,1.163.725.725,0,0,0,.683.381A.713.713,0,0,0-.066-1.3,2.4,2.4,0,0,0,.149-2.418ZM2.259-5.168a1.265,1.265,0,0,1,.382-.956,1.387,1.387,0,0,1,1-.367,1.408,1.408,0,0,1,1.011.363,1.289,1.289,0,0,1,.382.982v.316a1.249,1.249,0,0,1-.382.954,1.4,1.4,0,0,1-1,.36,1.41,1.41,0,0,1-1.009-.363,1.28,1.28,0,0,1-.385-.978ZM3.1-4.83a.592.592,0,0,0,.152.424.522.522,0,0,0,.4.16.5.5,0,0,0,.391-.163.629.629,0,0,0,.145-.435v-.325a.616.616,0,0,0-.145-.426.508.508,0,0,0-.4-.163.51.51,0,0,0-.391.16A.629.629,0,0,0,3.1-5.15ZM5.317-1.569A1.249,1.249,0,0,1,5.7-2.525a1.406,1.406,0,0,1,1-.363,1.42,1.42,0,0,1,1.009.358,1.282,1.282,0,0,1,.385.987v.316a1.258,1.258,0,0,1-.378.951A1.393,1.393,0,0,1,6.715.088,1.409,1.409,0,0,1,5.7-.277a1.274,1.274,0,0,1-.382-.967Zm.844.343a.587.587,0,0,0,.158.413.516.516,0,0,0,.4.171q.536,0,.536-.593v-.334A.6.6,0,0,0,7.1-1.993a.515.515,0,0,0-.4-.16.515.515,0,0,0-.4.16.616.616,0,0,0-.149.437ZM3.9-.479l-.62-.334,3.125-5,.62.334Z" transform="translate(-3432.165 -7839.844)" fill="#fff"/>
    <path id="Trazado_231330" data-name="Trazado 231330" d="M-4.966,0h-1.27V-4.9l-1.516.47V-5.458l2.65-.949h.136ZM1.419-2.646A3.241,3.241,0,0,1,.87-.615a1.917,1.917,0,0,1-1.608.7,1.931,1.931,0,0,1-1.6-.69A3.147,3.147,0,0,1-2.9-2.58V-3.757a3.2,3.2,0,0,1,.556-2.035,1.932,1.932,0,0,1,1.6-.694,1.934,1.934,0,0,1,1.6.688,3.137,3.137,0,0,1,.567,1.975ZM.149-3.94A2.343,2.343,0,0,0-.068-5.1a.735.735,0,0,0-.679-.363.722.722,0,0,0-.661.345,2.193,2.193,0,0,0-.226,1.08V-2.48a2.46,2.46,0,0,0,.213,1.163.725.725,0,0,0,.683.381A.713.713,0,0,0-.066-1.3,2.4,2.4,0,0,0,.149-2.418ZM2.259-5.168a1.265,1.265,0,0,1,.382-.956,1.387,1.387,0,0,1,1-.367,1.408,1.408,0,0,1,1.011.363,1.289,1.289,0,0,1,.382.982v.316a1.249,1.249,0,0,1-.382.954,1.4,1.4,0,0,1-1,.36,1.41,1.41,0,0,1-1.009-.363,1.28,1.28,0,0,1-.385-.978ZM3.1-4.83a.592.592,0,0,0,.152.424.522.522,0,0,0,.4.16.5.5,0,0,0,.391-.163.629.629,0,0,0,.145-.435v-.325a.616.616,0,0,0-.145-.426.508.508,0,0,0-.4-.163.51.51,0,0,0-.391.16A.629.629,0,0,0,3.1-5.15ZM5.317-1.569A1.249,1.249,0,0,1,5.7-2.525a1.406,1.406,0,0,1,1-.363,1.42,1.42,0,0,1,1.009.358,1.282,1.282,0,0,1,.385.987v.316a1.258,1.258,0,0,1-.378.951A1.393,1.393,0,0,1,6.715.088,1.409,1.409,0,0,1,5.7-.277a1.274,1.274,0,0,1-.382-.967Zm.844.343a.587.587,0,0,0,.158.413.516.516,0,0,0,.4.171q.536,0,.536-.593v-.334A.6.6,0,0,0,7.1-1.993a.515.515,0,0,0-.4-.16.515.515,0,0,0-.4.16.616.616,0,0,0-.149.437ZM3.9-.479l-.62-.334,3.125-5,.62.334Z" transform="translate(-3406.818 -7859.156)" fill="#12263f"/>
    <path id="Trazado_231331" data-name="Trazado 231331" d="M-20.091-8.041l.943-8.311h9.164v2.707h-6.5l-.4,3.515a5.146,5.146,0,0,1,2.459-.618A4.713,4.713,0,0,1-10.77-9.3,5.787,5.787,0,0,1-9.445-5.245a5.928,5.928,0,0,1-.668,2.836A4.716,4.716,0,0,1-12.028-.466,5.978,5.978,0,0,1-14.97.225a6.348,6.348,0,0,1-2.751-.6,4.88,4.88,0,0,1-2-1.69,4.606,4.606,0,0,1-.781-2.482h3.212a2.4,2.4,0,0,0,.713,1.589,2.261,2.261,0,0,0,1.6.567,2,2,0,0,0,1.7-.792,3.668,3.668,0,0,0,.6-2.24,3.033,3.033,0,0,0-.685-2.134A2.514,2.514,0,0,0-15.318-8.3a2.809,2.809,0,0,0-1.875.606l-.314.292ZM3.627-6.761a8.284,8.284,0,0,1-1.4,5.188,4.9,4.9,0,0,1-4.11,1.8A4.934,4.934,0,0,1-5.975-1.539,8.041,8.041,0,0,1-7.423-6.592V-9.6A8.175,8.175,0,0,1-6-14.8a4.937,4.937,0,0,1,4.094-1.774,4.941,4.941,0,0,1,4.088,1.758A8.016,8.016,0,0,1,3.627-9.771ZM.382-10.07a5.988,5.988,0,0,0-.556-2.962,1.879,1.879,0,0,0-1.735-.927,1.845,1.845,0,0,0-1.69.882,5.6,5.6,0,0,0-.578,2.76v3.979a6.285,6.285,0,0,0,.545,2.973,1.854,1.854,0,0,0,1.746.972A1.823,1.823,0,0,0-.168-3.325,6.135,6.135,0,0,0,.382-6.18Zm5.391-3.137A3.233,3.233,0,0,1,6.75-15.65a3.543,3.543,0,0,1,2.561-.938,3.6,3.6,0,0,1,2.583.927,3.294,3.294,0,0,1,.977,2.51v.809a3.192,3.192,0,0,1-.977,2.437,3.581,3.581,0,0,1-2.561.921,3.6,3.6,0,0,1-2.577-.927,3.27,3.27,0,0,1-.983-2.5Zm2.156.865a1.513,1.513,0,0,0,.387,1.084,1.334,1.334,0,0,0,1.016.41,1.272,1.272,0,0,0,1-.416,1.609,1.609,0,0,0,.371-1.112v-.831a1.575,1.575,0,0,0-.371-1.089,1.3,1.3,0,0,0-1.022-.416,1.3,1.3,0,0,0-1,.41,1.608,1.608,0,0,0-.382,1.14Zm5.66,8.333a3.192,3.192,0,0,1,.988-2.443,3.593,3.593,0,0,1,2.561-.927,3.63,3.63,0,0,1,2.577.915A3.277,3.277,0,0,1,20.7-3.942v.809A3.216,3.216,0,0,1,19.732-.7,3.559,3.559,0,0,1,17.16.225a3.6,3.6,0,0,1-2.594-.932,3.256,3.256,0,0,1-.977-2.471Zm2.156.876a1.5,1.5,0,0,0,.4,1.056,1.318,1.318,0,0,0,1.011.438q1.37,0,1.37-1.516v-.854a1.526,1.526,0,0,0-.382-1.084,1.316,1.316,0,0,0-1.011-.41,1.316,1.316,0,0,0-1.011.41,1.575,1.575,0,0,0-.382,1.117ZM9.973-1.224,8.389-2.078l7.985-12.78L17.958-14Z" transform="translate(-3582.313 -7718.217)" fill="#12263f"/>
    <path id="Trazado_231332" data-name="Trazado 231332" d="M-20.091-8.041l.943-8.311h9.164v2.707h-6.5l-.4,3.515a5.146,5.146,0,0,1,2.459-.618A4.713,4.713,0,0,1-10.77-9.3,5.787,5.787,0,0,1-9.445-5.245a5.928,5.928,0,0,1-.668,2.836A4.716,4.716,0,0,1-12.028-.466,5.978,5.978,0,0,1-14.97.225a6.348,6.348,0,0,1-2.751-.6,4.88,4.88,0,0,1-2-1.69,4.606,4.606,0,0,1-.781-2.482h3.212a2.4,2.4,0,0,0,.713,1.589,2.261,2.261,0,0,0,1.6.567,2,2,0,0,0,1.7-.792,3.668,3.668,0,0,0,.6-2.24,3.033,3.033,0,0,0-.685-2.134A2.514,2.514,0,0,0-15.318-8.3a2.809,2.809,0,0,0-1.875.606l-.314.292ZM3.627-6.761a8.284,8.284,0,0,1-1.4,5.188,4.9,4.9,0,0,1-4.11,1.8A4.934,4.934,0,0,1-5.975-1.539,8.041,8.041,0,0,1-7.423-6.592V-9.6A8.175,8.175,0,0,1-6-14.8a4.937,4.937,0,0,1,4.094-1.774,4.941,4.941,0,0,1,4.088,1.758A8.016,8.016,0,0,1,3.627-9.771ZM.382-10.07a5.988,5.988,0,0,0-.556-2.962,1.879,1.879,0,0,0-1.735-.927,1.845,1.845,0,0,0-1.69.882,5.6,5.6,0,0,0-.578,2.76v3.979a6.285,6.285,0,0,0,.545,2.973,1.854,1.854,0,0,0,1.746.972A1.823,1.823,0,0,0-.168-3.325,6.135,6.135,0,0,0,.382-6.18Zm5.391-3.137A3.233,3.233,0,0,1,6.75-15.65a3.543,3.543,0,0,1,2.561-.938,3.6,3.6,0,0,1,2.583.927,3.294,3.294,0,0,1,.977,2.51v.809a3.192,3.192,0,0,1-.977,2.437,3.581,3.581,0,0,1-2.561.921,3.6,3.6,0,0,1-2.577-.927,3.27,3.27,0,0,1-.983-2.5Zm2.156.865a1.513,1.513,0,0,0,.387,1.084,1.334,1.334,0,0,0,1.016.41,1.272,1.272,0,0,0,1-.416,1.609,1.609,0,0,0,.371-1.112v-.831a1.575,1.575,0,0,0-.371-1.089,1.3,1.3,0,0,0-1.022-.416,1.3,1.3,0,0,0-1,.41,1.608,1.608,0,0,0-.382,1.14Zm5.66,8.333a3.192,3.192,0,0,1,.988-2.443,3.593,3.593,0,0,1,2.561-.927,3.63,3.63,0,0,1,2.577.915A3.277,3.277,0,0,1,20.7-3.942v.809A3.216,3.216,0,0,1,19.732-.7,3.559,3.559,0,0,1,17.16.225a3.6,3.6,0,0,1-2.594-.932,3.256,3.256,0,0,1-.977-2.471Zm2.156.876a1.5,1.5,0,0,0,.4,1.056,1.318,1.318,0,0,0,1.011.438q1.37,0,1.37-1.516v-.854a1.526,1.526,0,0,0-.382-1.084,1.316,1.316,0,0,0-1.011-.41,1.316,1.316,0,0,0-1.011.41,1.575,1.575,0,0,0-.382,1.117ZM9.973-1.224,8.389-2.078l7.985-12.78L17.958-14Z" transform="translate(-3582.313 -7718.217)" fill="#12263f"/>
    <path id="Trazado_231333" data-name="Trazado 231333" d="M-12.69,0h-3.246V-12.511l-3.875,1.2v-2.639l6.772-2.426h.348ZM3.627-6.761a8.284,8.284,0,0,1-1.4,5.188,4.9,4.9,0,0,1-4.11,1.8A4.934,4.934,0,0,1-5.975-1.539,8.041,8.041,0,0,1-7.423-6.592V-9.6A8.175,8.175,0,0,1-6-14.8a4.937,4.937,0,0,1,4.094-1.774,4.941,4.941,0,0,1,4.088,1.758A8.016,8.016,0,0,1,3.627-9.771ZM.382-10.07a5.988,5.988,0,0,0-.556-2.962,1.879,1.879,0,0,0-1.735-.927,1.845,1.845,0,0,0-1.69.882,5.6,5.6,0,0,0-.578,2.76v3.979a6.285,6.285,0,0,0,.545,2.973,1.854,1.854,0,0,0,1.746.972A1.823,1.823,0,0,0-.168-3.325,6.135,6.135,0,0,0,.382-6.18Zm5.391-3.137A3.233,3.233,0,0,1,6.75-15.65a3.543,3.543,0,0,1,2.561-.938,3.6,3.6,0,0,1,2.583.927,3.294,3.294,0,0,1,.977,2.51v.809a3.192,3.192,0,0,1-.977,2.437,3.581,3.581,0,0,1-2.561.921,3.6,3.6,0,0,1-2.577-.927,3.27,3.27,0,0,1-.983-2.5Zm2.156.865a1.513,1.513,0,0,0,.387,1.084,1.334,1.334,0,0,0,1.016.41,1.272,1.272,0,0,0,1-.416,1.609,1.609,0,0,0,.371-1.112v-.831a1.575,1.575,0,0,0-.371-1.089,1.3,1.3,0,0,0-1.022-.416,1.3,1.3,0,0,0-1,.41,1.608,1.608,0,0,0-.382,1.14Zm5.66,8.333a3.192,3.192,0,0,1,.988-2.443,3.593,3.593,0,0,1,2.561-.927,3.63,3.63,0,0,1,2.577.915A3.277,3.277,0,0,1,20.7-3.942v.809A3.216,3.216,0,0,1,19.732-.7,3.559,3.559,0,0,1,17.16.225a3.6,3.6,0,0,1-2.594-.932,3.256,3.256,0,0,1-.977-2.471Zm2.156.876a1.5,1.5,0,0,0,.4,1.056,1.318,1.318,0,0,0,1.011.438q1.37,0,1.37-1.516v-.854a1.526,1.526,0,0,0-.382-1.084,1.316,1.316,0,0,0-1.011-.41,1.316,1.316,0,0,0-1.011.41,1.575,1.575,0,0,0-.382,1.117ZM9.973-1.224,8.389-2.078l7.985-12.78L17.958-14Z" transform="translate(-3728.356 -7799.084)" fill="#12263f"/>
    <path id="Trazado_231334" data-name="Trazado 231334" d="M-9.366,0H-20.574V-2.224l5.29-5.638a13.049,13.049,0,0,0,1.612-2.078,3.338,3.338,0,0,0,.522-1.685,2.5,2.5,0,0,0-.55-1.713,1.986,1.986,0,0,0-1.572-.623,2.142,2.142,0,0,0-1.735.758,3,3,0,0,0-.635,1.993H-20.9a5.361,5.361,0,0,1,.713-2.729,5.026,5.026,0,0,1,2.016-1.937,6.127,6.127,0,0,1,2.954-.7,5.8,5.8,0,0,1,3.925,1.213,4.291,4.291,0,0,1,1.4,3.425,5.5,5.5,0,0,1-.629,2.471,13.73,13.73,0,0,1-2.156,2.931L-16.4-2.617h7.03ZM3.627-6.761a8.284,8.284,0,0,1-1.4,5.188,4.9,4.9,0,0,1-4.11,1.8A4.934,4.934,0,0,1-5.975-1.539,8.041,8.041,0,0,1-7.423-6.592V-9.6A8.175,8.175,0,0,1-6-14.8a4.937,4.937,0,0,1,4.094-1.774,4.941,4.941,0,0,1,4.088,1.758A8.016,8.016,0,0,1,3.627-9.771ZM.382-10.07a5.988,5.988,0,0,0-.556-2.962,1.879,1.879,0,0,0-1.735-.927,1.845,1.845,0,0,0-1.69.882,5.6,5.6,0,0,0-.578,2.76v3.979a6.285,6.285,0,0,0,.545,2.973,1.854,1.854,0,0,0,1.746.972A1.823,1.823,0,0,0-.168-3.325,6.135,6.135,0,0,0,.382-6.18Zm5.391-3.137A3.233,3.233,0,0,1,6.75-15.65a3.543,3.543,0,0,1,2.561-.938,3.6,3.6,0,0,1,2.583.927,3.294,3.294,0,0,1,.977,2.51v.809a3.192,3.192,0,0,1-.977,2.437,3.581,3.581,0,0,1-2.561.921,3.6,3.6,0,0,1-2.577-.927,3.27,3.27,0,0,1-.983-2.5Zm2.156.865a1.513,1.513,0,0,0,.387,1.084,1.334,1.334,0,0,0,1.016.41,1.272,1.272,0,0,0,1-.416,1.609,1.609,0,0,0,.371-1.112v-.831a1.575,1.575,0,0,0-.371-1.089,1.3,1.3,0,0,0-1.022-.416,1.3,1.3,0,0,0-1,.41,1.608,1.608,0,0,0-.382,1.14Zm5.66,8.333a3.192,3.192,0,0,1,.988-2.443,3.593,3.593,0,0,1,2.561-.927,3.63,3.63,0,0,1,2.577.915A3.277,3.277,0,0,1,20.7-3.942v.809A3.216,3.216,0,0,1,19.732-.7,3.559,3.559,0,0,1,17.16.225a3.6,3.6,0,0,1-2.594-.932,3.256,3.256,0,0,1-.977-2.471Zm2.156.876a1.5,1.5,0,0,0,.4,1.056,1.318,1.318,0,0,0,1.011.438q1.37,0,1.37-1.516v-.854a1.526,1.526,0,0,0-.382-1.084,1.316,1.316,0,0,0-1.011-.41,1.316,1.316,0,0,0-1.011.41,1.575,1.575,0,0,0-.382,1.117ZM9.973-1.224,8.389-2.078l7.985-12.78L17.958-14Z" transform="translate(-3740.426 -7707.354)" fill="#fff"/>
    <path id="Trazado_231335" data-name="Trazado 231335" d="M-12.69,0h-3.246V-12.511l-3.875,1.2v-2.639l6.772-2.426h.348ZM-6.9-8.041l.943-8.311H3.212v2.707h-6.5l-.4,3.515a5.146,5.146,0,0,1,2.459-.618A4.713,4.713,0,0,1,2.426-9.3,5.787,5.787,0,0,1,3.751-5.245a5.928,5.928,0,0,1-.668,2.836A4.716,4.716,0,0,1,1.168-.466,5.978,5.978,0,0,1-1.774.225a6.348,6.348,0,0,1-2.751-.6,4.88,4.88,0,0,1-2-1.69,4.606,4.606,0,0,1-.781-2.482H-4.1a2.4,2.4,0,0,0,.713,1.589,2.261,2.261,0,0,0,1.6.567,2,2,0,0,0,1.7-.792,3.668,3.668,0,0,0,.6-2.24A3.033,3.033,0,0,0-.18-7.558,2.514,2.514,0,0,0-2.123-8.3,2.809,2.809,0,0,0-4-7.693l-.314.292ZM5.772-13.207A3.233,3.233,0,0,1,6.75-15.65a3.543,3.543,0,0,1,2.561-.938,3.6,3.6,0,0,1,2.583.927,3.294,3.294,0,0,1,.977,2.51v.809a3.192,3.192,0,0,1-.977,2.437,3.581,3.581,0,0,1-2.561.921,3.6,3.6,0,0,1-2.577-.927,3.27,3.27,0,0,1-.983-2.5Zm2.156.865a1.513,1.513,0,0,0,.387,1.084,1.334,1.334,0,0,0,1.016.41,1.272,1.272,0,0,0,1-.416,1.609,1.609,0,0,0,.371-1.112v-.831a1.575,1.575,0,0,0-.371-1.089,1.3,1.3,0,0,0-1.022-.416,1.3,1.3,0,0,0-1,.41,1.608,1.608,0,0,0-.382,1.14Zm5.66,8.333a3.192,3.192,0,0,1,.988-2.443,3.593,3.593,0,0,1,2.561-.927,3.63,3.63,0,0,1,2.577.915A3.277,3.277,0,0,1,20.7-3.942v.809A3.216,3.216,0,0,1,19.732-.7,3.559,3.559,0,0,1,17.16.225a3.6,3.6,0,0,1-2.594-.932,3.256,3.256,0,0,1-.977-2.471Zm2.156.876a1.5,1.5,0,0,0,.4,1.056,1.318,1.318,0,0,0,1.011.438q1.37,0,1.37-1.516v-.854a1.526,1.526,0,0,0-.382-1.084,1.316,1.316,0,0,0-1.011-.41,1.316,1.316,0,0,0-1.011.41,1.575,1.575,0,0,0-.382,1.117ZM9.973-1.224,8.389-2.078l7.985-12.78L17.958-14Z" transform="translate(-3687.319 -7620.452)" fill="#12263f"/>
    <path id="Trazado_231336" data-name="Trazado 231336" d="M-13.493-8.041l.943-8.311h9.164v2.707h-6.5l-.4,3.515a5.146,5.146,0,0,1,2.459-.618A4.713,4.713,0,0,1-4.172-9.3,5.787,5.787,0,0,1-2.847-5.245a5.928,5.928,0,0,1-.668,2.836A4.716,4.716,0,0,1-5.43-.466,5.978,5.978,0,0,1-8.372.225a6.348,6.348,0,0,1-2.751-.6,4.88,4.88,0,0,1-2-1.69,4.606,4.606,0,0,1-.781-2.482H-10.7a2.4,2.4,0,0,0,.713,1.589,2.261,2.261,0,0,0,1.6.567,2,2,0,0,0,1.7-.792,3.668,3.668,0,0,0,.6-2.24,3.033,3.033,0,0,0-.685-2.134A2.514,2.514,0,0,0-8.72-8.3a2.809,2.809,0,0,0-1.875.606l-.314.292ZM-.825-13.207A3.233,3.233,0,0,1,.152-15.65a3.543,3.543,0,0,1,2.561-.938,3.6,3.6,0,0,1,2.583.927,3.294,3.294,0,0,1,.977,2.51v.809A3.192,3.192,0,0,1,5.3-9.905a3.581,3.581,0,0,1-2.561.921A3.6,3.6,0,0,1,.157-9.911a3.27,3.27,0,0,1-.983-2.5Zm2.156.865a1.513,1.513,0,0,0,.387,1.084,1.334,1.334,0,0,0,1.016.41,1.272,1.272,0,0,0,1-.416A1.609,1.609,0,0,0,4.1-12.376v-.831A1.575,1.575,0,0,0,3.734-14.3a1.3,1.3,0,0,0-1.022-.416,1.3,1.3,0,0,0-1,.41,1.608,1.608,0,0,0-.382,1.14Zm5.66,8.333a3.192,3.192,0,0,1,.988-2.443,3.593,3.593,0,0,1,2.561-.927,3.63,3.63,0,0,1,2.577.915A3.277,3.277,0,0,1,14.1-3.942v.809A3.216,3.216,0,0,1,13.134-.7a3.559,3.559,0,0,1-2.572.927A3.6,3.6,0,0,1,7.968-.708a3.256,3.256,0,0,1-.977-2.471Zm2.156.876a1.5,1.5,0,0,0,.4,1.056,1.318,1.318,0,0,0,1.011.438q1.37,0,1.37-1.516v-.854a1.526,1.526,0,0,0-.382-1.084A1.316,1.316,0,0,0,10.54-5.5a1.316,1.316,0,0,0-1.011.41,1.575,1.575,0,0,0-.382,1.117ZM3.375-1.224,1.791-2.078l7.985-12.78L11.36-14Z" transform="translate(-3676.215 -7834.086)" fill="#12263f"/>
  </g>
</svg>
