<svg xmlns="http://www.w3.org/2000/svg" width="555" height="402" viewBox="0 0 555 402">
  <g id="Grupo_225039" data-name="Grupo 225039" transform="translate(3839 9834)">
    <path id="Trazado_231343" data-name="Trazado 231343" d="M0,0H510V2H0Z" transform="translate(-3794 -9834)" fill="#4dd0e1" opacity="0.2"/>
    <path id="Trazado_231344" data-name="Trazado 231344" d="M0,0H510V2H0Z" transform="translate(-3794 -9434)" fill="#4dd0e1" opacity="0.2"/>
    <path id="Trazado_231345" data-name="Trazado 231345" d="M0,0H190V402H0Z" transform="translate(-3474 -9834)" fill="#4dd0e1"/>
    <path id="metaverso-nft-ob-01-1" d="M15,0H529a15,15,0,0,1,15,15V369a15,15,0,0,1-15,15H15A15,15,0,0,1,0,369V15A15,15,0,0,1,15,0Z" transform="translate(-3839 -9825)" fill="#fff"/>
    <path id="Trazado_231346" data-name="Trazado 231346" d="M0,0H119V141H0Z" transform="translate(-3769 -9754)" fill="#0f2771"/>
    <path id="Trazado_231347" data-name="Trazado 231347" d="M0,0H101V141H0Z" transform="translate(-3646 -9754)" fill="#0f2771"/>
    <path id="Trazado_231348" data-name="Trazado 231348" d="M0,0H26V84H0Z" transform="translate(-3571 -9609)" fill="#0f2771"/>
    <path id="Trazado_231349" data-name="Trazado 231349" d="M0,0H80V84H0Z" transform="translate(-3655 -9609)" fill="#0f2771"/>
    <path id="Trazado_231350" data-name="Trazado 231350" d="M0,0H109V84H0Z" transform="translate(-3769 -9609)" fill="#0f2771"/>
    <path id="Trazado_231351" data-name="Trazado 231351" d="M0,0H132V53H0Z" transform="translate(-3769 -9521)" fill="#0f2771"/>
    <path id="Trazado_231352" data-name="Trazado 231352" d="M0,0H88V53H0Z" transform="translate(-3633 -9521)" fill="#0f2771"/>
    <path id="Trazado_231353" data-name="Trazado 231353" d="M0,0H12V12H0Z" transform="translate(-3678 -9775)" fill="#0f2771"/>
    <path id="Trazado_231354" data-name="Trazado 231354" d="M0,0H93V155H0Z" transform="translate(-3542 -9754)" fill="#4dd0e1"/>
    <path id="Trazado_231355" data-name="Trazado 231355" d="M0,0H93V155H0Z" transform="translate(-3446 -9754)" fill="#4dd0e1"/>
    <path id="Trazado_231356" data-name="Trazado 231356" d="M0,0H189V61H0Z" transform="translate(-3542 -9596)" fill="#4dd0e1"/>
    <path id="Trazado_231357" data-name="Trazado 231357" d="M0,0H112V63H0Z" transform="translate(-3542 -9531)" fill="#4dd0e1"/>
    <path id="Trazado_231358" data-name="Trazado 231358" d="M0,0H73V63H0Z" transform="translate(-3426 -9531)" fill="#4dd0e1"/>
    <path id="Trazado_231359" data-name="Trazado 231359" d="M0,0H12V12H0Z" transform="translate(-3538 -9775)" fill="#4dd0e1"/>
    <path id="Trazado_230658" data-name="Trazado 230658" d="M156.857,13l1.723-9.953,2.926.007a3.812,3.812,0,0,1,2.256.68,3.657,3.657,0,0,1,1.367,1.856,5.083,5.083,0,0,1,.212,2.229l-.048.417a5.881,5.881,0,0,1-.889,2.427,5.09,5.09,0,0,1-1.812,1.706A4.937,4.937,0,0,1,160.2,13ZM160.6,4.893l-1.087,6.255.684.007a2.331,2.331,0,0,0,1.931-.93A5.207,5.207,0,0,0,163,7.381l.014-.226a2.716,2.716,0,0,0-.342-1.661A1.388,1.388,0,0,0,161.5,4.9ZM169.77,13a2.006,2.006,0,0,1-.1-.67,2.282,2.282,0,0,1-1.812.807,2.229,2.229,0,0,1-1.6-.643,1.931,1.931,0,0,1-.595-1.524,2.17,2.17,0,0,1,1-1.849,4.738,4.738,0,0,1,2.652-.646l.752.014.082-.417.027-.362a.587.587,0,0,0-.622-.643.864.864,0,0,0-.909.813l-2.256.007a2.142,2.142,0,0,1,.485-1.3,2.877,2.877,0,0,1,1.227-.848,4.287,4.287,0,0,1,1.651-.277,3.306,3.306,0,0,1,1.473.352,2.193,2.193,0,0,1,.947.923,2.358,2.358,0,0,1,.239,1.364l-.554,3.479-.034.424a1.868,1.868,0,0,0,.13.861l-.007.13Zm-1.285-1.49a1.451,1.451,0,0,0,1.21-.608l.226-1.189-.581-.007a1.531,1.531,0,0,0-.93.318,1.206,1.206,0,0,0-.458.831.605.605,0,0,0,.106.461A.541.541,0,0,0,168.485,11.51ZM175.246,13H172.99l1.285-7.4h2.256Zm-.772-9.263a1.043,1.043,0,0,1,.352-.834,1.264,1.264,0,0,1,.885-.335,1.305,1.305,0,0,1,.878.3,1.025,1.025,0,0,1,.366.786,1.045,1.045,0,0,1-.349.837,1.268,1.268,0,0,1-.889.332,1.321,1.321,0,0,1-.872-.3A1.013,1.013,0,0,1,174.473,3.737ZM179.046,13h-2.256l1.818-10.5h2.256Zm4.826-3.254L185.787,5.6h2.481l-4.334,8.5a3.706,3.706,0,0,1-1.118,1.453,2.541,2.541,0,0,1-1.507.448,4.256,4.256,0,0,1-.991-.15l.171-1.647h.26a1.862,1.862,0,0,0,.731-.133,1.113,1.113,0,0,0,.526-.516l.321-.615L181.145,5.6h2.324Zm14.041-.711h-3.753L193.47,13h-2.338l1.723-9.953h6.474L199.007,4.9h-4.129l-.4,2.29h3.753Zm4.778-3.568a3.106,3.106,0,0,1,1.716.5,2.792,2.792,0,0,1,1.063,1.343,4.145,4.145,0,0,1,.243,1.914l-.014.15a4.383,4.383,0,0,1-1.265,2.748,3.558,3.558,0,0,1-2.652,1.019,3.093,3.093,0,0,1-1.7-.489,2.81,2.81,0,0,1-1.063-1.33,4.028,4.028,0,0,1-.25-1.9,4.56,4.56,0,0,1,1.248-2.9A3.536,3.536,0,0,1,202.692,5.467Zm-1.675,3.954-.021.4q-.1,1.522.93,1.549,1.326.041,1.538-2.15l.027-.621a1.676,1.676,0,0,0-.229-.979.834.834,0,0,0-.714-.379,1.176,1.176,0,0,0-1.022.508A3.327,3.327,0,0,0,201.017,9.421Zm9.372-3.954a3.106,3.106,0,0,1,1.716.5,2.792,2.792,0,0,1,1.063,1.343,4.145,4.145,0,0,1,.243,1.914l-.014.15a4.383,4.383,0,0,1-1.265,2.748,3.558,3.558,0,0,1-2.652,1.019,3.093,3.093,0,0,1-1.7-.489,2.81,2.81,0,0,1-1.063-1.33,4.028,4.028,0,0,1-.25-1.9,4.56,4.56,0,0,1,1.248-2.9A3.536,3.536,0,0,1,210.389,5.467Zm-1.675,3.954-.021.4q-.1,1.522.93,1.549,1.326.041,1.538-2.15l.027-.621a1.676,1.676,0,0,0-.229-.979.834.834,0,0,0-.714-.379,1.176,1.176,0,0,0-1.022.508A3.327,3.327,0,0,0,208.714,9.421Zm5.428-.133a5.38,5.38,0,0,1,1.066-2.8,2.643,2.643,0,0,1,2.229-1.019A2.016,2.016,0,0,1,219,6.26l.718-3.76h2.256L220.158,13h-2l.1-.8a2.308,2.308,0,0,1-1.839.943,2.037,2.037,0,0,1-1.671-.79,3.482,3.482,0,0,1-.646-2.082,6.4,6.4,0,0,1,.027-.841Zm2.242.157a5.368,5.368,0,0,0-.048.766q0,1.135.766,1.155a1.434,1.434,0,0,0,1.183-.636l.506-2.837a.911.911,0,0,0-.9-.649,1.15,1.15,0,0,0-1.015.543A3.505,3.505,0,0,0,216.384,9.445Zm14.116.861q.15-.772-.834-1.2l-1.121-.465q-2.358-1.06-2.242-2.885a2.547,2.547,0,0,1,.574-1.487,3.411,3.411,0,0,1,1.456-1.015,5.358,5.358,0,0,1,2.03-.349,3.453,3.453,0,0,1,2.375.861,2.862,2.862,0,0,1,.885,2.235H231.3a1.393,1.393,0,0,0-.243-.919,1.051,1.051,0,0,0-.865-.359A1.812,1.812,0,0,0,229.154,5a1.109,1.109,0,0,0-.533.772q-.13.684,1.015,1.121a11.163,11.163,0,0,1,1.665.752,2.749,2.749,0,0,1,1.531,2.639,2.7,2.7,0,0,1-.554,1.511,3.2,3.2,0,0,1-1.384,1,5.115,5.115,0,0,1-1.986.342,4.794,4.794,0,0,1-1.5-.253,3.294,3.294,0,0,1-1.183-.7,3.029,3.029,0,0,1-.957-2.427l2.345.007a1.605,1.605,0,0,0,.294,1.159,1.412,1.412,0,0,0,1.128.393,1.693,1.693,0,0,0,.981-.27A1.121,1.121,0,0,0,230.5,10.307ZM237.671,13a2.006,2.006,0,0,1-.1-.67,2.282,2.282,0,0,1-1.812.807,2.229,2.229,0,0,1-1.6-.643,1.931,1.931,0,0,1-.595-1.524,2.17,2.17,0,0,1,1-1.849,4.738,4.738,0,0,1,2.652-.646l.752.014.082-.417.027-.362a.587.587,0,0,0-.622-.643.864.864,0,0,0-.909.813l-2.256.007a2.142,2.142,0,0,1,.485-1.3,2.877,2.877,0,0,1,1.227-.848,4.287,4.287,0,0,1,1.651-.277,3.306,3.306,0,0,1,1.473.352,2.193,2.193,0,0,1,.947.923,2.358,2.358,0,0,1,.239,1.364l-.554,3.479-.034.424a1.868,1.868,0,0,0,.13.861l-.007.13Zm-1.285-1.49a1.451,1.451,0,0,0,1.21-.608l.226-1.189-.581-.007a1.531,1.531,0,0,0-.93.318,1.206,1.206,0,0,0-.458.831.605.605,0,0,0,.106.461A.541.541,0,0,0,236.386,11.51ZM243.147,13h-2.256l1.818-10.5h2.256Zm5.106.137a3.438,3.438,0,0,1-1.767-.468,2.95,2.95,0,0,1-1.172-1.285A3.453,3.453,0,0,1,245,9.568l.021-.191a4.534,4.534,0,0,1,1.268-2.888,3.508,3.508,0,0,1,2.656-1.022,2.86,2.86,0,0,1,1.627.483,2.7,2.7,0,0,1,.991,1.294,3.963,3.963,0,0,1,.205,1.852l-.13.938h-4.4a1.442,1.442,0,0,0,.328.943,1.205,1.205,0,0,0,.916.383,2.328,2.328,0,0,0,1.757-.752l.943,1.248a2.783,2.783,0,0,1-1.166.931,4.093,4.093,0,0,1-1.637.351Zm.547-5.893a1.157,1.157,0,0,0-.831.3,2.511,2.511,0,0,0-.612,1.047h2.249l.041-.2a1.5,1.5,0,0,0,.014-.449A.791.791,0,0,0,248.8,7.244Zm7.41,3.637q.089-.451-.7-.677l-.485-.123a3.738,3.738,0,0,1-1.743-.882,1.745,1.745,0,0,1-.52-1.347,2.145,2.145,0,0,1,.947-1.733,3.6,3.6,0,0,1,2.225-.653,3.338,3.338,0,0,1,2.116.663,2.163,2.163,0,0,1,.824,1.75l-2.242-.007Q256.662,7,255.862,7a1.1,1.1,0,0,0-.636.2.783.783,0,0,0-.349.537q-.116.554.978.759a5.681,5.681,0,0,1,1.47.523,2.194,2.194,0,0,1,.793.735,1.828,1.828,0,0,1,.253,1.053,1.977,1.977,0,0,1-.437,1.2,2.833,2.833,0,0,1-1.207.841,4.322,4.322,0,0,1-1.712.294,3.476,3.476,0,0,1-1.487-.335,2.651,2.651,0,0,1-1.073-.892,2.317,2.317,0,0,1-.4-1.3l2.092.014a.864.864,0,0,0,.984.971,1.292,1.292,0,0,0,.711-.188A.813.813,0,0,0,256.21,10.881Z" transform="translate(-3769 -9803)" fill="#12263f"/>
    <path id="Trazado_230660" data-name="Trazado 230660" d="M11.38,10l1.235-7.109,2.085,0a2.37,2.37,0,0,1,1.631.488A1.563,1.563,0,0,1,16.8,4.746a1.848,1.848,0,0,1-1.284,1.538,1.323,1.323,0,0,1,.715.635,1.774,1.774,0,0,1,.193.991,2.074,2.074,0,0,1-.771,1.526A2.785,2.785,0,0,1,13.851,10Zm1.494-3.325L12.43,9.229l1.45,0a1.737,1.737,0,0,0,1.113-.356,1.386,1.386,0,0,0,.522-.96,1.138,1.138,0,0,0-.2-.9,1.091,1.091,0,0,0-.845-.341Zm.132-.752,1.323,0a1.7,1.7,0,0,0,1.047-.318,1.247,1.247,0,0,0,.5-.876.894.894,0,0,0-.2-.783,1.3,1.3,0,0,0-.881-.289l-1.4,0Zm7.612-.4L20.2,5.479a1.512,1.512,0,0,0-1.338.767L18.216,10h-.884l.918-5.283.854,0-.132.615A1.58,1.58,0,0,1,20.3,4.609a1.621,1.621,0,0,1,.42.073ZM22.854,10.1a1.9,1.9,0,0,1-1.543-.728,2.5,2.5,0,0,1-.469-1.812l.024-.21a3.515,3.515,0,0,1,.466-1.436,2.712,2.712,0,0,1,.935-.979,2.182,2.182,0,0,1,1.191-.315,1.68,1.68,0,0,1,1.279.542,2.229,2.229,0,0,1,.508,1.416,4.138,4.138,0,0,1-.02.635l-.054.405H21.722a1.785,1.785,0,0,0,.237,1.221,1.122,1.122,0,0,0,.969.522,1.88,1.88,0,0,0,1.445-.7l.508.43a2.324,2.324,0,0,1-.857.75A2.429,2.429,0,0,1,22.854,10.1Zm.562-4.741a1.291,1.291,0,0,0-.955.371,2.638,2.638,0,0,0-.647,1.147l2.568,0L24.4,6.8a1.445,1.445,0,0,0-.2-1.023A.93.93,0,0,0,23.416,5.356ZM28.987,10a1.183,1.183,0,0,1-.034-.278l.015-.278a2.166,2.166,0,0,1-1.543.654,1.579,1.579,0,0,1-1.135-.442,1.337,1.337,0,0,1-.4-1.082,1.626,1.626,0,0,1,.735-1.311,3.128,3.128,0,0,1,1.8-.471l.923,0,.059-.42a.965.965,0,0,0-.183-.75.884.884,0,0,0-.7-.286,1.363,1.363,0,0,0-.8.222.946.946,0,0,0-.427.613l-.889,0a1.416,1.416,0,0,1,.361-.823,2.1,2.1,0,0,1,.815-.557,2.634,2.634,0,0,1,1.03-.188,1.752,1.752,0,0,1,1.284.5,1.552,1.552,0,0,1,.386,1.277l-.43,2.617-.024.376a1.843,1.843,0,0,0,.059.532l-.01.083ZM27.6,9.316a1.541,1.541,0,0,0,.8-.2,2.034,2.034,0,0,0,.652-.588l.19-1.089-.669,0A2.534,2.534,0,0,0,27.3,7.7a.971.971,0,0,0-.5.747.756.756,0,0,0,.173.618A.826.826,0,0,0,27.6,9.316Zm5.376-1.753-.693.62L31.971,10h-.884l1.3-7.5h.884l-.781,4.482.542-.547L34.91,4.717h1.147L33.631,6.968,35.3,10h-.967ZM36.478,10l.8-4.585h-.815l.122-.7H37.4l.088-.625A2.074,2.074,0,0,1,38.1,2.847a1.829,1.829,0,0,1,1.309-.459,3.053,3.053,0,0,1,.63.084l-.107.742a2.9,2.9,0,0,0-.474-.059,1.009,1.009,0,0,0-.745.285,1.3,1.3,0,0,0-.354.757l-.078.521h1.094l-.122.7H38.157L37.361,10ZM42.7,10a1.184,1.184,0,0,1-.034-.278l.015-.278a2.166,2.166,0,0,1-1.543.654A1.579,1.579,0,0,1,40,9.656a1.337,1.337,0,0,1-.4-1.082,1.626,1.626,0,0,1,.735-1.311,3.128,3.128,0,0,1,1.8-.471l.923,0,.059-.42a.965.965,0,0,0-.183-.75.884.884,0,0,0-.7-.286,1.363,1.363,0,0,0-.8.222.946.946,0,0,0-.427.613l-.889,0a1.416,1.416,0,0,1,.361-.823A2.1,2.1,0,0,1,41.3,4.8a2.634,2.634,0,0,1,1.03-.188,1.752,1.752,0,0,1,1.284.5A1.552,1.552,0,0,1,44,6.392l-.43,2.617-.024.376a1.843,1.843,0,0,0,.059.532L43.6,10Zm-1.387-.684a1.541,1.541,0,0,0,.8-.2,2.034,2.034,0,0,0,.652-.588l.19-1.089-.669,0a2.534,2.534,0,0,0-1.279.264.971.971,0,0,0-.5.747.756.756,0,0,0,.173.618A.826.826,0,0,0,41.312,9.316Zm6.753-.747q.073-.547-.6-.771l-.918-.269q-1.162-.4-1.123-1.328a1.463,1.463,0,0,1,.637-1.145,2.269,2.269,0,0,1,1.418-.437,1.892,1.892,0,0,1,1.3.466,1.477,1.477,0,0,1,.481,1.189l-.879,0a.824.824,0,0,0-.249-.645.985.985,0,0,0-.688-.259,1.287,1.287,0,0,0-.791.225.822.822,0,0,0-.356.576q-.063.459.562.669l.444.122a2.861,2.861,0,0,1,1.289.61,1.166,1.166,0,0,1,.352.933,1.481,1.481,0,0,1-.322.859,1.843,1.843,0,0,1-.781.559,2.613,2.613,0,0,1-1.04.178,2.061,2.061,0,0,1-1.387-.491,1.517,1.517,0,0,1-.527-1.238l.884,0a.937.937,0,0,0,.283.713,1.082,1.082,0,0,0,.776.269,1.523,1.523,0,0,0,.835-.2A.78.78,0,0,0,48.064,8.569Zm4.111-5.132-.225,1.279h.962l-.122.7h-.957L51.282,8.7a1.146,1.146,0,0,0,0,.234.372.372,0,0,0,.415.381,2.531,2.531,0,0,0,.43-.049L52.054,10a2.4,2.4,0,0,1-.645.088.923.923,0,0,1-.791-.388,1.5,1.5,0,0,1-.205-1.018l.537-3.271h-.933l.122-.7h.933L51.3,3.438Z" transform="translate(-3660 -9777)" fill="#12263f"/>
    <path id="Trazado_230659" data-name="Trazado 230659" d="M20.159,9.233h3.271L23.294,10H19.1L20.34,2.891h.923Zm7.217.244a2.04,2.04,0,0,1-1.577.62,1.317,1.317,0,0,1-1.121-.542,2.073,2.073,0,0,1-.271-1.426l.566-3.413h.884l-.571,3.428a2.277,2.277,0,0,0-.01.42.874.874,0,0,0,.21.552A.716.716,0,0,0,26,9.331a1.585,1.585,0,0,0,1.465-.767l.664-3.848h.884L28.1,10h-.835ZM31.17,4.712l-.127.669a2.083,2.083,0,0,1,1.621-.762,1.311,1.311,0,0,1,1.1.518,2.011,2.011,0,0,1,.264,1.4L33.455,10h-.884l.581-3.473a1.851,1.851,0,0,0,0-.444.73.73,0,0,0-.806-.7,1.663,1.663,0,0,0-1.4.849L30.3,10h-.884l.918-5.283Zm5.879,4.653a1.341,1.341,0,0,0,.854-.276,1.312,1.312,0,0,0,.5-.75l.835,0a1.884,1.884,0,0,1-.4.908,2.3,2.3,0,0,1-1.829.854,1.885,1.885,0,0,1-1.116-.344,1.927,1.927,0,0,1-.671-.933,3.107,3.107,0,0,1-.146-1.345l.024-.244a3.5,3.5,0,0,1,.444-1.362,2.569,2.569,0,0,1,.918-.935,2.28,2.28,0,0,1,1.25-.315,1.785,1.785,0,0,1,1.328.557,1.925,1.925,0,0,1,.5,1.362l-.825,0a1.268,1.268,0,0,0-.288-.837,1,1,0,0,0-.752-.339,1.409,1.409,0,0,0-1.145.513,2.685,2.685,0,0,0-.569,1.475l-.015.127a4.235,4.235,0,0,0-.01.645,1.472,1.472,0,0,0,.322.9A1.035,1.035,0,0,0,37.049,9.365Zm4.546-4a2.047,2.047,0,0,1,1.6-.737,1.286,1.286,0,0,1,1.1.51,2.011,2.011,0,0,1,.266,1.4L43.982,10H43.1l.581-3.477a1.855,1.855,0,0,0,0-.444.73.73,0,0,0-.806-.7,1.626,1.626,0,0,0-1.4.85L40.828,10h-.884l1.3-7.5h.884Z" transform="translate(-3520 -9777)" fill="#12263f"/>
    <path id="Trazado_230661" data-name="Trazado 230661" d="M20.159,9.233h3.271L23.294,10H19.1L20.34,2.891h.923Zm7.217.244a2.04,2.04,0,0,1-1.577.62,1.317,1.317,0,0,1-1.121-.542,2.073,2.073,0,0,1-.271-1.426l.566-3.413h.884l-.571,3.428a2.277,2.277,0,0,0-.01.42.874.874,0,0,0,.21.552A.716.716,0,0,0,26,9.331a1.585,1.585,0,0,0,1.465-.767l.664-3.848h.884L28.1,10h-.835ZM31.17,4.712l-.127.669a2.083,2.083,0,0,1,1.621-.762,1.311,1.311,0,0,1,1.1.518,2.011,2.011,0,0,1,.264,1.4L33.455,10h-.884l.581-3.473a1.851,1.851,0,0,0,0-.444.73.73,0,0,0-.806-.7,1.663,1.663,0,0,0-1.4.849L30.3,10h-.884l.918-5.283Zm5.879,4.653a1.341,1.341,0,0,0,.854-.276,1.312,1.312,0,0,0,.5-.75l.835,0a1.884,1.884,0,0,1-.4.908,2.3,2.3,0,0,1-1.829.854,1.885,1.885,0,0,1-1.116-.344,1.927,1.927,0,0,1-.671-.933,3.107,3.107,0,0,1-.146-1.345l.024-.244a3.5,3.5,0,0,1,.444-1.362,2.569,2.569,0,0,1,.918-.935,2.28,2.28,0,0,1,1.25-.315,1.785,1.785,0,0,1,1.328.557,1.925,1.925,0,0,1,.5,1.362l-.825,0a1.268,1.268,0,0,0-.288-.837,1,1,0,0,0-.752-.339,1.409,1.409,0,0,0-1.145.513,2.685,2.685,0,0,0-.569,1.475l-.015.127a4.235,4.235,0,0,0-.01.645,1.472,1.472,0,0,0,.322.9A1.035,1.035,0,0,0,37.049,9.365Zm4.546-4a2.047,2.047,0,0,1,1.6-.737,1.286,1.286,0,0,1,1.1.51,2.011,2.011,0,0,1,.266,1.4L43.982,10H43.1l.581-3.477a1.855,1.855,0,0,0,0-.444.73.73,0,0,0-.806-.7,1.626,1.626,0,0,0-1.4.85L40.828,10h-.884l1.3-7.5h.884Z" transform="translate(-3765 -9745)" fill="#fff"/>
    <path id="Trazado_230662" data-name="Trazado 230662" d="M23.611,8.569q.073-.547-.6-.771l-.918-.269q-1.162-.4-1.123-1.328a1.463,1.463,0,0,1,.637-1.145,2.269,2.269,0,0,1,1.418-.437,1.892,1.892,0,0,1,1.3.466,1.477,1.477,0,0,1,.481,1.189l-.879,0a.824.824,0,0,0-.249-.645.985.985,0,0,0-.688-.259,1.287,1.287,0,0,0-.791.225.822.822,0,0,0-.356.576q-.063.459.562.669l.444.122a2.861,2.861,0,0,1,1.289.61,1.166,1.166,0,0,1,.352.933,1.481,1.481,0,0,1-.322.859,1.843,1.843,0,0,1-.781.559,2.613,2.613,0,0,1-1.04.178,2.061,2.061,0,0,1-1.387-.491,1.517,1.517,0,0,1-.527-1.238l.884,0a.937.937,0,0,0,.283.713,1.082,1.082,0,0,0,.776.269,1.523,1.523,0,0,0,.835-.2A.78.78,0,0,0,23.611,8.569ZM28.621,10a1.183,1.183,0,0,1-.034-.278l.015-.278a2.166,2.166,0,0,1-1.543.654,1.579,1.579,0,0,1-1.135-.442,1.337,1.337,0,0,1-.4-1.082,1.626,1.626,0,0,1,.735-1.311,3.128,3.128,0,0,1,1.8-.471l.923,0,.059-.42a.965.965,0,0,0-.183-.75.884.884,0,0,0-.7-.286,1.363,1.363,0,0,0-.8.222.946.946,0,0,0-.427.613l-.889,0a1.416,1.416,0,0,1,.361-.823,2.1,2.1,0,0,1,.815-.557,2.634,2.634,0,0,1,1.03-.188,1.752,1.752,0,0,1,1.284.5,1.552,1.552,0,0,1,.386,1.277L29.5,9.009l-.024.376a1.843,1.843,0,0,0,.059.532L29.52,10Zm-1.387-.684a1.541,1.541,0,0,0,.8-.2,2.034,2.034,0,0,0,.652-.588l.19-1.089-.669,0a2.534,2.534,0,0,0-1.279.264.971.971,0,0,0-.5.747.756.756,0,0,0,.173.618A.826.826,0,0,0,27.234,9.316ZM31.673,10h-.879l1.3-7.5h.884Zm4.678,0a1.184,1.184,0,0,1-.034-.278l.015-.278a2.166,2.166,0,0,1-1.543.654,1.579,1.579,0,0,1-1.135-.442,1.337,1.337,0,0,1-.4-1.082,1.626,1.626,0,0,1,.735-1.311,3.128,3.128,0,0,1,1.8-.471l.923,0,.059-.42a.965.965,0,0,0-.183-.75.884.884,0,0,0-.7-.286,1.363,1.363,0,0,0-.8.222.946.946,0,0,0-.427.613l-.889,0a1.416,1.416,0,0,1,.361-.823,2.1,2.1,0,0,1,.815-.557,2.634,2.634,0,0,1,1.03-.188,1.752,1.752,0,0,1,1.284.5,1.552,1.552,0,0,1,.386,1.277l-.43,2.617-.024.376a1.843,1.843,0,0,0,.059.532l-.01.083Zm-1.387-.684a1.541,1.541,0,0,0,.8-.2,2.034,2.034,0,0,0,.652-.588l.19-1.089-.669,0a2.534,2.534,0,0,0-1.279.264.971.971,0,0,0-.5.747.756.756,0,0,0,.173.618A.826.826,0,0,0,34.964,9.316ZM38.7,7.349a4.111,4.111,0,0,1,.444-1.455A2.519,2.519,0,0,1,40,4.922a1.954,1.954,0,0,1,1.118-.308,1.65,1.65,0,0,1,1.357.645L42.981,2.5h.884l-1.3,7.5h-.806l.093-.566a1.948,1.948,0,0,1-1.543.664,1.46,1.46,0,0,1-1.167-.574,2.5,2.5,0,0,1-.469-1.487A4.748,4.748,0,0,1,38.7,7.349Zm.85.5A1.831,1.831,0,0,0,39.8,8.936a.9.9,0,0,0,.771.4,1.6,1.6,0,0,0,1.362-.771l.42-2.438a1.1,1.1,0,0,0-1.064-.741,1.339,1.339,0,0,0-.92.315,2.035,2.035,0,0,0-.605.922A3.8,3.8,0,0,0,39.549,7.853Z" transform="translate(-3765 -9636)" fill="#fff"/>
    <path id="Trazado_230663" data-name="Trazado 230663" d="M14.646,8.569q.073-.547-.6-.771l-.918-.269Q11.966,7.129,12,6.2a1.463,1.463,0,0,1,.637-1.145,2.269,2.269,0,0,1,1.418-.437,1.892,1.892,0,0,1,1.3.466,1.477,1.477,0,0,1,.481,1.189l-.879,0a.824.824,0,0,0-.249-.645.985.985,0,0,0-.688-.259,1.287,1.287,0,0,0-.791.225.822.822,0,0,0-.356.576q-.063.459.562.669l.444.122a2.861,2.861,0,0,1,1.289.61,1.166,1.166,0,0,1,.352.933,1.481,1.481,0,0,1-.322.859,1.843,1.843,0,0,1-.781.559,2.613,2.613,0,0,1-1.04.178A2.061,2.061,0,0,1,12,9.607a1.517,1.517,0,0,1-.527-1.238l.884,0a.937.937,0,0,0,.283.713,1.082,1.082,0,0,0,.776.269,1.523,1.523,0,0,0,.835-.2A.78.78,0,0,0,14.646,8.569ZM19.656,10a1.183,1.183,0,0,1-.034-.278l.015-.278a2.166,2.166,0,0,1-1.543.654,1.579,1.579,0,0,1-1.135-.442,1.337,1.337,0,0,1-.4-1.082A1.626,1.626,0,0,1,17.3,7.263a3.128,3.128,0,0,1,1.8-.471l.923,0,.059-.42a.965.965,0,0,0-.183-.75.884.884,0,0,0-.7-.286,1.363,1.363,0,0,0-.8.222.946.946,0,0,0-.427.613l-.889,0a1.416,1.416,0,0,1,.361-.823A2.1,2.1,0,0,1,18.26,4.8a2.634,2.634,0,0,1,1.03-.188,1.752,1.752,0,0,1,1.284.5,1.552,1.552,0,0,1,.386,1.277l-.43,2.617-.024.376a1.843,1.843,0,0,0,.059.532l-.01.083ZM18.27,9.316a1.541,1.541,0,0,0,.8-.2,2.034,2.034,0,0,0,.652-.588l.19-1.089-.669,0a2.534,2.534,0,0,0-1.279.264.971.971,0,0,0-.5.747.756.756,0,0,0,.173.618A.826.826,0,0,0,18.27,9.316Zm5.234-4.6-.127.669A2.083,2.083,0,0,1,25,4.619a1.311,1.311,0,0,1,1.1.518,2.011,2.011,0,0,1,.264,1.4L25.789,10h-.884l.581-3.473a1.851,1.851,0,0,0,0-.444.73.73,0,0,0-.806-.7,1.663,1.663,0,0,0-1.4.849L22.635,10h-.884l.918-5.283Zm3.9,2.637a4.111,4.111,0,0,1,.444-1.455,2.519,2.519,0,0,1,.854-.972,1.954,1.954,0,0,1,1.118-.308,1.65,1.65,0,0,1,1.357.645L31.688,2.5h.884l-1.3,7.5h-.806l.093-.566a1.948,1.948,0,0,1-1.543.664,1.46,1.46,0,0,1-1.167-.574,2.5,2.5,0,0,1-.469-1.487A4.748,4.748,0,0,1,27.405,7.349Zm.85.5A1.831,1.831,0,0,0,28.5,8.936a.9.9,0,0,0,.771.4,1.6,1.6,0,0,0,1.362-.771l.42-2.438a1.1,1.1,0,0,0-1.064-.741,1.339,1.339,0,0,0-.92.315,2.035,2.035,0,0,0-.605.922A3.8,3.8,0,0,0,28.255,7.853Zm9.155.9,1.685-4.033h.913L37.6,10h-.718l-.547-3.994L34.432,10h-.718l-.571-5.283h.845l.322,3.936,1.875-3.936H36.9ZM40.965,10h-.879L41,4.717h.879Zm.728-7.212a.484.484,0,0,1,.374.134.5.5,0,0,1,.149.378.521.521,0,0,1-.522.532.487.487,0,0,1-.376-.132.478.478,0,0,1-.142-.371.554.554,0,0,1,.146-.381A.517.517,0,0,1,41.692,2.788Zm2.949,6.577a1.341,1.341,0,0,0,.854-.276,1.312,1.312,0,0,0,.5-.75l.835,0a1.884,1.884,0,0,1-.4.908A2.3,2.3,0,0,1,44.6,10.1a1.885,1.885,0,0,1-1.116-.344,1.927,1.927,0,0,1-.671-.933,3.107,3.107,0,0,1-.146-1.345l.024-.244a3.5,3.5,0,0,1,.444-1.362,2.569,2.569,0,0,1,.918-.935,2.28,2.28,0,0,1,1.25-.315,1.785,1.785,0,0,1,1.328.557,1.925,1.925,0,0,1,.5,1.362l-.825,0a1.268,1.268,0,0,0-.288-.837,1,1,0,0,0-.752-.339,1.409,1.409,0,0,0-1.145.513,2.685,2.685,0,0,0-.569,1.475l-.015.127a4.235,4.235,0,0,0-.01.645,1.472,1.472,0,0,0,.322.9A1.035,1.035,0,0,0,44.642,9.365Zm4.546-4a2.047,2.047,0,0,1,1.6-.737,1.286,1.286,0,0,1,1.1.51,2.011,2.011,0,0,1,.266,1.4L51.575,10h-.884l.581-3.477a1.855,1.855,0,0,0,0-.444.73.73,0,0,0-.806-.7,1.626,1.626,0,0,0-1.4.85L48.421,10h-.884l1.3-7.5h.884Z" transform="translate(-3650 -9636)" fill="#fff"/>
    <path id="Trazado_230673" data-name="Trazado 230673" d="M24.664,8.569q.073-.547-.6-.771l-.918-.269q-1.162-.4-1.123-1.328a1.463,1.463,0,0,1,.637-1.145,2.269,2.269,0,0,1,1.418-.437,1.892,1.892,0,0,1,1.3.466,1.477,1.477,0,0,1,.481,1.189l-.879,0a.824.824,0,0,0-.249-.645.985.985,0,0,0-.688-.259,1.287,1.287,0,0,0-.791.225.822.822,0,0,0-.356.576q-.063.459.562.669l.444.122a2.861,2.861,0,0,1,1.289.61,1.166,1.166,0,0,1,.352.933,1.481,1.481,0,0,1-.322.859,1.843,1.843,0,0,1-.781.559,2.613,2.613,0,0,1-1.04.178,2.061,2.061,0,0,1-1.387-.491,1.517,1.517,0,0,1-.527-1.238l.884,0a.937.937,0,0,0,.283.713,1.082,1.082,0,0,0,.776.269,1.523,1.523,0,0,0,.835-.2A.78.78,0,0,0,24.664,8.569Zm4.712-3.95a1.9,1.9,0,0,1,1.138.361,2.053,2.053,0,0,1,.7.969,3,3,0,0,1,.154,1.35l-.01.107A3.553,3.553,0,0,1,30.9,8.8a2.693,2.693,0,0,1-.947.969,2.31,2.31,0,0,1-1.274.327,1.908,1.908,0,0,1-1.135-.361,2.006,2.006,0,0,1-.7-.957,3.082,3.082,0,0,1-.156-1.333,3.6,3.6,0,0,1,.444-1.475,2.756,2.756,0,0,1,.955-1.013A2.283,2.283,0,0,1,29.375,4.619Zm-1.8,2.832a3,3,0,0,0,0,.64,1.567,1.567,0,0,0,.344.918,1.033,1.033,0,0,0,.789.356,1.408,1.408,0,0,0,.811-.217,1.824,1.824,0,0,0,.625-.7,2.951,2.951,0,0,0,.327-1.04,4.684,4.684,0,0,0,.015-.757,1.626,1.626,0,0,0-.356-.933,1.056,1.056,0,0,0-.791-.361,1.44,1.44,0,0,0-1.162.537,2.653,2.653,0,0,0-.591,1.445Zm7.8,2.026a2.04,2.04,0,0,1-1.577.62,1.317,1.317,0,0,1-1.121-.542,2.073,2.073,0,0,1-.271-1.426l.566-3.413h.884l-.571,3.428a2.276,2.276,0,0,0-.01.42.874.874,0,0,0,.21.552A.716.716,0,0,0,34,9.331a1.585,1.585,0,0,0,1.465-.767l.664-3.848h.884L36.1,10h-.835ZM42.2,7.383a4.192,4.192,0,0,1-.435,1.45,2.468,2.468,0,0,1-.835.964,1.911,1.911,0,0,1-1.1.305,1.759,1.759,0,0,1-1.406-.62l-.474,2.549h-.884l1.27-7.314.8,0-.1.591a2,2,0,0,1,1.567-.684,1.474,1.474,0,0,1,1.187.562,2.471,2.471,0,0,1,.449,1.494,5.258,5.258,0,0,1-.024.605Zm-.869-.1.024-.41a1.855,1.855,0,0,0-.271-1.09.953.953,0,0,0-.784-.4,1.567,1.567,0,0,0-1.323.727l-.444,2.531a1.105,1.105,0,0,0,1.069.722,1.39,1.39,0,0,0,1.121-.514A2.986,2.986,0,0,0,41.333,7.283Z" transform="translate(-3765 -9548)" fill="#fff"/>
    <path id="Trazado_230671" data-name="Trazado 230671" d="M30.4,7.383a4.192,4.192,0,0,1-.435,1.45,2.468,2.468,0,0,1-.835.964,1.911,1.911,0,0,1-1.1.305,1.759,1.759,0,0,1-1.406-.62l-.474,2.549h-.884l1.27-7.314.8,0-.1.591A2,2,0,0,1,28.8,4.619a1.474,1.474,0,0,1,1.187.562,2.471,2.471,0,0,1,.449,1.494,5.258,5.258,0,0,1-.024.605Zm-.869-.1.024-.41a1.855,1.855,0,0,0-.271-1.09.953.953,0,0,0-.784-.4,1.567,1.567,0,0,0-1.323.727l-.444,2.531a1.105,1.105,0,0,0,1.069.722,1.39,1.39,0,0,0,1.121-.514A2.986,2.986,0,0,0,29.527,7.283ZM32.061,10h-.879L32.1,4.717h.879Zm.728-7.212a.484.484,0,0,1,.374.134.5.5,0,0,1,.149.378.521.521,0,0,1-.522.532.487.487,0,0,1-.376-.132.478.478,0,0,1-.142-.371.554.554,0,0,1,.146-.381A.517.517,0,0,1,32.789,2.788Zm3,7.31a1.9,1.9,0,0,1-1.543-.728,2.5,2.5,0,0,1-.469-1.812l.024-.21a3.515,3.515,0,0,1,.466-1.436,2.712,2.712,0,0,1,.935-.979A2.182,2.182,0,0,1,36.4,4.619a1.68,1.68,0,0,1,1.279.542,2.229,2.229,0,0,1,.508,1.416,4.138,4.138,0,0,1-.02.635l-.054.405H34.659A1.785,1.785,0,0,0,34.9,8.838a1.122,1.122,0,0,0,.969.522,1.88,1.88,0,0,0,1.445-.7l.508.43a2.324,2.324,0,0,1-.857.75A2.429,2.429,0,0,1,35.792,10.1Zm.562-4.741a1.291,1.291,0,0,0-.955.371,2.638,2.638,0,0,0-.647,1.147l2.568,0,.02-.078a1.445,1.445,0,0,0-.2-1.023A.93.93,0,0,0,36.353,5.356Z" transform="translate(-3655 -9548)" fill="#fff"/>
    <path id="Trazado_230672" data-name="Trazado 230672" d="M10.424,7.734a2.834,2.834,0,0,1-1,1.748,2.8,2.8,0,0,1-1.9.615,2.215,2.215,0,0,1-1.152-.325A2.052,2.052,0,0,1,5.6,8.879a3.337,3.337,0,0,1-.3-1.292,4.139,4.139,0,0,1,.034-.781l.083-.586A4.422,4.422,0,0,1,6.545,3.694a2.84,2.84,0,0,1,2.18-.9,2.127,2.127,0,0,1,1.587.647,2.573,2.573,0,0,1,.62,1.741h-.913Q9.956,3.687,8.847,3.569l-.161-.01a1.887,1.887,0,0,0-1.541.686,3.714,3.714,0,0,0-.8,1.941l-.107.737-.029.43a2.417,2.417,0,0,0,.32,1.428,1.206,1.206,0,0,0,1.038.549A1.828,1.828,0,0,0,8.8,8.975a2.372,2.372,0,0,0,.74-1.226Zm1.455,1.24a.529.529,0,0,1,.4.146.5.5,0,0,1,.151.391.528.528,0,0,1-.161.388.581.581,0,0,1-.391.159.492.492,0,0,1-.537-.518.546.546,0,0,1,.542-.566Zm2.6,0a.529.529,0,0,1,.4.146.5.5,0,0,1,.151.391.528.528,0,0,1-.161.388.581.581,0,0,1-.391.159.492.492,0,0,1-.537-.518.546.546,0,0,1,.542-.566Z" transform="translate(-3570 -9548)" fill="#fff"/>
    <path id="Trazado_230674" data-name="Trazado 230674" d="M15.921,10h-.913l1.235-7.109h.913Zm3.8-.635a1.341,1.341,0,0,0,.854-.276,1.312,1.312,0,0,0,.5-.75l.835,0a1.884,1.884,0,0,1-.4.908,2.3,2.3,0,0,1-1.829.854,1.885,1.885,0,0,1-1.116-.344,1.927,1.927,0,0,1-.671-.933,3.107,3.107,0,0,1-.146-1.345l.024-.244a3.5,3.5,0,0,1,.444-1.362,2.569,2.569,0,0,1,.918-.935,2.28,2.28,0,0,1,1.25-.315,1.785,1.785,0,0,1,1.328.557,1.925,1.925,0,0,1,.5,1.362l-.825,0A1.268,1.268,0,0,0,21.1,5.7a1,1,0,0,0-.752-.339,1.409,1.409,0,0,0-1.145.513,2.685,2.685,0,0,0-.569,1.475l-.015.127a4.235,4.235,0,0,0-.01.645,1.472,1.472,0,0,0,.322.9A1.035,1.035,0,0,0,19.72,9.365ZM24.9,10.1a1.9,1.9,0,0,1-1.543-.728,2.5,2.5,0,0,1-.469-1.812l.024-.21a3.515,3.515,0,0,1,.466-1.436,2.712,2.712,0,0,1,.935-.979,2.182,2.182,0,0,1,1.191-.315,1.68,1.68,0,0,1,1.279.542,2.229,2.229,0,0,1,.508,1.416,4.138,4.138,0,0,1-.02.635l-.054.405H23.768A1.785,1.785,0,0,0,24,8.838a1.122,1.122,0,0,0,.969.522,1.88,1.88,0,0,0,1.445-.7l.508.43a2.324,2.324,0,0,1-.857.75A2.429,2.429,0,0,1,24.9,10.1Zm.562-4.741a1.291,1.291,0,0,0-.955.371,2.638,2.638,0,0,0-.647,1.147l2.568,0,.02-.078a1.445,1.445,0,0,0-.2-1.023A.93.93,0,0,0,25.462,5.356Zm2.593,1.992A4.111,4.111,0,0,1,28.5,5.894a2.519,2.519,0,0,1,.854-.972,1.954,1.954,0,0,1,1.118-.308,1.65,1.65,0,0,1,1.357.645L32.337,2.5h.884l-1.3,7.5h-.806l.093-.566a1.948,1.948,0,0,1-1.543.664A1.46,1.46,0,0,1,28.5,9.524a2.5,2.5,0,0,1-.469-1.487A4.748,4.748,0,0,1,28.055,7.349Zm.85.5a1.831,1.831,0,0,0,.249,1.083.9.9,0,0,0,.771.4,1.6,1.6,0,0,0,1.362-.771l.42-2.438a1.1,1.1,0,0,0-1.064-.741,1.339,1.339,0,0,0-.92.315,2.035,2.035,0,0,0-.605.922A3.8,3.8,0,0,0,28.9,7.853Zm9.2-4.416-.225,1.279h.962l-.122.7h-.957L37.21,8.7a1.146,1.146,0,0,0,0,.234.372.372,0,0,0,.415.381,2.531,2.531,0,0,0,.43-.049L37.981,10a2.4,2.4,0,0,1-.645.088.923.923,0,0,1-.791-.388,1.5,1.5,0,0,1-.205-1.018l.537-3.271h-.933l.122-.7H37l.225-1.279Zm3.169,6.66a1.9,1.9,0,0,1-1.543-.728,2.5,2.5,0,0,1-.469-1.812l.024-.21a3.515,3.515,0,0,1,.466-1.436,2.712,2.712,0,0,1,.935-.979,2.182,2.182,0,0,1,1.191-.315,1.68,1.68,0,0,1,1.279.542,2.229,2.229,0,0,1,.508,1.416,4.138,4.138,0,0,1-.02.635l-.054.405H40.14a1.785,1.785,0,0,0,.237,1.221,1.122,1.122,0,0,0,.969.522,1.88,1.88,0,0,0,1.445-.7l.508.43a2.324,2.324,0,0,1-.857.75A2.429,2.429,0,0,1,41.272,10.1Zm.562-4.741a1.291,1.291,0,0,0-.955.371,2.638,2.638,0,0,0-.647,1.147l2.568,0,.02-.078a1.445,1.445,0,0,0-.2-1.023A.93.93,0,0,0,41.834,5.356ZM47.405,10a1.184,1.184,0,0,1-.034-.278l.015-.278a2.166,2.166,0,0,1-1.543.654,1.579,1.579,0,0,1-1.135-.442,1.337,1.337,0,0,1-.4-1.082,1.626,1.626,0,0,1,.735-1.311,3.128,3.128,0,0,1,1.8-.471l.923,0,.059-.42a.965.965,0,0,0-.183-.75.884.884,0,0,0-.7-.286,1.363,1.363,0,0,0-.8.222.946.946,0,0,0-.427.613l-.889,0a1.416,1.416,0,0,1,.361-.823,2.1,2.1,0,0,1,.815-.557,2.634,2.634,0,0,1,1.03-.188,1.752,1.752,0,0,1,1.284.5,1.552,1.552,0,0,1,.386,1.277l-.43,2.617-.024.376a1.843,1.843,0,0,0,.059.532L48.3,10Zm-1.387-.684a1.541,1.541,0,0,0,.8-.2,2.034,2.034,0,0,0,.652-.588l.19-1.089-.669,0a2.534,2.534,0,0,0-1.279.264.971.971,0,0,0-.5.747.756.756,0,0,0,.173.618A.826.826,0,0,0,46.019,9.316Z" transform="translate(-3765 -9487)" fill="#fff"/>
    <path id="Trazado_230670" data-name="Trazado 230670" d="M20.484,9.365a1.341,1.341,0,0,0,.854-.276,1.312,1.312,0,0,0,.5-.75l.835,0a1.884,1.884,0,0,1-.4.908,2.3,2.3,0,0,1-1.829.854,1.885,1.885,0,0,1-1.116-.344,1.927,1.927,0,0,1-.671-.933,3.107,3.107,0,0,1-.146-1.345l.024-.244a3.5,3.5,0,0,1,.444-1.362,2.569,2.569,0,0,1,.918-.935,2.28,2.28,0,0,1,1.25-.315,1.785,1.785,0,0,1,1.328.557,1.925,1.925,0,0,1,.5,1.362l-.825,0a1.268,1.268,0,0,0-.288-.837,1,1,0,0,0-.752-.339,1.409,1.409,0,0,0-1.145.513A2.685,2.685,0,0,0,19.4,7.344l-.015.127a4.235,4.235,0,0,0-.01.645,1.472,1.472,0,0,0,.322.9A1.035,1.035,0,0,0,20.484,9.365Zm5.83-4.746a1.9,1.9,0,0,1,1.138.361,2.053,2.053,0,0,1,.7.969,3,3,0,0,1,.154,1.35l-.01.107A3.553,3.553,0,0,1,27.837,8.8a2.693,2.693,0,0,1-.947.969,2.31,2.31,0,0,1-1.274.327,1.908,1.908,0,0,1-1.135-.361,2.006,2.006,0,0,1-.7-.957,3.082,3.082,0,0,1-.156-1.333,3.6,3.6,0,0,1,.444-1.475,2.756,2.756,0,0,1,.955-1.013A2.283,2.283,0,0,1,26.314,4.619Zm-1.8,2.832a3,3,0,0,0,0,.64,1.567,1.567,0,0,0,.344.918,1.033,1.033,0,0,0,.789.356,1.408,1.408,0,0,0,.811-.217,1.824,1.824,0,0,0,.625-.7,2.951,2.951,0,0,0,.327-1.04,4.684,4.684,0,0,0,.015-.757,1.626,1.626,0,0,0-.356-.933,1.056,1.056,0,0,0-.791-.361,1.44,1.44,0,0,0-1.162.537,2.653,2.653,0,0,0-.591,1.445ZM29.39,10l.8-4.585h-.815l.122-.7h.811l.088-.625a2.074,2.074,0,0,1,.615-1.245,1.829,1.829,0,0,1,1.309-.459,3.053,3.053,0,0,1,.63.084l-.107.742a2.9,2.9,0,0,0-.474-.059,1.009,1.009,0,0,0-.745.285,1.3,1.3,0,0,0-.354.757l-.078.521h1.094l-.122.7H31.07L30.274,10Zm3.418,0,.8-4.585h-.815l.122-.7h.811l.088-.625a2.074,2.074,0,0,1,.615-1.245,1.829,1.829,0,0,1,1.309-.459,3.053,3.053,0,0,1,.63.084l-.107.742a2.9,2.9,0,0,0-.474-.059,1.009,1.009,0,0,0-.745.285,1.3,1.3,0,0,0-.354.757l-.078.521H35.7l-.122.7H34.488L33.692,10Zm5.156.1a1.9,1.9,0,0,1-1.543-.728,2.5,2.5,0,0,1-.469-1.812l.024-.21a3.515,3.515,0,0,1,.466-1.436,2.712,2.712,0,0,1,.935-.979,2.182,2.182,0,0,1,1.191-.315,1.68,1.68,0,0,1,1.279.542,2.229,2.229,0,0,1,.508,1.416,4.138,4.138,0,0,1-.02.635l-.054.405H36.832a1.785,1.785,0,0,0,.237,1.221,1.122,1.122,0,0,0,.969.522,1.88,1.88,0,0,0,1.445-.7l.508.43a2.324,2.324,0,0,1-.857.75A2.429,2.429,0,0,1,37.964,10.1Zm.562-4.741a1.291,1.291,0,0,0-.955.371,2.638,2.638,0,0,0-.647,1.147l2.568,0,.02-.078a1.445,1.445,0,0,0-.2-1.023A.93.93,0,0,0,38.526,5.356ZM43.15,10.1a1.9,1.9,0,0,1-1.543-.728,2.5,2.5,0,0,1-.469-1.812l.024-.21a3.515,3.515,0,0,1,.466-1.436,2.712,2.712,0,0,1,.935-.979,2.182,2.182,0,0,1,1.191-.315,1.68,1.68,0,0,1,1.279.542,2.229,2.229,0,0,1,.508,1.416,4.138,4.138,0,0,1-.02.635l-.054.405H42.017a1.785,1.785,0,0,0,.237,1.221,1.122,1.122,0,0,0,.969.522,1.88,1.88,0,0,0,1.445-.7l.508.43a2.324,2.324,0,0,1-.857.75A2.429,2.429,0,0,1,43.15,10.1Zm.562-4.741a1.291,1.291,0,0,0-.955.371,2.638,2.638,0,0,0-.647,1.147l2.568,0L44.7,6.8a1.445,1.445,0,0,0-.2-1.023A.93.93,0,0,0,43.711,5.356Z" transform="translate(-3633 -9487)" fill="#fff"/>
    <path id="Trazado_230668" data-name="Trazado 230668" d="M30.225,3.657H28.013L26.915,10H26l1.1-6.343H24.888l.137-.767h5.337Zm1.631,6.44a1.9,1.9,0,0,1-1.543-.728,2.5,2.5,0,0,1-.469-1.812l.024-.21a3.515,3.515,0,0,1,.466-1.436,2.712,2.712,0,0,1,.935-.979,2.182,2.182,0,0,1,1.191-.315,1.68,1.68,0,0,1,1.279.542,2.229,2.229,0,0,1,.508,1.416,4.138,4.138,0,0,1-.02.635l-.054.405H30.723a1.785,1.785,0,0,0,.237,1.221,1.122,1.122,0,0,0,.969.522,1.88,1.88,0,0,0,1.445-.7l.508.43a2.324,2.324,0,0,1-.857.75A2.429,2.429,0,0,1,31.856,10.1Zm.562-4.741a1.291,1.291,0,0,0-.955.371,2.638,2.638,0,0,0-.647,1.147l2.568,0L33.4,6.8a1.445,1.445,0,0,0-.2-1.023A.93.93,0,0,0,32.417,5.356ZM37.989,10a1.184,1.184,0,0,1-.034-.278l.015-.278a2.166,2.166,0,0,1-1.543.654,1.579,1.579,0,0,1-1.135-.442,1.337,1.337,0,0,1-.4-1.082,1.626,1.626,0,0,1,.735-1.311,3.128,3.128,0,0,1,1.8-.471l.923,0,.059-.42a.965.965,0,0,0-.183-.75.884.884,0,0,0-.7-.286,1.363,1.363,0,0,0-.8.222.946.946,0,0,0-.427.613l-.889,0a1.416,1.416,0,0,1,.361-.823,2.1,2.1,0,0,1,.815-.557,2.634,2.634,0,0,1,1.03-.188,1.752,1.752,0,0,1,1.284.5,1.552,1.552,0,0,1,.386,1.277l-.43,2.617-.024.376a1.843,1.843,0,0,0,.059.532l-.01.083ZM36.6,9.316a1.541,1.541,0,0,0,.8-.2,2.034,2.034,0,0,0,.652-.588l.19-1.089-.669,0A2.534,2.534,0,0,0,36.3,7.7a.971.971,0,0,0-.5.747.756.756,0,0,0,.173.618A.826.826,0,0,0,36.6,9.316Z" transform="translate(-3541 -9487)" fill="#12263f"/>
    <path id="Trazado_230669" data-name="Trazado 230669" d="M23.191,7.734a2.834,2.834,0,0,1-1,1.748,2.8,2.8,0,0,1-1.9.615,2.215,2.215,0,0,1-1.152-.325,2.052,2.052,0,0,1-.767-.894,3.337,3.337,0,0,1-.3-1.292,4.139,4.139,0,0,1,.034-.781l.083-.586a4.422,4.422,0,0,1,1.125-2.527,2.84,2.84,0,0,1,2.18-.9,2.127,2.127,0,0,1,1.587.647,2.573,2.573,0,0,1,.62,1.741h-.913q-.063-1.494-1.172-1.611l-.161-.01a1.887,1.887,0,0,0-1.541.686,3.714,3.714,0,0,0-.8,1.941l-.107.737-.029.43a2.417,2.417,0,0,0,.32,1.428,1.206,1.206,0,0,0,1.038.549,1.828,1.828,0,0,0,1.228-.356,2.372,2.372,0,0,0,.74-1.226Zm3.74-3.115a1.9,1.9,0,0,1,1.138.361,2.053,2.053,0,0,1,.7.969,3,3,0,0,1,.154,1.35l-.01.107A3.553,3.553,0,0,1,28.455,8.8a2.693,2.693,0,0,1-.947.969,2.31,2.31,0,0,1-1.274.327A1.908,1.908,0,0,1,25.1,9.736a2.006,2.006,0,0,1-.7-.957,3.082,3.082,0,0,1-.156-1.333,3.6,3.6,0,0,1,.444-1.475,2.756,2.756,0,0,1,.955-1.013A2.283,2.283,0,0,1,26.932,4.619Zm-1.8,2.832a3,3,0,0,0,0,.64,1.567,1.567,0,0,0,.344.918,1.033,1.033,0,0,0,.789.356,1.408,1.408,0,0,0,.811-.217,1.824,1.824,0,0,0,.625-.7,2.951,2.951,0,0,0,.327-1.04,4.684,4.684,0,0,0,.015-.757,1.626,1.626,0,0,0-.356-.933,1.056,1.056,0,0,0-.791-.361,1.44,1.44,0,0,0-1.162.537,2.653,2.653,0,0,0-.591,1.445ZM30.008,10l.8-4.585h-.815l.122-.7h.811l.088-.625a2.074,2.074,0,0,1,.615-1.245,1.829,1.829,0,0,1,1.309-.459,3.053,3.053,0,0,1,.63.084l-.107.742a2.9,2.9,0,0,0-.474-.059,1.009,1.009,0,0,0-.745.285,1.3,1.3,0,0,0-.354.757l-.078.521H32.9l-.122.7H31.688L30.892,10Zm3.418,0,.8-4.585h-.815l.122-.7h.811l.088-.625a2.074,2.074,0,0,1,.615-1.245,1.829,1.829,0,0,1,1.309-.459,3.053,3.053,0,0,1,.63.084l-.107.742a2.9,2.9,0,0,0-.474-.059,1.009,1.009,0,0,0-.745.285,1.3,1.3,0,0,0-.354.757l-.078.521h1.094l-.122.7H35.105L34.31,10Zm5.156.1a1.9,1.9,0,0,1-1.543-.728,2.5,2.5,0,0,1-.469-1.812l.024-.21a3.515,3.515,0,0,1,.466-1.436A2.712,2.712,0,0,1,38,4.934a2.182,2.182,0,0,1,1.191-.315,1.68,1.68,0,0,1,1.279.542,2.229,2.229,0,0,1,.508,1.416,4.138,4.138,0,0,1-.02.635l-.054.405H37.449a1.785,1.785,0,0,0,.237,1.221,1.122,1.122,0,0,0,.969.522,1.88,1.88,0,0,0,1.445-.7l.508.43a2.324,2.324,0,0,1-.857.75A2.429,2.429,0,0,1,38.582,10.1Zm.562-4.741a1.291,1.291,0,0,0-.955.371,2.638,2.638,0,0,0-.647,1.147l2.568,0,.02-.078a1.445,1.445,0,0,0-.2-1.023A.93.93,0,0,0,39.144,5.356ZM43.768,10.1a1.9,1.9,0,0,1-1.543-.728,2.5,2.5,0,0,1-.469-1.812l.024-.21a3.515,3.515,0,0,1,.466-1.436,2.712,2.712,0,0,1,.935-.979,2.182,2.182,0,0,1,1.191-.315,1.68,1.68,0,0,1,1.279.542,2.229,2.229,0,0,1,.508,1.416,4.138,4.138,0,0,1-.02.635l-.054.405H42.635a1.785,1.785,0,0,0,.237,1.221,1.122,1.122,0,0,0,.969.522,1.88,1.88,0,0,0,1.445-.7l.508.43a2.324,2.324,0,0,1-.857.75A2.429,2.429,0,0,1,43.768,10.1Zm.562-4.741a1.291,1.291,0,0,0-.955.371,2.638,2.638,0,0,0-.647,1.147l2.568,0,.02-.078a1.445,1.445,0,0,0-.2-1.023A.93.93,0,0,0,44.329,5.356Z" transform="translate(-3426 -9487)" fill="#12263f"/>
    <path id="Trazado_230667" data-name="Trazado 230667" d="M16.048,7.383a4.192,4.192,0,0,1-.435,1.45,2.468,2.468,0,0,1-.835.964,1.911,1.911,0,0,1-1.1.305,1.759,1.759,0,0,1-1.406-.62l-.474,2.549h-.884l1.27-7.314.8,0-.1.591a2,2,0,0,1,1.567-.684,1.474,1.474,0,0,1,1.187.562,2.471,2.471,0,0,1,.449,1.494,5.258,5.258,0,0,1-.024.605Zm-.869-.1.024-.41a1.855,1.855,0,0,0-.271-1.09.953.953,0,0,0-.784-.4,1.567,1.567,0,0,0-1.323.727l-.444,2.531a1.105,1.105,0,0,0,1.069.722,1.39,1.39,0,0,0,1.121-.514A2.986,2.986,0,0,0,15.179,7.283ZM19.988,10a1.183,1.183,0,0,1-.034-.278l.015-.278a2.166,2.166,0,0,1-1.543.654,1.579,1.579,0,0,1-1.135-.442,1.337,1.337,0,0,1-.4-1.082,1.626,1.626,0,0,1,.735-1.311,3.128,3.128,0,0,1,1.8-.471l.923,0,.059-.42a.965.965,0,0,0-.183-.75.884.884,0,0,0-.7-.286,1.363,1.363,0,0,0-.8.222.946.946,0,0,0-.427.613l-.889,0a1.416,1.416,0,0,1,.361-.823,2.1,2.1,0,0,1,.815-.557,2.634,2.634,0,0,1,1.03-.188,1.752,1.752,0,0,1,1.284.5,1.552,1.552,0,0,1,.386,1.277l-.43,2.617-.024.376a1.843,1.843,0,0,0,.059.532l-.01.083ZM18.6,9.316a1.541,1.541,0,0,0,.8-.2,2.034,2.034,0,0,0,.652-.588l.19-1.089-.669,0A2.534,2.534,0,0,0,18.3,7.7a.971.971,0,0,0-.5.747.756.756,0,0,0,.173.618A.826.826,0,0,0,18.6,9.316Zm5.234-4.6-.127.669a2.083,2.083,0,0,1,1.621-.762,1.311,1.311,0,0,1,1.1.518,2.011,2.011,0,0,1,.264,1.4L26.121,10h-.884l.581-3.473a1.851,1.851,0,0,0,0-.444.73.73,0,0,0-.806-.7,1.663,1.663,0,0,0-1.4.849L22.967,10h-.884L23,4.717Zm5.879,4.653a1.341,1.341,0,0,0,.854-.276,1.312,1.312,0,0,0,.5-.75l.835,0a1.884,1.884,0,0,1-.4.908,2.3,2.3,0,0,1-1.829.854,1.885,1.885,0,0,1-1.116-.344,1.927,1.927,0,0,1-.671-.933,3.107,3.107,0,0,1-.146-1.345l.024-.244a3.5,3.5,0,0,1,.444-1.362,2.569,2.569,0,0,1,.918-.935,2.28,2.28,0,0,1,1.25-.315,1.785,1.785,0,0,1,1.328.557,1.925,1.925,0,0,1,.5,1.362l-.825,0a1.268,1.268,0,0,0-.288-.837,1,1,0,0,0-.752-.339,1.409,1.409,0,0,0-1.145.513,2.685,2.685,0,0,0-.569,1.475l-.015.127a4.235,4.235,0,0,0-.01.645,1.472,1.472,0,0,0,.322.9A1.035,1.035,0,0,0,29.715,9.365ZM35.843,10a1.184,1.184,0,0,1-.034-.278l.015-.278a2.166,2.166,0,0,1-1.543.654,1.579,1.579,0,0,1-1.135-.442,1.337,1.337,0,0,1-.4-1.082,1.626,1.626,0,0,1,.735-1.311,3.128,3.128,0,0,1,1.8-.471l.923,0,.059-.42a.965.965,0,0,0-.183-.75.884.884,0,0,0-.7-.286,1.363,1.363,0,0,0-.8.222.946.946,0,0,0-.427.613l-.889,0a1.416,1.416,0,0,1,.361-.823,2.1,2.1,0,0,1,.815-.557,2.634,2.634,0,0,1,1.03-.188,1.752,1.752,0,0,1,1.284.5,1.552,1.552,0,0,1,.386,1.277l-.43,2.617-.024.376a1.843,1.843,0,0,0,.059.532l-.01.083Zm-1.387-.684a1.541,1.541,0,0,0,.8-.2,2.034,2.034,0,0,0,.652-.588l.19-1.089-.669,0a2.534,2.534,0,0,0-1.279.264.971.971,0,0,0-.5.747.756.756,0,0,0,.173.618A.826.826,0,0,0,34.456,9.316Zm5.376-1.753-.693.62L38.826,10h-.884l1.3-7.5h.884l-.781,4.482.542-.547,1.875-1.719h1.147L40.486,6.968,42.156,10h-.967ZM45.091,10.1a1.9,1.9,0,0,1-1.543-.728,2.5,2.5,0,0,1-.469-1.812l.024-.21a3.515,3.515,0,0,1,.466-1.436,2.712,2.712,0,0,1,.935-.979A2.182,2.182,0,0,1,45.7,4.619a1.68,1.68,0,0,1,1.279.542,2.229,2.229,0,0,1,.508,1.416,4.138,4.138,0,0,1-.02.635l-.054.405H43.958a1.785,1.785,0,0,0,.237,1.221,1.122,1.122,0,0,0,.969.522,1.88,1.88,0,0,0,1.445-.7l.508.43a2.324,2.324,0,0,1-.857.75A2.429,2.429,0,0,1,45.091,10.1Zm.562-4.741a1.291,1.291,0,0,0-.955.371,2.638,2.638,0,0,0-.647,1.147l2.568,0,.02-.078a1.445,1.445,0,0,0-.2-1.023A.93.93,0,0,0,45.652,5.356Zm5.61,3.213q.073-.547-.6-.771l-.918-.269q-1.162-.4-1.123-1.328a1.463,1.463,0,0,1,.637-1.145,2.269,2.269,0,0,1,1.418-.437,1.892,1.892,0,0,1,1.3.466,1.477,1.477,0,0,1,.481,1.189l-.879,0a.824.824,0,0,0-.249-.645.985.985,0,0,0-.688-.259,1.287,1.287,0,0,0-.791.225.822.822,0,0,0-.356.576q-.063.459.562.669l.444.122a2.861,2.861,0,0,1,1.289.61,1.166,1.166,0,0,1,.352.933,1.481,1.481,0,0,1-.322.859,1.843,1.843,0,0,1-.781.559A2.613,2.613,0,0,1,50,10.1a2.061,2.061,0,0,1-1.387-.491,1.517,1.517,0,0,1-.527-1.238l.884,0a.937.937,0,0,0,.283.713,1.082,1.082,0,0,0,.776.269,1.523,1.523,0,0,0,.835-.2A.78.78,0,0,0,51.263,8.569Z" transform="translate(-3541 -9554)" fill="#12263f"/>
    <path id="Trazado_230665" data-name="Trazado 230665" d="M21.277,8.75l1.685-4.033h.913L21.468,10H20.75L20.2,6.006,18.3,10h-.718L17.01,4.717h.845l.322,3.936,1.875-3.936h.713ZM27.107,10a1.183,1.183,0,0,1-.034-.278l.015-.278a2.166,2.166,0,0,1-1.543.654,1.579,1.579,0,0,1-1.135-.442,1.337,1.337,0,0,1-.4-1.082,1.626,1.626,0,0,1,.735-1.311,3.128,3.128,0,0,1,1.8-.471l.923,0,.059-.42a.965.965,0,0,0-.183-.75.884.884,0,0,0-.7-.286,1.363,1.363,0,0,0-.8.222.946.946,0,0,0-.427.613l-.889,0a1.416,1.416,0,0,1,.361-.823,2.1,2.1,0,0,1,.815-.557,2.634,2.634,0,0,1,1.03-.188,1.752,1.752,0,0,1,1.284.5,1.552,1.552,0,0,1,.386,1.277l-.43,2.617-.024.376a1.843,1.843,0,0,0,.059.532l-.01.083Zm-1.387-.684a1.541,1.541,0,0,0,.8-.2,2.034,2.034,0,0,0,.652-.588l.19-1.089-.669,0a2.534,2.534,0,0,0-1.279.264.971.971,0,0,0-.5.747.756.756,0,0,0,.173.618A.826.826,0,0,0,25.721,9.316ZM29.632,10l.8-4.585h-.811l.122-.7h.811l.088-.62a2.022,2.022,0,0,1,.737-1.348,1.859,1.859,0,0,1,1.191-.371,3.771,3.771,0,0,1,.625.087l-.107.738a2.43,2.43,0,0,0-.479-.059,1.021,1.021,0,0,0-.73.269,1.3,1.3,0,0,0-.364.774l-.083.529h1.895l.073-.522a2.143,2.143,0,0,1,.645-1.35,1.907,1.907,0,0,1,1.353-.461,5.88,5.88,0,0,1,.972.117l.933.2L36.058,10h-.884L36.36,3.257a6.153,6.153,0,0,0-.923-.107q-1-.01-1.167,1.1l-.068.465h1.1l-.127.7H34.085L33.289,10h-.884l.8-4.585h-1.89L30.516,10Zm10.186.1a1.9,1.9,0,0,1-1.543-.728,2.5,2.5,0,0,1-.469-1.812l.024-.21A3.515,3.515,0,0,1,38.3,5.913a2.712,2.712,0,0,1,.935-.979,2.182,2.182,0,0,1,1.191-.315,1.68,1.68,0,0,1,1.279.542,2.229,2.229,0,0,1,.508,1.416,4.138,4.138,0,0,1-.02.635l-.054.405H38.685a1.785,1.785,0,0,0,.237,1.221,1.122,1.122,0,0,0,.969.522,1.88,1.88,0,0,0,1.445-.7l.508.43a2.324,2.324,0,0,1-.857.75A2.429,2.429,0,0,1,39.817,10.1Zm.562-4.741a1.291,1.291,0,0,0-.955.371,2.638,2.638,0,0,0-.647,1.147l2.568,0,.02-.078a1.445,1.445,0,0,0-.2-1.023A.93.93,0,0,0,40.379,5.356Zm5.61,3.213q.073-.547-.6-.771l-.918-.269q-1.162-.4-1.123-1.328a1.463,1.463,0,0,1,.637-1.145A2.269,2.269,0,0,1,45.4,4.619a1.892,1.892,0,0,1,1.3.466,1.477,1.477,0,0,1,.481,1.189l-.879,0a.824.824,0,0,0-.249-.645.985.985,0,0,0-.688-.259,1.287,1.287,0,0,0-.791.225.822.822,0,0,0-.356.576q-.063.459.562.669l.444.122a2.861,2.861,0,0,1,1.289.61,1.166,1.166,0,0,1,.352.933,1.481,1.481,0,0,1-.322.859,1.843,1.843,0,0,1-.781.559,2.613,2.613,0,0,1-1.04.178,2.061,2.061,0,0,1-1.387-.491,1.517,1.517,0,0,1-.527-1.238l.884,0a.937.937,0,0,0,.283.713,1.082,1.082,0,0,0,.776.269,1.523,1.523,0,0,0,.835-.2A.78.78,0,0,0,45.989,8.569Z" transform="translate(-3541 -9625)" fill="#12263f"/>
    <path id="Trazado_230666" data-name="Trazado 230666" d="M23.826,10.1a1.9,1.9,0,0,1-1.543-.728,2.5,2.5,0,0,1-.469-1.812l.024-.21a3.515,3.515,0,0,1,.466-1.436,2.712,2.712,0,0,1,.935-.979,2.182,2.182,0,0,1,1.191-.315,1.68,1.68,0,0,1,1.279.542,2.229,2.229,0,0,1,.508,1.416,4.138,4.138,0,0,1-.02.635l-.054.405H22.693a1.785,1.785,0,0,0,.237,1.221,1.122,1.122,0,0,0,.969.522,1.88,1.88,0,0,0,1.445-.7l.508.43a2.324,2.324,0,0,1-.857.75A2.429,2.429,0,0,1,23.826,10.1Zm.562-4.741a1.291,1.291,0,0,0-.955.371,2.638,2.638,0,0,0-.647,1.147l2.568,0,.02-.078a1.445,1.445,0,0,0-.2-1.023A.93.93,0,0,0,24.388,5.356Zm2.6,1.992a4.306,4.306,0,0,1,.466-1.5A2.439,2.439,0,0,1,28.3,4.9a1.97,1.97,0,0,1,1.1-.291,1.625,1.625,0,0,1,1.387.693l.176-.591h.811l-.879,5.171a2.57,2.57,0,0,1-.82,1.619,2.311,2.311,0,0,1-1.675.579,2.378,2.378,0,0,1-1.028-.254,1.954,1.954,0,0,1-.774-.669l.5-.542A1.585,1.585,0,0,0,29.429,11a1.814,1.814,0,0,0,.579-1.055l.1-.469A2,2,0,0,1,28.6,10.1a1.554,1.554,0,0,1-.857-.266,1.618,1.618,0,0,1-.564-.728,2.974,2.974,0,0,1-.22-1.062A5.458,5.458,0,0,1,26.985,7.349Zm.854.5a1.859,1.859,0,0,0,.242,1.08.913.913,0,0,0,.774.4,1.6,1.6,0,0,0,1.362-.775l.415-2.424a1.11,1.11,0,0,0-1.06-.751,1.371,1.371,0,0,0-1.179.585A3.049,3.049,0,0,0,27.85,7.6Zm4.639-.5a4.306,4.306,0,0,1,.466-1.5,2.439,2.439,0,0,1,.85-.942,1.97,1.97,0,0,1,1.1-.291,1.625,1.625,0,0,1,1.387.693l.176-.591h.811l-.879,5.171a2.57,2.57,0,0,1-.82,1.619,2.311,2.311,0,0,1-1.675.579,2.378,2.378,0,0,1-1.028-.254,1.954,1.954,0,0,1-.774-.669l.5-.542A1.585,1.585,0,0,0,34.922,11,1.814,1.814,0,0,0,35.5,9.941l.1-.469a2,2,0,0,1-1.509.625,1.554,1.554,0,0,1-.857-.266,1.618,1.618,0,0,1-.564-.728,2.974,2.974,0,0,1-.22-1.062A5.458,5.458,0,0,1,32.479,7.349Zm.854.5a1.859,1.859,0,0,0,.242,1.08.913.913,0,0,0,.774.4,1.6,1.6,0,0,0,1.362-.775l.415-2.424a1.11,1.11,0,0,0-1.06-.751,1.371,1.371,0,0,0-1.179.585A3.049,3.049,0,0,0,33.343,7.6Zm7.651.721q.073-.547-.6-.771l-.918-.269Q38.3,7.129,38.343,6.2a1.463,1.463,0,0,1,.637-1.145A2.269,2.269,0,0,1,40.4,4.619a1.892,1.892,0,0,1,1.3.466,1.477,1.477,0,0,1,.481,1.189l-.879,0a.824.824,0,0,0-.249-.645.985.985,0,0,0-.688-.259,1.287,1.287,0,0,0-.791.225.822.822,0,0,0-.356.576q-.063.459.562.669l.444.122a2.861,2.861,0,0,1,1.289.61,1.166,1.166,0,0,1,.352.933,1.481,1.481,0,0,1-.322.859,1.843,1.843,0,0,1-.781.559,2.613,2.613,0,0,1-1.04.178,2.061,2.061,0,0,1-1.387-.491,1.517,1.517,0,0,1-.527-1.238l.884,0a.937.937,0,0,0,.283.713,1.082,1.082,0,0,0,.776.269,1.523,1.523,0,0,0,.835-.2A.78.78,0,0,0,40.984,8.569Z" transform="translate(-3446 -9625)" fill="#12263f"/>
    <path id="Trazado_230664" data-name="Trazado 230664" d="M11.38,10l1.235-7.109,2.085,0a2.37,2.37,0,0,1,1.631.488A1.563,1.563,0,0,1,16.8,4.746a1.848,1.848,0,0,1-1.284,1.538,1.323,1.323,0,0,1,.715.635,1.774,1.774,0,0,1,.193.991,2.074,2.074,0,0,1-.771,1.526A2.785,2.785,0,0,1,13.851,10Zm1.494-3.325L12.43,9.229l1.45,0a1.737,1.737,0,0,0,1.113-.356,1.386,1.386,0,0,0,.522-.96,1.138,1.138,0,0,0-.2-.9,1.091,1.091,0,0,0-.845-.341Zm.132-.752,1.323,0a1.7,1.7,0,0,0,1.047-.318,1.247,1.247,0,0,0,.5-.876.894.894,0,0,0-.2-.783,1.3,1.3,0,0,0-.881-.289l-1.4,0Zm7.612-.4L20.2,5.479a1.512,1.512,0,0,0-1.338.767L18.216,10h-.884l.918-5.283.854,0-.132.615A1.58,1.58,0,0,1,20.3,4.609a1.621,1.621,0,0,1,.42.073ZM22.854,10.1a1.9,1.9,0,0,1-1.543-.728,2.5,2.5,0,0,1-.469-1.812l.024-.21a3.515,3.515,0,0,1,.466-1.436,2.712,2.712,0,0,1,.935-.979,2.182,2.182,0,0,1,1.191-.315,1.68,1.68,0,0,1,1.279.542,2.229,2.229,0,0,1,.508,1.416,4.138,4.138,0,0,1-.02.635l-.054.405H21.722a1.785,1.785,0,0,0,.237,1.221,1.122,1.122,0,0,0,.969.522,1.88,1.88,0,0,0,1.445-.7l.508.43a2.324,2.324,0,0,1-.857.75A2.429,2.429,0,0,1,22.854,10.1Zm.562-4.741a1.291,1.291,0,0,0-.955.371,2.638,2.638,0,0,0-.647,1.147l2.568,0L24.4,6.8a1.445,1.445,0,0,0-.2-1.023A.93.93,0,0,0,23.416,5.356ZM28.987,10a1.183,1.183,0,0,1-.034-.278l.015-.278a2.166,2.166,0,0,1-1.543.654,1.579,1.579,0,0,1-1.135-.442,1.337,1.337,0,0,1-.4-1.082,1.626,1.626,0,0,1,.735-1.311,3.128,3.128,0,0,1,1.8-.471l.923,0,.059-.42a.965.965,0,0,0-.183-.75.884.884,0,0,0-.7-.286,1.363,1.363,0,0,0-.8.222.946.946,0,0,0-.427.613l-.889,0a1.416,1.416,0,0,1,.361-.823,2.1,2.1,0,0,1,.815-.557,2.634,2.634,0,0,1,1.03-.188,1.752,1.752,0,0,1,1.284.5,1.552,1.552,0,0,1,.386,1.277l-.43,2.617-.024.376a1.843,1.843,0,0,0,.059.532l-.01.083ZM27.6,9.316a1.541,1.541,0,0,0,.8-.2,2.034,2.034,0,0,0,.652-.588l.19-1.089-.669,0A2.534,2.534,0,0,0,27.3,7.7a.971.971,0,0,0-.5.747.756.756,0,0,0,.173.618A.826.826,0,0,0,27.6,9.316Zm5.376-1.753-.693.62L31.971,10h-.884l1.3-7.5h.884l-.781,4.482.542-.547L34.91,4.717h1.147L33.631,6.968,35.3,10h-.967ZM36.478,10l.8-4.585h-.815l.122-.7H37.4l.088-.625A2.074,2.074,0,0,1,38.1,2.847a1.829,1.829,0,0,1,1.309-.459,3.053,3.053,0,0,1,.63.084l-.107.742a2.9,2.9,0,0,0-.474-.059,1.009,1.009,0,0,0-.745.285,1.3,1.3,0,0,0-.354.757l-.078.521h1.094l-.122.7H38.157L37.361,10ZM42.7,10a1.184,1.184,0,0,1-.034-.278l.015-.278a2.166,2.166,0,0,1-1.543.654A1.579,1.579,0,0,1,40,9.656a1.337,1.337,0,0,1-.4-1.082,1.626,1.626,0,0,1,.735-1.311,3.128,3.128,0,0,1,1.8-.471l.923,0,.059-.42a.965.965,0,0,0-.183-.75.884.884,0,0,0-.7-.286,1.363,1.363,0,0,0-.8.222.946.946,0,0,0-.427.613l-.889,0a1.416,1.416,0,0,1,.361-.823A2.1,2.1,0,0,1,41.3,4.8a2.634,2.634,0,0,1,1.03-.188,1.752,1.752,0,0,1,1.284.5A1.552,1.552,0,0,1,44,6.392l-.43,2.617-.024.376a1.843,1.843,0,0,0,.059.532L43.6,10Zm-1.387-.684a1.541,1.541,0,0,0,.8-.2,2.034,2.034,0,0,0,.652-.588l.19-1.089-.669,0a2.534,2.534,0,0,0-1.279.264.971.971,0,0,0-.5.747.756.756,0,0,0,.173.618A.826.826,0,0,0,41.312,9.316Zm6.753-.747q.073-.547-.6-.771l-.918-.269q-1.162-.4-1.123-1.328a1.463,1.463,0,0,1,.637-1.145,2.269,2.269,0,0,1,1.418-.437,1.892,1.892,0,0,1,1.3.466,1.477,1.477,0,0,1,.481,1.189l-.879,0a.824.824,0,0,0-.249-.645.985.985,0,0,0-.688-.259,1.287,1.287,0,0,0-.791.225.822.822,0,0,0-.356.576q-.063.459.562.669l.444.122a2.861,2.861,0,0,1,1.289.61,1.166,1.166,0,0,1,.352.933,1.481,1.481,0,0,1-.322.859,1.843,1.843,0,0,1-.781.559,2.613,2.613,0,0,1-1.04.178,2.061,2.061,0,0,1-1.387-.491,1.517,1.517,0,0,1-.527-1.238l.884,0a.937.937,0,0,0,.283.713,1.082,1.082,0,0,0,.776.269,1.523,1.523,0,0,0,.835-.2A.78.78,0,0,0,48.064,8.569Zm4.111-5.132-.225,1.279h.962l-.122.7h-.957L51.282,8.7a1.146,1.146,0,0,0,0,.234.372.372,0,0,0,.415.381,2.531,2.531,0,0,0,.43-.049L52.054,10a2.4,2.4,0,0,1-.645.088.923.923,0,0,1-.791-.388,1.5,1.5,0,0,1-.205-1.018l.537-3.271h-.933l.122-.7h.933L51.3,3.438Z" transform="translate(-3541 -9745)" fill="#12263f"/>
  </g>
</svg>
