<svg xmlns="http://www.w3.org/2000/svg" xmlns:xlink="http://www.w3.org/1999/xlink" width="555" height="402" viewBox="0 0 555 402">
  <defs>
    <clipPath id="clip-path">
      <rect id="Rectángulo_304882" data-name="Rectángulo 304882" width="26.615" height="119.851" fill="none" stroke="#0f2771" stroke-width="1"/>
    </clipPath>
    <clipPath id="clip-path-2">
      <rect id="Rectángulo_304884" data-name="Rectángulo 304884" width="19.454" height="9.872" transform="translate(0 0)" fill="#0f2771" stroke="#0f2771" stroke-width="1"/>
    </clipPath>
    <clipPath id="clip-path-3">
      <rect id="Rectángulo_304884-2" data-name="Rectángulo 304884" width="44.551" height="9.872" fill="#0f2771" stroke="#0f2771" stroke-width="1"/>
    </clipPath>
    <clipPath id="clip-path-7">
      <rect id="Rectángulo_304884-6" data-name="Rectángulo 304884" width="36.454" height="9.872" transform="translate(-17 0)" fill="#0f2771" stroke="#0f2771" stroke-width="1"/>
    </clipPath>
  </defs>
  <g id="Grupo_225040" data-name="Grupo 225040" transform="translate(3839 10470)">
    <path id="Trazado_231360" data-name="Trazado 231360" d="M0,0H510V2H0Z" transform="translate(-3794 -10470)" fill="#4dd0e1" opacity="0.2"/>
    <path id="Trazado_231361" data-name="Trazado 231361" d="M0,0H510V2H0Z" transform="translate(-3794 -10070)" fill="#4dd0e1" opacity="0.2"/>
    <path id="Trazado_231362" data-name="Trazado 231362" d="M0,0H190V402H0Z" transform="translate(-3474 -10470)" fill="#4dd0e1"/>
    <path id="metaverso-nft-ob-01-1" d="M15,0H529a15,15,0,0,1,15,15V369a15,15,0,0,1-15,15H15A15,15,0,0,1,0,369V15A15,15,0,0,1,15,0Z" transform="translate(-3839 -10461)" fill="#fff"/>
    <g id="Trazado_231363" data-name="Trazado 231363" transform="translate(-3622.5 -10278)" fill="#f6f6f6">
      <path d="M 78 122 L 2 122 L 2 2 L 78 2 L 78 122 Z" stroke="none"/>
      <path d="M 4 4 L 4 120 L 76 120 L 76 4 L 4 4 M 0 0 L 80 0 L 80 124 L 0 124 L 0 0 Z" stroke="none" fill="#0f2771"/>
    </g>
    <path id="Trazado_229776" data-name="Trazado 229776" d="M2653-6588.691h75.8" transform="translate(-6273 -3600)" fill="none" stroke="#0f2771" stroke-width="4"/>
    <path id="Trazado_229775" data-name="Trazado 229775" d="M2677.809-6790.146h28.042" transform="translate(-6274.309 -3600)" fill="none" stroke="#0f2771" stroke-width="4"/>
    <path id="Trazado_229777" data-name="Trazado 229777" d="M2691.83-6790.146v114.715" transform="translate(-6274.33 -3600)" fill="none" stroke="#0f2771" stroke-width="4"/>
    <path id="Trazado_229775-2" data-name="Trazado 229775" d="M2677.809-6790.146h28.042" transform="translate(-890.649 -16898.578) rotate(180)" fill="none" stroke="#0f2771" stroke-width="4"/>
    <path id="Trazado_229777-2" data-name="Trazado 229777" d="M2691.83-6790.146v47.662" transform="translate(-890.628 -16898.578) rotate(180)" fill="none" stroke="#0f2771" stroke-width="4"/>
    <g id="Trazado_231364" data-name="Trazado 231364" transform="translate(-3587.5 -10434)" fill="#fff">
      <path d="M 4.5 8 C 2.570090055465698 8 1 6.429910182952881 1 4.5 C 1 2.570090055465698 2.570090055465698 1 4.5 1 C 6.429910182952881 1 8 2.570090055465698 8 4.5 C 8 6.429910182952881 6.429910182952881 8 4.5 8 Z" stroke="none"/>
      <path d="M 4.5 2 C 3.121500015258789 2 2 3.121500015258789 2 4.5 C 2 5.878499984741211 3.121500015258789 7 4.5 7 C 5.878499984741211 7 7 5.878499984741211 7 4.5 C 7 3.121500015258789 5.878499984741211 2 4.5 2 M 4.5 0 C 6.98528003692627 0 9 2.01471996307373 9 4.5 C 9 6.98528003692627 6.98528003692627 9 4.5 9 C 2.01471996307373 9 0 6.98528003692627 0 4.5 C 0 2.01471996307373 2.01471996307373 0 4.5 0 Z" stroke="none" fill="#0f2771"/>
    </g>
    <g id="Grupo_220004" data-name="Grupo 220004" transform="translate(-3658.5 -10275.432)" clip-path="url(#clip-path)">
      <path id="Trazado_229778" data-name="Trazado 229778" d="M26.084,117.8s-15.648,5.921-13.956-21.145S11.7,67.6,2.4,59.928" fill="none" stroke="#0f2771" stroke-miterlimit="10" stroke-width="3"/>
      <path id="Trazado_229779" data-name="Trazado 229779" d="M23.683.549S8.035-5.373,9.727,21.694,9.3,50.749,0,58.424" transform="translate(2.401 1.504)" fill="none" stroke="#0f2771" stroke-miterlimit="10" stroke-width="3"/>
    </g>
    <g id="Trazado_231365" data-name="Trazado 231365" transform="translate(-3658.5 -10217)" fill="#0f2771">
      <path d="M 3.5 2.5 L 0.5 2.5 L 0.5 0.5 L 3.5 0.5 L 3.5 2.5 Z" stroke="none"/>
      <path d="M 1 1 L 1 2 L 3 2 L 3 1 L 1 1 M 0 0 L 4 0 L 4 3 L 0 3 L 0 0 Z" stroke="none" fill="#0f2771"/>
    </g>
    <g id="Grupo_220007" data-name="Grupo 220007" transform="translate(-3534.5 -10280.367)">
      <g id="Grupo_220006" data-name="Grupo 220006" clip-path="url(#clip-path-2)">
        <line id="Línea_621" data-name="Línea 621" x1="12.35" transform="translate(7.104 4.936)" fill="none" stroke="#0f2771" stroke-miterlimit="10" stroke-width="3"/>
      </g>
    </g>
    <path id="Trazado_229780" data-name="Trazado 229780" d="M8.548,0,0,4.936,8.548,9.872Z" transform="translate(-3534.5 -10280.367)" fill="#0f2771" stroke="#0f2771" stroke-width="1"/>
    <g id="Grupo_220007-2" data-name="Grupo 220007" transform="translate(-3559.597 -10395.083)">
      <g id="Grupo_220006-2" data-name="Grupo 220006" clip-path="url(#clip-path-3)">
        <line id="Línea_621-2" data-name="Línea 621" x1="36.953" transform="translate(7.597 4.936)" fill="none" stroke="#0f2771" stroke-miterlimit="10" stroke-width="3"/>
      </g>
    </g>
    <path id="Trazado_229780-2" data-name="Trazado 229780" d="M8.548,0,0,4.936,8.548,9.872Z" transform="translate(-3559.597 -10395.083)" fill="#0f2771" stroke="#0f2771" stroke-width="1"/>
    <g id="Grupo_220007-3" data-name="Grupo 220007" transform="translate(-3559.597 -10434)">
      <g id="Grupo_220006-3" data-name="Grupo 220006" clip-path="url(#clip-path-3)">
        <line id="Línea_621-3" data-name="Línea 621" x1="36.953" transform="translate(7.597 4.936)" fill="none" stroke="#0f2771" stroke-miterlimit="10" stroke-width="3"/>
      </g>
    </g>
    <path id="Trazado_229780-3" data-name="Trazado 229780" d="M8.548,0,0,4.936,8.548,9.872Z" transform="translate(-3559.597 -10434)" fill="#0f2771" stroke="#0f2771" stroke-width="1"/>
    <g id="Grupo_220007-4" data-name="Grupo 220007" transform="translate(-3534.5 -10193.627)">
      <g id="Grupo_220006-4" data-name="Grupo 220006" clip-path="url(#clip-path-2)">
        <line id="Línea_621-4" data-name="Línea 621" x1="12.35" transform="translate(7.104 4.936)" fill="none" stroke="#0f2771" stroke-miterlimit="10" stroke-width="3"/>
      </g>
    </g>
    <path id="Trazado_229780-4" data-name="Trazado 229780" d="M8.548,0,0,4.936,8.548,9.872Z" transform="translate(-3534.5 -10193.627)" fill="#0f2771" stroke="#0f2771" stroke-width="1"/>
    <g id="Grupo_220007-5" data-name="Grupo 220007" transform="translate(-3534.5 -10161.03)">
      <g id="Grupo_220006-5" data-name="Grupo 220006" clip-path="url(#clip-path-2)">
        <line id="Línea_621-5" data-name="Línea 621" x1="12.35" transform="translate(7.104 4.936)" fill="none" stroke="#0f2771" stroke-miterlimit="10" stroke-width="3"/>
      </g>
    </g>
    <path id="Trazado_229780-5" data-name="Trazado 229780" d="M8.548,0,0,4.936,8.548,9.872Z" transform="translate(-3534.5 -10161.03)" fill="#0f2771" stroke="#0f2771" stroke-width="1"/>
    <g id="Grupo_220007-6" data-name="Grupo 220007" transform="translate(-3534.5 -10113.368)">
      <g id="Grupo_220006-6" data-name="Grupo 220006" clip-path="url(#clip-path-7)">
        <path id="Trazado_229781" data-name="Trazado 229781" d="M12.35,0H-23.889" transform="translate(7.104 4.936)" fill="none" stroke="#0f2771" stroke-width="3"/>
      </g>
    </g>
    <path id="Trazado_229780-6" data-name="Trazado 229780" d="M8.548,0,0,4.936,8.548,9.872Z" transform="translate(-3559.5 -10113.368)" fill="#0f2771" stroke="#0f2771" stroke-width="1"/>
    <path id="Trazado_231366" data-name="Trazado 231366" d="M4.633,17.156a3.642,3.642,0,0,1-1.887-.523A3.391,3.391,0,0,1,1.484,15.16a5.548,5.548,0,0,1-.508-2.184,10.371,10.371,0,0,1,.211-2.336,8.01,8.01,0,0,1,.891-2.508A5.651,5.651,0,0,1,3.617,6.344a4.43,4.43,0,0,1,2.8-.875A3.365,3.365,0,0,1,9.039,6.621,4.792,4.792,0,0,1,10.07,9.656,11.175,11.175,0,0,1,9.9,11.742a8.636,8.636,0,0,1-.711,2.352,5.869,5.869,0,0,1-1.3,1.82A4.474,4.474,0,0,1,4.633,17.156Zm3.992-7.141a3.942,3.942,0,0,0-.539-2.387A2.052,2.052,0,0,0,6.344,6.75a2.963,2.963,0,0,0-1.871.563A4.258,4.258,0,0,0,3.121,9.09a9.158,9.158,0,0,0-.668,3l-.023.508a3.976,3.976,0,0,0,.547,2.4,2.035,2.035,0,0,0,1.727.9,3.009,3.009,0,0,0,2.449-1.066,6.057,6.057,0,0,0,1.293-3.105A13.993,13.993,0,0,0,8.625,10.016Zm7.734,6.148a3.265,3.265,0,0,1-2.523.992,2.107,2.107,0,0,1-1.793-.867,3.317,3.317,0,0,1-.434-2.281l.906-5.461H13.93l-.914,5.484A3.643,3.643,0,0,0,13,14.7a1.4,1.4,0,0,0,.336.883,1.146,1.146,0,0,0,.828.344A2.537,2.537,0,0,0,16.508,14.7L17.57,8.547h1.414L17.516,17H16.18Zm7-9.664L23,8.547h1.539l-.2,1.117H22.813l-.883,5.258a1.833,1.833,0,0,0-.008.375.6.6,0,0,0,.664.609,4.05,4.05,0,0,0,.688-.078l-.109,1.18a3.847,3.847,0,0,1-1.031.141,1.476,1.476,0,0,1-1.266-.621,2.4,2.4,0,0,1-.328-1.629L21.4,9.664H19.906l.2-1.117h1.492L21.953,6.5ZM26.3,17H24.9L26.977,5h1.414Zm3.844,0H28.742l1.469-8.453h1.406ZM31.313,5.461a.774.774,0,0,1,.6.215.8.8,0,0,1,.238.605.834.834,0,0,1-.836.852.779.779,0,0,1-.6-.211.764.764,0,0,1-.227-.594.886.886,0,0,1,.234-.609A.826.826,0,0,1,31.313,5.461Zm4.8,11.7a3.048,3.048,0,0,1-2.469-1.164,4.006,4.006,0,0,1-.75-2.9l.039-.336a5.624,5.624,0,0,1,.746-2.3,4.339,4.339,0,0,1,1.5-1.566,3.491,3.491,0,0,1,1.906-.5,2.688,2.688,0,0,1,2.047.867,3.566,3.566,0,0,1,.813,2.266,6.621,6.621,0,0,1-.031,1.016l-.086.648H34.3a2.856,2.856,0,0,0,.379,1.953,1.8,1.8,0,0,0,1.551.836,3.007,3.007,0,0,0,2.313-1.125l.813.688a3.718,3.718,0,0,1-1.371,1.2A3.886,3.886,0,0,1,36.117,17.156Zm.9-7.586a2.066,2.066,0,0,0-1.527.594A4.22,4.22,0,0,0,34.453,12l4.109.008.031-.125a2.313,2.313,0,0,0-.316-1.637A1.488,1.488,0,0,0,37.016,9.57Zm9,.266-.664-.07a2.42,2.42,0,0,0-2.141,1.227L42.172,17H40.758l1.469-8.453,1.367-.008-.211.984A2.527,2.527,0,0,1,45.5,8.375a2.594,2.594,0,0,1,.672.117Z" transform="translate(-3510.5 -10439)" fill="#12263f"/>
    <path id="Trazado_231367" data-name="Trazado 231367" d="M4.289,5.625l1.992,9.266L11.5,5.625h1.93L11.453,17H9.992l.781-4.5.93-4.578L6.547,17H5.422L3.391,7.742l-.7,4.906L1.93,17H.461L2.438,5.625ZM19.039,17a1.893,1.893,0,0,1-.055-.445l.023-.445a3.465,3.465,0,0,1-2.469,1.047,2.526,2.526,0,0,1-1.816-.707,2.14,2.14,0,0,1-.637-1.73,2.6,2.6,0,0,1,1.176-2.1,5.005,5.005,0,0,1,2.887-.754l1.477.008.094-.672a1.545,1.545,0,0,0-.293-1.2,1.414,1.414,0,0,0-1.113-.457,2.181,2.181,0,0,0-1.285.355,1.513,1.513,0,0,0-.684.98l-1.422.008A2.266,2.266,0,0,1,15.5,9.574a3.363,3.363,0,0,1,1.3-.891,4.215,4.215,0,0,1,1.648-.3,2.8,2.8,0,0,1,2.055.8,2.484,2.484,0,0,1,.617,2.043l-.687,4.188-.039.6a2.949,2.949,0,0,0,.094.852L20.477,17ZM16.82,15.906a2.466,2.466,0,0,0,1.285-.324,3.254,3.254,0,0,0,1.043-.941l.3-1.742-1.07-.008a4.054,4.054,0,0,0-2.047.422,1.554,1.554,0,0,0-.8,1.2,1.21,1.21,0,0,0,.277.988A1.321,1.321,0,0,0,16.82,15.906Zm9.2-4.281,2.3-3.078h1.734L26.664,12.8,28.727,17H27.188l-1.4-3.156L23.406,17H21.68l3.492-4.344-2-4.109h1.547ZM31.7,17H30.289l1.469-8.453h1.406ZM32.859,5.461a.774.774,0,0,1,.6.215.8.8,0,0,1,.238.605.834.834,0,0,1-.836.852.779.779,0,0,1-.6-.211.764.764,0,0,1-.227-.594.886.886,0,0,1,.234-.609A.826.826,0,0,1,32.859,5.461ZM36.8,8.539l-.18.945a3.305,3.305,0,0,1,2.57-1.094,2.608,2.608,0,0,1,1.363.367,1.8,1.8,0,0,1,.77.992,3.49,3.49,0,0,1,2.8-1.359,2.235,2.235,0,0,1,1.867.852,3.042,3.042,0,0,1,.445,2.2L45.508,17H44.1l.922-5.57a2.943,2.943,0,0,0,0-.742Q44.875,9.625,43.633,9.6a2.136,2.136,0,0,0-1.4.48,2.222,2.222,0,0,0-.809,1.3L40.461,17H39.039l.938-5.562a1.786,1.786,0,0,0-.262-1.336,1.377,1.377,0,0,0-1.129-.484,2.315,2.315,0,0,0-2.1,1.2L35.414,17H34l1.469-8.453Zm16.258,7.625a3.265,3.265,0,0,1-2.523.992,2.107,2.107,0,0,1-1.793-.867,3.317,3.317,0,0,1-.434-2.281l.906-5.461h1.414l-.914,5.484a3.642,3.642,0,0,0-.016.672,1.4,1.4,0,0,0,.336.883,1.146,1.146,0,0,0,.828.344A2.537,2.537,0,0,0,53.2,14.7l1.063-6.156H55.68L54.211,17H52.875Zm6.055-7.625-.18.945A3.305,3.305,0,0,1,61.5,8.391a2.608,2.608,0,0,1,1.363.367,1.8,1.8,0,0,1,.77.992,3.49,3.49,0,0,1,2.8-1.359,2.235,2.235,0,0,1,1.867.852,3.042,3.042,0,0,1,.445,2.2L67.82,17H66.414l.922-5.57a2.943,2.943,0,0,0,0-.742Q67.187,9.625,65.945,9.6a2.136,2.136,0,0,0-1.4.48,2.222,2.222,0,0,0-.809,1.3L62.773,17H61.352l.938-5.562a1.786,1.786,0,0,0-.262-1.336A1.377,1.377,0,0,0,60.9,9.617a2.315,2.315,0,0,0-2.1,1.2L57.727,17H56.313l1.469-8.453Z" transform="translate(-3510.5 -10400)" fill="#12263f"/>
    <path id="Trazado_231368" data-name="Trazado 231368" d="M3.25,10.609l.938.008a2.769,2.769,0,0,0,1.738-.543A2.058,2.058,0,0,0,6.734,8.6,1.814,1.814,0,0,0,6.4,7.176a1.613,1.613,0,0,0-1.273-.535,2.175,2.175,0,0,0-1.512.52A2.294,2.294,0,0,0,2.852,8.6l-1.4.008a3.241,3.241,0,0,1,1.2-2.285A3.8,3.8,0,0,1,5.2,5.461a3.04,3.04,0,0,1,2.246.895,2.838,2.838,0,0,1,.707,2.277A2.631,2.631,0,0,1,7.531,10.1a4.111,4.111,0,0,1-1.516,1.1,2.248,2.248,0,0,1,1.156.988,2.757,2.757,0,0,1,.32,1.582A3.491,3.491,0,0,1,6.27,16.25a3.844,3.844,0,0,1-2.668.906,3.234,3.234,0,0,1-2.328-.906,2.874,2.874,0,0,1-.8-2.258L1.883,14A1.9,1.9,0,0,0,2.3,15.41a1.8,1.8,0,0,0,1.359.566,2.273,2.273,0,0,0,1.664-.57A2.38,2.38,0,0,0,6.086,13.8a1.741,1.741,0,0,0-.422-1.449A2.127,2.127,0,0,0,4.148,11.8l-1.086-.008Zm20.477,5.8,1.7,1.633-1.086.883-1.984-1.9a5.457,5.457,0,0,1-1.156.125,3.507,3.507,0,0,1-1.883-.52,3.375,3.375,0,0,1-1.262-1.477,5.638,5.638,0,0,1-.5-2.184,10.385,10.385,0,0,1,.207-2.348,7.953,7.953,0,0,1,.871-2.461,5.733,5.733,0,0,1,1.492-1.77,4.44,4.44,0,0,1,2.859-.922A3.69,3.69,0,0,1,24.9,6a3.325,3.325,0,0,1,1.258,1.473,5.684,5.684,0,0,1,.492,2.184,8.388,8.388,0,0,1-.055,1.3l-.094.664A6.3,6.3,0,0,1,23.727,16.406ZM25.2,10.016a3.866,3.866,0,0,0-.539-2.4,2.068,2.068,0,0,0-1.734-.867,2.963,2.963,0,0,0-1.871.563A4.258,4.258,0,0,0,19.7,9.09a9.158,9.158,0,0,0-.668,3l-.023.508a5.045,5.045,0,0,0,.211,1.68,2.307,2.307,0,0,0,.77,1.188,2.169,2.169,0,0,0,1.293.43A2.957,2.957,0,0,0,23.7,14.852a5.983,5.983,0,0,0,1.309-3.086A13.433,13.433,0,0,0,25.2,10.016ZM33,16.164a3.265,3.265,0,0,1-2.523.992,2.107,2.107,0,0,1-1.793-.867,3.317,3.317,0,0,1-.434-2.281l.906-5.461H30.57l-.914,5.484a3.643,3.643,0,0,0-.016.672,1.4,1.4,0,0,0,.336.883,1.146,1.146,0,0,0,.828.344A2.537,2.537,0,0,0,33.148,14.7l1.063-6.156h1.414L34.156,17H32.82ZM41.438,17a1.894,1.894,0,0,1-.055-.445l.023-.445a3.465,3.465,0,0,1-2.469,1.047,2.526,2.526,0,0,1-1.816-.707,2.14,2.14,0,0,1-.637-1.73,2.6,2.6,0,0,1,1.176-2.1,5.005,5.005,0,0,1,2.887-.754l1.477.008.094-.672a1.545,1.545,0,0,0-.293-1.2,1.414,1.414,0,0,0-1.113-.457,2.181,2.181,0,0,0-1.285.355,1.513,1.513,0,0,0-.684.98l-1.422.008A2.266,2.266,0,0,1,37.9,9.574a3.363,3.363,0,0,1,1.3-.891,4.215,4.215,0,0,1,1.648-.3,2.8,2.8,0,0,1,2.055.8,2.484,2.484,0,0,1,.617,2.043l-.687,4.188-.039.6a2.949,2.949,0,0,0,.094.852L42.875,17Zm-2.219-1.094a2.466,2.466,0,0,0,1.285-.324,3.254,3.254,0,0,0,1.043-.941l.3-1.742-1.07-.008a4.054,4.054,0,0,0-2.047.422,1.554,1.554,0,0,0-.8,1.2,1.21,1.21,0,0,0,.277.988A1.321,1.321,0,0,0,39.219,15.906Zm10.828-6.07-.664-.07a2.42,2.42,0,0,0-2.141,1.227L46.2,17H44.789l1.469-8.453,1.367-.008-.211.984a2.527,2.527,0,0,1,2.117-1.148,2.594,2.594,0,0,1,.672.117Zm4.2-3.336-.359,2.047h1.539l-.2,1.117H53.7l-.883,5.258a1.833,1.833,0,0,0-.008.375.6.6,0,0,0,.664.609,4.05,4.05,0,0,0,.688-.078l-.109,1.18a3.847,3.847,0,0,1-1.031.141,1.476,1.476,0,0,1-1.266-.621,2.4,2.4,0,0,1-.328-1.629l.859-5.234H50.789l.2-1.117h1.492L52.836,6.5ZM57.188,17H55.781L57.25,8.547h1.406ZM58.352,5.461a.774.774,0,0,1,.6.215.8.8,0,0,1,.238.605.834.834,0,0,1-.836.852.779.779,0,0,1-.6-.211.764.764,0,0,1-.227-.594.886.886,0,0,1,.234-.609A.826.826,0,0,1,58.352,5.461ZM61.031,17H59.625L61.7,5h1.414ZM67,17.156a3.048,3.048,0,0,1-2.469-1.164,4.006,4.006,0,0,1-.75-2.9l.039-.336a5.624,5.624,0,0,1,.746-2.3,4.339,4.339,0,0,1,1.5-1.566,3.491,3.491,0,0,1,1.906-.5,2.688,2.688,0,0,1,2.047.867,3.566,3.566,0,0,1,.813,2.266,6.62,6.62,0,0,1-.031,1.016l-.086.648H65.188a2.856,2.856,0,0,0,.379,1.953,1.8,1.8,0,0,0,1.551.836,3.007,3.007,0,0,0,2.313-1.125l.813.688a3.718,3.718,0,0,1-1.371,1.2A3.886,3.886,0,0,1,67,17.156Zm.9-7.586a2.066,2.066,0,0,0-1.527.594A4.22,4.22,0,0,0,65.336,12l4.109.008.031-.125a2.313,2.313,0,0,0-.316-1.637A1.488,1.488,0,0,0,67.9,9.57Z" transform="translate(-3510.5 -10285)" fill="#12263f"/>
    <path id="Trazado_231369" data-name="Trazado 231369" d="M6.711,4.418l-.332-.035A1.21,1.21,0,0,0,5.309,5l-.52,3H4.082l.734-4.227.684,0-.105.492a1.264,1.264,0,0,1,1.059-.574,1.3,1.3,0,0,1,.336.059Zm.238,1.461A3.289,3.289,0,0,1,7.3,4.715a2.015,2.015,0,0,1,.684-.777,1.563,1.563,0,0,1,.895-.246,1.32,1.32,0,0,1,1.086.516L10.375,2h.707L10.043,8H9.4l.074-.453a1.558,1.558,0,0,1-1.234.531A1.168,1.168,0,0,1,7.3,7.619,2,2,0,0,1,6.93,6.43,3.8,3.8,0,0,1,6.949,5.879Zm.68.4a1.465,1.465,0,0,0,.2.866.719.719,0,0,0,.617.316,1.277,1.277,0,0,0,1.09-.616L9.871,4.9A.877.877,0,0,0,9.02,4.3a1.072,1.072,0,0,0-.736.252,1.628,1.628,0,0,0-.484.737A3.041,3.041,0,0,0,7.629,6.283Z" transform="translate(-3504.5 -10284)" fill="#12263f"/>
    <path id="Trazado_231370" data-name="Trazado 231370" d="M4.289,5.625l1.992,9.266L11.5,5.625h1.93L11.453,17H9.992l.781-4.5.93-4.578L6.547,17H5.422L3.391,7.742l-.7,4.906L1.93,17H.461L2.438,5.625ZM17.523,17.156a3.048,3.048,0,0,1-2.469-1.164,4.006,4.006,0,0,1-.75-2.9l.039-.336a5.624,5.624,0,0,1,.746-2.3,4.339,4.339,0,0,1,1.5-1.566,3.491,3.491,0,0,1,1.906-.5,2.688,2.688,0,0,1,2.047.867,3.566,3.566,0,0,1,.813,2.266,6.621,6.621,0,0,1-.031,1.016l-.086.648H15.711a2.856,2.856,0,0,0,.379,1.953,1.8,1.8,0,0,0,1.551.836,3.007,3.007,0,0,0,2.313-1.125l.813.688a3.718,3.718,0,0,1-1.371,1.2A3.886,3.886,0,0,1,17.523,17.156Zm.9-7.586a2.066,2.066,0,0,0-1.527.594A4.22,4.22,0,0,0,15.859,12l4.109.008L20,11.883a2.313,2.313,0,0,0-.316-1.637A1.488,1.488,0,0,0,18.422,9.57Zm4.148,3.188a6.578,6.578,0,0,1,.711-2.328,4.03,4.03,0,0,1,1.367-1.555,3.127,3.127,0,0,1,1.789-.492,2.64,2.64,0,0,1,2.172,1.031L29.422,5h1.414L28.758,17H27.469l.148-.906a3.116,3.116,0,0,1-2.469,1.063,2.335,2.335,0,0,1-1.867-.918,4,4,0,0,1-.75-2.379A7.6,7.6,0,0,1,22.57,12.758Zm1.359.808a2.929,2.929,0,0,0,.4,1.732,1.437,1.437,0,0,0,1.234.632,2.554,2.554,0,0,0,2.18-1.233l.672-3.9a1.754,1.754,0,0,0-1.7-1.186,2.143,2.143,0,0,0-1.473.5,3.256,3.256,0,0,0-.969,1.475A6.082,6.082,0,0,0,23.93,13.565ZM32.523,17H31.117l1.469-8.453h1.406ZM33.688,5.461a.774.774,0,0,1,.6.215.8.8,0,0,1,.238.605.834.834,0,0,1-.836.852.779.779,0,0,1-.6-.211.764.764,0,0,1-.227-.594.886.886,0,0,1,.234-.609A.826.826,0,0,1,33.688,5.461ZM40.008,17a1.894,1.894,0,0,1-.055-.445l.023-.445a3.465,3.465,0,0,1-2.469,1.047,2.526,2.526,0,0,1-1.816-.707,2.14,2.14,0,0,1-.637-1.73,2.6,2.6,0,0,1,1.176-2.1,5.005,5.005,0,0,1,2.887-.754l1.477.008.094-.672a1.545,1.545,0,0,0-.293-1.2,1.414,1.414,0,0,0-1.113-.457A2.181,2.181,0,0,0,38,9.9a1.513,1.513,0,0,0-.684.98l-1.422.008a2.266,2.266,0,0,1,.578-1.316,3.363,3.363,0,0,1,1.3-.891,4.215,4.215,0,0,1,1.648-.3,2.8,2.8,0,0,1,2.055.8,2.484,2.484,0,0,1,.617,2.043l-.687,4.188-.039.6a2.949,2.949,0,0,0,.094.852L41.445,17Zm-2.219-1.094a2.466,2.466,0,0,0,1.285-.324,3.254,3.254,0,0,0,1.043-.941l.3-1.742-1.07-.008a4.054,4.054,0,0,0-2.047.422,1.554,1.554,0,0,0-.8,1.2,1.21,1.21,0,0,0,.277.988A1.321,1.321,0,0,0,37.789,15.906Zm8.375-7.367-.2,1.07a3.333,3.333,0,0,1,2.594-1.219,2.1,2.1,0,0,1,1.766.828,3.217,3.217,0,0,1,.422,2.242L49.82,17H48.406l.93-5.557a2.962,2.962,0,0,0,.008-.71,1.168,1.168,0,0,0-1.289-1.116,2.661,2.661,0,0,0-2.234,1.358L44.773,17H43.359l1.469-8.453Z" transform="translate(-3510.5 -10198)" fill="#12263f"/>
    <path id="Trazado_231371" data-name="Trazado 231371" d="M4.719,17H3.3L4.969,7.406,1.945,8.469l.242-1.375L6.406,5.57h.25Zm19.008-.594,1.7,1.633-1.086.883-1.984-1.9a5.457,5.457,0,0,1-1.156.125,3.507,3.507,0,0,1-1.883-.52,3.375,3.375,0,0,1-1.262-1.477,5.638,5.638,0,0,1-.5-2.184,10.385,10.385,0,0,1,.207-2.348,7.953,7.953,0,0,1,.871-2.461,5.733,5.733,0,0,1,1.492-1.77,4.44,4.44,0,0,1,2.859-.922A3.69,3.69,0,0,1,24.9,6a3.325,3.325,0,0,1,1.258,1.473,5.684,5.684,0,0,1,.492,2.184,8.388,8.388,0,0,1-.055,1.3l-.094.664A6.3,6.3,0,0,1,23.727,16.406ZM25.2,10.016a3.866,3.866,0,0,0-.539-2.4,2.068,2.068,0,0,0-1.734-.867,2.963,2.963,0,0,0-1.871.563A4.258,4.258,0,0,0,19.7,9.09a9.158,9.158,0,0,0-.668,3l-.023.508a5.045,5.045,0,0,0,.211,1.68,2.307,2.307,0,0,0,.77,1.188,2.169,2.169,0,0,0,1.293.43A2.957,2.957,0,0,0,23.7,14.852a5.983,5.983,0,0,0,1.309-3.086A13.433,13.433,0,0,0,25.2,10.016ZM33,16.164a3.265,3.265,0,0,1-2.523.992,2.107,2.107,0,0,1-1.793-.867,3.317,3.317,0,0,1-.434-2.281l.906-5.461H30.57l-.914,5.484a3.643,3.643,0,0,0-.016.672,1.4,1.4,0,0,0,.336.883,1.146,1.146,0,0,0,.828.344A2.537,2.537,0,0,0,33.148,14.7l1.063-6.156h1.414L34.156,17H32.82ZM41.438,17a1.894,1.894,0,0,1-.055-.445l.023-.445a3.465,3.465,0,0,1-2.469,1.047,2.526,2.526,0,0,1-1.816-.707,2.14,2.14,0,0,1-.637-1.73,2.6,2.6,0,0,1,1.176-2.1,5.005,5.005,0,0,1,2.887-.754l1.477.008.094-.672a1.545,1.545,0,0,0-.293-1.2,1.414,1.414,0,0,0-1.113-.457,2.181,2.181,0,0,0-1.285.355,1.513,1.513,0,0,0-.684.98l-1.422.008A2.266,2.266,0,0,1,37.9,9.574a3.363,3.363,0,0,1,1.3-.891,4.215,4.215,0,0,1,1.648-.3,2.8,2.8,0,0,1,2.055.8,2.484,2.484,0,0,1,.617,2.043l-.687,4.188-.039.6a2.949,2.949,0,0,0,.094.852L42.875,17Zm-2.219-1.094a2.466,2.466,0,0,0,1.285-.324,3.254,3.254,0,0,0,1.043-.941l.3-1.742-1.07-.008a4.054,4.054,0,0,0-2.047.422,1.554,1.554,0,0,0-.8,1.2,1.21,1.21,0,0,0,.277.988A1.321,1.321,0,0,0,39.219,15.906Zm10.828-6.07-.664-.07a2.42,2.42,0,0,0-2.141,1.227L46.2,17H44.789l1.469-8.453,1.367-.008-.211.984a2.527,2.527,0,0,1,2.117-1.148,2.594,2.594,0,0,1,.672.117Zm4.2-3.336-.359,2.047h1.539l-.2,1.117H53.7l-.883,5.258a1.833,1.833,0,0,0-.008.375.6.6,0,0,0,.664.609,4.05,4.05,0,0,0,.688-.078l-.109,1.18a3.847,3.847,0,0,1-1.031.141,1.476,1.476,0,0,1-1.266-.621,2.4,2.4,0,0,1-.328-1.629l.859-5.234H50.789l.2-1.117h1.492L52.836,6.5ZM57.188,17H55.781L57.25,8.547h1.406ZM58.352,5.461a.774.774,0,0,1,.6.215.8.8,0,0,1,.238.605.834.834,0,0,1-.836.852.779.779,0,0,1-.6-.211.764.764,0,0,1-.227-.594.886.886,0,0,1,.234-.609A.826.826,0,0,1,58.352,5.461ZM61.031,17H59.625L61.7,5h1.414ZM67,17.156a3.048,3.048,0,0,1-2.469-1.164,4.006,4.006,0,0,1-.75-2.9l.039-.336a5.624,5.624,0,0,1,.746-2.3,4.339,4.339,0,0,1,1.5-1.566,3.491,3.491,0,0,1,1.906-.5,2.688,2.688,0,0,1,2.047.867,3.566,3.566,0,0,1,.813,2.266,6.62,6.62,0,0,1-.031,1.016l-.086.648H65.188a2.856,2.856,0,0,0,.379,1.953,1.8,1.8,0,0,0,1.551.836,3.007,3.007,0,0,0,2.313-1.125l.813.688a3.718,3.718,0,0,1-1.371,1.2A3.886,3.886,0,0,1,67,17.156Zm.9-7.586a2.066,2.066,0,0,0-1.527.594A4.22,4.22,0,0,0,65.336,12l4.109.008.031-.125a2.313,2.313,0,0,0-.316-1.637A1.488,1.488,0,0,0,67.9,9.57Z" transform="translate(-3510.5 -10165)" fill="#12263f"/>
    <path id="Trazado_231372" data-name="Trazado 231372" d="M6.932,6.855q.059-.437-.48-.617l-.734-.215q-.93-.32-.9-1.062a1.17,1.17,0,0,1,.51-.916A1.815,1.815,0,0,1,6.463,3.7,1.514,1.514,0,0,1,7.5,4.068a1.182,1.182,0,0,1,.385.951l-.7,0a.66.66,0,0,0-.2-.516.788.788,0,0,0-.551-.207,1.029,1.029,0,0,0-.633.18.658.658,0,0,0-.285.461q-.051.367.449.535l.355.1a2.289,2.289,0,0,1,1.031.488.933.933,0,0,1,.281.746,1.185,1.185,0,0,1-.258.688,1.474,1.474,0,0,1-.625.447,2.09,2.09,0,0,1-.832.143,1.649,1.649,0,0,1-1.109-.393,1.214,1.214,0,0,1-.422-.99l.707,0a.749.749,0,0,0,.227.57.866.866,0,0,0,.621.215,1.218,1.218,0,0,0,.668-.162A.624.624,0,0,0,6.932,6.855ZM10.221,2.75l-.18,1.023h.77l-.1.559H9.947L9.506,6.961a.917.917,0,0,0,0,.188.3.3,0,0,0,.332.3,2.025,2.025,0,0,0,.344-.039L10.123,8a1.923,1.923,0,0,1-.516.07.738.738,0,0,1-.633-.311,1.2,1.2,0,0,1-.164-.814l.43-2.617H8.494l.1-.559h.746l.18-1.023Z" transform="translate(-3506.5 -10164)" fill="#12263f"/>
    <path id="Trazado_231373" data-name="Trazado 231373" d="M4.289,5.625l1.992,9.266L11.5,5.625h1.93L11.453,17H9.992l.781-4.5.93-4.578L6.547,17H5.422L3.391,7.742l-.7,4.906L1.93,17H.461L2.438,5.625ZM15.4,17H13.992l1.469-8.453h1.406ZM16.563,5.461a.774.774,0,0,1,.6.215.8.8,0,0,1,.238.605.834.834,0,0,1-.836.852.779.779,0,0,1-.6-.211.764.764,0,0,1-.227-.594.886.886,0,0,1,.234-.609A.826.826,0,0,1,16.563,5.461Zm3.953,3.078-.2,1.07a3.333,3.333,0,0,1,2.594-1.219,2.1,2.1,0,0,1,1.766.828,3.217,3.217,0,0,1,.422,2.242L24.172,17H22.758l.93-5.557a2.962,2.962,0,0,0,.008-.71,1.168,1.168,0,0,0-1.289-1.116,2.661,2.661,0,0,0-2.234,1.358L19.125,17H17.711L19.18,8.547ZM27.883,17H26.477l1.469-8.453h1.406ZM29.047,5.461a.774.774,0,0,1,.6.215.8.8,0,0,1,.238.605.834.834,0,0,1-.836.852.779.779,0,0,1-.6-.211.764.764,0,0,1-.227-.594.886.886,0,0,1,.234-.609A.826.826,0,0,1,29.047,5.461Zm3.938,3.078-.18.945a3.305,3.305,0,0,1,2.57-1.094,2.608,2.608,0,0,1,1.363.367,1.8,1.8,0,0,1,.77.992,3.49,3.49,0,0,1,2.8-1.359,2.235,2.235,0,0,1,1.867.852,3.042,3.042,0,0,1,.445,2.2L41.7,17H40.289l.922-5.57a2.943,2.943,0,0,0,0-.742Q41.063,9.625,39.82,9.6a2.136,2.136,0,0,0-1.4.48,2.222,2.222,0,0,0-.809,1.3L36.648,17H35.227l.938-5.562A1.786,1.786,0,0,0,35.9,10.1a1.377,1.377,0,0,0-1.129-.484,2.315,2.315,0,0,0-2.1,1.2L31.6,17H30.188l1.469-8.453Zm16.258,7.625a3.265,3.265,0,0,1-2.523.992,2.107,2.107,0,0,1-1.793-.867,3.317,3.317,0,0,1-.434-2.281L45.4,8.547h1.414L45.9,14.031a3.642,3.642,0,0,0-.016.672,1.4,1.4,0,0,0,.336.883,1.146,1.146,0,0,0,.828.344A2.537,2.537,0,0,0,49.391,14.7l1.063-6.156h1.414L50.4,17H49.063ZM55.3,8.539l-.18.945a3.305,3.305,0,0,1,2.57-1.094,2.608,2.608,0,0,1,1.363.367,1.8,1.8,0,0,1,.77.992,3.49,3.49,0,0,1,2.8-1.359,2.235,2.235,0,0,1,1.867.852,3.042,3.042,0,0,1,.445,2.2L64.008,17H62.6l.922-5.57a2.943,2.943,0,0,0,0-.742Q63.375,9.625,62.133,9.6a2.136,2.136,0,0,0-1.4.48,2.222,2.222,0,0,0-.809,1.3L58.961,17H57.539l.938-5.562a1.786,1.786,0,0,0-.262-1.336,1.377,1.377,0,0,0-1.129-.484,2.315,2.315,0,0,0-2.1,1.2L53.914,17H52.5l1.469-8.453Z" transform="translate(-3510.5 -10118)" fill="#12263f"/>
    <path id="Trazado_231374" data-name="Trazado 231374" d="M6.82,17H5.359L7.336,5.625H8.8Zm5.313-8.461-.2,1.07a3.333,3.333,0,0,1,2.594-1.219,2.1,2.1,0,0,1,1.766.828,3.217,3.217,0,0,1,.422,2.242L15.789,17H14.375l.93-5.557a2.962,2.962,0,0,0,.008-.71,1.168,1.168,0,0,0-1.289-1.116,2.661,2.661,0,0,0-2.234,1.358L10.742,17H9.328L10.8,8.547ZM21.7,6.5l-.359,2.047h1.539l-.2,1.117H21.156l-.883,5.258a1.833,1.833,0,0,0-.008.375.6.6,0,0,0,.664.609,4.05,4.05,0,0,0,.688-.078l-.109,1.18a3.847,3.847,0,0,1-1.031.141,1.476,1.476,0,0,1-1.266-.621,2.4,2.4,0,0,1-.328-1.629l.859-5.234H18.25l.2-1.117h1.492L20.3,6.5Zm5.07,10.656A3.048,3.048,0,0,1,24.3,15.992a4.006,4.006,0,0,1-.75-2.9l.039-.336a5.624,5.624,0,0,1,.746-2.3,4.339,4.339,0,0,1,1.5-1.566,3.491,3.491,0,0,1,1.906-.5,2.688,2.688,0,0,1,2.047.867,3.566,3.566,0,0,1,.813,2.266,6.621,6.621,0,0,1-.031,1.016l-.086.648H24.961a2.856,2.856,0,0,0,.379,1.953,1.8,1.8,0,0,0,1.551.836A3.007,3.007,0,0,0,29.2,14.852l.813.688a3.718,3.718,0,0,1-1.371,1.2A3.886,3.886,0,0,1,26.773,17.156Zm.9-7.586a2.066,2.066,0,0,0-1.527.594A4.22,4.22,0,0,0,25.109,12l4.109.008.031-.125a2.313,2.313,0,0,0-.316-1.637A1.488,1.488,0,0,0,27.672,9.57Zm9,.266-.664-.07a2.42,2.42,0,0,0-2.141,1.227L32.828,17H31.414l1.469-8.453,1.367-.008-.211.984a2.527,2.527,0,0,1,2.117-1.148,2.594,2.594,0,0,1,.672.117Zm4.4-1.453a2.643,2.643,0,0,1,2.18,1.023l.258-.859h1.3l-2.031,11.7H41.375l.766-4.031a3.2,3.2,0,0,1-2.359.938,2.356,2.356,0,0,1-1.9-.9,3.929,3.929,0,0,1-.766-2.383,6.918,6.918,0,0,1,.227-2.043,5.907,5.907,0,0,1,.816-1.875,3.641,3.641,0,0,1,1.285-1.2A3.2,3.2,0,0,1,41.07,8.383Zm-2.5,4.539-.039.656a2.963,2.963,0,0,0,.41,1.762,1.458,1.458,0,0,0,1.246.645A2.571,2.571,0,0,0,42.3,14.844l.734-4.156A1.8,1.8,0,0,0,41.352,9.57a2.232,2.232,0,0,0-1.8.82A4.861,4.861,0,0,0,38.57,12.922Zm12.438,3.242a3.265,3.265,0,0,1-2.523.992,2.107,2.107,0,0,1-1.793-.867,3.317,3.317,0,0,1-.434-2.281l.906-5.461h1.414l-.914,5.484a3.642,3.642,0,0,0-.016.672,1.4,1.4,0,0,0,.336.883,1.146,1.146,0,0,0,.828.344A2.537,2.537,0,0,0,51.156,14.7l1.063-6.156h1.414L52.164,17H50.828ZM59.445,17a1.894,1.894,0,0,1-.055-.445l.023-.445a3.465,3.465,0,0,1-2.469,1.047,2.526,2.526,0,0,1-1.816-.707,2.14,2.14,0,0,1-.637-1.73,2.6,2.6,0,0,1,1.176-2.1,5.005,5.005,0,0,1,2.887-.754l1.477.008.094-.672a1.545,1.545,0,0,0-.293-1.2,1.414,1.414,0,0,0-1.113-.457,2.181,2.181,0,0,0-1.285.355,1.513,1.513,0,0,0-.684.98l-1.422.008a2.266,2.266,0,0,1,.578-1.316,3.363,3.363,0,0,1,1.3-.891,4.215,4.215,0,0,1,1.648-.3,2.8,2.8,0,0,1,2.055.8,2.484,2.484,0,0,1,.617,2.043l-.687,4.188-.039.6a2.949,2.949,0,0,0,.094.852L60.883,17Zm-2.219-1.094a2.466,2.466,0,0,0,1.285-.324,3.254,3.254,0,0,0,1.043-.941l.3-1.742-1.07-.008a4.054,4.054,0,0,0-2.047.422,1.554,1.554,0,0,0-.8,1.2,1.21,1.21,0,0,0,.277.988A1.321,1.321,0,0,0,57.227,15.906Zm10.828-6.07-.664-.07a2.42,2.42,0,0,0-2.141,1.227L64.211,17H62.8l1.469-8.453,1.367-.008-.211.984a2.527,2.527,0,0,1,2.117-1.148,2.594,2.594,0,0,1,.672.117ZM72.25,6.5l-.359,2.047H73.43l-.2,1.117H71.7l-.883,5.258a1.833,1.833,0,0,0-.008.375.6.6,0,0,0,.664.609,4.05,4.05,0,0,0,.688-.078l-.109,1.18a3.847,3.847,0,0,1-1.031.141,1.476,1.476,0,0,1-1.266-.621A2.4,2.4,0,0,1,69.43,14.9l.859-5.234H68.8l.2-1.117h1.492L70.844,6.5ZM75.2,17H73.789l1.469-8.453h1.406ZM76.359,5.461a.774.774,0,0,1,.6.215.8.8,0,0,1,.238.605.834.834,0,0,1-.836.852.779.779,0,0,1-.6-.211.764.764,0,0,1-.227-.594.886.886,0,0,1,.234-.609A.826.826,0,0,1,76.359,5.461ZM79.039,17H77.633L79.711,5h1.414Zm5.969.156a3.048,3.048,0,0,1-2.469-1.164,4.006,4.006,0,0,1-.75-2.9l.039-.336a5.624,5.624,0,0,1,.746-2.3,4.339,4.339,0,0,1,1.5-1.566,3.491,3.491,0,0,1,1.906-.5,2.688,2.688,0,0,1,2.047.867,3.566,3.566,0,0,1,.813,2.266,6.62,6.62,0,0,1-.031,1.016l-.086.648H83.2a2.856,2.856,0,0,0,.379,1.953,1.8,1.8,0,0,0,1.551.836,3.007,3.007,0,0,0,2.313-1.125l.813.688a3.718,3.718,0,0,1-1.371,1.2A3.886,3.886,0,0,1,85.008,17.156Zm.9-7.586a2.066,2.066,0,0,0-1.527.594A4.22,4.22,0,0,0,83.344,12l4.109.008.031-.125a2.313,2.313,0,0,0-.316-1.637A1.488,1.488,0,0,0,85.906,9.57ZM98.68,12.406H96.055L95.258,17H93.781L95.758,5.625l3.422.008a3.814,3.814,0,0,1,2.727.907,2.83,2.83,0,0,1,.789,2.448,3.241,3.241,0,0,1-.777,1.885,4.247,4.247,0,0,1-1.84,1.228l1.766,4.8-.008.1h-1.562Zm-2.414-1.234,2.156.008a3.012,3.012,0,0,0,1.9-.6,2.326,2.326,0,0,0,.906-1.6,1.837,1.837,0,0,0-.391-1.531,2.087,2.087,0,0,0-1.547-.586l-2.273-.008ZM108.375,17a1.893,1.893,0,0,1-.055-.445l.023-.445a3.465,3.465,0,0,1-2.469,1.047,2.526,2.526,0,0,1-1.816-.707,2.14,2.14,0,0,1-.637-1.73,2.6,2.6,0,0,1,1.176-2.1,5.005,5.005,0,0,1,2.887-.754l1.477.008.094-.672a1.545,1.545,0,0,0-.293-1.2,1.414,1.414,0,0,0-1.113-.457,2.181,2.181,0,0,0-1.285.355,1.513,1.513,0,0,0-.684.98l-1.422.008a2.266,2.266,0,0,1,.578-1.316,3.363,3.363,0,0,1,1.3-.891,4.215,4.215,0,0,1,1.648-.3,2.8,2.8,0,0,1,2.055.8,2.484,2.484,0,0,1,.617,2.043l-.687,4.188-.039.6a2.949,2.949,0,0,0,.094.852l-.016.133Zm-2.219-1.094a2.466,2.466,0,0,0,1.285-.324,3.254,3.254,0,0,0,1.043-.941l.3-1.742-1.07-.008a4.054,4.054,0,0,0-2.047.422,1.554,1.554,0,0,0-.8,1.2,1.21,1.21,0,0,0,.277.988A1.321,1.321,0,0,0,106.156,15.906Zm8.375-7.367-.2,1.07a3.333,3.333,0,0,1,2.594-1.219,2.1,2.1,0,0,1,1.766.828,3.217,3.217,0,0,1,.422,2.242L118.188,17h-1.414l.93-5.557a2.962,2.962,0,0,0,.008-.71,1.168,1.168,0,0,0-1.289-1.116,2.661,2.661,0,0,0-2.234,1.358L113.141,17h-1.414L113.2,8.547Zm6.25,4.219a6.889,6.889,0,0,1,.746-2.4,3.9,3.9,0,0,1,1.359-1.508,3.151,3.151,0,0,1,1.754-.465,2.6,2.6,0,0,1,2.219,1.109l.281-.945h1.3l-1.406,8.273a4.113,4.113,0,0,1-1.312,2.59,3.7,3.7,0,0,1-2.68.926,3.8,3.8,0,0,1-1.645-.406,3.127,3.127,0,0,1-1.238-1.07l.8-.867a2.536,2.536,0,0,0,3.73.6,2.9,2.9,0,0,0,.926-1.687l.156-.75a3.2,3.2,0,0,1-2.414,1,2.486,2.486,0,0,1-1.371-.426,2.589,2.589,0,0,1-.9-1.164,4.759,4.759,0,0,1-.352-1.7A8.734,8.734,0,0,1,120.781,12.758Zm1.367.8a2.974,2.974,0,0,0,.387,1.728,1.461,1.461,0,0,0,1.238.644,2.561,2.561,0,0,0,2.18-1.241l.664-3.878a1.776,1.776,0,0,0-1.7-1.2,2.194,2.194,0,0,0-1.887.936,4.878,4.878,0,0,0-.871,2.614Zm10.664,3.6a3.048,3.048,0,0,1-2.469-1.164,4.006,4.006,0,0,1-.75-2.9l.039-.336a5.624,5.624,0,0,1,.746-2.3,4.339,4.339,0,0,1,1.5-1.566,3.491,3.491,0,0,1,1.906-.5,2.688,2.688,0,0,1,2.047.867,3.566,3.566,0,0,1,.813,2.266,6.621,6.621,0,0,1-.031,1.016l-.086.648H131a2.855,2.855,0,0,0,.379,1.953,1.8,1.8,0,0,0,1.551.836,3.007,3.007,0,0,0,2.313-1.125l.813.688a3.718,3.718,0,0,1-1.371,1.2A3.886,3.886,0,0,1,132.813,17.156Zm.9-7.586a2.066,2.066,0,0,0-1.527.594A4.22,4.22,0,0,0,131.148,12l4.109.008.031-.125a2.313,2.313,0,0,0-.316-1.637A1.488,1.488,0,0,0,133.711,9.57Z" transform="translate(-3692 -10142) rotate(-90)" fill="#12263f"/>
  </g>
</svg>
