<svg id="Grupo_225371" data-name="Grupo 225371" xmlns="http://www.w3.org/2000/svg" xmlns:xlink="http://www.w3.org/1999/xlink" width="134.049" height="79.985" viewBox="0 0 134.049 79.985">
  <defs>
    <clipPath id="clip-path">
      <rect id="Rectángulo_44218" data-name="Rectángulo 44218" width="134.049" height="79.985" fill="none"/>
    </clipPath>
    <clipPath id="clip-path-3">
      <rect id="Rectángulo_44208" data-name="Rectángulo 44208" width="1.18" height="1.18" fill="none"/>
    </clipPath>
    <clipPath id="clip-path-4">
      <path id="Trazado_199663" data-name="Trazado 199663" d="M34.236,25.918a.59.59,0,1,1-.738-.39.59.59,0,0,1,.738.39" transform="translate(-33.082 -25.502)" fill="none" clip-rule="evenodd"/>
    </clipPath>
    <linearGradient id="linear-gradient" x1="-26.448" y1="28.123" x2="-25.644" y2="28.123" gradientUnits="objectBoundingBox">
      <stop offset="0" stop-color="#f8f0f4"/>
      <stop offset="0.983" stop-color="#cec4de"/>
      <stop offset="1" stop-color="#cec4de"/>
    </linearGradient>
    <clipPath id="clip-path-5">
      <path id="Trazado_199664" data-name="Trazado 199664" d="M.387,49.355s1.418,9.116,11.9,18.272c0,0,9.2,7.051,27.392,7.063h.1a87.778,87.778,0,0,0,25.872-4.218c32.766-10.127,43.4-32.369,43.4-32.369a43.723,43.723,0,0,0-1.439-21.885Z" transform="translate(-0.387 -16.217)" fill="none"/>
    </clipPath>
    <clipPath id="clip-path-6">
      <path id="Trazado_199665" data-name="Trazado 199665" d="M46.734,11.949C19.683,20.31.074,36.161,0,48.913v.145A11.648,11.648,0,0,0,.513,52.44c4.083,13.211,31.4,16.5,61.005,7.352s50.3-27.279,46.22-40.49c-2.522-8.158-13.9-12.533-29.2-12.532a109.837,109.837,0,0,0-31.8,5.179" transform="translate(0 -6.77)" fill="none"/>
    </clipPath>
    <clipPath id="clip-path-7">
      <path id="Trazado_199666" data-name="Trazado 199666" d="M53.6,4.154,40.8,37.175,95.342,9.336C87.534,4.1,77.226,2.778,68.808,2.778A82.95,82.95,0,0,0,53.6,4.154" transform="translate(-40.802 -2.778)" fill="none"/>
    </clipPath>
    <clipPath id="clip-path-8">
      <path id="Trazado_199667" data-name="Trazado 199667" d="M45.21,5.671,40.8,36.836,53.6,3.815Z" transform="translate(-40.802 -3.815)" fill="none"/>
    </clipPath>
    <clipPath id="clip-path-10">
      <path id="Trazado_199761" data-name="Trazado 199761" d="M40.8,35.561l48.363,5.695s21.06-19.8,6.176-33.534Z" transform="translate(-40.802 -7.722)" fill="none"/>
    </clipPath>
    <clipPath id="clip-path-12">
      <rect id="Rectángulo_44216" data-name="Rectángulo 44216" width="48.573" height="21.699" fill="none"/>
    </clipPath>
  </defs>
  <g id="Grupo_141604" data-name="Grupo 141604" clip-path="url(#clip-path)">
    <g id="Grupo_141586" data-name="Grupo 141586" transform="translate(0 0)">
      <g id="Grupo_141585" data-name="Grupo 141585" clip-path="url(#clip-path)">
        <g id="Grupo_141584" data-name="Grupo 141584" transform="translate(43.885 33.83)" opacity="0.58">
          <g id="Grupo_141583" data-name="Grupo 141583">
            <g id="Grupo_141582" data-name="Grupo 141582" clip-path="url(#clip-path-3)">
              <g id="Grupo_141581" data-name="Grupo 141581" transform="translate(0 0)">
                <g id="Grupo_141580" data-name="Grupo 141580" clip-path="url(#clip-path-4)">
                  <rect id="Rectángulo_44207" data-name="Rectángulo 44207" width="1.65" height="1.65" transform="matrix(0.955, -0.295, 0.295, 0.955, -0.441, 0.045)" fill="url(#linear-gradient)"/>
                </g>
              </g>
            </g>
          </g>
        </g>
      </g>
    </g>
    <g id="Grupo_141588" data-name="Grupo 141588" transform="translate(0.513 21.513)">
      <g id="Grupo_141587" data-name="Grupo 141587" clip-path="url(#clip-path-5)">
        <rect id="Rectángulo_44210" data-name="Rectángulo 44210" width="118.759" height="74.76" transform="matrix(0.988, -0.153, 0.153, 0.988, -8.826, 1.364)" fill="#98791b"/>
      </g>
    </g>
    <g id="Grupo_141590" data-name="Grupo 141590" transform="translate(0 8.981)">
      <g id="Grupo_141589" data-name="Grupo 141589" clip-path="url(#clip-path-6)">
        <rect id="Rectángulo_44211" data-name="Rectángulo 44211" width="127.623" height="103.623" transform="translate(-23.823 11.113) rotate(-25.012)" fill="#feca2e"/>
      </g>
    </g>
    <g id="Grupo_141592" data-name="Grupo 141592" transform="translate(54.126 3.685)">
      <g id="Grupo_141591" data-name="Grupo 141591" clip-path="url(#clip-path-7)">
        <path id="Trazado_230366" data-name="Trazado 230366" d="M0,0H62.265V48.969H0Z" transform="translate(-9.705 2.999) rotate(-17.176)" fill="#bddcf6"/>
      </g>
    </g>
    <g id="Grupo_141594" data-name="Grupo 141594" transform="translate(54.126 5.06)">
      <g id="Grupo_141593" data-name="Grupo 141593" clip-path="url(#clip-path-8)">
        <rect id="Rectángulo_44213" data-name="Rectángulo 44213" width="21.979" height="35.329" transform="translate(-9.316 2.88) rotate(-17.176)" fill="#4dd0e1"/>
      </g>
    </g>
    <g id="Grupo_141596" data-name="Grupo 141596" transform="translate(0 0)">
      <g id="Grupo_141595" data-name="Grupo 141595" clip-path="url(#clip-path)">
        <path id="Trazado_199668" data-name="Trazado 199668" d="M40.8,33.5l37.723,9.452,3.749,12.13,7.1.118S98.824,44.706,100.324,32c0,0,1.308-12.337.009-17.967Z" transform="translate(13.324 4.582)" fill="#1d4fb1" fill-rule="evenodd"/>
      </g>
    </g>
    <g id="Grupo_141598" data-name="Grupo 141598" transform="translate(54.126 10.244)">
      <g id="Grupo_141597" data-name="Grupo 141597" clip-path="url(#clip-path-10)">
        <rect id="Rectángulo_44215" data-name="Rectángulo 44215" width="69.422" height="33.534" transform="translate(0 0)" fill="#1f84ff"/>
        <path id="Trazado_199669" data-name="Trazado 199669" d="M113.746,8.917V34.5h1.775A120.646,120.646,0,0,1,96.316,45.649V45.1H41.671v-9.03H34.078a38.246,38.246,0,0,1,7.652-12.4C49.12,15.194,60.8,6.634,75.021,0V8.917Z" transform="translate(-42.998 -10.244)" fill="#1f84ff" fill-rule="evenodd"/>
        <path id="Trazado_199670" data-name="Trazado 199670" d="M113.608,8.856V34.318h1.451a119.461,119.461,0,0,1-19,11.022v-.3H41.533V35.87H34.5A37.783,37.783,0,0,1,42.069,23.6C49.38,15.215,60.934,6.749,75,.187V8.856Z" transform="translate(-42.86 -10.183)" fill="#1f85ff" fill-rule="evenodd"/>
        <path id="Trazado_199671" data-name="Trazado 199671" d="M113.711,8.795V34.129h1.126a118.086,118.086,0,0,1-18.788,10.9v-.049H41.636L35.261,46.2c-2.876-6.166.158-14.378,7.389-22.671S61.306,6.863,75.216.374V8.795Z" transform="translate(-42.963 -10.121)" fill="#1e86ff" fill-rule="evenodd"/>
        <path id="Trazado_199672" data-name="Trazado 199672" d="M113.571,8.734V33.941h.8A116.831,116.831,0,0,1,95.794,44.722a116.861,116.861,0,0,1-20.2,7.311V44.921H41.5l-5.816.959c-2.844-6.1.157-14.218,7.307-22.419s18.45-16.482,32.2-22.9V8.734Z" transform="translate(-42.822 -10.06)" fill="#1e87ff" fill-rule="evenodd"/>
        <path id="Trazado_199673" data-name="Trazado 199673" d="M113.43,8.673v25.08h.478a115.444,115.444,0,0,1-18.371,10.66,115.5,115.5,0,0,1-19.971,7.228V44.86H41.355l-5.256.7c-2.812-6.028.154-14.057,7.224-22.167S61.566,7.094,75.167.748V8.673Z" transform="translate(-42.681 -9.999)" fill="#1e88ff" fill-rule="evenodd"/>
        <path id="Trazado_199674" data-name="Trazado 199674" d="M113.289,8.611V33.565h.153A114.125,114.125,0,0,1,95.28,44.1C81.834,50.376,68.534,53.64,57.9,53.844V44.8H41.214l-4.7.438c-2.78-5.96.153-13.9,7.142-21.916S61.7,7.208,75.142.936V8.611Z" transform="translate(-42.541 -9.938)" fill="#1d89ff" fill-rule="evenodd"/>
        <path id="Trazado_199675" data-name="Trazado 199675" d="M113.149,8.55V27.6h7.086a88.123,88.123,0,0,1-7.258,5.781A112.883,112.883,0,0,1,95.024,43.794c-13.292,6.2-26.439,9.426-36.951,9.629V44.737h-17l-4.136.176c-2.749-5.893.15-13.739,7.06-21.664S61.824,7.323,75.116,1.123V8.55Z" transform="translate(-42.4 -9.877)" fill="#1d8aff" fill-rule="evenodd"/>
        <path id="Trazado_199676" data-name="Trazado 199676" d="M113.008,8.489V27.475h6.678a87.04,87.04,0,0,1-7.174,5.713,111.568,111.568,0,0,1-17.744,10.3C81.63,49.614,68.636,52.8,58.247,53s-18.174-2.587-20.89-8.41C31.923,32.944,48.818,13.567,75.091,1.31V8.489Z" transform="translate(-42.259 -9.816)" fill="#1d8bff" fill-rule="evenodd"/>
        <path id="Trazado_199677" data-name="Trazado 199677" d="M112.867,8.428V27.354h6.269A86.189,86.189,0,0,1,112.046,33,110.205,110.205,0,0,1,94.51,43.176c-12.982,6.057-25.824,9.208-36.091,9.405S40.46,50.023,37.775,44.269C32.405,32.76,49.1,13.61,75.067,1.5V8.428Z" transform="translate(-42.118 -9.755)" fill="#1c8cff" fill-rule="evenodd"/>
        <path id="Trazado_199678" data-name="Trazado 199678" d="M112.726,8.367V27.233h5.861a85.249,85.249,0,0,1-7.005,5.579A108.964,108.964,0,0,1,94.254,42.867c-12.828,5.984-25.516,9.1-35.662,9.292s-17.747-2.526-20.4-8.213C32.888,32.574,49.385,13.652,75.042,1.684V8.367Z" transform="translate(-41.978 -9.694)" fill="#1c8dff" fill-rule="evenodd"/>
        <path id="Trazado_199679" data-name="Trazado 199679" d="M112.586,8.306V27.113h5.451a83.631,83.631,0,0,1-6.921,5.512A107.648,107.648,0,0,1,94,42.557c-12.674,5.912-25.21,8.987-35.232,9.181s-17.533-2.5-20.153-8.114C33.371,32.39,49.67,13.7,75.016,1.871V8.306Z" transform="translate(-41.837 -9.633)" fill="#1c8eff" fill-rule="evenodd"/>
        <path id="Trazado_199680" data-name="Trazado 199680" d="M112.445,8.245V26.992h5.042a83.253,83.253,0,0,1-6.836,5.445,106.4,106.4,0,0,1-16.909,9.811c-12.519,5.839-24.9,8.879-34.8,9.07S41.621,48.852,39.032,43.3C33.854,32.2,49.954,13.738,74.991,2.058V8.245Z" transform="translate(-41.696 -9.572)" fill="#1b8fff" fill-rule="evenodd"/>
        <path id="Trazado_199681" data-name="Trazado 199681" d="M112.3,8.184V26.871h4.634a82.4,82.4,0,0,1-6.752,5.378,104.943,104.943,0,0,1-16.7,9.69C81.121,47.707,68.89,50.708,59.112,50.9s-17.1-2.436-19.662-7.916c-5.113-10.961,10.787-29.2,35.517-40.736V8.184Z" transform="translate(-41.556 -9.51)" fill="#1b90ff" fill-rule="evenodd"/>
        <path id="Trazado_199682" data-name="Trazado 199682" d="M112.164,8.123V26.75h4.225a81.03,81.03,0,0,1-6.669,5.31,103.627,103.627,0,0,1-16.492,9.57C68.809,53.022,44.92,53.483,39.869,42.658S50.523,13.824,74.942,2.432V8.123Z" transform="translate(-41.415 -9.449)" fill="#1b91ff" fill-rule="evenodd"/>
        <path id="Trazado_199683" data-name="Trazado 199683" d="M112.023,8.062v13.19H121.2c-6.267,7.187-16.171,14.445-28.225,20.069-24.11,11.248-47.7,11.7-52.684,1.015S50.807,13.867,74.917,2.619V8.062Z" transform="translate(-41.274 -9.388)" fill="#1a92ff" fill-rule="evenodd"/>
        <path id="Trazado_199684" data-name="Trazado 199684" d="M111.882,8V21.2h8.7c-6.186,7.1-15.962,14.26-27.863,19.812-23.8,11.1-47.086,11.552-52.009,1S51.09,13.909,74.891,2.806V8Z" transform="translate(-41.133 -9.327)" fill="#1a93ff" fill-rule="evenodd"/>
        <path id="Trazado_199685" data-name="Trazado 199685" d="M111.741,7.94V21.148h8.219c-6.106,7-15.755,14.075-27.5,19.555-23.492,10.96-46.474,11.4-51.332.988s10.248-27.738,33.739-38.7V7.94Z" transform="translate(-40.993 -9.266)" fill="#1a94ff" fill-rule="evenodd"/>
        <path id="Trazado_199686" data-name="Trazado 199686" d="M111.6,7.879V21.1h7.742c-6.025,6.911-15.548,13.889-27.14,19.3C69.02,51.209,46.34,51.645,41.546,41.37S51.659,14,74.842,3.18v4.7Z" transform="translate(-40.852 -9.205)" fill="#1995ff" fill-rule="evenodd"/>
        <path id="Trazado_199687" data-name="Trazado 199687" d="M111.46,7.818V21.045h7.264c-5.946,6.818-15.342,13.7-26.778,19.04-22.874,10.671-45.251,11.1-49.982.963s9.978-27.01,32.852-37.681V7.818Z" transform="translate(-40.711 -9.144)" fill="#1996ff" fill-rule="evenodd"/>
        <path id="Trazado_199688" data-name="Trazado 199688" d="M111.319,7.756V20.993h6.787c-5.865,6.727-15.133,13.519-26.416,18.783-22.566,10.526-44.641,10.952-49.306.95S52.227,14.08,74.791,3.554v4.2Z" transform="translate(-40.571 -9.083)" fill="#1997ff" fill-rule="evenodd"/>
        <path id="Trazado_199689" data-name="Trazado 199689" d="M111.178,7.7V20.941h6.309c-5.785,6.634-14.926,13.333-26.055,18.525C69.177,49.849,47.4,50.268,42.8,40.4S52.511,14.124,74.766,3.741V7.7Z" transform="translate(-40.43 -9.022)" fill="#1898ff" fill-rule="evenodd"/>
        <path id="Trazado_199690" data-name="Trazado 199690" d="M111.038,7.634V20.889h5.831c-5.7,6.543-14.719,13.149-25.693,18.268C69.23,49.4,47.76,49.809,43.222,40.08S52.8,14.166,74.742,3.928V7.634Z" transform="translate(-40.289 -8.961)" fill="#1899ff" fill-rule="evenodd"/>
        <path id="Trazado_199691" data-name="Trazado 199691" d="M110.9,7.573V20.837h5.353c-5.623,6.45-14.511,12.963-25.329,18.011-21.637,10.094-42.8,10.5-47.279.91S53.079,14.209,74.717,4.115V7.573Z" transform="translate(-40.148 -8.9)" fill="#189aff" fill-rule="evenodd"/>
        <path id="Trazado_199692" data-name="Trazado 199692" d="M110.756,7.512V20.786h4.875c-5.542,6.357-14.3,12.777-24.967,17.753-21.328,9.949-42.195,10.351-46.606.9S53.363,14.252,74.692,4.3v3.21Z" transform="translate(-40.008 -8.839)" fill="#179bff" fill-rule="evenodd"/>
        <path id="Trazado_199693" data-name="Trazado 199693" d="M110.616,7.451V20.733h4.4c-5.463,6.267-14.1,12.594-24.606,17.5-21.019,9.806-41.582,10.2-45.929.885s9.169-24.82,30.188-34.626V7.451Z" transform="translate(-39.867 -8.778)" fill="#179cff" fill-rule="evenodd"/>
        <path id="Trazado_199694" data-name="Trazado 199694" d="M110.475,7.39V20.681h3.92c-5.382,6.174-13.889,12.409-24.244,17.24-20.71,9.661-40.97,10.051-45.254.872S53.932,14.337,74.642,4.676V7.39Z" transform="translate(-39.726 -8.717)" fill="#169dff" fill-rule="evenodd"/>
        <path id="Trazado_199695" data-name="Trazado 199695" d="M110.334,7.329v13.3h3.442c-5.3,6.082-13.682,12.223-23.882,16.982-20.4,9.517-40.359,9.9-44.579.858s8.9-24.089,29.3-33.607V7.329Z" transform="translate(-39.586 -8.656)" fill="#169eff" fill-rule="evenodd"/>
        <path id="Trazado_199696" data-name="Trazado 199696" d="M110.194,7.268V20.577h2.965c-5.221,5.989-13.474,12.038-23.52,16.725-20.092,9.372-39.749,9.751-43.9.845S54.5,14.423,74.592,5.05V7.268Z" transform="translate(-39.445 -8.595)" fill="#169fff" fill-rule="evenodd"/>
        <path id="Trazado_199697" data-name="Trazado 199697" d="M110.053,7.207V20.525h2.487c-5.142,5.9-13.267,11.853-23.159,16.466-19.783,9.23-39.136,9.6-43.227.833S54.785,14.466,74.566,5.237v1.97Z" transform="translate(-39.304 -8.533)" fill="#15a0ff" fill-rule="evenodd"/>
        <path id="Trazado_199698" data-name="Trazado 199698" d="M109.912,7.146V20.474h2.01c-5.061,5.8-13.06,11.667-22.8,16.209C69.651,45.768,50.6,46.136,46.573,37.5s8.5-22.994,27.969-32.08V7.146Z" transform="translate(-39.163 -8.472)" fill="#15a1ff" fill-rule="evenodd"/>
        <path id="Trazado_199699" data-name="Trazado 199699" d="M109.771,7.085V20.422H111.3C106.322,26.135,98.451,31.9,88.869,36.374c-19.165,8.941-37.914,9.3-41.876.808s8.36-22.63,27.525-31.57V7.085Z" transform="translate(-39.023 -8.411)" fill="#15a2ff" fill-rule="evenodd"/>
        <path id="Trazado_199700" data-name="Trazado 199700" d="M109.631,7.024V20.37h1.055c-4.9,5.621-12.645,11.3-22.072,15.7-18.856,8.8-37.3,9.152-41.2.793S55.636,14.594,74.492,5.8V7.024Z" transform="translate(-38.882 -8.35)" fill="#14a3ff" fill-rule="evenodd"/>
        <path id="Trazado_199701" data-name="Trazado 199701" d="M109.49,6.963V20.318h.577c-4.821,5.529-12.438,11.111-21.712,15.437-18.546,8.653-36.69,9-40.525.781s8.089-21.9,26.636-30.552v.978Z" transform="translate(-38.741 -8.289)" fill="#14a4ff" fill-rule="evenodd"/>
        <path id="Trazado_199702" data-name="Trazado 199702" d="M114.292,5.593c3.771,8.084-7.955,21.534-26.193,30.042S52.021,44.487,48.25,36.4,56.2,14.87,74.442,6.361v.73h34.907Z" transform="translate(-38.6 -8.417)" fill="#14a5ff" fill-rule="evenodd"/>
        <path id="Trazado_199703" data-name="Trazado 199703" d="M113.591,5.79c3.708,7.947-7.821,21.169-25.748,29.533s-35.468,8.7-39.176.756,7.821-21.17,25.75-29.534v.482h34.791Z" transform="translate(-38.46 -8.353)" fill="#13a6ff" fill-rule="evenodd"/>
        <path id="Trazado_199704" data-name="Trazado 199704" d="M112.892,5.986c3.643,7.811-7.687,20.806-25.307,29.026s-34.854,8.551-38.5.74,7.686-20.8,25.3-29.024v.233h34.676Z" transform="translate(-38.319 -8.289)" fill="#13a7ff" fill-rule="evenodd"/>
        <path id="Trazado_199705" data-name="Trazado 199705" d="M112.191,7.549c3.58,7.673-7.551,20.439-24.861,28.515s-34.245,8.4-37.824.728S57.057,16.353,74.368,8.277s34.245-8.4,37.824-.728" transform="translate(-38.178 -9.59)" fill="#13a8ff" fill-rule="evenodd"/>
        <path id="Trazado_199706" data-name="Trazado 199706" d="M111.491,7.721c3.515,7.536-7.417,20.075-24.416,28.006s-33.633,8.251-37.149.716S57.341,16.369,74.342,8.438s33.633-8.252,37.149-.716" transform="translate(-38.037 -9.501)" fill="#12a9ff" fill-rule="evenodd"/>
        <path id="Trazado_199707" data-name="Trazado 199707" d="M110.79,7.894c3.452,7.4-7.281,19.71-23.973,27.5s-33.02,8.1-36.472.7,7.281-19.71,23.972-27.5,33.022-8.1,36.473-.7" transform="translate(-37.897 -9.413)" fill="#12aaff" fill-rule="evenodd"/>
        <path id="Trazado_199708" data-name="Trazado 199708" d="M110.09,8.067c3.388,7.262-7.146,19.345-23.529,26.987s-32.41,7.951-35.8.69S57.91,16.4,74.292,8.756s32.41-7.951,35.8-.69" transform="translate(-37.756 -9.324)" fill="#12abff" fill-rule="evenodd"/>
        <path id="Trazado_199709" data-name="Trazado 199709" d="M109.39,8.239c3.324,7.125-7.012,18.979-23.085,26.478s-31.8,7.8-35.123.678,7.012-18.98,23.086-26.479,31.8-7.8,35.122-.677" transform="translate(-37.615 -9.235)" fill="#11acff" fill-rule="evenodd"/>
        <path id="Trazado_199710" data-name="Trazado 199710" d="M108.689,8.411c3.261,6.99-6.877,18.615-22.641,25.968s-31.186,7.652-34.446.665S58.478,16.43,74.243,9.074s31.186-7.65,34.446-.663" transform="translate(-37.475 -9.147)" fill="#11adff" fill-rule="evenodd"/>
        <path id="Trazado_199711" data-name="Trazado 199711" d="M107.988,8.583c3.2,6.85-6.742,18.249-22.2,25.46s-30.576,7.5-33.771.65,6.742-18.249,22.2-25.459,30.576-7.5,33.771-.651" transform="translate(-37.334 -9.058)" fill="#11aeff" fill-rule="evenodd"/>
        <path id="Trazado_199712" data-name="Trazado 199712" d="M107.288,8.756c3.132,6.714-6.608,17.884-21.753,24.951s-29.964,7.352-33.1.638S59.045,16.459,74.192,9.394s29.964-7.352,33.1-.638" transform="translate(-37.193 -8.97)" fill="#10afff" fill-rule="evenodd"/>
        <path id="Trazado_199713" data-name="Trazado 199713" d="M106.587,8.929c3.068,6.577-6.472,17.52-21.31,24.442s-29.352,7.2-32.419.625S59.33,16.475,74.167,9.553s29.352-7.2,32.421-.625" transform="translate(-37.052 -8.881)" fill="#10b0ff" fill-rule="evenodd"/>
        <path id="Trazado_199714" data-name="Trazado 199714" d="M105.887,9.1c3,6.439-6.337,17.155-20.865,23.932s-28.741,7.052-31.746.612S59.614,16.49,74.143,9.713s28.74-7.052,31.744-.612" transform="translate(-36.912 -8.792)" fill="#10b1ff" fill-rule="evenodd"/>
        <path id="Trazado_199715" data-name="Trazado 199715" d="M105.188,9.274c2.94,6.3-6.2,16.79-20.422,23.423s-28.128,6.9-31.069.6,6.2-16.79,20.421-23.424,28.129-6.9,31.07-.6" transform="translate(-36.771 -8.703)" fill="#0fb3ff" fill-rule="evenodd"/>
        <path id="Trazado_199716" data-name="Trazado 199716" d="M104.487,9.445c2.876,6.166-6.068,16.425-19.978,22.913s-27.518,6.752-30.394.586S60.183,16.52,74.093,10.032s27.518-6.752,30.394-.586" transform="translate(-36.63 -8.615)" fill="#0fb4ff" fill-rule="evenodd"/>
        <path id="Trazado_199717" data-name="Trazado 199717" d="M103.786,9.618c2.812,6.029-5.932,16.059-19.533,22.4s-26.906,6.6-29.719.573,5.932-16.059,19.533-22.4,26.906-6.6,29.719-.573" transform="translate(-36.489 -8.526)" fill="#0fb5ff" fill-rule="evenodd"/>
        <path id="Trazado_199718" data-name="Trazado 199718" d="M103.086,9.791c2.749,5.891-5.8,15.694-19.09,21.9s-26.293,6.451-29.042.56,5.8-15.7,19.089-21.9,26.295-6.451,29.043-.56" transform="translate(-36.349 -8.438)" fill="#0eb6ff" fill-rule="evenodd"/>
        <path id="Trazado_199719" data-name="Trazado 199719" d="M102.386,9.963c2.685,5.755-5.663,15.33-18.646,21.387s-25.683,6.3-28.368.547,5.664-15.33,18.646-21.387,25.683-6.3,28.368-.547" transform="translate(-36.208 -8.349)" fill="#0eb7ff" fill-rule="evenodd"/>
        <path id="Trazado_199720" data-name="Trazado 199720" d="M101.685,10.136c2.621,5.618-5.528,14.965-18.2,20.877s-25.072,6.151-27.693.533,5.529-14.965,18.2-20.877,25.072-6.151,27.693-.533" transform="translate(-36.068 -8.26)" fill="#0eb8ff" fill-rule="evenodd"/>
        <path id="Trazado_199721" data-name="Trazado 199721" d="M100.985,10.309c2.558,5.481-5.394,14.6-17.757,20.368s-24.46,6-27.018.521S61.6,16.6,73.968,10.83s24.46-6,27.016-.521" transform="translate(-35.927 -8.171)" fill="#0db9ff" fill-rule="evenodd"/>
        <path id="Trazado_199722" data-name="Trazado 199722" d="M100.284,10.48c2.493,5.343-5.258,14.235-17.314,19.858s-23.849,5.851-26.341.508,5.258-14.235,17.314-19.858,23.849-5.851,26.341-.508" transform="translate(-35.786 -8.083)" fill="#0dbaff" fill-rule="evenodd"/>
        <path id="Trazado_199723" data-name="Trazado 199723" d="M99.584,10.653c2.429,5.207-5.124,13.869-16.87,19.349s-23.237,5.7-25.666.495,5.123-13.869,16.87-19.349,23.237-5.7,25.666-.495" transform="translate(-35.645 -7.994)" fill="#0dbbff" fill-rule="evenodd"/>
        <path id="Trazado_199724" data-name="Trazado 199724" d="M98.883,10.825c2.365,5.07-4.989,13.5-16.425,18.84s-22.626,5.552-24.991.483,4.989-13.506,16.425-18.841,22.626-5.552,24.991-.482" transform="translate(-35.505 -7.906)" fill="#0cbcff" fill-rule="evenodd"/>
        <path id="Trazado_199725" data-name="Trazado 199725" d="M98.183,11c2.3,4.932-4.854,13.139-15.982,18.332s-22.014,5.4-24.316.468S62.74,16.658,73.867,11.466,95.881,6.066,98.183,11" transform="translate(-35.364 -7.817)" fill="#0cbdff" fill-rule="evenodd"/>
        <path id="Trazado_199726" data-name="Trazado 199726" d="M97.482,11.171c2.237,4.8-4.72,12.775-15.538,17.822s-21.4,5.25-23.64.455,4.72-12.775,15.538-17.822,21.4-5.25,23.64-.455" transform="translate(-35.223 -7.728)" fill="#0cbeff" fill-rule="evenodd"/>
        <path id="Trazado_199727" data-name="Trazado 199727" d="M96.783,11.343C98.956,16,92.2,23.753,81.689,28.656s-20.792,5.1-22.965.443,4.585-12.41,15.095-17.313,20.791-5.1,22.964-.443" transform="translate(-35.082 -7.64)" fill="#0bbfff" fill-rule="evenodd"/>
        <path id="Trazado_199728" data-name="Trazado 199728" d="M96.082,11.515c2.109,4.521-4.449,12.045-14.65,16.8s-20.179,4.951-22.289.43,4.449-12.045,14.65-16.8,20.179-4.952,22.289-.43" transform="translate(-34.942 -7.551)" fill="#0bc0ff" fill-rule="evenodd"/>
        <path id="Trazado_199729" data-name="Trazado 199729" d="M95.382,11.687c2.046,4.384-4.315,11.68-14.206,16.294s-19.568,4.8-21.613.417S63.876,16.719,73.768,12.1s19.568-4.8,21.613-.417" transform="translate(-34.801 -7.462)" fill="#0bc1ff" fill-rule="evenodd"/>
        <path id="Trazado_199730" data-name="Trazado 199730" d="M94.681,11.86c1.982,4.248-4.18,11.315-13.762,15.785s-18.958,4.652-20.938.4,4.18-11.315,13.762-15.786,18.956-4.651,20.938-.4" transform="translate(-34.66 -7.374)" fill="#0ac2ff" fill-rule="evenodd"/>
        <path id="Trazado_199731" data-name="Trazado 199731" d="M93.981,12.033c1.918,4.111-4.045,10.949-13.319,15.277s-18.345,4.5-20.263.39S64.445,16.75,73.718,12.423s18.345-4.5,20.263-.39" transform="translate(-34.52 -7.285)" fill="#0ac3ff" fill-rule="evenodd"/>
        <path id="Trazado_199732" data-name="Trazado 199732" d="M93.28,12.205c1.853,3.973-3.911,10.585-12.874,14.767s-17.733,4.35-19.588.377,3.911-10.585,12.874-14.766,17.735-4.351,19.588-.378" transform="translate(-34.379 -7.196)" fill="#0ac4ff" fill-rule="evenodd"/>
        <path id="Trazado_199733" data-name="Trazado 199733" d="M92.58,12.378c1.79,3.836-3.775,10.22-12.43,14.258s-17.123,4.2-18.913.365,3.775-10.221,12.43-14.258,17.123-4.2,18.913-.365" transform="translate(-34.238 -7.107)" fill="#09c5ff" fill-rule="evenodd"/>
        <path id="Trazado_199734" data-name="Trazado 199734" d="M91.879,12.549c1.726,3.7-3.641,9.855-11.987,13.748s-16.51,4.051-18.236.352S65.3,16.794,73.643,12.9s16.51-4.051,18.236-.352" transform="translate(-34.097 -7.019)" fill="#09c6ff" fill-rule="evenodd"/>
        <path id="Trazado_199735" data-name="Trazado 199735" d="M91.179,12.722c1.662,3.563-3.506,9.49-11.542,13.239s-15.9,3.9-17.561.338,3.5-9.49,11.542-13.239,15.9-3.9,17.561-.338" transform="translate(-33.957 -6.93)" fill="#09c7ff" fill-rule="evenodd"/>
        <path id="Trazado_199736" data-name="Trazado 199736" d="M90.478,12.895c1.6,3.425-3.371,9.125-11.1,12.73s-15.287,3.751-16.886.326,3.372-9.125,11.1-12.731,15.287-3.75,16.886-.325" transform="translate(-33.816 -6.842)" fill="#08c8ff" fill-rule="evenodd"/>
        <path id="Trazado_199737" data-name="Trazado 199737" d="M89.778,13.067c1.533,3.289-3.237,8.761-10.655,12.22s-14.676,3.6-16.21.313,3.237-8.761,10.655-12.221,14.677-3.6,16.21-.312" transform="translate(-33.676 -6.753)" fill="#08c9ff" fill-rule="evenodd"/>
        <path id="Trazado_199738" data-name="Trazado 199738" d="M89.079,13.24c1.468,3.152-3.1,8.394-10.212,11.712s-14.065,3.45-15.535.3,3.1-8.394,10.21-11.711,14.065-3.452,15.537-.3" transform="translate(-33.535 -6.664)" fill="#07caff" fill-rule="evenodd"/>
        <path id="Trazado_199739" data-name="Trazado 199739" d="M88.378,13.413c1.406,3.014-2.966,8.03-9.767,11.2s-13.453,3.3-14.859.287,2.966-8.031,9.766-11.2,13.454-3.3,14.86-.287" transform="translate(-33.394 -6.575)" fill="#07cbff" fill-rule="evenodd"/>
        <path id="Trazado_199740" data-name="Trazado 199740" d="M87.677,13.584c1.342,2.877-2.832,7.665-9.323,10.693s-12.841,3.151-14.183.273S67,16.886,73.494,13.857s12.841-3.151,14.183-.273" transform="translate(-33.253 -6.487)" fill="#07ccff" fill-rule="evenodd"/>
        <path id="Trazado_199741" data-name="Trazado 199741" d="M86.977,13.757c1.279,2.741-2.7,7.3-8.879,10.184s-12.231,3-13.508.26,2.7-7.3,8.879-10.184,12.229-3,13.508-.26" transform="translate(-33.112 -6.398)" fill="#06cdff" fill-rule="evenodd"/>
        <path id="Trazado_199742" data-name="Trazado 199742" d="M86.276,13.929c1.214,2.6-2.562,6.935-8.436,9.675s-11.618,2.851-12.833.248,2.563-6.935,8.435-9.676,11.618-2.849,12.833-.247" transform="translate(-32.972 -6.31)" fill="#06ceff" fill-rule="evenodd"/>
        <path id="Trazado_199743" data-name="Trazado 199743" d="M85.576,14.1c1.15,2.466-2.428,6.57-7.991,9.165s-11.006,2.7-12.158.235,2.428-6.57,7.991-9.165,11.008-2.7,12.158-.235" transform="translate(-32.831 -6.221)" fill="#06cfff" fill-rule="evenodd"/>
        <path id="Trazado_199744" data-name="Trazado 199744" d="M84.875,14.275c1.086,2.329-2.292,6.206-7.547,8.656s-10.4,2.551-11.483.222,2.292-6.2,7.547-8.656,10.4-2.551,11.483-.222" transform="translate(-32.69 -6.132)" fill="#05d0ff" fill-rule="evenodd"/>
        <path id="Trazado_199745" data-name="Trazado 199745" d="M84.175,14.447c1.023,2.193-2.157,5.839-7.1,8.148s-9.783,2.4-10.806.208,2.157-5.841,7.1-8.148,9.785-2.4,10.807-.208" transform="translate(-32.55 -6.044)" fill="#05d1ff" fill-rule="evenodd"/>
        <path id="Trazado_199746" data-name="Trazado 199746" d="M83.474,14.619c.959,2.055-2.023,5.475-6.659,7.638s-9.173,2.25-10.131.2,2.022-5.475,6.659-7.638,9.172-2.25,10.131-.2" transform="translate(-32.409 -5.955)" fill="#05d2ff" fill-rule="evenodd"/>
        <path id="Trazado_199747" data-name="Trazado 199747" d="M82.774,14.791c.9,1.918-1.888,5.11-6.215,7.129S68,24.02,67.1,22.1s1.889-5.11,6.216-7.129,8.56-2.1,9.456-.182" transform="translate(-32.268 -5.866)" fill="#04d3ff" fill-rule="evenodd"/>
        <path id="Trazado_199748" data-name="Trazado 199748" d="M82.073,14.964c.832,1.782-1.752,4.745-5.772,6.619s-7.949,1.95-8.78.17,1.754-4.745,5.772-6.619,7.95-1.951,8.78-.17" transform="translate(-32.128 -5.778)" fill="#04d4ff" fill-rule="evenodd"/>
        <path id="Trazado_199749" data-name="Trazado 199749" d="M81.374,15.137c.765,1.644-1.618,4.38-5.329,6.11s-7.338,1.8-8.105.157,1.618-4.38,5.329-6.11,7.337-1.8,8.105-.157" transform="translate(-31.987 -5.689)" fill="#04d5ff" fill-rule="evenodd"/>
        <path id="Trazado_199750" data-name="Trazado 199750" d="M80.673,15.309c.7,1.507-1.483,4.015-4.883,5.6s-6.727,1.652-7.43.143,1.483-4.014,4.883-5.6,6.727-1.65,7.43-.143" transform="translate(-31.846 -5.6)" fill="#03d6ff" fill-rule="evenodd"/>
        <path id="Trazado_199751" data-name="Trazado 199751" d="M79.973,15.482c.639,1.37-1.348,3.649-4.44,5.093s-6.114,1.5-6.753.13,1.348-3.651,4.439-5.093,6.115-1.5,6.755-.13" transform="translate(-31.705 -5.512)" fill="#03d7ff" fill-rule="evenodd"/>
        <path id="Trazado_199752" data-name="Trazado 199752" d="M79.272,15.654c.576,1.234-1.214,3.285-4,4.583s-5.5,1.35-6.078.117,1.212-3.285,4-4.583,5.5-1.35,6.078-.117" transform="translate(-31.564 -5.423)" fill="#03d8ff" fill-rule="evenodd"/>
        <path id="Trazado_199753" data-name="Trazado 199753" d="M78.572,15.826c.511,1.1-1.078,2.92-3.551,4.074s-4.892,1.2-5.4.1,1.08-2.92,3.552-4.072,4.892-1.2,5.4-.1" transform="translate(-31.424 -5.334)" fill="#02d9ff" fill-rule="evenodd"/>
        <path id="Trazado_199754" data-name="Trazado 199754" d="M77.871,16c.447.959-.944,2.555-3.108,3.564s-4.279,1.051-4.728.092.945-2.555,3.108-3.564S77.424,15.04,77.871,16" transform="translate(-31.283 -5.246)" fill="#02daff" fill-rule="evenodd"/>
        <path id="Trazado_199755" data-name="Trazado 199755" d="M77.171,16.171c.383.822-.809,2.19-2.664,3.055s-3.669.9-4.053.078.809-2.19,2.664-3.055,3.669-.9,4.053-.078" transform="translate(-31.142 -5.157)" fill="#02dbff" fill-rule="evenodd"/>
        <path id="Trazado_199756" data-name="Trazado 199756" d="M76.47,16.344c.32.684-.674,1.825-2.219,2.546s-3.058.751-3.377.065.674-1.824,2.219-2.546,3.058-.749,3.377-.065" transform="translate(-31.002 -5.068)" fill="#01dcff" fill-rule="evenodd"/>
        <path id="Trazado_199757" data-name="Trazado 199757" d="M75.77,16.515c.256.549-.539,1.462-1.776,2.038s-2.445.6-2.7.052.539-1.459,1.775-2.036,2.446-.6,2.7-.053" transform="translate(-30.861 -4.98)" fill="#01ddff" fill-rule="evenodd"/>
        <path id="Trazado_199758" data-name="Trazado 199758" d="M75.069,16.688c.192.411-.4,1.094-1.332,1.527s-1.835.451-2.026.04.4-1.1,1.332-1.528,1.833-.45,2.026-.038" transform="translate(-30.72 -4.891)" fill="#01deff" fill-rule="evenodd"/>
        <path id="Trazado_199759" data-name="Trazado 199759" d="M74.369,16.861c.127.275-.269.73-.887,1.019s-1.223.3-1.352.025.271-.73.889-1.017,1.223-.3,1.35-.027" transform="translate(-30.58 -4.803)" fill="#00dfff" fill-rule="evenodd"/>
        <path id="Trazado_199760" data-name="Trazado 199760" d="M73.67,17.033c.062.137-.137.365-.446.509s-.612.15-.674.013.134-.365.444-.509.61-.15.675-.013" transform="translate(-30.439 -4.714)" fill="#00e0ff" fill-rule="evenodd"/>
      </g>
    </g>
    <g id="Grupo_141603" data-name="Grupo 141603" transform="translate(0 0)">
      <g id="Grupo_141602" data-name="Grupo 141602" clip-path="url(#clip-path)">
        <g id="Grupo_141601" data-name="Grupo 141601" transform="translate(54.126 38.082)" opacity="0.3" style="mix-blend-mode: multiply;isolation: isolate">
          <g id="Grupo_141600" data-name="Grupo 141600">
            <g id="Grupo_141599" data-name="Grupo 141599" clip-path="url(#clip-path-12)">
              <path id="Trazado_199762" data-name="Trazado 199762" d="M89.165,34.4l.21,16-7.1-.117-3.749-12.13L40.8,28.708Z" transform="translate(-40.802 -28.707)" fill="#792a7c" fill-rule="evenodd"/>
            </g>
          </g>
        </g>
        <path id="Trazado_199763" data-name="Trazado 199763" d="M20.3,55.429s14.186,2.632,33.949-3.476c20.7-6.4,30.975-16.122,30.975-16.122s-12.1,8.654-31.776,14.737S20.3,55.429,20.3,55.429" transform="translate(6.628 11.701)" fill="#ffd13e" fill-rule="evenodd"/>
      </g>
    </g>
  </g>
</svg>
